<svg xmlns="http://www.w3.org/2000/svg" xmlns:xlink="http://www.w3.org/1999/xlink" version="1.2" width="210.00mm" height="297.00mm" viewBox="0.0000 -0.0000 99.5846 140.8411">
<style type="text/css">
<![CDATA[
tspan { white-space: pre; }
]]>
</style>
<g transform="translate(4.7421, 3.8579)">
<text font-family="serif" font-size="2.2002" text-anchor="start" fill="currentColor">
<tspan>2</tspan>
</text>
</g>
<g transform="translate(4.7421, 8.2934)">
<line stroke-linejoin="round" stroke-linecap="round" stroke-width="0.0890" stroke="currentColor" x1="0.0445" y1="0" x2="26.0324" y2="0"/>
</g>
<g transform="translate(30.6499, 8.2934)">
<rect x="0.0000" y="-1.0000" width="0.1692" height="2.0000" ry="0.0000" fill="currentColor"/>
</g>
<a style="color:inherit;" xlink:href="textedit:///Users/marc.mouries/projects/Sheet-Music/Practice/MyViolin-Practice/rythm-patterns.ly:34:8:9">
<g transform="translate(7.9322, 5.0979)">
<polygon stroke-linejoin="round" stroke-linecap="round" stroke-width="0.0667" fill="currentColor" stroke="currentColor" points="7.5998 -0.2067 7.5998 0.2067 0.0333 0.2067 0.0333 -0.2067"/>
</g>
<g transform="translate(7.9322, 5.9024)">
<polygon stroke-linejoin="round" stroke-linecap="round" stroke-width="0.0667" fill="currentColor" stroke="currentColor" points="5.0940 -0.2067 5.0940 0.2067 0.0333 0.2067 0.0333 -0.2067"/>
</g>
</a>
<g transform="translate(2.9781, 7.2250)">
<text font-family="serif" font-size="1.7463" text-anchor="start" fill="currentColor">
<tspan>17</tspan>
</text>
</g>
<a style="color:inherit;" xlink:href="textedit:///Users/marc.mouries/projects/Sheet-Music/Practice/MyViolin-Practice/rythm-patterns.ly:34:4:5">
<g transform="translate(6.7421, 8.2934)">
<path transform="scale(0.0040, -0.0040)" d="M222 135c64 0 104 -35 104 -86c0 -89 -114 -184 -221 -184c-64 0 -105 35 -105 86c0 89 115 184 222 184z" fill="currentColor"/>
</g>
</a>
<g transform="translate(7.9901, 8.2934)">
<rect x="-0.0579" y="-3.1955" width="0.1158" height="2.9987" ry="0.0333" fill="currentColor"/>
</g>
<a style="color:inherit;" xlink:href="textedit:///Users/marc.mouries/projects/Sheet-Music/Practice/MyViolin-Practice/rythm-patterns.ly:34:10:11">
<g transform="translate(9.2479, 8.2934)">
<path transform="scale(0.0040, -0.0040)" d="M222 135c64 0 104 -35 104 -86c0 -89 -114 -184 -221 -184c-64 0 -105 35 -105 86c0 89 115 184 222 184z" fill="currentColor"/>
</g>
</a>
<g transform="translate(10.4959, 8.2934)">
<rect x="-0.0579" y="-3.1955" width="0.1158" height="2.9987" ry="0.0333" fill="currentColor"/>
</g>
<a style="color:inherit;" xlink:href="textedit:///Users/marc.mouries/projects/Sheet-Music/Practice/MyViolin-Practice/rythm-patterns.ly:34:14:15">
<g transform="translate(11.7537, 8.2934)">
<path transform="scale(0.0040, -0.0040)" d="M222 135c64 0 104 -35 104 -86c0 -89 -114 -184 -221 -184c-64 0 -105 35 -105 86c0 89 115 184 222 184z" fill="currentColor"/>
</g>
</a>
<g transform="translate(13.0017, 8.2934)">
<rect x="-0.0579" y="-3.1955" width="0.1158" height="2.9987" ry="0.0333" fill="currentColor"/>
</g>
<a style="color:inherit;" xlink:href="textedit:///Users/marc.mouries/projects/Sheet-Music/Practice/MyViolin-Practice/rythm-patterns.ly:34:18:19">
<g transform="translate(14.2595, 8.2934)">
<path transform="scale(0.0040, -0.0040)" d="M222 135c64 0 104 -35 104 -86c0 -89 -114 -184 -221 -184c-64 0 -105 35 -105 86c0 89 115 184 222 184z" fill="currentColor"/>
</g>
</a>
<g transform="translate(16.0221, 7.7934)">
<path transform="scale(0.0040, -0.0040)" d="M0 0c0 32 25 57 57 57s57 -25 57 -57s-25 -57 -57 -57s-57 25 -57 57z" fill="currentColor"/>
</g>
<g transform="translate(15.5075, 8.2934)">
<rect x="-0.0579" y="-3.1955" width="0.1158" height="2.9987" ry="0.0333" fill="currentColor"/>
</g>
<a style="color:inherit;" xlink:href="textedit:///Users/marc.mouries/projects/Sheet-Music/Practice/MyViolin-Practice/rythm-patterns.ly:34:27:28">
<g transform="translate(19.8574, 5.0979)">
<polygon stroke-linejoin="round" stroke-linecap="round" stroke-width="0.0667" fill="currentColor" stroke="currentColor" points="7.5998 -0.2067 7.5998 0.2067 0.0333 0.2067 0.0333 -0.2067"/>
</g>
<g transform="translate(19.8574, 5.9024)">
<polygon stroke-linejoin="round" stroke-linecap="round" stroke-width="0.0667" fill="currentColor" stroke="currentColor" points="5.0940 -0.2067 5.0940 0.2067 0.0333 0.2067 0.0333 -0.2067"/>
</g>
</a>
<a style="color:inherit;" xlink:href="textedit:///Users/marc.mouries/projects/Sheet-Music/Practice/MyViolin-Practice/rythm-patterns.ly:34:23:24">
<g transform="translate(18.6673, 8.2934)">
<path transform="scale(0.0040, -0.0040)" d="M222 135c64 0 104 -35 104 -86c0 -89 -114 -184 -221 -184c-64 0 -105 35 -105 86c0 89 115 184 222 184z" fill="currentColor"/>
</g>
</a>
<g transform="translate(19.9152, 8.2934)">
<rect x="-0.0579" y="-3.1955" width="0.1158" height="2.9987" ry="0.0333" fill="currentColor"/>
</g>
<a style="color:inherit;" xlink:href="textedit:///Users/marc.mouries/projects/Sheet-Music/Practice/MyViolin-Practice/rythm-patterns.ly:34:29:30">
<g transform="translate(21.1731, 8.2934)">
<path transform="scale(0.0040, -0.0040)" d="M222 135c64 0 104 -35 104 -86c0 -89 -114 -184 -221 -184c-64 0 -105 35 -105 86c0 89 115 184 222 184z" fill="currentColor"/>
</g>
</a>
<g transform="translate(22.4210, 8.2934)">
<rect x="-0.0579" y="-3.1955" width="0.1158" height="2.9987" ry="0.0333" fill="currentColor"/>
</g>
<a style="color:inherit;" xlink:href="textedit:///Users/marc.mouries/projects/Sheet-Music/Practice/MyViolin-Practice/rythm-patterns.ly:34:33:34">
<g transform="translate(23.6789, 8.2934)">
<path transform="scale(0.0040, -0.0040)" d="M222 135c64 0 104 -35 104 -86c0 -89 -114 -184 -221 -184c-64 0 -105 35 -105 86c0 89 115 184 222 184z" fill="currentColor"/>
</g>
</a>
<g transform="translate(24.9268, 8.2934)">
<rect x="-0.0579" y="-3.1955" width="0.1158" height="2.9987" ry="0.0333" fill="currentColor"/>
</g>
<a style="color:inherit;" xlink:href="textedit:///Users/marc.mouries/projects/Sheet-Music/Practice/MyViolin-Practice/rythm-patterns.ly:34:37:38">
<g transform="translate(26.1847, 8.2934)">
<path transform="scale(0.0040, -0.0040)" d="M222 135c64 0 104 -35 104 -86c0 -89 -114 -184 -221 -184c-64 0 -105 35 -105 86c0 89 115 184 222 184z" fill="currentColor"/>
</g>
</a>
<g transform="translate(27.9473, 7.7934)">
<path transform="scale(0.0040, -0.0040)" d="M0 0c0 32 25 57 57 57s57 -25 57 -57s-25 -57 -57 -57s-57 25 -57 57z" fill="currentColor"/>
</g>
<g transform="translate(27.4327, 8.2934)">
<rect x="-0.0579" y="-3.1955" width="0.1158" height="2.9987" ry="0.0333" fill="currentColor"/>
</g>
<g transform="translate(24.5120, 137.5210)">
<a xlink:href="https://lilypond.org/">
<rect x="0.0000" y="-0.4748" width="50.5605" height="2.0025" fill="none" stroke="none" stroke-width="0.0"/>
</a>
</g>
<g transform="translate(24.5120, 137.5210)">
<text font-family="serif" font-size="2.2002" text-anchor="start" fill="currentColor">
<tspan>Music engraving by LilyPond 2.24.4—www.lilypond.org</tspan>
</text>
</g>
</svg>
