<svg xmlns="http://www.w3.org/2000/svg" xmlns:xlink="http://www.w3.org/1999/xlink" version="1.2" width="105.00mm" height="148.00mm" viewBox="0.0000 -0.0000 59.7508 84.2202">
<style type="text/css">
<![CDATA[
tspan { white-space: pre; }
]]>
</style>
<g transform="translate(2.8453, 2.2946)">
<text font-family="Copperplate" font-size="2.1740" text-anchor="start" fill="currentColor">
<tspan>2</tspan>
</text>
</g>
<g transform="translate(56.7155, 8.5071)">
<rect x="0.0000" y="-2.0000" width="0.1900" height="4.0000" ry="0.0000" fill="currentColor"/>
</g>
<g transform="translate(2.8453, 11.5071)">
<rect x="30.3461" y="-0.1000" width="1.9332" height="0.2000" ry="0.1000" fill="currentColor"/>
</g>
<g transform="translate(2.8453, 10.5071)">
<line stroke-linejoin="round" stroke-linecap="round" stroke-width="0.1000" stroke="currentColor" x1="0.0500" y1="0" x2="54.0102" y2="0"/>
</g>
<g transform="translate(2.8453, 9.5071)">
<line stroke-linejoin="round" stroke-linecap="round" stroke-width="0.1000" stroke="currentColor" x1="0.0500" y1="0" x2="54.0102" y2="0"/>
</g>
<g transform="translate(2.8453, 8.5071)">
<line stroke-linejoin="round" stroke-linecap="round" stroke-width="0.1000" stroke="currentColor" x1="0.0500" y1="0" x2="54.0102" y2="0"/>
</g>
<g transform="translate(2.8453, 7.5071)">
<line stroke-linejoin="round" stroke-linecap="round" stroke-width="0.1000" stroke="currentColor" x1="0.0500" y1="0" x2="54.0102" y2="0"/>
</g>
<g transform="translate(2.8453, 6.5071)">
<line stroke-linejoin="round" stroke-linecap="round" stroke-width="0.1000" stroke="currentColor" x1="0.0500" y1="0" x2="54.0102" y2="0"/>
</g>
<g transform="translate(32.3045, 8.5071)">
<rect x="0.0000" y="-2.0000" width="0.1900" height="4.0000" ry="0.0000" fill="currentColor"/>
</g>
<g transform="translate(46.6484, 5.6971)">
<polygon stroke-linejoin="round" stroke-linecap="round" stroke-width="0.0800" fill="currentColor" stroke="currentColor" points="8.2595 0.8000 8.2595 1.2000 0.0400 0.2000 0.0400 -0.2000"/>
</g>
<g transform="translate(3.6453, 9.5071)">
<path transform="scale(0.0040, -0.0040)" d="M266 -635h-6c-108 0 -195 88 -195 197c0 58 53 103 112 103c54 0 95 -47 95 -103c0 -52 -43 -95 -95 -95c-11 0 -21 2 -31 6c26 -39 68 -65 117 -65h4zM461 -203c68 24 113 90 113 164c0 90 -66 179 -173 190c19 -89 48 -242 60 -354zM74 28c0 -145 141 -247 264 -247
c1 0 47 0 82 6c-7 64 -29 203 -63 364c-79 -8 -124 -61 -124 -119c0 -44 25 -91 81 -123c5 -5 7 -10 7 -15c0 -11 -10 -22 -22 -22c-15 0 -126 62 -126 187c0 88 58 174 160 197c-14 58 -29 117 -46 175c-107 -121 -213 -243 -213 -403zM250 553c-29 96 -52 170 -52 346
c0 115 55 224 149 292c6 5 14 5 20 0c68 -80 133 -245 133 -358c0 -143 -86 -255 -180 -364c21 -68 39 -138 56 -207c2 0 7 1 13 1c155 0 256 -128 256 -261c0 -113 -74 -212 -180 -246c3 -35 5 -70 5 -105c0 -19 -1 -39 -2 -58c-7 -119 -88 -225 -202 -228l1 43
c93 2 153 92 159 191c1 18 2 37 2 55c0 31 -1 61 -4 92c-5 -1 -44 -8 -89 -8c-193 0 -333 180 -333 374c0 177 131 306 248 441zM428 916c0 34 1 66 -20 129c-99 -48 -162 -149 -162 -259c0 -52 12 -115 36 -194c80 97 146 198 146 324z" fill="currentColor"/>
</g>
<g transform="translate(0.7284, 5.4571)">
<text font-family="Copperplate" font-size="1.7255" text-anchor="start" fill="currentColor">
<tspan>11</tspan>
</text>
</g>
<g transform="translate(34.6724, 7.5071)">
<polygon stroke-linejoin="round" stroke-linecap="round" stroke-width="0.0800" fill="currentColor" stroke="currentColor" points="9.2595 -2.2000 9.2595 -1.8000 0.0400 0.2000 0.0400 -0.2000"/>
</g>
<a style="color:inherit;" xlink:href="textedit:///Users/marc.mouries/projects/Sheet-Music/Practice/Charlie-Parker-Minor-Lick.ly:26:20:21">
<g transform="translate(8.6453, 5.8414)">
<text font-family="sans-serif" font-size="2.5858" text-anchor="start" fill="currentColor">
<tspan>E</tspan>
</text>
</g>
<g transform="translate(10.2842, 5.8414)">
<text font-family="sans-serif" font-size="2.5858" text-anchor="start" fill="currentColor">
<tspan>m</tspan>
</text>
</g>
<g transform="translate(12.8108, 4.6522)">
<text font-family="sans-serif" font-size="1.8283" text-anchor="start" fill="currentColor">
<tspan>7</tspan>
</text>
</g>
</a>
<a style="color:inherit;" xlink:href="textedit:///Users/marc.mouries/projects/Sheet-Music/Practice/Charlie-Parker-Minor-Lick.ly:56:2:3">
<g transform="translate(8.6453, 9.5071)">
<path transform="scale(0.0040, -0.0040)" d="M218 136c66 0 108 -36 108 -89c0 -89 -113 -183 -218 -183c-66 0 -108 36 -108 89c0 89 113 183 218 183z" fill="currentColor"/>
</g>
</a>
<g transform="translate(8.7103, 8.5071)">
<rect x="-0.0650" y="1.1839" width="0.1300" height="2.6121" ry="0.0400" fill="currentColor"/>
</g>
<g transform="translate(21.4582, 10.3171)">
<polygon stroke-linejoin="round" stroke-linecap="round" stroke-width="0.0800" fill="currentColor" stroke="currentColor" points="8.2595 0.9900 8.2595 1.3900 0.0400 0.2000 0.0400 -0.2000"/>
</g>
<a style="color:inherit;" xlink:href="textedit:///Users/marc.mouries/projects/Sheet-Music/Practice/Charlie-Parker-Minor-Lick.ly:56:6:7">
<g transform="translate(11.7018, 8.5071)">
<path transform="scale(0.0040, -0.0040)" d="M218 136c66 0 108 -36 108 -89c0 -89 -113 -183 -218 -183c-66 0 -108 36 -108 89c0 89 113 183 218 183z" fill="currentColor"/>
</g>
</a>
<g transform="translate(11.7668, 8.5071)">
<rect x="-0.0650" y="0.1839" width="0.1300" height="2.9548" ry="0.0400" fill="currentColor"/>
</g>
<g transform="translate(8.6453, 12.3171)">
<polygon stroke-linejoin="round" stroke-linecap="round" stroke-width="0.0800" fill="currentColor" stroke="currentColor" points="9.2595 -2.2000 9.2595 -1.8000 0.0400 0.2000 0.0400 -0.2000"/>
</g>
<a style="color:inherit;" xlink:href="textedit:///Users/marc.mouries/projects/Sheet-Music/Practice/Charlie-Parker-Minor-Lick.ly:56:9:10">
<g transform="translate(14.7583, 7.0071)">
<path transform="scale(0.0040, -0.0040)" d="M218 136c66 0 108 -36 108 -89c0 -89 -113 -183 -218 -183c-66 0 -108 36 -108 89c0 89 113 183 218 183z" fill="currentColor"/>
</g>
</a>
<g transform="translate(14.8233, 8.5071)">
<rect x="-0.0650" y="-1.3161" width="0.1300" height="3.7974" ry="0.0400" fill="currentColor"/>
</g>
<a style="color:inherit;" xlink:href="textedit:///Users/marc.mouries/projects/Sheet-Music/Practice/Charlie-Parker-Minor-Lick.ly:56:12:13">
<g transform="translate(17.8147, 6.0071)">
<path transform="scale(0.0040, -0.0040)" d="M218 136c66 0 108 -36 108 -89c0 -89 -113 -183 -218 -183c-66 0 -108 36 -108 89c0 89 113 183 218 183z" fill="currentColor"/>
</g>
</a>
<g transform="translate(17.8797, 8.5071)">
<rect x="-0.0650" y="-2.3161" width="0.1300" height="4.1401" ry="0.0400" fill="currentColor"/>
</g>
<a style="color:inherit;" xlink:href="textedit:///Users/marc.mouries/projects/Sheet-Music/Practice/Charlie-Parker-Minor-Lick.ly:56:16:17">
<g transform="translate(21.4582, 6.5071)">
<path transform="scale(0.0040, -0.0040)" d="M218 136c66 0 108 -36 108 -89c0 -89 -113 -183 -218 -183c-66 0 -108 36 -108 89c0 89 113 183 218 183z" fill="currentColor"/>
</g>
</a>
<g transform="translate(21.5232, 8.5071)">
<rect x="-0.0650" y="-1.8161" width="0.1300" height="3.6354" ry="0.0400" fill="currentColor"/>
</g>
<g transform="translate(20.0212, 6.5071)">
<path transform="scale(0.0040, -0.0040)" d="M0 119c0 8 5 15 13 18l46 17v158c0 10 8 19 18 19s19 -9 19 -19v-145l83 31v158c0 10 9 19 19 19s18 -9 18 -19v-145l32 12c2 1 5 1 7 1c11 0 20 -9 20 -20v-60c0 -8 -5 -16 -13 -19l-46 -16v-160l32 11c2 1 5 1 7 1c11 0 20 -9 20 -20v-60c0 -8 -5 -15 -13 -18l-46 -17
v-158c0 -10 -8 -19 -18 -19s-19 9 -19 19v145l-83 -31v-158c0 -10 -9 -19 -19 -19s-18 9 -18 19v145l-32 -12c-2 -1 -5 -1 -7 -1c-11 0 -20 9 -20 20v60c0 8 5 16 13 19l46 16v160l-32 -11c-2 -1 -5 -1 -7 -1c-11 0 -20 9 -20 20v60zM179 95l-83 -30v-160l83 30v160z" fill="currentColor"/>
</g>
<a style="color:inherit;" xlink:href="textedit:///Users/marc.mouries/projects/Sheet-Music/Practice/Charlie-Parker-Minor-Lick.ly:56:19:20">
<g transform="translate(24.2647, 7.0071)">
<path transform="scale(0.0040, -0.0040)" d="M218 136c66 0 108 -36 108 -89c0 -89 -113 -183 -218 -183c-66 0 -108 36 -108 89c0 89 113 183 218 183z" fill="currentColor"/>
</g>
</a>
<g transform="translate(24.3297, 8.5071)">
<rect x="-0.0650" y="-1.3161" width="0.1300" height="3.5378" ry="0.0400" fill="currentColor"/>
</g>
<a style="color:inherit;" xlink:href="textedit:///Users/marc.mouries/projects/Sheet-Music/Practice/Charlie-Parker-Minor-Lick.ly:56:22:23">
<g transform="translate(27.0712, 7.5071)">
<path transform="scale(0.0040, -0.0040)" d="M218 136c66 0 108 -36 108 -89c0 -89 -113 -183 -218 -183c-66 0 -108 36 -108 89c0 89 113 183 218 183z" fill="currentColor"/>
</g>
</a>
<g transform="translate(27.1362, 8.5071)">
<rect x="-0.0650" y="-0.8161" width="0.1300" height="3.4402" ry="0.0400" fill="currentColor"/>
</g>
<a style="color:inherit;" xlink:href="textedit:///Users/marc.mouries/projects/Sheet-Music/Practice/Charlie-Parker-Minor-Lick.ly:56:25:26">
<g transform="translate(29.6277, 8.5071)">
<path transform="scale(0.0040, -0.0040)" d="M218 136c66 0 108 -36 108 -89c0 -89 -113 -183 -218 -183c-66 0 -108 36 -108 89c0 89 113 183 218 183z" fill="currentColor"/>
</g>
</a>
<g transform="translate(29.6927, 8.5071)">
<rect x="-0.0650" y="0.1839" width="0.1300" height="2.8068" ry="0.0400" fill="currentColor"/>
</g>
<a style="color:inherit;" xlink:href="textedit:///Users/marc.mouries/projects/Sheet-Music/Practice/Charlie-Parker-Minor-Lick.ly:26:29:30">
<g transform="translate(33.5136, 5.8414)">
<text font-family="sans-serif" font-size="2.5858" text-anchor="start" fill="currentColor">
<tspan>A</tspan>
</text>
</g>
<g transform="translate(35.2891, 5.8414)">
<text font-family="sans-serif" font-size="2.5858" text-anchor="start" fill="currentColor">
<tspan>m</tspan>
</text>
</g>
<g transform="translate(37.8157, 4.6522)">
<text font-family="sans-serif" font-size="1.8283" text-anchor="start" fill="currentColor">
<tspan>7</tspan>
</text>
</g>
</a>
<a style="color:inherit;" xlink:href="textedit:///Users/marc.mouries/projects/Sheet-Music/Practice/Charlie-Parker-Minor-Lick.ly:58:2:3">
<g transform="translate(33.5136, 11.5071)">
<path transform="scale(0.0040, -0.0040)" d="M218 136c66 0 108 -36 108 -89c0 -89 -113 -183 -218 -183c-66 0 -108 36 -108 89c0 89 113 183 218 183z" fill="currentColor"/>
</g>
</a>
<g transform="translate(34.7374, 8.5071)">
<rect x="-0.0650" y="-1.0140" width="0.1300" height="3.8301" ry="0.0400" fill="currentColor"/>
</g>
<a style="color:inherit;" xlink:href="textedit:///Users/marc.mouries/projects/Sheet-Music/Practice/Charlie-Parker-Minor-Lick.ly:58:7:8">
<g transform="translate(36.5701, 10.5071)">
<path transform="scale(0.0040, -0.0040)" d="M218 136c66 0 108 -36 108 -89c0 -89 -113 -183 -218 -183c-66 0 -108 36 -108 89c0 89 113 183 218 183z" fill="currentColor"/>
</g>
</a>
<g transform="translate(37.7939, 8.5071)">
<rect x="-0.0650" y="-1.6713" width="0.1300" height="3.4874" ry="0.0400" fill="currentColor"/>
</g>
<a style="color:inherit;" xlink:href="textedit:///Users/marc.mouries/projects/Sheet-Music/Practice/Charlie-Parker-Minor-Lick.ly:58:10:11">
<g transform="translate(39.6266, 9.0071)">
<path transform="scale(0.0040, -0.0040)" d="M218 136c66 0 108 -36 108 -89c0 -89 -113 -183 -218 -183c-66 0 -108 36 -108 89c0 89 113 183 218 183z" fill="currentColor"/>
</g>
</a>
<g transform="translate(40.8504, 8.5071)">
<rect x="-0.0650" y="-2.3287" width="0.1300" height="2.6448" ry="0.0400" fill="currentColor"/>
</g>
<a style="color:inherit;" xlink:href="textedit:///Users/marc.mouries/projects/Sheet-Music/Practice/Charlie-Parker-Minor-Lick.ly:58:13:14">
<g transform="translate(42.6831, 8.0071)">
<path transform="scale(0.0040, -0.0040)" d="M218 136c66 0 108 -36 108 -89c0 -89 -113 -183 -218 -183c-66 0 -108 36 -108 89c0 89 113 183 218 183z" fill="currentColor"/>
</g>
</a>
<g transform="translate(43.9069, 8.5071)">
<rect x="-0.0650" y="-2.9860" width="0.1300" height="2.3021" ry="0.0400" fill="currentColor"/>
</g>
<a style="color:inherit;" xlink:href="textedit:///Users/marc.mouries/projects/Sheet-Music/Practice/Charlie-Parker-Minor-Lick.ly:58:17:18">
<g transform="translate(45.4896, 8.5071)">
<path transform="scale(0.0040, -0.0040)" d="M218 136c66 0 108 -36 108 -89c0 -89 -113 -183 -218 -183c-66 0 -108 36 -108 89c0 89 113 183 218 183z" fill="currentColor"/>
</g>
</a>
<g transform="translate(46.7134, 8.5071)">
<rect x="-0.0650" y="-2.8022" width="0.1300" height="2.6183" ry="0.0400" fill="currentColor"/>
</g>
<a style="color:inherit;" xlink:href="textedit:///Users/marc.mouries/projects/Sheet-Music/Practice/Charlie-Parker-Minor-Lick.ly:58:20:21">
<g transform="translate(48.2960, 9.0071)">
<path transform="scale(0.0040, -0.0040)" d="M218 136c66 0 108 -36 108 -89c0 -89 -113 -183 -218 -183c-66 0 -108 36 -108 89c0 89 113 183 218 183z" fill="currentColor"/>
</g>
</a>
<g transform="translate(49.5199, 8.5071)">
<rect x="-0.0650" y="-2.4640" width="0.1300" height="2.7801" ry="0.0400" fill="currentColor"/>
</g>
<a style="color:inherit;" xlink:href="textedit:///Users/marc.mouries/projects/Sheet-Music/Practice/Charlie-Parker-Minor-Lick.ly:58:23:24">
<g transform="translate(51.1025, 9.5071)">
<path transform="scale(0.0040, -0.0040)" d="M218 136c66 0 108 -36 108 -89c0 -89 -113 -183 -218 -183c-66 0 -108 36 -108 89c0 89 113 183 218 183z" fill="currentColor"/>
</g>
</a>
<g transform="translate(52.3263, 8.5071)">
<rect x="-0.0650" y="-2.1259" width="0.1300" height="2.9420" ry="0.0400" fill="currentColor"/>
</g>
<a style="color:inherit;" xlink:href="textedit:///Users/marc.mouries/projects/Sheet-Music/Practice/Charlie-Parker-Minor-Lick.ly:58:26:27">
<g transform="translate(53.6590, 10.5071)">
<path transform="scale(0.0040, -0.0040)" d="M218 136c66 0 108 -36 108 -89c0 -89 -113 -183 -218 -183c-66 0 -108 36 -108 89c0 89 113 183 218 183z" fill="currentColor"/>
</g>
</a>
<g transform="translate(54.8828, 8.5071)">
<rect x="-0.0650" y="-1.8178" width="0.1300" height="3.6339" ry="0.0400" fill="currentColor"/>
</g>
<g transform="translate(-0.8365, 82.4717)">
<a xlink:href="https://lilypond.org/">
<rect x="0.0000" y="-0.0413" width="61.4238" height="1.1978" fill="none" stroke="none" stroke-width="0.0"/>
</a>
</g>
<g transform="translate(-0.8365, 82.4717)">
<text font-family="Copperplate" font-size="2.1740" text-anchor="start" fill="currentColor">
<tspan>Music engraving by LilyPond 2.24.4—www.lilypond.org</tspan>
</text>
</g>
</svg>
