<svg xmlns="http://www.w3.org/2000/svg" xmlns:xlink="http://www.w3.org/1999/xlink" version="1.2" width="210.00mm" height="297.00mm" viewBox="0.0000 -0.0000 99.5846 140.8411">
<style type="text/css">
<![CDATA[
tspan { white-space: pre; }
]]>
</style>
<g transform="translate(49.5220, 2.3711)">
<text font-family="serif" font-size="2.2002" text-anchor="start" fill="currentColor">
<tspan> </tspan>
</text>
</g>
<g transform="translate(37.4438, 6.3850)">
<text font-family="Optima" font-weight="bold" font-size="4.3999" text-anchor="start" fill="currentColor">
<tspan>W</tspan>
</text>
</g>
<g transform="translate(41.8540, 6.3850)">
<text font-family="Optima" font-weight="bold" font-size="3.4922" text-anchor="start" fill="currentColor">
<tspan>ALTZ</tspan>
</text>
</g>
<g transform="translate(49.7070, 6.3850)">
<text font-family="Optima" font-weight="bold" font-size="4.3999" text-anchor="start" fill="currentColor">
<tspan> N</tspan>
</text>
</g>
<g transform="translate(54.3448, 6.3850)">
<text font-family="Optima" font-weight="bold" font-size="3.4922" text-anchor="start" fill="currentColor">
<tspan>O</tspan>
</text>
</g>
<g transform="translate(57.2469, 6.3850)">
<text font-family="Optima" font-weight="bold" font-size="4.3999" text-anchor="start" fill="currentColor">
<tspan>. 2</tspan>
</text>
</g>
<g transform="translate(77.8562, 6.3850)">
<text font-family="Optima" font-size="1.9598" text-anchor="start" fill="currentColor">
<tspan>Dmitri Shostakovich</tspan>
</text>
</g>
<g transform="translate(4.7421, 21.1168)">
<rect x="75.7466" y="-0.0995" width="2.0580" height="0.1990" ry="0.0995" fill="currentColor"/>
</g>
<g transform="translate(4.7421, 22.2168)">
<rect x="75.7466" y="-0.0995" width="2.0580" height="0.1990" ry="0.0995" fill="currentColor"/>
</g>
<g transform="translate(4.7421, 22.2168)">
<rect x="23.9762" y="-0.0995" width="2.0580" height="0.1990" ry="0.0995" fill="currentColor"/>
</g>
<g transform="translate(9.4843, 27.7168)">
<line stroke-linejoin="round" stroke-linecap="round" stroke-width="0.0890" stroke="currentColor" x1="0.0445" y1="0" x2="79.1917" y2="0"/>
</g>
<g transform="translate(9.4843, 26.6168)">
<line stroke-linejoin="round" stroke-linecap="round" stroke-width="0.0890" stroke="currentColor" x1="0.0445" y1="0" x2="79.1917" y2="0"/>
</g>
<g transform="translate(9.4843, 25.5168)">
<line stroke-linejoin="round" stroke-linecap="round" stroke-width="0.0890" stroke="currentColor" x1="0.0445" y1="0" x2="79.1917" y2="0"/>
</g>
<g transform="translate(9.4843, 24.4168)">
<line stroke-linejoin="round" stroke-linecap="round" stroke-width="0.0890" stroke="currentColor" x1="0.0445" y1="0" x2="79.1917" y2="0"/>
</g>
<g transform="translate(9.4843, 23.3168)">
<line stroke-linejoin="round" stroke-linecap="round" stroke-width="0.0890" stroke="currentColor" x1="0.0445" y1="0" x2="79.1917" y2="0"/>
</g>
<g transform="translate(88.1861, 25.5168)">
<rect x="0.0000" y="-2.2000" width="0.5343" height="4.4000" ry="0.0000" fill="currentColor"/>
</g>
<g transform="translate(87.7498, 25.5168)">
<rect x="0.0000" y="-2.2000" width="0.1692" height="4.4000" ry="0.0000" fill="currentColor"/>
</g>
<g transform="translate(79.6482, 25.5168)">
<rect x="0.0000" y="-2.2000" width="0.1692" height="4.4000" ry="0.0000" fill="currentColor"/>
</g>
<g transform="translate(69.1473, 25.5168)">
<rect x="0.0000" y="-2.2000" width="0.1692" height="4.4000" ry="0.0000" fill="currentColor"/>
</g>
<g transform="translate(60.5752, 25.5168)">
<rect x="0.0000" y="-2.2000" width="0.1692" height="4.4000" ry="0.0000" fill="currentColor"/>
</g>
<g transform="translate(50.8816, 25.5168)">
<rect x="0.0000" y="-2.2000" width="0.1692" height="4.4000" ry="0.0000" fill="currentColor"/>
</g>
<g transform="translate(43.8754, 25.5168)">
<rect x="0.0000" y="-2.2000" width="0.1692" height="4.4000" ry="0.0000" fill="currentColor"/>
</g>
<g transform="translate(33.8548, 25.5168)">
<rect x="0.0000" y="-2.2000" width="0.1692" height="4.4000" ry="0.0000" fill="currentColor"/>
</g>
<g transform="translate(26.8464, 25.5168)">
<rect x="0.0000" y="-2.2000" width="0.1692" height="4.4000" ry="0.0000" fill="currentColor"/>
</g>
<g transform="translate(10.2843, 26.6168)">
<path transform="scale(0.0040, -0.0040)" d="M264 -594c47 0 165 26 165 246c0 32 -2 64 -5 96c-5 -1 -44 -8 -89 -8c-193 0 -333 178 -333 372c0 178 133 306 251 440c-27 93 -49 170 -49 345c0 116 55 226 150 295c5 4 11 4 16 0c67 -81 132 -246 132 -359c0 -144 -87 -256 -183 -365c20 -69 39 -138 55 -208
c2 0 7 1 15 1c154 0 254 -127 254 -259c0 -112 -73 -212 -180 -245c3 -36 5 -72 5 -108c0 -19 0 -37 -1 -56c-7 -120 -89 -226 -206 -226c-108 0 -195 87 -195 195c0 58 53 104 112 104c54 0 95 -48 95 -104c0 -52 -43 -95 -95 -95c-12 0 -24 4 -35 9c26 -41 70 -70 121 -70
zM459 -205c71 24 117 92 117 166c0 92 -69 184 -179 193c1 -5 45 -212 62 -359zM71 31c0 -146 142 -251 267 -251c1 0 46 0 82 6c-7 63 -28 201 -64 367c-79 -9 -125 -62 -125 -121c0 -44 26 -92 82 -124c4 -4 7 -9 7 -14c0 -11 -9 -21 -20 -21c-14 0 -125 62 -125 186
c0 88 57 173 158 196c-14 60 -30 119 -46 178c-108 -121 -216 -242 -216 -402zM411 1050c-99 -50 -161 -151 -161 -262c0 -59 11 -123 33 -200c82 97 149 198 149 325c0 35 0 69 -21 137z" fill="currentColor"/>
</g>
<a style="color:inherit;" xlink:href="textedit:///Users/marc.mouries/projects/Sheet-Music/Learn-Violin-with-Famous-Themes/Shostakovich_Waltz-No-2.ly:21:2:3">
</a>
<a style="color:inherit;" xlink:href="textedit:///Users/marc.mouries/projects/Sheet-Music/Learn-Violin-with-Famous-Themes/Shostakovich_Waltz-No-2.ly:22:2:3">
<g transform="translate(14.6123, 25.5168)">
<path transform="scale(0.0040, -0.0040)" d="M258 264c0 -31 68 -19 68 -124c0 -91 -77 -140 -175 -140c-77 0 -151 41 -151 111c0 36 29 65 65 65s65 -29 65 -65c0 -25 -40 -28 -40 -53c0 -26 31 -37 61 -37c50 0 66 61 66 119c0 62 -1 110 -54 110h-82c-9 0 -13 7 -13 14s4 13 13 13h82c52 0 54 47 54 108
c0 56 -18 94 -70 94c-27 0 -55 -9 -55 -33c0 -22 35 -25 35 -47c0 -32 -25 -57 -57 -57s-57 25 -57 57c0 63 65 101 134 101c90 0 165 -35 165 -115c0 -126 -54 -81 -54 -121z" fill="currentColor"/>
</g>
<g transform="translate(14.4843, 27.5327)">
<path transform="scale(0.0040, -0.0040)" d="M-2 146c0 13 148 151 148 339c0 10 7 18 15 15c22 -7 44 -13 67 -13s45 6 67 13c12 4 21 -8 15 -15l-283 -333h173v147c0 32 34 24 65 67c11 15 18 32 25 49c4 9 20 7 20 -7v-256h68c9 0 13 -7 13 -14s-4 -13 -13 -13h-68v-16c0 -45 26 -88 68 -88c7 0 10 -5 10 -10
s-3 -11 -10 -11c-41 0 -82 13 -123 13s-82 -13 -123 -13c-7 0 -10 6 -10 11s3 10 10 10c42 0 68 43 68 88v16h-173c-21 0 -29 13 -29 21z" fill="currentColor"/>
</g>
</a>
<a style="color:inherit;" xlink:href="textedit:///Users/marc.mouries/projects/Sheet-Music/Learn-Violin-with-Famous-Themes/Shostakovich_Waltz-No-2.ly:23:2:3">
<g transform="translate(14.4843, 19.6064)">
<text font-family="serif" font-weight="bold" font-size="2.2002" text-anchor="start" fill="currentColor">
<tspan>Allegretto</tspan>
</text>
</g>
<g transform="translate(23.8737, 19.6064)">
<text font-family="serif" font-size="2.2002" text-anchor="start" fill="currentColor">
<tspan> (</tspan>
</text>
</g>
<g transform="translate(25.1540, 19.1237)">
<rect x="1.0470" y="-2.6727" width="0.1158" height="2.5018" ry="0.0193" fill="currentColor"/>
</g>
<g transform="translate(25.1540, 19.1237)">
<path transform="scale(0.0036, -0.0036)" d="M220 135c11 0 106 -2 106 -87c0 -89 -114 -183 -220 -183c-11 0 -106 2 -106 87c0 89 114 183 220 183z" fill="currentColor"/>
</g>
<g transform="translate(26.3168, 19.6064)">
<text font-family="serif" font-size="2.2002" text-anchor="start" fill="currentColor">
<tspan> = 160)</tspan>
</text>
</g>
</a>
<g transform="translate(18.1070, 25.5168)">
<rect x="-0.0579" y="-1.4533" width="0.1158" height="3.6533" ry="0.0333" fill="currentColor"/>
</g>
<a style="color:inherit;" xlink:href="textedit:///Users/marc.mouries/projects/Sheet-Music/Learn-Violin-with-Famous-Themes/Shostakovich_Waltz-No-2.ly:33:5:6">
<g transform="translate(70.3510, 25.5168)">
<path stroke-width="0.0712" stroke-linejoin="round" stroke-linecap="round" stroke="currentColor" fill="currentColor" d="M0.5135 -1.6389C1.4948 -3.3379 5.2103 -4.5940 7.0212 -3.8389L7.0212 -3.8389C5.2445 -4.4927 1.5290 -3.2367 0.5135 -1.6389z"/>
</g>
</a>
<a style="color:inherit;" xlink:href="textedit:///Users/marc.mouries/projects/Sheet-Music/Learn-Violin-with-Famous-Themes/Shostakovich_Waltz-No-2.ly:26:11:12">
<g transform="translate(21.0530, 23.3168)">
<path transform="scale(0.0040, -0.0040)" d="M222 135c64 0 104 -35 104 -86c0 -89 -114 -184 -221 -184c-64 0 -105 35 -105 86c0 89 115 184 222 184z" fill="currentColor"/>
</g>
</a>
<g transform="translate(21.1109, 25.5168)">
<rect x="-0.0579" y="-2.0033" width="0.1158" height="3.6533" ry="0.0333" fill="currentColor"/>
</g>
<a style="color:inherit;" xlink:href="textedit:///Users/marc.mouries/projects/Sheet-Music/Learn-Violin-with-Famous-Themes/Shostakovich_Waltz-No-2.ly:31:9:10">
<g transform="translate(57.7372, 25.5168)">
<path stroke-width="0.0712" stroke-linejoin="round" stroke-linecap="round" stroke="currentColor" fill="currentColor" d="M0.5453 -1.6389C1.8657 -3.4892 7.1202 -4.8302 9.1658 -3.8389L9.1658 -3.8389C7.1466 -4.7267 1.8921 -3.3857 0.5453 -1.6389z"/>
</g>
</a>
<a style="color:inherit;" xlink:href="textedit:///Users/marc.mouries/projects/Sheet-Music/Learn-Violin-with-Famous-Themes/Shostakovich_Waltz-No-2.ly:26:13:14">
<g transform="translate(24.0569, 22.7668)">
<path transform="scale(0.0040, -0.0040)" d="M222 135c64 0 104 -35 104 -86c0 -89 -114 -184 -221 -184c-64 0 -105 35 -105 86c0 89 115 184 222 184z" fill="currentColor"/>
</g>
</a>
<g transform="translate(24.1147, 25.5168)">
<rect x="-0.0579" y="-2.5533" width="0.1158" height="3.6533" ry="0.0333" fill="currentColor"/>
</g>
<a style="color:inherit;" xlink:href="textedit:///Users/marc.mouries/projects/Sheet-Music/Learn-Violin-with-Famous-Themes/Shostakovich_Waltz-No-2.ly:29:5:6">
<g transform="translate(46.1064, 25.5168)">
<path stroke-width="0.0712" stroke-linejoin="round" stroke-linecap="round" stroke="currentColor" fill="currentColor" d="M0.7406 -2.3539C2.2163 -3.3848 5.4946 -2.9904 6.6837 -1.6389L6.6837 -1.6389C5.4819 -2.8843 2.2036 -3.2787 0.7406 -2.3539z"/>
</g>
</a>
<a style="color:inherit;" xlink:href="textedit:///Users/marc.mouries/projects/Sheet-Music/Learn-Violin-with-Famous-Themes/Shostakovich_Waltz-No-2.ly:27:5:6">
<g transform="translate(29.0613, 25.5168)">
<path stroke-width="0.0712" stroke-linejoin="round" stroke-linecap="round" stroke="currentColor" fill="currentColor" d="M0.7482 -4.3889C3.0237 -5.7390 10.9325 -4.6526 12.7596 -2.7389L12.7596 -2.7389C10.9179 -4.5467 3.0092 -5.6331 0.7482 -4.3889z"/>
</g>
</a>
<a style="color:inherit;" xlink:href="textedit:///Users/marc.mouries/projects/Sheet-Music/Learn-Violin-with-Famous-Themes/Shostakovich_Waltz-No-2.ly:27:2:3">
<g transform="translate(29.0613, 22.2168)">
<path transform="scale(0.0040, -0.0040)" d="M316 67c0 23 -18 42 -42 42c-40 0 -209 -113 -237 -147c-7 -8 -10 -19 -10 -29c0 -23 18 -42 42 -42c40 0 209 113 237 147c7 8 10 19 10 29zM265 135c38 0 78 -13 78 -68c0 -27 -19 -111 -76 -150c-19 -13 -85 -52 -189 -52c-38 0 -78 13 -78 68c0 27 19 111 76 150
c19 13 85 52 189 52z" fill="currentColor"/>
</g>
</a>
<a style="color:inherit;" xlink:href="textedit:///Users/marc.mouries/projects/Sheet-Music/Learn-Violin-with-Famous-Themes/Shostakovich_Waltz-No-2.ly:26:4:5">
<g transform="translate(17.2510, 30.3332)">
<g>
<path transform="scale(0.0040, -0.0040)" d="M-38 141c0 11 54 157 146 157c23 0 37 -21 41 -47c22 27 51 47 81 47c24 0 40 -22 45 -49c21 28 49 49 79 49c33 0 59 -35 59 -69c0 -5 -1 -9 -2 -14l-35 -149c0 -2 -1 -4 -1 -5c0 -5 2 -8 7 -8c21 0 49 36 60 36c5 0 8 -3 8 -8c0 -8 -74 -87 -134 -87
c-20 0 -32 14 -32 32c0 3 0 6 1 10l39 165c1 5 2 9 2 14c0 10 -4 18 -14 18c-16 0 -33 -16 -39 -32l-53 -186c-2 -8 -12 -15 -20 -15h-46c-9 0 -13 6 -11 15l53 186c2 6 3 11 3 16c0 9 -4 16 -13 16c-16 0 -35 -15 -41 -32l-63 -186c-3 -9 -12 -15 -21 -15h-46
c-9 0 -13 6 -10 15l64 186c2 5 2 10 2 15c0 10 -3 17 -13 17c-29 0 -54 -53 -66 -87c-3 -10 -13 -14 -20 -14c-6 0 -10 3 -10 9z" fill="currentColor"/>

<path transform="translate(1.6218, 0.0000) scale(0.0040, -0.0040)" d="M254 251l-51 -165c-30 -99 -121 -256 -218 -256c-45 0 -87 25 -87 65c0 39 17 77 52 77c24 0 44 -20 44 -44c0 -30 -38 -25 -38 -55c0 -10 11 -10 23 -10h6c50 0 60 61 73 113l69 275h-53c-9 0 -16 8 -16 17s7 17 16 17h62c31 97 119 193 214 193c45 0 87 -24 87 -64
c0 -39 -17 -78 -52 -78c-24 0 -44 20 -44 44c0 30 38 25 38 55c0 10 -10 11 -22 11c-2 0 -5 -1 -7 -1c-65 0 -70 -93 -87 -160h58c9 0 17 -8 17 -17s-8 -17 -17 -17h-67z" fill="currentColor"/>
</g>
</g>
</a>
<g transform="translate(30.8901, 21.6668)">
<path transform="scale(0.0040, -0.0040)" d="M0 0c0 32 25 57 57 57s57 -25 57 -57s-25 -57 -57 -57s-57 25 -57 57z" fill="currentColor"/>
</g>
<g transform="translate(29.1192, 25.5168)">
<rect x="-0.0579" y="-3.0316" width="0.1158" height="3.5816" ry="0.0333" fill="currentColor"/>
</g>
<a style="color:inherit;" xlink:href="textedit:///Users/marc.mouries/projects/Sheet-Music/Learn-Violin-with-Famous-Themes/Shostakovich_Waltz-No-2.ly:26:7:8">
<g transform="translate(18.0492, 25.5168)">
<path stroke-width="0.0712" stroke-linejoin="round" stroke-linecap="round" stroke="currentColor" fill="currentColor" d="M0.5745 -2.7389C1.6945 -4.1780 5.0250 -4.7878 6.5822 -3.8389L6.5822 -3.8389C5.0443 -4.6827 1.7137 -4.0729 0.5745 -2.7389z"/>
</g>
</a>
<a style="color:inherit;" xlink:href="textedit:///Users/marc.mouries/projects/Sheet-Music/Learn-Violin-with-Famous-Themes/Shostakovich_Waltz-No-2.ly:28:2:3">
<g transform="translate(35.1011, 22.7668)">
<path transform="scale(0.0040, -0.0040)" d="M222 135c64 0 104 -35 104 -86c0 -89 -114 -184 -221 -184c-64 0 -105 35 -105 86c0 89 115 184 222 184z" fill="currentColor"/>
</g>
</a>
<a style="color:inherit;" xlink:href="textedit:///Users/marc.mouries/projects/Sheet-Music/Learn-Violin-with-Famous-Themes/Shostakovich_Waltz-No-2.ly:26:2:3">
<g transform="translate(18.0492, 23.8668)">
<path transform="scale(0.0040, -0.0040)" d="M222 135c64 0 104 -35 104 -86c0 -89 -114 -184 -221 -184c-64 0 -105 35 -105 86c0 89 115 184 222 184z" fill="currentColor"/>
</g>
</a>
<g transform="translate(35.1590, 25.5168)">
<rect x="-0.0579" y="-2.5533" width="0.1158" height="3.6533" ry="0.0333" fill="currentColor"/>
</g>
<a style="color:inherit;" xlink:href="textedit:///Users/marc.mouries/projects/Sheet-Music/Learn-Violin-with-Famous-Themes/Shostakovich_Waltz-No-2.ly:26:8:9">
<g transform="translate(21.1531, 29.7332)">
<line stroke-linejoin="round" stroke-linecap="round" stroke-width="0.0890" stroke="currentColor" x1="0.0000" y1="0.0000" x2="4.8625" y2="0.7333"/>
</g>
<g transform="translate(21.1531, 29.7332)">
<line stroke-linejoin="round" stroke-linecap="round" stroke-width="0.0890" stroke="currentColor" x1="0.0000" y1="-0.0000" x2="4.8625" y2="-0.7333"/>
</g>
</a>
<a style="color:inherit;" xlink:href="textedit:///Users/marc.mouries/projects/Sheet-Music/Learn-Violin-with-Famous-Themes/Shostakovich_Waltz-No-2.ly:28:5:6">
<g transform="translate(38.1050, 23.3168)">
<path transform="scale(0.0040, -0.0040)" d="M222 135c64 0 104 -35 104 -86c0 -89 -114 -184 -221 -184c-64 0 -105 35 -105 86c0 89 115 184 222 184z" fill="currentColor"/>
</g>
</a>
<g transform="translate(38.1628, 25.5168)">
<rect x="-0.0579" y="-2.0033" width="0.1158" height="3.6533" ry="0.0333" fill="currentColor"/>
</g>
<a style="color:inherit;" xlink:href="textedit:///Users/marc.mouries/projects/Sheet-Music/Learn-Violin-with-Famous-Themes/Shostakovich_Waltz-No-2.ly:28:7:8">
<g transform="translate(41.1088, 23.8668)">
<path transform="scale(0.0040, -0.0040)" d="M222 135c64 0 104 -35 104 -86c0 -89 -114 -184 -221 -184c-64 0 -105 35 -105 86c0 89 115 184 222 184z" fill="currentColor"/>
</g>
</a>
<g transform="translate(41.1667, 25.5168)">
<rect x="-0.0579" y="-1.4533" width="0.1158" height="3.6533" ry="0.0333" fill="currentColor"/>
</g>
<a style="color:inherit;" xlink:href="textedit:///Users/marc.mouries/projects/Sheet-Music/Learn-Violin-with-Famous-Themes/Shostakovich_Waltz-No-2.ly:29:2:3">
<g transform="translate(46.1064, 24.4168)">
<path transform="scale(0.0040, -0.0040)" d="M316 67c0 23 -18 42 -42 42c-40 0 -209 -113 -237 -147c-7 -8 -10 -19 -10 -29c0 -23 18 -42 42 -42c40 0 209 113 237 147c7 8 10 19 10 29zM265 135c38 0 78 -13 78 -68c0 -27 -19 -111 -76 -150c-19 -13 -85 -52 -189 -52c-38 0 -78 13 -78 68c0 27 19 111 76 150
c19 13 85 52 189 52z" fill="currentColor"/>
</g>
</a>
<g transform="translate(47.9352, 23.8668)">
<path transform="scale(0.0040, -0.0040)" d="M0 0c0 32 25 57 57 57s57 -25 57 -57s-25 -57 -57 -57s-57 25 -57 57z" fill="currentColor"/>
</g>
<g transform="translate(46.1643, 25.5168)">
<rect x="-0.0579" y="-0.8316" width="0.1158" height="3.5816" ry="0.0333" fill="currentColor"/>
</g>
<a style="color:inherit;" xlink:href="textedit:///Users/marc.mouries/projects/Sheet-Music/Learn-Violin-with-Famous-Themes/Shostakovich_Waltz-No-2.ly:31:2:3">
<g transform="translate(52.0853, 24.9668)">
<path transform="scale(0.0040, -0.0040)" d="M222 135c64 0 104 -35 104 -86c0 -89 -114 -184 -221 -184c-64 0 -105 35 -105 86c0 89 115 184 222 184z" fill="currentColor"/>
</g>
</a>
<g transform="translate(52.1432, 25.5168)">
<rect x="-0.0579" y="-0.3533" width="0.1158" height="3.6533" ry="0.0333" fill="currentColor"/>
</g>
<a style="color:inherit;" xlink:href="textedit:///Users/marc.mouries/projects/Sheet-Music/Learn-Violin-with-Famous-Themes/Shostakovich_Waltz-No-2.ly:31:6:7">
<g transform="translate(55.0891, 25.5168)">
<path transform="scale(0.0040, -0.0040)" d="M-4 79c0 59 125 82 125 181c0 24 -8 47 -24 67l-39 46c-2 3 -3 6 -3 9c0 7 7 14 14 14c3 0 7 -1 10 -5l152 -182c7 -8 10 -17 10 -25c0 -59 -125 -82 -125 -181c0 -24 8 -47 24 -67l87 -104c2 -3 3 -5 3 -8c0 -7 -7 -14 -14 -14c-6 0 -48 48 -112 48
c-14 0 -52 -1 -52 -70c0 -35 11 -75 28 -96c6 -7 -4 -16 -10 -9c-46 55 -93 150 -93 204c0 12 0 40 36 40c34 0 85 -15 130 -37l-137 164c-7 8 -10 17 -10 25z" fill="currentColor"/>
</g>
</a>
<a style="color:inherit;" xlink:href="textedit:///Users/marc.mouries/projects/Sheet-Music/Learn-Violin-with-Famous-Themes/Shostakovich_Waltz-No-2.ly:31:8:9">
<g transform="translate(57.7372, 24.9668)">
<path transform="scale(0.0040, -0.0040)" d="M222 135c64 0 104 -35 104 -86c0 -89 -114 -184 -221 -184c-64 0 -105 35 -105 86c0 89 115 184 222 184z" fill="currentColor"/>
</g>
</a>
<g transform="translate(57.7951, 25.5168)">
<rect x="-0.0579" y="-0.3533" width="0.1158" height="3.6533" ry="0.0333" fill="currentColor"/>
</g>
<a style="color:inherit;" xlink:href="textedit:///Users/marc.mouries/projects/Sheet-Music/Learn-Violin-with-Famous-Themes/Shostakovich_Waltz-No-2.ly:32:2:3">
<g transform="translate(61.8377, 23.8668)">
<path transform="scale(0.0040, -0.0040)" d="M316 67c0 23 -18 42 -42 42c-40 0 -209 -113 -237 -147c-7 -8 -10 -19 -10 -29c0 -23 18 -42 42 -42c40 0 209 113 237 147c7 8 10 19 10 29zM265 135c38 0 78 -13 78 -68c0 -27 -19 -111 -76 -150c-19 -13 -85 -52 -189 -52c-38 0 -78 13 -78 68c0 27 19 111 76 150
c19 13 85 52 189 52z" fill="currentColor"/>
</g>
</a>
<g transform="translate(61.8955, 25.5168)">
<rect x="-0.0579" y="-1.3816" width="0.1158" height="3.5816" ry="0.0333" fill="currentColor"/>
</g>
<a style="color:inherit;" xlink:href="textedit:///Users/marc.mouries/projects/Sheet-Music/Learn-Violin-with-Famous-Themes/Shostakovich_Waltz-No-2.ly:32:5:6">
<g transform="translate(66.3577, 22.7668)">
<path transform="scale(0.0040, -0.0040)" d="M222 135c64 0 104 -35 104 -86c0 -89 -114 -184 -221 -184c-64 0 -105 35 -105 86c0 89 115 184 222 184z" fill="currentColor"/>
</g>
</a>
<g transform="translate(66.4156, 25.5168)">
<rect x="-0.0579" y="-2.5533" width="0.1158" height="3.6533" ry="0.0333" fill="currentColor"/>
</g>
<a style="color:inherit;" xlink:href="textedit:///Users/marc.mouries/projects/Sheet-Music/Learn-Violin-with-Famous-Themes/Shostakovich_Waltz-No-2.ly:33:2:3">
<g transform="translate(70.3510, 24.9668)">
<path transform="scale(0.0040, -0.0040)" d="M222 135c64 0 104 -35 104 -86c0 -89 -114 -184 -221 -184c-64 0 -105 35 -105 86c0 89 115 184 222 184z" fill="currentColor"/>
</g>
</a>
<g transform="translate(70.4088, 25.5168)">
<rect x="-0.0579" y="-0.3533" width="0.1158" height="3.6533" ry="0.0333" fill="currentColor"/>
</g>
<a style="color:inherit;" xlink:href="textedit:///Users/marc.mouries/projects/Sheet-Music/Learn-Violin-with-Famous-Themes/Shostakovich_Waltz-No-2.ly:33:7:8">
<g transform="translate(73.6048, 23.8668)">
<path transform="scale(0.0040, -0.0040)" d="M222 135c64 0 104 -35 104 -86c0 -89 -114 -184 -221 -184c-64 0 -105 35 -105 86c0 89 115 184 222 184z" fill="currentColor"/>
</g>
</a>
<g transform="translate(73.6627, 25.5168)">
<rect x="-0.0579" y="-1.4533" width="0.1158" height="3.6533" ry="0.0333" fill="currentColor"/>
</g>
<a style="color:inherit;" xlink:href="textedit:///Users/marc.mouries/projects/Sheet-Music/Learn-Violin-with-Famous-Themes/Shostakovich_Waltz-No-2.ly:34:5:6">
<g transform="translate(85.1018, 25.5168)">
<path transform="scale(0.0040, -0.0040)" d="M-4 79c0 59 125 82 125 181c0 24 -8 47 -24 67l-39 46c-2 3 -3 6 -3 9c0 7 7 14 14 14c3 0 7 -1 10 -5l152 -182c7 -8 10 -17 10 -25c0 -59 -125 -82 -125 -181c0 -24 8 -47 24 -67l87 -104c2 -3 3 -5 3 -8c0 -7 -7 -14 -14 -14c-6 0 -48 48 -112 48
c-14 0 -52 -1 -52 -70c0 -35 11 -75 28 -96c6 -7 -4 -16 -10 -9c-46 55 -93 150 -93 204c0 12 0 40 36 40c34 0 85 -15 130 -37l-137 164c-7 8 -10 17 -10 25z" fill="currentColor"/>
</g>
</a>
<a style="color:inherit;" xlink:href="textedit:///Users/marc.mouries/projects/Sheet-Music/Learn-Violin-with-Famous-Themes/Shostakovich_Waltz-No-2.ly:33:9:10">
<g transform="translate(76.8587, 22.7668)">
<path transform="scale(0.0040, -0.0040)" d="M222 135c64 0 104 -35 104 -86c0 -89 -114 -184 -221 -184c-64 0 -105 35 -105 86c0 89 115 184 222 184z" fill="currentColor"/>
</g>
</a>
<g transform="translate(76.9165, 25.5168)">
<rect x="-0.0579" y="-2.5533" width="0.1158" height="3.6533" ry="0.0333" fill="currentColor"/>
</g>
<a style="color:inherit;" xlink:href="textedit:///Users/marc.mouries/projects/Sheet-Music/Learn-Violin-with-Famous-Themes/Shostakovich_Waltz-No-2.ly:34:2:3">
<g transform="translate(80.8317, 21.1168)">
<path transform="scale(0.0040, -0.0040)" d="M316 67c0 23 -18 42 -42 42c-40 0 -209 -113 -237 -147c-7 -8 -10 -19 -10 -29c0 -23 18 -42 42 -42c40 0 209 113 237 147c7 8 10 19 10 29zM265 135c38 0 78 -13 78 -68c0 -27 -19 -111 -76 -150c-19 -13 -85 -52 -189 -52c-38 0 -78 13 -78 68c0 27 19 111 76 150
c19 13 85 52 189 52z" fill="currentColor"/>
</g>
</a>
<g transform="translate(80.8896, 25.5168)">
<rect x="-0.0579" y="-4.1316" width="0.1158" height="4.1316" ry="0.0333" fill="currentColor"/>
</g>
<g transform="translate(48.8249, 137.9959)">
<text font-family="serif" font-size="1.9603" text-anchor="start" fill="currentColor">
<tspan>14</tspan>
</text>
</g>
</svg>
