<svg xmlns="http://www.w3.org/2000/svg" xmlns:xlink="http://www.w3.org/1999/xlink" version="1.2" width="210.00mm" height="297.00mm" viewBox="0.0000 -0.0000 99.5846 140.8411">
<style type="text/css">
<![CDATA[
tspan { white-space: pre; }
]]>
</style>
<g transform="translate(49.5220, 2.3711)">
<text font-family="serif" font-size="2.2002" text-anchor="start" fill="currentColor">
<tspan> </tspan>
</text>
</g>
<g transform="translate(33.8730, 6.3850)">
<text font-family="Optima" font-weight="bold" font-size="4.3999" text-anchor="start" fill="currentColor">
<tspan>M</tspan>
</text>
</g>
<g transform="translate(37.7710, 6.3850)">
<text font-family="Optima" font-weight="bold" font-size="3.4922" text-anchor="start" fill="currentColor">
<tspan>ORNING</tspan>
</text>
</g>
<g transform="translate(52.0828, 6.3850)">
<text font-family="Optima" font-weight="bold" font-size="4.3999" text-anchor="start" fill="currentColor">
<tspan> M</tspan>
</text>
</g>
<g transform="translate(57.2043, 6.3850)">
<text font-family="Optima" font-weight="bold" font-size="3.4922" text-anchor="start" fill="currentColor">
<tspan>OOD</tspan>
</text>
</g>
<g transform="translate(73.0477, 6.3850)">
<text font-family="Optima" font-size="1.9598" text-anchor="start" fill="currentColor">
<tspan>Edvard Grieg (1843-1907)</tspan>
</text>
</g>
<g transform="translate(4.7421, 24.3170)">
<rect x="74.9235" y="-0.0995" width="1.9587" height="0.1990" ry="0.0995" fill="currentColor"/>
</g>
<g transform="translate(4.7421, 23.2170)">
<rect x="71.0086" y="-0.0995" width="1.9587" height="0.1990" ry="0.0995" fill="currentColor"/>
</g>
<g transform="translate(4.7421, 24.3170)">
<rect x="71.0086" y="-0.0995" width="1.9587" height="0.1990" ry="0.0995" fill="currentColor"/>
</g>
<g transform="translate(4.7421, 23.2170)">
<rect x="65.4943" y="-0.0995" width="1.9587" height="0.1990" ry="0.0995" fill="currentColor"/>
</g>
<g transform="translate(4.7421, 24.3170)">
<rect x="65.4943" y="-0.0995" width="1.9587" height="0.1990" ry="0.0995" fill="currentColor"/>
</g>
<g transform="translate(4.7421, 24.3170)">
<rect x="62.7371" y="-0.0995" width="1.9587" height="0.1990" ry="0.0995" fill="currentColor"/>
</g>
<g transform="translate(4.7421, 24.3170)">
<rect x="57.3027" y="-0.0995" width="1.8789" height="0.1990" ry="0.0995" fill="currentColor"/>
</g>
<g transform="translate(4.7421, 24.3170)">
<rect x="55.8046" y="-0.0995" width="1.3818" height="0.1990" ry="0.0995" fill="currentColor"/>
</g>
<g transform="translate(4.7421, 24.3170)">
<rect x="38.8295" y="-0.0995" width="1.3818" height="0.1990" ry="0.0995" fill="currentColor"/>
</g>
<g transform="translate(4.7421, 24.3170)">
<rect x="35.1033" y="-0.0995" width="1.9587" height="0.1990" ry="0.0995" fill="currentColor"/>
</g>
<g transform="translate(4.7421, 24.3170)">
<rect x="17.6883" y="-0.0995" width="1.9587" height="0.1990" ry="0.0995" fill="currentColor"/>
</g>
<g transform="translate(9.4843, 29.8170)">
<line stroke-linejoin="round" stroke-linecap="round" stroke-width="0.0890" stroke="currentColor" x1="0.0445" y1="0" x2="85.3137" y2="0"/>
</g>
<g transform="translate(9.4843, 28.7170)">
<line stroke-linejoin="round" stroke-linecap="round" stroke-width="0.0890" stroke="currentColor" x1="0.0445" y1="0" x2="85.3137" y2="0"/>
</g>
<g transform="translate(9.4843, 27.6170)">
<line stroke-linejoin="round" stroke-linecap="round" stroke-width="0.0890" stroke="currentColor" x1="0.0445" y1="0" x2="85.3137" y2="0"/>
</g>
<g transform="translate(9.4843, 26.5170)">
<line stroke-linejoin="round" stroke-linecap="round" stroke-width="0.0890" stroke="currentColor" x1="0.0445" y1="0" x2="85.3137" y2="0"/>
</g>
<g transform="translate(9.4843, 25.4170)">
<line stroke-linejoin="round" stroke-linecap="round" stroke-width="0.0890" stroke="currentColor" x1="0.0445" y1="0" x2="85.3137" y2="0"/>
</g>
<g transform="translate(94.6733, 27.6170)">
<rect x="0.0000" y="-2.2000" width="0.1692" height="4.4000" ry="0.0000" fill="currentColor"/>
</g>
<g transform="translate(78.6200, 27.6170)">
<rect x="0.0000" y="-2.2000" width="0.1692" height="4.4000" ry="0.0000" fill="currentColor"/>
</g>
<g transform="translate(58.3412, 27.6170)">
<rect x="0.0000" y="-2.2000" width="0.1692" height="4.4000" ry="0.0000" fill="currentColor"/>
</g>
<g transform="translate(38.7998, 27.6170)">
<rect x="0.0000" y="-2.2000" width="0.1692" height="4.4000" ry="0.0000" fill="currentColor"/>
</g>
<g transform="translate(60.1353, 27.6170)">
<rect x="-0.0579" y="-5.3452" width="0.1158" height="2.4684" ry="0.0333" fill="currentColor"/>
</g>
<a style="color:inherit;" xlink:href="textedit:///Users/marc.mouries/projects/Sheet-Music/Learn-Violin-with-Famous-Themes/Grieg_Morning-Mood.ly:24:4:5">
<g transform="translate(22.7569, 23.7670)">
<path transform="scale(0.0040, -0.0040)" d="M222 135c64 0 104 -35 104 -86c0 -89 -114 -184 -221 -184c-64 0 -105 35 -105 86c0 89 115 184 222 184z" fill="currentColor"/>
</g>
</a>
<g transform="translate(10.2843, 28.7170)">
<path transform="scale(0.0040, -0.0040)" d="M264 -594c47 0 165 26 165 246c0 32 -2 64 -5 96c-5 -1 -44 -8 -89 -8c-193 0 -333 178 -333 372c0 178 133 306 251 440c-27 93 -49 170 -49 345c0 116 55 226 150 295c5 4 11 4 16 0c67 -81 132 -246 132 -359c0 -144 -87 -256 -183 -365c20 -69 39 -138 55 -208
c2 0 7 1 15 1c154 0 254 -127 254 -259c0 -112 -73 -212 -180 -245c3 -36 5 -72 5 -108c0 -19 0 -37 -1 -56c-7 -120 -89 -226 -206 -226c-108 0 -195 87 -195 195c0 58 53 104 112 104c54 0 95 -48 95 -104c0 -52 -43 -95 -95 -95c-12 0 -24 4 -35 9c26 -41 70 -70 121 -70
zM459 -205c71 24 117 92 117 166c0 92 -69 184 -179 193c1 -5 45 -212 62 -359zM71 31c0 -146 142 -251 267 -251c1 0 46 0 82 6c-7 63 -28 201 -64 367c-79 -9 -125 -62 -125 -121c0 -44 26 -92 82 -124c4 -4 7 -9 7 -14c0 -11 -9 -21 -20 -21c-14 0 -125 62 -125 186
c0 88 57 173 158 196c-14 60 -30 119 -46 178c-108 -121 -216 -242 -216 -402zM411 1050c-99 -50 -161 -151 -161 -262c0 -59 11 -123 33 -200c82 97 149 198 149 325c0 35 0 69 -21 137z" fill="currentColor"/>
</g>
<a style="color:inherit;" xlink:href="textedit:///Users/marc.mouries/projects/Sheet-Music/Learn-Violin-with-Famous-Themes/Grieg_Morning-Mood.ly:20:2:3">
<g transform="translate(13.7843, 25.4170)">
<path transform="scale(0.0040, -0.0040)" d="M0 121c0 7 5 13 11 15l49 17v163c0 9 8 17 17 17s17 -8 17 -17v-151l87 31v162c0 9 8 17 17 17s17 -8 17 -17v-150l39 13c10 4 21 -4 21 -15v-64c0 -7 -5 -13 -11 -15l-49 -18v-164l39 14c10 4 21 -4 21 -15v-65c0 -7 -5 -13 -11 -15l-49 -17v-163c0 -9 -8 -17 -17 -17
s-17 8 -17 17v151l-87 -31v-162c0 -9 -8 -17 -17 -17s-17 8 -17 17v150l-39 -13c-10 -4 -21 4 -21 15v64c0 7 5 13 11 15l49 18v164l-39 -14c-10 -4 -21 4 -21 15v65zM181 97l-87 -30v-164l87 30v164z" fill="currentColor"/>
</g>
<g transform="translate(14.8843, 27.0670)">
<path transform="scale(0.0040, -0.0040)" d="M0 121c0 7 5 13 11 15l49 17v163c0 9 8 17 17 17s17 -8 17 -17v-151l87 31v162c0 9 8 17 17 17s17 -8 17 -17v-150l39 13c10 4 21 -4 21 -15v-64c0 -7 -5 -13 -11 -15l-49 -18v-164l39 14c10 4 21 -4 21 -15v-65c0 -7 -5 -13 -11 -15l-49 -17v-163c0 -9 -8 -17 -17 -17
s-17 8 -17 17v151l-87 -31v-162c0 -9 -8 -17 -17 -17s-17 8 -17 17v150l-39 -13c-10 -4 -21 4 -21 15v64c0 7 5 13 11 15l49 18v164l-39 -14c-10 -4 -21 4 -21 15v65zM181 97l-87 -30v-164l87 30v164z" fill="currentColor"/>
</g>
<g transform="translate(15.9843, 24.8670)">
<path transform="scale(0.0040, -0.0040)" d="M0 121c0 7 5 13 11 15l49 17v163c0 9 8 17 17 17s17 -8 17 -17v-151l87 31v162c0 9 8 17 17 17s17 -8 17 -17v-150l39 13c10 4 21 -4 21 -15v-64c0 -7 -5 -13 -11 -15l-49 -18v-164l39 14c10 4 21 -4 21 -15v-65c0 -7 -5 -13 -11 -15l-49 -17v-163c0 -9 -8 -17 -17 -17
s-17 8 -17 17v151l-87 -31v-162c0 -9 -8 -17 -17 -17s-17 8 -17 17v150l-39 -13c-10 -4 -21 4 -21 15v64c0 7 5 13 11 15l49 18v164l-39 -14c-10 -4 -21 4 -21 15v65zM181 97l-87 -30v-164l87 30v164z" fill="currentColor"/>
</g>
<g transform="translate(17.0843, 26.5170)">
<path transform="scale(0.0040, -0.0040)" d="M0 121c0 7 5 13 11 15l49 17v163c0 9 8 17 17 17s17 -8 17 -17v-151l87 31v162c0 9 8 17 17 17s17 -8 17 -17v-150l39 13c10 4 21 -4 21 -15v-64c0 -7 -5 -13 -11 -15l-49 -18v-164l39 14c10 4 21 -4 21 -15v-65c0 -7 -5 -13 -11 -15l-49 -17v-163c0 -9 -8 -17 -17 -17
s-17 8 -17 17v151l-87 -31v-162c0 -9 -8 -17 -17 -17s-17 8 -17 17v150l-39 -13c-10 -4 -21 4 -21 15v64c0 7 5 13 11 15l49 18v164l-39 -14c-10 -4 -21 4 -21 15v65zM181 97l-87 -30v-164l87 30v164z" fill="currentColor"/>
</g>
</a>
<a style="color:inherit;" xlink:href="textedit:///Users/marc.mouries/projects/Sheet-Music/Learn-Violin-with-Famous-Themes/Grieg_Morning-Mood.ly:21:2:3">
<g transform="translate(19.3770, 27.6170)">
<path transform="scale(0.0040, -0.0040)" d="M166 257c-57 0 -57 -52 -57 -118s0 -118 57 -118c58 0 64 51 64 118s-6 118 -64 118zM109 259c16 12 35 19 57 19c99 0 167 -46 167 -139s-68 -139 -167 -139c-111 0 -166 125 -166 250c0 128 69 250 186 250c68 0 133 -38 133 -101c0 -36 -29 -65 -65 -65s-65 29 -65 65
c0 23 39 26 39 49c0 19 -21 31 -42 31c-70 0 -78 -71 -78 -151c0 -23 1 -46 1 -69z" fill="currentColor"/>
</g>
<g transform="translate(19.3343, 29.6169)">
<path transform="scale(0.0040, -0.0040)" d="M256 283c26 31 45 65 45 105c0 55 -55 91 -114 91c-48 0 -76 -37 -76 -74c0 -22 10 -45 33 -58zM284 266c23 -13 80 -53 80 -124c0 -72 -65 -142 -185 -142c-92 0 -179 53 -179 138c0 51 37 90 73 126c-38 28 -57 66 -57 104c0 67 60 132 171 132c78 0 154 -41 154 -112
c0 -47 -25 -87 -57 -122zM101 246c-32 -31 -61 -64 -61 -108c0 -69 66 -117 139 -117c55 0 88 43 88 85c0 25 -11 51 -37 66z" fill="currentColor"/>
</g>
</a>
<a style="color:inherit;" xlink:href="textedit:///Users/marc.mouries/projects/Sheet-Music/Learn-Violin-with-Famous-Themes/Grieg_Morning-Mood.ly:22:2:3">
<g transform="translate(19.3343, 20.0656)">
<text font-family="serif" font-weight="bold" font-size="2.2002" text-anchor="start" fill="currentColor">
<tspan>Allegretto pastorale</tspan>
</text>
</g>
<g transform="translate(37.9424, 20.0656)">
<text font-family="serif" font-size="2.2002" text-anchor="start" fill="currentColor">
<tspan> (</tspan>
</text>
</g>
<g transform="translate(40.7896, 19.5829)">
<path transform="scale(0.0036, -0.0036)" d="M0 0c0 31 26 57 57 57s56 -26 56 -57s-25 -57 -56 -57s-57 26 -57 57z" fill="currentColor"/>
</g>
<g transform="translate(39.2228, 19.5829)">
<rect x="1.0470" y="-2.6727" width="0.1158" height="2.5018" ry="0.0193" fill="currentColor"/>
</g>
<g transform="translate(39.2228, 19.5829)">
<path transform="scale(0.0036, -0.0036)" d="M220 135c11 0 106 -2 106 -87c0 -89 -114 -183 -220 -183c-11 0 -106 2 -106 87c0 89 114 183 220 183z" fill="currentColor"/>
</g>
<g transform="translate(41.1937, 20.0656)">
<text font-family="serif" font-size="2.2002" text-anchor="start" fill="currentColor">
<tspan> = 48)</tspan>
</text>
</g>
</a>
<g transform="translate(22.8148, 27.6170)">
<rect x="-0.0579" y="-3.6533" width="0.1158" height="3.8799" ry="0.0333" fill="currentColor"/>
</g>
<g transform="translate(70.5629, 27.6170)">
<polygon stroke-linejoin="round" stroke-linecap="round" stroke-width="0.0667" fill="currentColor" stroke="currentColor" points="5.5967 -0.2307 5.5967 0.2307 0.0333 0.2307 0.0333 -0.2307"/>
</g>
<a style="color:inherit;" xlink:href="textedit:///Users/marc.mouries/projects/Sheet-Music/Learn-Violin-with-Famous-Themes/Grieg_Morning-Mood.ly:24:8:9">
<g transform="translate(25.2641, 24.8670)">
<path transform="scale(0.0040, -0.0040)" d="M222 135c64 0 104 -35 104 -86c0 -89 -114 -184 -221 -184c-64 0 -105 35 -105 86c0 89 115 184 222 184z" fill="currentColor"/>
</g>
</a>
<g transform="translate(25.3220, 27.6170)">
<rect x="-0.0579" y="-2.5533" width="0.1158" height="3.0879" ry="0.0333" fill="currentColor"/>
</g>
<a style="color:inherit;" xlink:href="textedit:///Users/marc.mouries/projects/Sheet-Music/Learn-Violin-with-Famous-Themes/Grieg_Morning-Mood.ly:27:6:7">
<g transform="translate(79.9920, 27.6170)">
<path stroke-width="0.0712" stroke-linejoin="round" stroke-linecap="round" stroke="currentColor" fill="currentColor" d="M0.7680 -4.9389C2.7519 -5.8706 7.5585 -4.5523 8.7895 -2.7389L8.7895 -2.7389C7.5303 -4.4493 2.7236 -5.7676 0.7680 -4.9389z"/>
</g>
</a>
<a style="color:inherit;" xlink:href="textedit:///Users/marc.mouries/projects/Sheet-Music/Learn-Violin-with-Famous-Themes/Grieg_Morning-Mood.ly:24:11:12">
<g transform="translate(28.0212, 25.4170)">
<path transform="scale(0.0040, -0.0040)" d="M222 135c64 0 104 -35 104 -86c0 -89 -114 -184 -221 -184c-64 0 -105 35 -105 86c0 89 115 184 222 184z" fill="currentColor"/>
</g>
</a>
<g transform="translate(28.0791, 27.6170)">
<rect x="-0.0579" y="-2.0033" width="0.1158" height="2.8767" ry="0.0333" fill="currentColor"/>
</g>
<g transform="translate(62.2914, 27.6170)">
<polygon stroke-linejoin="round" stroke-linecap="round" stroke-width="0.0667" fill="currentColor" stroke="currentColor" points="5.5967 -0.2307 5.5967 0.2307 0.0333 0.2307 0.0333 -0.2307"/>
</g>
<a style="color:inherit;" xlink:href="textedit:///Users/marc.mouries/projects/Sheet-Music/Learn-Violin-with-Famous-Themes/Grieg_Morning-Mood.ly:24:15:16">
<g transform="translate(30.7784, 25.9670)">
<path transform="scale(0.0040, -0.0040)" d="M222 135c64 0 104 -35 104 -86c0 -89 -114 -184 -221 -184c-64 0 -105 35 -105 86c0 89 115 184 222 184z" fill="currentColor"/>
</g>
</a>
<g transform="translate(30.8363, 27.6170)">
<rect x="-0.0579" y="-1.4533" width="0.1158" height="3.4270" ry="0.0333" fill="currentColor"/>
</g>
<a style="color:inherit;" xlink:href="textedit:///Users/marc.mouries/projects/Sheet-Music/Learn-Violin-with-Famous-Themes/Grieg_Morning-Mood.ly:26:40:41">
<g transform="translate(70.5629, 27.6170)">
<path stroke-width="0.0712" stroke-linejoin="round" stroke-linecap="round" stroke="currentColor" fill="currentColor" d="M0.6529 -5.4889C1.9196 -6.6313 4.9005 -6.6313 6.1672 -5.4889L6.1672 -5.4889C4.9005 -6.5244 1.9196 -6.5244 0.6529 -5.4889z"/>
</g>
</a>
<a style="color:inherit;" xlink:href="textedit:///Users/marc.mouries/projects/Sheet-Music/Learn-Violin-with-Famous-Themes/Grieg_Morning-Mood.ly:24:17:18">
<g transform="translate(33.5355, 25.4170)">
<path transform="scale(0.0040, -0.0040)" d="M222 135c64 0 104 -35 104 -86c0 -89 -114 -184 -221 -184c-64 0 -105 35 -105 86c0 89 115 184 222 184z" fill="currentColor"/>
</g>
</a>
<g transform="translate(33.5934, 27.6170)">
<rect x="-0.0579" y="-2.0033" width="0.1158" height="3.6533" ry="0.0333" fill="currentColor"/>
</g>
<g transform="translate(60.0774, 22.2837)">
<polygon stroke-linejoin="round" stroke-linecap="round" stroke-width="0.0667" fill="currentColor" stroke="currentColor" points="1.5874 -0.5112 1.5874 -0.1555 0.0333 0.1779 0.0333 -0.1779"/>
</g>
<g transform="translate(60.0774, 22.9881)">
<polygon stroke-linejoin="round" stroke-linecap="round" stroke-width="0.0667" fill="currentColor" stroke="currentColor" points="1.5874 -0.5112 1.5874 -0.1555 0.0333 0.1779 0.0333 -0.1779"/>
</g>
<a style="color:inherit;" xlink:href="textedit:///Users/marc.mouries/projects/Sheet-Music/Learn-Violin-with-Famous-Themes/Grieg_Morning-Mood.ly:24:20:21">
<g transform="translate(36.2927, 24.8670)">
<path transform="scale(0.0040, -0.0040)" d="M222 135c64 0 104 -35 104 -86c0 -89 -114 -184 -221 -184c-64 0 -105 35 -105 86c0 89 115 184 222 184z" fill="currentColor"/>
</g>
</a>
<g transform="translate(36.3506, 27.6170)">
<rect x="-0.0579" y="-2.5533" width="0.1158" height="3.8795" ry="0.0333" fill="currentColor"/>
</g>
<a style="color:inherit;" xlink:href="textedit:///Users/marc.mouries/projects/Sheet-Music/Learn-Violin-with-Famous-Themes/Grieg_Morning-Mood.ly:26:29:30">
<g transform="translate(62.2914, 27.6170)">
<path stroke-width="0.0712" stroke-linejoin="round" stroke-linecap="round" stroke="currentColor" fill="currentColor" d="M0.6529 -4.9389C1.9196 -6.0813 4.9005 -6.0813 6.1672 -4.9389L6.1672 -4.9389C4.9005 -5.9744 1.9196 -5.9744 0.6529 -4.9389z"/>
</g>
</a>
<g transform="translate(50.8212, 29.5975)">
<polygon stroke-linejoin="round" stroke-linecap="round" stroke-width="0.0667" fill="currentColor" stroke="currentColor" points="5.5967 -0.8917 5.5967 -0.4304 0.0333 0.2307 0.0333 -0.2307"/>
</g>
<a style="color:inherit;" xlink:href="textedit:///Users/marc.mouries/projects/Sheet-Music/Learn-Violin-with-Famous-Themes/Grieg_Morning-Mood.ly:25:4:5">
<g transform="translate(40.1718, 23.7670)">
<path transform="scale(0.0040, -0.0040)" d="M222 135c64 0 104 -35 104 -86c0 -89 -114 -184 -221 -184c-64 0 -105 35 -105 86c0 89 115 184 222 184z" fill="currentColor"/>
</g>
</a>
<g transform="translate(40.2297, 27.6170)">
<rect x="-0.0579" y="-3.6533" width="0.1158" height="3.8775" ry="0.0333" fill="currentColor"/>
</g>
<a style="color:inherit;" xlink:href="textedit:///Users/marc.mouries/projects/Sheet-Music/Learn-Violin-with-Famous-Themes/Grieg_Morning-Mood.ly:25:17:18">
<g transform="translate(42.2969, 24.8670)">
<path transform="scale(0.0028, -0.0028)" d="M215 137c67 0 111 -37 111 -92c0 -90 -111 -182 -215 -182c-67 0 -111 37 -111 92c0 90 111 182 215 182z" fill="currentColor"/>
</g>
</a>
<g transform="translate(43.1602, 27.6170)">
<rect x="-0.0579" y="-5.3452" width="0.1158" height="2.4684" ry="0.0333" fill="currentColor"/>
</g>
<a style="color:inherit;" xlink:href="textedit:///Applications/lilypond-2.24.4/share/lilypond/2.24.4/ly/grace-init.ly:33:6:7">
<g transform="translate(59.2720, 27.6170)">
<path stroke-width="0.0712" stroke-linejoin="round" stroke-linecap="round" stroke="currentColor" fill="currentColor" d="M0.5796 -1.8121C1.4151 -1.5178 2.3766 -1.9442 2.7194 -2.7611L2.7194 -2.7611C2.3333 -2.0419 1.3718 -1.6155 0.5796 -1.8121z"/>
</g>
</a>
<a style="color:inherit;" xlink:href="textedit:///Users/marc.mouries/projects/Sheet-Music/Learn-Violin-with-Famous-Themes/Grieg_Morning-Mood.ly:25:22:23">
<g transform="translate(43.8019, 24.3170)">
<path transform="scale(0.0028, -0.0028)" d="M215 137c67 0 111 -37 111 -92c0 -90 -111 -182 -215 -182c-67 0 -111 37 -111 92c0 90 111 182 215 182z" fill="currentColor"/>
</g>
</a>
<g transform="translate(44.6652, 27.6170)">
<rect x="-0.0579" y="-5.6548" width="0.1158" height="2.2279" ry="0.0333" fill="currentColor"/>
</g>
<g transform="translate(43.1024, 22.2837)">
<polygon stroke-linejoin="round" stroke-linecap="round" stroke-width="0.0667" fill="currentColor" stroke="currentColor" points="1.5874 -0.5112 1.5874 -0.1555 0.0333 0.1779 0.0333 -0.1779"/>
</g>
<g transform="translate(43.1024, 22.9881)">
<polygon stroke-linejoin="round" stroke-linecap="round" stroke-width="0.0667" fill="currentColor" stroke="currentColor" points="1.5874 -0.5112 1.5874 -0.1555 0.0333 0.1779 0.0333 -0.1779"/>
</g>
<a style="color:inherit;" xlink:href="textedit:///Users/marc.mouries/projects/Sheet-Music/Learn-Violin-with-Famous-Themes/Grieg_Morning-Mood.ly:25:25:26">
<g transform="translate(45.3069, 24.8670)">
<path transform="scale(0.0040, -0.0040)" d="M222 135c64 0 104 -35 104 -86c0 -89 -114 -184 -221 -184c-64 0 -105 35 -105 86c0 89 115 184 222 184z" fill="currentColor"/>
</g>
</a>
<g transform="translate(45.3648, 27.6170)">
<rect x="-0.0579" y="-2.5533" width="0.1158" height="3.2014" ry="0.0333" fill="currentColor"/>
</g>
<a style="color:inherit;" xlink:href="textedit:///Users/marc.mouries/projects/Sheet-Music/Learn-Violin-with-Famous-Themes/Grieg_Morning-Mood.ly:25:29:30">
<g transform="translate(48.0641, 25.4170)">
<path transform="scale(0.0040, -0.0040)" d="M222 135c64 0 104 -35 104 -86c0 -89 -114 -184 -221 -184c-64 0 -105 35 -105 86c0 89 115 184 222 184z" fill="currentColor"/>
</g>
</a>
<g transform="translate(48.1219, 27.6170)">
<rect x="-0.0579" y="-2.0033" width="0.1158" height="2.8790" ry="0.0333" fill="currentColor"/>
</g>
<g transform="translate(30.7784, 29.5975)">
<polygon stroke-linejoin="round" stroke-linecap="round" stroke-width="0.0667" fill="currentColor" stroke="currentColor" points="5.5967 -0.8917 5.5967 -0.4304 0.0333 0.2307 0.0333 -0.2307"/>
</g>
<a style="color:inherit;" xlink:href="textedit:///Users/marc.mouries/projects/Sheet-Music/Learn-Violin-with-Famous-Themes/Grieg_Morning-Mood.ly:25:34:35">
<g transform="translate(50.8212, 25.9670)">
<path transform="scale(0.0040, -0.0040)" d="M222 135c64 0 104 -35 104 -86c0 -89 -114 -184 -221 -184c-64 0 -105 35 -105 86c0 89 115 184 222 184z" fill="currentColor"/>
</g>
</a>
<g transform="translate(50.8791, 27.6170)">
<rect x="-0.0579" y="-1.4533" width="0.1158" height="3.4270" ry="0.0333" fill="currentColor"/>
</g>
<a style="color:inherit;" xlink:href="textedit:///Users/marc.mouries/projects/Sheet-Music/Learn-Violin-with-Famous-Themes/Grieg_Morning-Mood.ly:25:6:7">
<g transform="translate(40.1718, 27.6170)">
<path stroke-width="0.0712" stroke-linejoin="round" stroke-linecap="round" stroke="currentColor" fill="currentColor" d="M0.7116 -6.0389C3.3274 -7.4895 14.7423 -5.9358 16.8753 -3.8389L16.8753 -3.8389C14.7279 -5.8300 3.3130 -7.3836 0.7116 -6.0389z"/>
</g>
</a>
<a style="color:inherit;" xlink:href="textedit:///Users/marc.mouries/projects/Sheet-Music/Learn-Violin-with-Famous-Themes/Grieg_Morning-Mood.ly:25:36:37">
<g transform="translate(53.5784, 25.4170)">
<path transform="scale(0.0040, -0.0040)" d="M222 135c64 0 104 -35 104 -86c0 -89 -114 -184 -221 -184c-64 0 -105 35 -105 86c0 89 115 184 222 184z" fill="currentColor"/>
</g>
</a>
<g transform="translate(53.6362, 27.6170)">
<rect x="-0.0579" y="-2.0033" width="0.1158" height="3.6533" ry="0.0333" fill="currentColor"/>
</g>
<a style="color:inherit;" xlink:href="textedit:///Users/marc.mouries/projects/Sheet-Music/Learn-Violin-with-Famous-Themes/Grieg_Morning-Mood.ly:25:7:8">
<g transform="translate(40.1718, 27.8365)">
<polygon stroke-linejoin="round" stroke-linecap="round" stroke-width="0.0667" fill="currentColor" stroke="currentColor" points="7.9746 0.4304 7.9746 0.8917 0.0333 0.2307 0.0333 -0.2307"/>
</g>
</a>
<a style="color:inherit;" xlink:href="textedit:///Users/marc.mouries/projects/Sheet-Music/Learn-Violin-with-Famous-Themes/Grieg_Morning-Mood.ly:25:39:40">
<g transform="translate(56.3355, 24.8670)">
<path transform="scale(0.0040, -0.0040)" d="M222 135c64 0 104 -35 104 -86c0 -89 -114 -184 -221 -184c-64 0 -105 35 -105 86c0 89 115 184 222 184z" fill="currentColor"/>
</g>
</a>
<g transform="translate(56.3934, 27.6170)">
<rect x="-0.0579" y="-2.5533" width="0.1158" height="3.8795" ry="0.0333" fill="currentColor"/>
</g>
<g transform="translate(22.7569, 27.8365)">
<polygon stroke-linejoin="round" stroke-linecap="round" stroke-width="0.0667" fill="currentColor" stroke="currentColor" points="5.3467 0.4304 5.3467 0.8917 0.0333 0.2307 0.0333 -0.2307"/>
</g>
<a style="color:inherit;" xlink:href="textedit:///Users/marc.mouries/projects/Sheet-Music/Learn-Violin-with-Famous-Themes/Grieg_Morning-Mood.ly:24:6:7">
<g transform="translate(22.7569, 27.6170)">
<path stroke-width="0.0712" stroke-linejoin="round" stroke-linecap="round" stroke="currentColor" fill="currentColor" d="M0.6882 -4.9389C3.0143 -6.4609 12.1741 -5.7166 14.2239 -3.8389L14.2239 -3.8389C12.1654 -5.6101 3.0056 -6.3544 0.6882 -4.9389z"/>
</g>
</a>
<a style="color:inherit;" xlink:href="textedit:///Users/marc.mouries/projects/Sheet-Music/Learn-Violin-with-Famous-Themes/Grieg_Morning-Mood.ly:26:19:20">
<g transform="translate(59.2720, 24.8670)">
<path transform="scale(0.0028, -0.0028)" d="M215 137c67 0 111 -37 111 -92c0 -90 -111 -182 -215 -182c-67 0 -111 37 -111 92c0 90 111 182 215 182z" fill="currentColor"/>
</g>
</a>
<g transform="translate(79.9920, 27.8365)">
<polygon stroke-linejoin="round" stroke-linecap="round" stroke-width="0.0667" fill="currentColor" stroke="currentColor" points="5.3467 0.4304 5.3467 0.8917 0.0333 0.2307 0.0333 -0.2307"/>
</g>
<a style="color:inherit;" xlink:href="textedit:///Users/marc.mouries/projects/Sheet-Music/Learn-Violin-with-Famous-Themes/Grieg_Morning-Mood.ly:26:24:25">
<g transform="translate(60.7770, 24.3170)">
<path transform="scale(0.0028, -0.0028)" d="M215 137c67 0 111 -37 111 -92c0 -90 -111 -182 -215 -182c-67 0 -111 37 -111 92c0 90 111 182 215 182z" fill="currentColor"/>
</g>
</a>
<g transform="translate(61.6403, 27.6170)">
<rect x="-0.0579" y="-5.6548" width="0.1158" height="2.2279" ry="0.0333" fill="currentColor"/>
</g>
<a style="color:inherit;" xlink:href="textedit:///Users/marc.mouries/projects/Sheet-Music/Learn-Violin-with-Famous-Themes/Grieg_Morning-Mood.ly:26:27:28">
<g transform="translate(62.2914, 23.7670)">
<path transform="scale(0.0040, -0.0040)" d="M222 135c64 0 104 -35 104 -86c0 -89 -114 -184 -221 -184c-64 0 -105 35 -105 86c0 89 115 184 222 184z" fill="currentColor"/>
</g>
</a>
<g transform="translate(62.3493, 27.6170)">
<rect x="-0.0579" y="-3.6533" width="0.1158" height="3.6533" ry="0.0333" fill="currentColor"/>
</g>
<a style="color:inherit;" xlink:href="textedit:///Users/marc.mouries/projects/Sheet-Music/Learn-Violin-with-Famous-Themes/Grieg_Morning-Mood.ly:26:31:32">
<g transform="translate(64.7986, 24.8670)">
<path transform="scale(0.0040, -0.0040)" d="M222 135c64 0 104 -35 104 -86c0 -89 -114 -184 -221 -184c-64 0 -105 35 -105 86c0 89 115 184 222 184z" fill="currentColor"/>
</g>
</a>
<g transform="translate(64.8564, 27.6170)">
<rect x="-0.0579" y="-2.5533" width="0.1158" height="2.5533" ry="0.0333" fill="currentColor"/>
</g>
<a style="color:inherit;" xlink:href="textedit:///Users/marc.mouries/projects/Sheet-Music/Learn-Violin-with-Famous-Themes/Grieg_Morning-Mood.ly:26:34:35">
<g transform="translate(67.8057, 23.7670)">
<path transform="scale(0.0040, -0.0040)" d="M222 135c64 0 104 -35 104 -86c0 -89 -114 -184 -221 -184c-64 0 -105 35 -105 86c0 89 115 184 222 184z" fill="currentColor"/>
</g>
</a>
<g transform="translate(67.8636, 27.6170)">
<rect x="-0.0579" y="-3.6533" width="0.1158" height="3.6533" ry="0.0333" fill="currentColor"/>
</g>
<a style="color:inherit;" xlink:href="textedit:///Users/marc.mouries/projects/Sheet-Music/Learn-Violin-with-Famous-Themes/Grieg_Morning-Mood.ly:26:38:39">
<g transform="translate(70.5629, 23.2170)">
<path transform="scale(0.0040, -0.0040)" d="M222 135c64 0 104 -35 104 -86c0 -89 -114 -184 -221 -184c-64 0 -105 35 -105 86c0 89 115 184 222 184z" fill="currentColor"/>
</g>
</a>
<g transform="translate(70.6207, 27.6170)">
<rect x="-0.0579" y="-4.2033" width="0.1158" height="4.2033" ry="0.0333" fill="currentColor"/>
</g>
<a style="color:inherit;" xlink:href="textedit:///Users/marc.mouries/projects/Sheet-Music/Learn-Violin-with-Famous-Themes/Grieg_Morning-Mood.ly:26:42:43">
<g transform="translate(73.0700, 24.8670)">
<path transform="scale(0.0040, -0.0040)" d="M222 135c64 0 104 -35 104 -86c0 -89 -114 -184 -221 -184c-64 0 -105 35 -105 86c0 89 115 184 222 184z" fill="currentColor"/>
</g>
</a>
<g transform="translate(73.1279, 27.6170)">
<rect x="-0.0579" y="-2.5533" width="0.1158" height="2.5533" ry="0.0333" fill="currentColor"/>
</g>
<a style="color:inherit;" xlink:href="textedit:///Users/marc.mouries/projects/Sheet-Music/Learn-Violin-with-Famous-Themes/Grieg_Morning-Mood.ly:26:45:46">
<g transform="translate(76.0772, 23.2170)">
<path transform="scale(0.0040, -0.0040)" d="M222 135c64 0 104 -35 104 -86c0 -89 -114 -184 -221 -184c-64 0 -105 35 -105 86c0 89 115 184 222 184z" fill="currentColor"/>
</g>
</a>
<g transform="translate(76.1350, 27.6170)">
<rect x="-0.0579" y="-4.2033" width="0.1158" height="4.2033" ry="0.0333" fill="currentColor"/>
</g>
<a style="color:inherit;" xlink:href="textedit:///Users/marc.mouries/projects/Sheet-Music/Learn-Violin-with-Famous-Themes/Grieg_Morning-Mood.ly:27:4:5">
<g transform="translate(79.9920, 23.7670)">
<path transform="scale(0.0040, -0.0040)" d="M222 135c64 0 104 -35 104 -86c0 -89 -114 -184 -221 -184c-64 0 -105 35 -105 86c0 89 115 184 222 184z" fill="currentColor"/>
</g>
</a>
<g transform="translate(80.0499, 27.6170)">
<rect x="-0.0579" y="-3.6533" width="0.1158" height="3.8799" ry="0.0333" fill="currentColor"/>
</g>
<a style="color:inherit;" xlink:href="textedit:///Users/marc.mouries/projects/Sheet-Music/Learn-Violin-with-Famous-Themes/Grieg_Morning-Mood.ly:27:8:9">
<g transform="translate(82.4992, 24.8670)">
<path transform="scale(0.0040, -0.0040)" d="M222 135c64 0 104 -35 104 -86c0 -89 -114 -184 -221 -184c-64 0 -105 35 -105 86c0 89 115 184 222 184z" fill="currentColor"/>
</g>
</a>
<g transform="translate(82.5571, 27.6170)">
<rect x="-0.0579" y="-2.5533" width="0.1158" height="3.0879" ry="0.0333" fill="currentColor"/>
</g>
<a style="color:inherit;" xlink:href="textedit:///Users/marc.mouries/projects/Sheet-Music/Learn-Violin-with-Famous-Themes/Grieg_Morning-Mood.ly:27:11:12">
<g transform="translate(85.2563, 25.4170)">
<path transform="scale(0.0040, -0.0040)" d="M222 135c64 0 104 -35 104 -86c0 -89 -114 -184 -221 -184c-64 0 -105 35 -105 86c0 89 115 184 222 184z" fill="currentColor"/>
</g>
</a>
<g transform="translate(85.3142, 27.6170)">
<rect x="-0.0579" y="-2.0033" width="0.1158" height="2.8767" ry="0.0333" fill="currentColor"/>
</g>
<a style="color:inherit;" xlink:href="textedit:///Users/marc.mouries/projects/Sheet-Music/Learn-Violin-with-Famous-Themes/Grieg_Morning-Mood.ly:27:14:15">
<g transform="translate(88.0135, 25.9670)">
<path transform="scale(0.0040, -0.0040)" d="M222 135c64 0 104 -35 104 -86c0 -89 -114 -184 -221 -184c-64 0 -105 35 -105 86c0 89 115 184 222 184z" fill="currentColor"/>
</g>
</a>
<g transform="translate(88.0714, 27.6170)">
<rect x="-0.0579" y="-1.4533" width="0.1158" height="3.6533" ry="0.0333" fill="currentColor"/>
</g>
<a style="color:inherit;" xlink:href="textedit:///Users/marc.mouries/projects/Sheet-Music/Learn-Violin-with-Famous-Themes/Grieg_Morning-Mood.ly:27:18:19">
<g transform="translate(92.2220, 27.6170)">
<path transform="scale(0.0040, -0.0040)" d="M69 205c78 0 47 -100 92 -100c17 0 58 54 65 70c5 11 20 11 24 0l-126 -425c-7 -6 -16 -9 -24 -9s-17 3 -24 9l116 327c-35 -12 -70 -23 -107 -23c-47 0 -87 35 -87 80c0 39 31 71 71 71z" fill="currentColor"/>
</g>
</a>
<g transform="translate(4.7421, 40.3170)">
<rect x="74.2463" y="-0.0995" width="1.9587" height="0.1990" ry="0.0995" fill="currentColor"/>
</g>
<g transform="translate(4.7421, 39.2170)">
<rect x="69.9091" y="-0.0995" width="1.9587" height="0.1990" ry="0.0995" fill="currentColor"/>
</g>
<g transform="translate(4.7421, 40.3170)">
<rect x="69.9091" y="-0.0995" width="1.9587" height="0.1990" ry="0.0995" fill="currentColor"/>
</g>
<g transform="translate(4.7421, 39.2170)">
<rect x="63.7805" y="-0.0995" width="1.9587" height="0.1990" ry="0.0995" fill="currentColor"/>
</g>
<g transform="translate(4.7421, 40.3170)">
<rect x="63.7805" y="-0.0995" width="1.9587" height="0.1990" ry="0.0995" fill="currentColor"/>
</g>
<g transform="translate(4.7421, 40.3170)">
<rect x="60.7162" y="-0.0995" width="1.9587" height="0.1990" ry="0.0995" fill="currentColor"/>
</g>
<g transform="translate(4.7421, 40.3170)">
<rect x="54.6163" y="-0.0995" width="1.9300" height="0.1990" ry="0.0995" fill="currentColor"/>
</g>
<g transform="translate(4.7421, 40.3170)">
<rect x="53.0670" y="-0.0995" width="1.3818" height="0.1990" ry="0.0995" fill="currentColor"/>
</g>
<g transform="translate(4.7421, 40.3170)">
<rect x="34.3208" y="-0.0995" width="1.3818" height="0.1990" ry="0.0995" fill="currentColor"/>
</g>
<g transform="translate(4.7421, 40.3170)">
<rect x="30.2465" y="-0.0995" width="1.9587" height="0.1990" ry="0.0995" fill="currentColor"/>
</g>
<g transform="translate(4.7421, 40.3170)">
<rect x="10.8736" y="-0.0995" width="1.9587" height="0.1990" ry="0.0995" fill="currentColor"/>
</g>
<g transform="translate(4.7421, 45.8170)">
<line stroke-linejoin="round" stroke-linecap="round" stroke-width="0.0890" stroke="currentColor" x1="0.0445" y1="0" x2="90.0559" y2="0"/>
</g>
<g transform="translate(4.7421, 44.7170)">
<line stroke-linejoin="round" stroke-linecap="round" stroke-width="0.0890" stroke="currentColor" x1="0.0445" y1="0" x2="90.0559" y2="0"/>
</g>
<g transform="translate(4.7421, 43.6170)">
<line stroke-linejoin="round" stroke-linecap="round" stroke-width="0.0890" stroke="currentColor" x1="0.0445" y1="0" x2="90.0559" y2="0"/>
</g>
<g transform="translate(4.7421, 42.5170)">
<line stroke-linejoin="round" stroke-linecap="round" stroke-width="0.0890" stroke="currentColor" x1="0.0445" y1="0" x2="90.0559" y2="0"/>
</g>
<g transform="translate(4.7421, 41.4170)">
<line stroke-linejoin="round" stroke-linecap="round" stroke-width="0.0890" stroke="currentColor" x1="0.0445" y1="0" x2="90.0559" y2="0"/>
</g>
<g transform="translate(94.3082, 43.6170)">
<rect x="0.0000" y="-2.2000" width="0.5343" height="4.4000" ry="0.0000" fill="currentColor"/>
</g>
<g transform="translate(93.8719, 43.6170)">
<rect x="0.0000" y="-2.2000" width="0.1692" height="4.4000" ry="0.0000" fill="currentColor"/>
</g>
<g transform="translate(77.8277, 43.6170)">
<rect x="0.0000" y="-2.2000" width="0.1692" height="4.4000" ry="0.0000" fill="currentColor"/>
</g>
<g transform="translate(55.4092, 43.6170)">
<rect x="0.0000" y="-2.2000" width="0.1692" height="4.4000" ry="0.0000" fill="currentColor"/>
</g>
<g transform="translate(33.8279, 43.6170)">
<rect x="0.0000" y="-2.2000" width="0.1692" height="4.4000" ry="0.0000" fill="currentColor"/>
</g>
<g transform="translate(5.5421, 44.7170)">
<path transform="scale(0.0040, -0.0040)" d="M264 -594c47 0 165 26 165 246c0 32 -2 64 -5 96c-5 -1 -44 -8 -89 -8c-193 0 -333 178 -333 372c0 178 133 306 251 440c-27 93 -49 170 -49 345c0 116 55 226 150 295c5 4 11 4 16 0c67 -81 132 -246 132 -359c0 -144 -87 -256 -183 -365c20 -69 39 -138 55 -208
c2 0 7 1 15 1c154 0 254 -127 254 -259c0 -112 -73 -212 -180 -245c3 -36 5 -72 5 -108c0 -19 0 -37 -1 -56c-7 -120 -89 -226 -206 -226c-108 0 -195 87 -195 195c0 58 53 104 112 104c54 0 95 -48 95 -104c0 -52 -43 -95 -95 -95c-12 0 -24 4 -35 9c26 -41 70 -70 121 -70
zM459 -205c71 24 117 92 117 166c0 92 -69 184 -179 193c1 -5 45 -212 62 -359zM71 31c0 -146 142 -251 267 -251c1 0 46 0 82 6c-7 63 -28 201 -64 367c-79 -9 -125 -62 -125 -121c0 -44 26 -92 82 -124c4 -4 7 -9 7 -14c0 -11 -9 -21 -20 -21c-14 0 -125 62 -125 186
c0 88 57 173 158 196c-14 60 -30 119 -46 178c-108 -121 -216 -242 -216 -402zM411 1050c-99 -50 -161 -151 -161 -262c0 -59 11 -123 33 -200c82 97 149 198 149 325c0 35 0 69 -21 137z" fill="currentColor"/>
</g>
<g transform="translate(9.0421, 41.4170)">
<path transform="scale(0.0040, -0.0040)" d="M0 121c0 7 5 13 11 15l49 17v163c0 9 8 17 17 17s17 -8 17 -17v-151l87 31v162c0 9 8 17 17 17s17 -8 17 -17v-150l39 13c10 4 21 -4 21 -15v-64c0 -7 -5 -13 -11 -15l-49 -18v-164l39 14c10 4 21 -4 21 -15v-65c0 -7 -5 -13 -11 -15l-49 -17v-163c0 -9 -8 -17 -17 -17
s-17 8 -17 17v151l-87 -31v-162c0 -9 -8 -17 -17 -17s-17 8 -17 17v150l-39 -13c-10 -4 -21 4 -21 15v64c0 7 5 13 11 15l49 18v164l-39 -14c-10 -4 -21 4 -21 15v65zM181 97l-87 -30v-164l87 30v164z" fill="currentColor"/>
</g>
<g transform="translate(10.1421, 43.0670)">
<path transform="scale(0.0040, -0.0040)" d="M0 121c0 7 5 13 11 15l49 17v163c0 9 8 17 17 17s17 -8 17 -17v-151l87 31v162c0 9 8 17 17 17s17 -8 17 -17v-150l39 13c10 4 21 -4 21 -15v-64c0 -7 -5 -13 -11 -15l-49 -18v-164l39 14c10 4 21 -4 21 -15v-65c0 -7 -5 -13 -11 -15l-49 -17v-163c0 -9 -8 -17 -17 -17
s-17 8 -17 17v151l-87 -31v-162c0 -9 -8 -17 -17 -17s-17 8 -17 17v150l-39 -13c-10 -4 -21 4 -21 15v64c0 7 5 13 11 15l49 18v164l-39 -14c-10 -4 -21 4 -21 15v65zM181 97l-87 -30v-164l87 30v164z" fill="currentColor"/>
</g>
<g transform="translate(11.2421, 40.8670)">
<path transform="scale(0.0040, -0.0040)" d="M0 121c0 7 5 13 11 15l49 17v163c0 9 8 17 17 17s17 -8 17 -17v-151l87 31v162c0 9 8 17 17 17s17 -8 17 -17v-150l39 13c10 4 21 -4 21 -15v-64c0 -7 -5 -13 -11 -15l-49 -18v-164l39 14c10 4 21 -4 21 -15v-65c0 -7 -5 -13 -11 -15l-49 -17v-163c0 -9 -8 -17 -17 -17
s-17 8 -17 17v151l-87 -31v-162c0 -9 -8 -17 -17 -17s-17 8 -17 17v150l-39 -13c-10 -4 -21 4 -21 15v64c0 7 5 13 11 15l49 18v164l-39 -14c-10 -4 -21 4 -21 15v65zM181 97l-87 -30v-164l87 30v164z" fill="currentColor"/>
</g>
<g transform="translate(12.3421, 42.5170)">
<path transform="scale(0.0040, -0.0040)" d="M0 121c0 7 5 13 11 15l49 17v163c0 9 8 17 17 17s17 -8 17 -17v-151l87 31v162c0 9 8 17 17 17s17 -8 17 -17v-150l39 13c10 4 21 -4 21 -15v-64c0 -7 -5 -13 -11 -15l-49 -18v-164l39 14c10 4 21 -4 21 -15v-65c0 -7 -5 -13 -11 -15l-49 -17v-163c0 -9 -8 -17 -17 -17
s-17 8 -17 17v151l-87 -31v-162c0 -9 -8 -17 -17 -17s-17 8 -17 17v150l-39 -13c-10 -4 -21 4 -21 15v64c0 7 5 13 11 15l49 18v164l-39 -14c-10 -4 -21 4 -21 15v65zM181 97l-87 -30v-164l87 30v164z" fill="currentColor"/>
</g>
<g transform="translate(3.8601, 40.3520)">
<text font-family="serif" font-size="1.7463" text-anchor="start" fill="currentColor">
<tspan>5</tspan>
</text>
</g>
<g transform="translate(79.3149, 43.8365)">
<polygon stroke-linejoin="round" stroke-linecap="round" stroke-width="0.0667" fill="currentColor" stroke="currentColor" points="5.9610 0.4304 5.9610 0.8917 0.0333 0.2307 0.0333 -0.2307"/>
</g>
<a style="color:inherit;" xlink:href="textedit:///Users/marc.mouries/projects/Sheet-Music/Learn-Violin-with-Famous-Themes/Grieg_Morning-Mood.ly:29:4:5">
<g transform="translate(15.9422, 39.7670)">
<path transform="scale(0.0040, -0.0040)" d="M222 135c64 0 104 -35 104 -86c0 -89 -114 -184 -221 -184c-64 0 -105 35 -105 86c0 89 115 184 222 184z" fill="currentColor"/>
</g>
</a>
<g transform="translate(16.0000, 43.6170)">
<rect x="-0.0579" y="-3.6533" width="0.1158" height="3.8791" ry="0.0333" fill="currentColor"/>
</g>
<g transform="translate(68.8491, 43.6170)">
<polygon stroke-linejoin="round" stroke-linecap="round" stroke-width="0.0667" fill="currentColor" stroke="currentColor" points="6.2110 -0.2307 6.2110 0.2307 0.0333 0.2307 0.0333 -0.2307"/>
</g>
<a style="color:inherit;" xlink:href="textedit:///Users/marc.mouries/projects/Sheet-Music/Learn-Violin-with-Famous-Themes/Grieg_Morning-Mood.ly:29:9:10">
<g transform="translate(18.7564, 40.8670)">
<path transform="scale(0.0040, -0.0040)" d="M222 135c64 0 104 -35 104 -86c0 -89 -114 -184 -221 -184c-64 0 -105 35 -105 86c0 89 115 184 222 184z" fill="currentColor"/>
</g>
</a>
<g transform="translate(18.8143, 43.6170)">
<rect x="-0.0579" y="-2.5533" width="0.1158" height="3.0895" ry="0.0333" fill="currentColor"/>
</g>
<a style="color:inherit;" xlink:href="textedit:///Users/marc.mouries/projects/Sheet-Music/Learn-Violin-with-Famous-Themes/Grieg_Morning-Mood.ly:32:6:7">
<g transform="translate(79.3149, 43.6170)">
<path stroke-width="0.0712" stroke-linejoin="round" stroke-linecap="round" stroke="currentColor" fill="currentColor" d="M0.7569 -4.9389C2.8344 -5.9602 8.3331 -4.6075 9.6997 -2.7389L9.6997 -2.7389C8.3076 -4.5037 2.8089 -5.8564 0.7569 -4.9389z"/>
</g>
</a>
<a style="color:inherit;" xlink:href="textedit:///Users/marc.mouries/projects/Sheet-Music/Learn-Violin-with-Famous-Themes/Grieg_Morning-Mood.ly:29:12:13">
<g transform="translate(21.8207, 41.4170)">
<path transform="scale(0.0040, -0.0040)" d="M222 135c64 0 104 -35 104 -86c0 -89 -114 -184 -221 -184c-64 0 -105 35 -105 86c0 89 115 184 222 184z" fill="currentColor"/>
</g>
</a>
<g transform="translate(21.8786, 43.6170)">
<rect x="-0.0579" y="-2.0033" width="0.1158" height="2.8774" ry="0.0333" fill="currentColor"/>
</g>
<g transform="translate(59.6562, 43.6170)">
<polygon stroke-linejoin="round" stroke-linecap="round" stroke-width="0.0667" fill="currentColor" stroke="currentColor" points="6.2110 -0.2307 6.2110 0.2307 0.0333 0.2307 0.0333 -0.2307"/>
</g>
<a style="color:inherit;" xlink:href="textedit:///Users/marc.mouries/projects/Sheet-Music/Learn-Violin-with-Famous-Themes/Grieg_Morning-Mood.ly:29:16:17">
<g transform="translate(24.8850, 41.9670)">
<path transform="scale(0.0040, -0.0040)" d="M222 135c64 0 104 -35 104 -86c0 -89 -114 -184 -221 -184c-64 0 -105 35 -105 86c0 89 115 184 222 184z" fill="currentColor"/>
</g>
</a>
<g transform="translate(24.9429, 43.6170)">
<rect x="-0.0579" y="-1.4533" width="0.1158" height="3.4277" ry="0.0333" fill="currentColor"/>
</g>
<a style="color:inherit;" xlink:href="textedit:///Users/marc.mouries/projects/Sheet-Music/Learn-Violin-with-Famous-Themes/Grieg_Morning-Mood.ly:31:40:41">
<g transform="translate(68.8491, 43.6170)">
<path stroke-width="0.0712" stroke-linejoin="round" stroke-linecap="round" stroke="currentColor" fill="currentColor" d="M0.6529 -5.4889C2.0170 -6.7051 5.4174 -6.7051 6.7815 -5.4889L6.7815 -5.4889C5.4174 -6.5983 2.0170 -6.5983 0.6529 -5.4889z"/>
</g>
</a>
<a style="color:inherit;" xlink:href="textedit:///Users/marc.mouries/projects/Sheet-Music/Learn-Violin-with-Famous-Themes/Grieg_Morning-Mood.ly:29:18:19">
<g transform="translate(27.9493, 41.4170)">
<path transform="scale(0.0040, -0.0040)" d="M222 135c64 0 104 -35 104 -86c0 -89 -114 -184 -221 -184c-64 0 -105 35 -105 86c0 89 115 184 222 184z" fill="currentColor"/>
</g>
</a>
<g transform="translate(28.0072, 43.6170)">
<rect x="-0.0579" y="-2.0033" width="0.1158" height="3.6533" ry="0.0333" fill="currentColor"/>
</g>
<g transform="translate(57.2375, 38.2837)">
<polygon stroke-linejoin="round" stroke-linecap="round" stroke-width="0.0667" fill="currentColor" stroke="currentColor" points="1.6898 -0.5112 1.6898 -0.1555 0.0333 0.1779 0.0333 -0.1779"/>
</g>
<g transform="translate(57.2375, 38.9881)">
<polygon stroke-linejoin="round" stroke-linecap="round" stroke-width="0.0667" fill="currentColor" stroke="currentColor" points="1.6898 -0.5112 1.6898 -0.1555 0.0333 0.1779 0.0333 -0.1779"/>
</g>
<a style="color:inherit;" xlink:href="textedit:///Users/marc.mouries/projects/Sheet-Music/Learn-Violin-with-Famous-Themes/Grieg_Morning-Mood.ly:29:21:22">
<g transform="translate(31.0136, 40.8670)">
<path transform="scale(0.0040, -0.0040)" d="M222 135c64 0 104 -35 104 -86c0 -89 -114 -184 -221 -184c-64 0 -105 35 -105 86c0 89 115 184 222 184z" fill="currentColor"/>
</g>
</a>
<g transform="translate(31.0715, 43.6170)">
<rect x="-0.0579" y="-2.5533" width="0.1158" height="3.8789" ry="0.0333" fill="currentColor"/>
</g>
<a style="color:inherit;" xlink:href="textedit:///Users/marc.mouries/projects/Sheet-Music/Learn-Violin-with-Famous-Themes/Grieg_Morning-Mood.ly:31:29:30">
<g transform="translate(59.6562, 43.6170)">
<path stroke-width="0.0712" stroke-linejoin="round" stroke-linecap="round" stroke="currentColor" fill="currentColor" d="M0.6529 -4.9389C2.0170 -6.1551 5.4174 -6.1551 6.7815 -4.9389L6.7815 -4.9389C5.4174 -6.0483 2.0170 -6.0483 0.6529 -4.9389z"/>
</g>
</a>
<g transform="translate(47.0292, 45.5975)">
<polygon stroke-linejoin="round" stroke-linecap="round" stroke-width="0.0667" fill="currentColor" stroke="currentColor" points="6.2110 -0.8917 6.2110 -0.4304 0.0333 0.2307 0.0333 -0.2307"/>
</g>
<a style="color:inherit;" xlink:href="textedit:///Users/marc.mouries/projects/Sheet-Music/Learn-Violin-with-Famous-Themes/Grieg_Morning-Mood.ly:30:4:5">
<g transform="translate(35.3151, 39.7670)">
<path transform="scale(0.0040, -0.0040)" d="M222 135c64 0 104 -35 104 -86c0 -89 -114 -184 -221 -184c-64 0 -105 35 -105 86c0 89 115 184 222 184z" fill="currentColor"/>
</g>
</a>
<g transform="translate(35.3729, 43.6170)">
<rect x="-0.0579" y="-3.6533" width="0.1158" height="3.8771" ry="0.0333" fill="currentColor"/>
</g>
<a style="color:inherit;" xlink:href="textedit:///Users/marc.mouries/projects/Sheet-Music/Learn-Violin-with-Famous-Themes/Grieg_Morning-Mood.ly:30:17:18">
<g transform="translate(37.6858, 40.8670)">
<path transform="scale(0.0028, -0.0028)" d="M215 137c67 0 111 -37 111 -92c0 -90 -111 -182 -215 -182c-67 0 -111 37 -111 92c0 90 111 182 215 182z" fill="currentColor"/>
</g>
</a>
<g transform="translate(38.5492, 43.6170)">
<rect x="-0.0579" y="-5.3445" width="0.1158" height="2.4677" ry="0.0333" fill="currentColor"/>
</g>
<a style="color:inherit;" xlink:href="textedit:///Applications/lilypond-2.24.4/share/lilypond/2.24.4/ly/grace-init.ly:33:6:7">
<g transform="translate(56.4321, 43.6170)">
<path stroke-width="0.0712" stroke-linejoin="round" stroke-linecap="round" stroke="currentColor" fill="currentColor" d="M0.5710 -1.8121C1.4538 -1.4682 2.5269 -1.9010 2.9242 -2.7611L2.9242 -2.7611C2.4869 -2.0001 1.4138 -1.5673 0.5710 -1.8121z"/>
</g>
</a>
<a style="color:inherit;" xlink:href="textedit:///Users/marc.mouries/projects/Sheet-Music/Learn-Violin-with-Famous-Themes/Grieg_Morning-Mood.ly:30:22:23">
<g transform="translate(39.2932, 40.3170)">
<path transform="scale(0.0028, -0.0028)" d="M215 137c67 0 111 -37 111 -92c0 -90 -111 -182 -215 -182c-67 0 -111 37 -111 92c0 90 111 182 215 182z" fill="currentColor"/>
</g>
</a>
<g transform="translate(40.1566, 43.6170)">
<rect x="-0.0579" y="-5.6555" width="0.1158" height="2.2287" ry="0.0333" fill="currentColor"/>
</g>
<g transform="translate(38.4913, 38.2837)">
<polygon stroke-linejoin="round" stroke-linecap="round" stroke-width="0.0667" fill="currentColor" stroke="currentColor" points="1.6898 -0.5112 1.6898 -0.1555 0.0333 0.1779 0.0333 -0.1779"/>
</g>
<g transform="translate(38.4913, 38.9881)">
<polygon stroke-linejoin="round" stroke-linecap="round" stroke-width="0.0667" fill="currentColor" stroke="currentColor" points="1.6898 -0.5112 1.6898 -0.1555 0.0333 0.1779 0.0333 -0.1779"/>
</g>
<a style="color:inherit;" xlink:href="textedit:///Users/marc.mouries/projects/Sheet-Music/Learn-Violin-with-Famous-Themes/Grieg_Morning-Mood.ly:30:25:26">
<g transform="translate(40.9006, 40.8670)">
<path transform="scale(0.0040, -0.0040)" d="M222 135c64 0 104 -35 104 -86c0 -89 -114 -184 -221 -184c-64 0 -105 35 -105 86c0 89 115 184 222 184z" fill="currentColor"/>
</g>
</a>
<g transform="translate(40.9585, 43.6170)">
<rect x="-0.0579" y="-2.5533" width="0.1158" height="3.1983" ry="0.0333" fill="currentColor"/>
</g>
<a style="color:inherit;" xlink:href="textedit:///Users/marc.mouries/projects/Sheet-Music/Learn-Violin-with-Famous-Themes/Grieg_Morning-Mood.ly:30:29:30">
<g transform="translate(43.9649, 41.4170)">
<path transform="scale(0.0040, -0.0040)" d="M222 135c64 0 104 -35 104 -86c0 -89 -114 -184 -221 -184c-64 0 -105 35 -105 86c0 89 115 184 222 184z" fill="currentColor"/>
</g>
</a>
<g transform="translate(44.0228, 43.6170)">
<rect x="-0.0579" y="-2.0033" width="0.1158" height="2.8794" ry="0.0333" fill="currentColor"/>
</g>
<g transform="translate(24.8850, 45.5975)">
<polygon stroke-linejoin="round" stroke-linecap="round" stroke-width="0.0667" fill="currentColor" stroke="currentColor" points="6.2110 -0.8917 6.2110 -0.4304 0.0333 0.2307 0.0333 -0.2307"/>
</g>
<a style="color:inherit;" xlink:href="textedit:///Users/marc.mouries/projects/Sheet-Music/Learn-Violin-with-Famous-Themes/Grieg_Morning-Mood.ly:30:34:35">
<g transform="translate(47.0292, 41.9670)">
<path transform="scale(0.0040, -0.0040)" d="M222 135c64 0 104 -35 104 -86c0 -89 -114 -184 -221 -184c-64 0 -105 35 -105 86c0 89 115 184 222 184z" fill="currentColor"/>
</g>
</a>
<g transform="translate(47.0870, 43.6170)">
<rect x="-0.0579" y="-1.4533" width="0.1158" height="3.4277" ry="0.0333" fill="currentColor"/>
</g>
<a style="color:inherit;" xlink:href="textedit:///Users/marc.mouries/projects/Sheet-Music/Learn-Violin-with-Famous-Themes/Grieg_Morning-Mood.ly:30:6:7">
<g transform="translate(35.3151, 43.6170)">
<path stroke-width="0.0712" stroke-linejoin="round" stroke-linecap="round" stroke="currentColor" fill="currentColor" d="M0.7062 -6.0389C3.4132 -7.5493 16.2898 -5.9616 18.5488 -3.8389L18.5488 -3.8389C16.2767 -5.8556 3.4001 -7.4433 0.7062 -6.0389z"/>
</g>
</a>
<a style="color:inherit;" xlink:href="textedit:///Users/marc.mouries/projects/Sheet-Music/Learn-Violin-with-Famous-Themes/Grieg_Morning-Mood.ly:30:36:37">
<g transform="translate(50.0934, 41.4170)">
<path transform="scale(0.0040, -0.0040)" d="M222 135c64 0 104 -35 104 -86c0 -89 -114 -184 -221 -184c-64 0 -105 35 -105 86c0 89 115 184 222 184z" fill="currentColor"/>
</g>
</a>
<g transform="translate(50.1513, 43.6170)">
<rect x="-0.0579" y="-2.0033" width="0.1158" height="3.6533" ry="0.0333" fill="currentColor"/>
</g>
<a style="color:inherit;" xlink:href="textedit:///Users/marc.mouries/projects/Sheet-Music/Learn-Violin-with-Famous-Themes/Grieg_Morning-Mood.ly:30:7:8">
<g transform="translate(35.3151, 43.8365)">
<polygon stroke-linejoin="round" stroke-linecap="round" stroke-width="0.0667" fill="currentColor" stroke="currentColor" points="8.7322 0.4304 8.7322 0.8917 0.0333 0.2307 0.0333 -0.2307"/>
</g>
</a>
<a style="color:inherit;" xlink:href="textedit:///Users/marc.mouries/projects/Sheet-Music/Learn-Violin-with-Famous-Themes/Grieg_Morning-Mood.ly:30:39:40">
<g transform="translate(53.1577, 40.8670)">
<path transform="scale(0.0040, -0.0040)" d="M222 135c64 0 104 -35 104 -86c0 -89 -114 -184 -221 -184c-64 0 -105 35 -105 86c0 89 115 184 222 184z" fill="currentColor"/>
</g>
</a>
<g transform="translate(53.2156, 43.6170)">
<rect x="-0.0579" y="-2.5533" width="0.1158" height="3.8789" ry="0.0333" fill="currentColor"/>
</g>
<g transform="translate(15.9422, 43.8365)">
<polygon stroke-linejoin="round" stroke-linecap="round" stroke-width="0.0667" fill="currentColor" stroke="currentColor" points="5.9610 0.4304 5.9610 0.8917 0.0333 0.2307 0.0333 -0.2307"/>
</g>
<a style="color:inherit;" xlink:href="textedit:///Users/marc.mouries/projects/Sheet-Music/Learn-Violin-with-Famous-Themes/Grieg_Morning-Mood.ly:29:7:8">
<g transform="translate(15.9422, 43.6170)">
<path stroke-width="0.0712" stroke-linejoin="round" stroke-linecap="round" stroke="currentColor" fill="currentColor" d="M0.6846 -4.9389C3.1189 -6.5221 13.5774 -5.7588 15.7560 -3.8389L15.7560 -3.8389C13.5696 -5.6522 3.1111 -6.4155 0.6846 -4.9389z"/>
</g>
</a>
<a style="color:inherit;" xlink:href="textedit:///Users/marc.mouries/projects/Sheet-Music/Learn-Violin-with-Famous-Themes/Grieg_Morning-Mood.ly:31:19:20">
<g transform="translate(56.4321, 40.8670)">
<path transform="scale(0.0028, -0.0028)" d="M215 137c67 0 111 -37 111 -92c0 -90 -111 -182 -215 -182c-67 0 -111 37 -111 92c0 90 111 182 215 182z" fill="currentColor"/>
</g>
</a>
<g transform="translate(57.2954, 43.6170)">
<rect x="-0.0579" y="-5.3445" width="0.1158" height="2.4677" ry="0.0333" fill="currentColor"/>
</g>
<a style="color:inherit;" xlink:href="textedit:///Users/marc.mouries/projects/Sheet-Music/Learn-Violin-with-Famous-Themes/Grieg_Morning-Mood.ly:31:24:25">
<g transform="translate(58.0394, 40.3170)">
<path transform="scale(0.0028, -0.0028)" d="M215 137c67 0 111 -37 111 -92c0 -90 -111 -182 -215 -182c-67 0 -111 37 -111 92c0 90 111 182 215 182z" fill="currentColor"/>
</g>
</a>
<g transform="translate(58.9028, 43.6170)">
<rect x="-0.0579" y="-5.6555" width="0.1158" height="2.2287" ry="0.0333" fill="currentColor"/>
</g>
<a style="color:inherit;" xlink:href="textedit:///Users/marc.mouries/projects/Sheet-Music/Learn-Violin-with-Famous-Themes/Grieg_Morning-Mood.ly:31:27:28">
<g transform="translate(59.6562, 39.7670)">
<path transform="scale(0.0040, -0.0040)" d="M222 135c64 0 104 -35 104 -86c0 -89 -114 -184 -221 -184c-64 0 -105 35 -105 86c0 89 115 184 222 184z" fill="currentColor"/>
</g>
</a>
<g transform="translate(59.7141, 43.6170)">
<rect x="-0.0579" y="-3.6533" width="0.1158" height="3.6533" ry="0.0333" fill="currentColor"/>
</g>
<a style="color:inherit;" xlink:href="textedit:///Users/marc.mouries/projects/Sheet-Music/Learn-Violin-with-Famous-Themes/Grieg_Morning-Mood.ly:31:31:32">
<g transform="translate(62.4705, 40.8670)">
<path transform="scale(0.0040, -0.0040)" d="M222 135c64 0 104 -35 104 -86c0 -89 -114 -184 -221 -184c-64 0 -105 35 -105 86c0 89 115 184 222 184z" fill="currentColor"/>
</g>
</a>
<g transform="translate(62.5284, 43.6170)">
<rect x="-0.0579" y="-2.5533" width="0.1158" height="2.5533" ry="0.0333" fill="currentColor"/>
</g>
<a style="color:inherit;" xlink:href="textedit:///Users/marc.mouries/projects/Sheet-Music/Learn-Violin-with-Famous-Themes/Grieg_Morning-Mood.ly:31:34:35">
<g transform="translate(65.7848, 39.7670)">
<path transform="scale(0.0040, -0.0040)" d="M222 135c64 0 104 -35 104 -86c0 -89 -114 -184 -221 -184c-64 0 -105 35 -105 86c0 89 115 184 222 184z" fill="currentColor"/>
</g>
</a>
<g transform="translate(65.8427, 43.6170)">
<rect x="-0.0579" y="-3.6533" width="0.1158" height="3.6533" ry="0.0333" fill="currentColor"/>
</g>
<a style="color:inherit;" xlink:href="textedit:///Users/marc.mouries/projects/Sheet-Music/Learn-Violin-with-Famous-Themes/Grieg_Morning-Mood.ly:31:38:39">
<g transform="translate(68.8491, 39.2170)">
<path transform="scale(0.0040, -0.0040)" d="M222 135c64 0 104 -35 104 -86c0 -89 -114 -184 -221 -184c-64 0 -105 35 -105 86c0 89 115 184 222 184z" fill="currentColor"/>
</g>
</a>
<g transform="translate(68.9070, 43.6170)">
<rect x="-0.0579" y="-4.2033" width="0.1158" height="4.2033" ry="0.0333" fill="currentColor"/>
</g>
<a style="color:inherit;" xlink:href="textedit:///Users/marc.mouries/projects/Sheet-Music/Learn-Violin-with-Famous-Themes/Grieg_Morning-Mood.ly:31:42:43">
<g transform="translate(71.6634, 40.8670)">
<path transform="scale(0.0040, -0.0040)" d="M222 135c64 0 104 -35 104 -86c0 -89 -114 -184 -221 -184c-64 0 -105 35 -105 86c0 89 115 184 222 184z" fill="currentColor"/>
</g>
</a>
<g transform="translate(71.7213, 43.6170)">
<rect x="-0.0579" y="-2.5533" width="0.1158" height="2.5533" ry="0.0333" fill="currentColor"/>
</g>
<a style="color:inherit;" xlink:href="textedit:///Users/marc.mouries/projects/Sheet-Music/Learn-Violin-with-Famous-Themes/Grieg_Morning-Mood.ly:31:45:46">
<g transform="translate(74.9777, 39.2170)">
<path transform="scale(0.0040, -0.0040)" d="M222 135c64 0 104 -35 104 -86c0 -89 -114 -184 -221 -184c-64 0 -105 35 -105 86c0 89 115 184 222 184z" fill="currentColor"/>
</g>
</a>
<g transform="translate(75.0355, 43.6170)">
<rect x="-0.0579" y="-4.2033" width="0.1158" height="4.2033" ry="0.0333" fill="currentColor"/>
</g>
<a style="color:inherit;" xlink:href="textedit:///Users/marc.mouries/projects/Sheet-Music/Learn-Violin-with-Famous-Themes/Grieg_Morning-Mood.ly:32:4:5">
<g transform="translate(79.3149, 39.7670)">
<path transform="scale(0.0040, -0.0040)" d="M222 135c64 0 104 -35 104 -86c0 -89 -114 -184 -221 -184c-64 0 -105 35 -105 86c0 89 115 184 222 184z" fill="currentColor"/>
</g>
</a>
<g transform="translate(79.3727, 43.6170)">
<rect x="-0.0579" y="-3.6533" width="0.1158" height="3.8791" ry="0.0333" fill="currentColor"/>
</g>
<a style="color:inherit;" xlink:href="textedit:///Users/marc.mouries/projects/Sheet-Music/Learn-Violin-with-Famous-Themes/Grieg_Morning-Mood.ly:32:8:9">
<g transform="translate(82.1291, 40.8670)">
<path transform="scale(0.0040, -0.0040)" d="M222 135c64 0 104 -35 104 -86c0 -89 -114 -184 -221 -184c-64 0 -105 35 -105 86c0 89 115 184 222 184z" fill="currentColor"/>
</g>
</a>
<g transform="translate(82.1870, 43.6170)">
<rect x="-0.0579" y="-2.5533" width="0.1158" height="3.0895" ry="0.0333" fill="currentColor"/>
</g>
<a style="color:inherit;" xlink:href="textedit:///Users/marc.mouries/projects/Sheet-Music/Learn-Violin-with-Famous-Themes/Grieg_Morning-Mood.ly:32:11:12">
<g transform="translate(85.1934, 41.4170)">
<path transform="scale(0.0040, -0.0040)" d="M222 135c64 0 104 -35 104 -86c0 -89 -114 -184 -221 -184c-64 0 -105 35 -105 86c0 89 115 184 222 184z" fill="currentColor"/>
</g>
</a>
<g transform="translate(85.2513, 43.6170)">
<rect x="-0.0579" y="-2.0033" width="0.1158" height="2.8774" ry="0.0333" fill="currentColor"/>
</g>
<a style="color:inherit;" xlink:href="textedit:///Users/marc.mouries/projects/Sheet-Music/Learn-Violin-with-Famous-Themes/Grieg_Morning-Mood.ly:32:14:15">
<g transform="translate(88.2577, 41.9670)">
<path transform="scale(0.0040, -0.0040)" d="M222 135c64 0 104 -35 104 -86c0 -89 -114 -184 -221 -184c-64 0 -105 35 -105 86c0 89 115 184 222 184z" fill="currentColor"/>
</g>
</a>
<g transform="translate(90.0203, 41.9670)">
<path transform="scale(0.0040, -0.0040)" d="M0 0c0 32 25 57 57 57s57 -25 57 -57s-25 -57 -57 -57s-57 25 -57 57z" fill="currentColor"/>
</g>
<g transform="translate(88.3156, 43.6170)">
<rect x="-0.0579" y="-1.4533" width="0.1158" height="3.6533" ry="0.0333" fill="currentColor"/>
</g>
<g transform="translate(49.3086, 137.9959)">
<text font-family="serif" font-size="1.9603" text-anchor="start" fill="currentColor">
<tspan>4</tspan>
</text>
</g>
</svg>
