<svg xmlns="http://www.w3.org/2000/svg" xmlns:xlink="http://www.w3.org/1999/xlink" version="1.2" width="210.00mm" height="297.00mm" viewBox="0.0000 -0.0000 99.5846 140.8411">
<style type="text/css">
<![CDATA[
tspan { white-space: pre; }
]]>
</style>
<g transform="translate(49.5220, 2.3711)">
<text font-family="serif" font-size="2.2002" text-anchor="start" fill="currentColor">
<tspan> </tspan>
</text>
</g>
<g transform="translate(28.6946, 6.4422)">
<text font-family="Optima" font-weight="bold" font-size="4.3999" text-anchor="start" fill="currentColor">
<tspan>S</tspan>
</text>
</g>
<g transform="translate(30.8855, 6.4422)">
<text font-family="Optima" font-weight="bold" font-size="3.4922" text-anchor="start" fill="currentColor">
<tspan>PRING</tspan>
</text>
</g>
<g transform="translate(41.5268, 6.4422)">
<text font-family="Optima" font-weight="bold" font-size="4.3999" text-anchor="start" fill="currentColor">
<tspan> (L</tspan>
</text>
</g>
<g transform="translate(46.3922, 6.4422)">
<text font-family="Optima" font-weight="bold" font-size="3.4922" text-anchor="start" fill="currentColor">
<tspan>A</tspan>
</text>
</g>
<g transform="translate(48.7253, 6.4422)">
<text font-family="Optima" font-weight="bold" font-size="4.3999" text-anchor="start" fill="currentColor">
<tspan> P</tspan>
</text>
</g>
<g transform="translate(52.3958, 6.4422)">
<text font-family="Optima" font-weight="bold" font-size="3.4922" text-anchor="start" fill="currentColor">
<tspan>RIMAVERA</tspan>
</text>
</g>
<g transform="translate(69.4390, 6.4422)">
<text font-family="Optima" font-weight="bold" font-size="4.3999" text-anchor="start" fill="currentColor">
<tspan>)</tspan>
</text>
</g>
<g transform="translate(81.9250, 6.4422)">
<text font-family="Optima" font-size="1.9598" text-anchor="start" fill="currentColor">
<tspan>Antonio Vivaldi</tspan>
</text>
</g>
<g transform="translate(9.4843, 25.9197)">
<line stroke-linejoin="round" stroke-linecap="round" stroke-width="0.0890" stroke="currentColor" x1="0.0445" y1="0" x2="85.3137" y2="0"/>
</g>
<g transform="translate(9.4843, 24.8197)">
<line stroke-linejoin="round" stroke-linecap="round" stroke-width="0.0890" stroke="currentColor" x1="0.0445" y1="0" x2="85.3137" y2="0"/>
</g>
<g transform="translate(9.4843, 23.7197)">
<line stroke-linejoin="round" stroke-linecap="round" stroke-width="0.0890" stroke="currentColor" x1="0.0445" y1="0" x2="85.3137" y2="0"/>
</g>
<g transform="translate(9.4843, 22.6197)">
<line stroke-linejoin="round" stroke-linecap="round" stroke-width="0.0890" stroke="currentColor" x1="0.0445" y1="0" x2="85.3137" y2="0"/>
</g>
<g transform="translate(9.4843, 21.5197)">
<line stroke-linejoin="round" stroke-linecap="round" stroke-width="0.0890" stroke="currentColor" x1="0.0445" y1="0" x2="85.3137" y2="0"/>
</g>
<g transform="translate(94.6733, 23.7197)">
<rect x="0.0000" y="-2.2000" width="0.1692" height="4.4000" ry="0.0000" fill="currentColor"/>
</g>
<g transform="translate(76.2887, 23.7197)">
<rect x="0.0000" y="-2.2000" width="0.1692" height="4.4000" ry="0.0000" fill="currentColor"/>
</g>
<g transform="translate(58.3041, 23.7197)">
<rect x="0.0000" y="-2.2000" width="0.1692" height="4.4000" ry="0.0000" fill="currentColor"/>
</g>
<g transform="translate(40.1695, 23.7197)">
<rect x="0.0000" y="-2.2000" width="0.1692" height="4.4000" ry="0.0000" fill="currentColor"/>
</g>
<a style="color:inherit;" xlink:href="textedit:///Users/marc.mouries/projects/Sheet-Music/Learn-Violin-with-Famous-Themes/Vivaldi_Spring.ly:26:2:3">
<g transform="translate(23.0478, 22.0697)">
<path transform="scale(0.0040, -0.0040)" d="M222 135c64 0 104 -35 104 -86c0 -89 -114 -184 -221 -184c-64 0 -105 35 -105 86c0 89 115 184 222 184z" fill="currentColor"/>
</g>
</a>
<a style="color:inherit;" xlink:href="textedit:///Users/marc.mouries/projects/Sheet-Music/Learn-Violin-with-Famous-Themes/Vivaldi_Spring.ly:26:4:5">
<g transform="translate(23.0605, 28.5361)">
<path transform="scale(0.0040, -0.0040)" d="M254 251l-51 -165c-30 -99 -121 -256 -218 -256c-45 0 -87 25 -87 65c0 39 17 77 52 77c24 0 44 -20 44 -44c0 -30 -38 -25 -38 -55c0 -10 11 -10 23 -10h6c50 0 60 61 73 113l69 275h-53c-9 0 -16 8 -16 17s7 17 16 17h62c31 97 119 193 214 193c45 0 87 -24 87 -64
c0 -39 -17 -78 -52 -78c-24 0 -44 20 -44 44c0 30 38 25 38 55c0 10 -10 11 -22 11c-2 0 -5 -1 -7 -1c-65 0 -70 -93 -87 -160h58c9 0 17 -8 17 -17s-8 -17 -17 -17h-67z" fill="currentColor"/>
</g>
</a>
<g transform="translate(10.2843, 24.8197)">
<path transform="scale(0.0040, -0.0040)" d="M264 -594c47 0 165 26 165 246c0 32 -2 64 -5 96c-5 -1 -44 -8 -89 -8c-193 0 -333 178 -333 372c0 178 133 306 251 440c-27 93 -49 170 -49 345c0 116 55 226 150 295c5 4 11 4 16 0c67 -81 132 -246 132 -359c0 -144 -87 -256 -183 -365c20 -69 39 -138 55 -208
c2 0 7 1 15 1c154 0 254 -127 254 -259c0 -112 -73 -212 -180 -245c3 -36 5 -72 5 -108c0 -19 0 -37 -1 -56c-7 -120 -89 -226 -206 -226c-108 0 -195 87 -195 195c0 58 53 104 112 104c54 0 95 -48 95 -104c0 -52 -43 -95 -95 -95c-12 0 -24 4 -35 9c26 -41 70 -70 121 -70
zM459 -205c71 24 117 92 117 166c0 92 -69 184 -179 193c1 -5 45 -212 62 -359zM71 31c0 -146 142 -251 267 -251c1 0 46 0 82 6c-7 63 -28 201 -64 367c-79 -9 -125 -62 -125 -121c0 -44 26 -92 82 -124c4 -4 7 -9 7 -14c0 -11 -9 -21 -20 -21c-14 0 -125 62 -125 186
c0 88 57 173 158 196c-14 60 -30 119 -46 178c-108 -121 -216 -242 -216 -402zM411 1050c-99 -50 -161 -151 -161 -262c0 -59 11 -123 33 -200c82 97 149 198 149 325c0 35 0 69 -21 137z" fill="currentColor"/>
</g>
<a style="color:inherit;" xlink:href="textedit:///Users/marc.mouries/projects/Sheet-Music/Learn-Violin-with-Famous-Themes/Vivaldi_Spring.ly:21:2:3">
<g transform="translate(13.7843, 21.5197)">
<path transform="scale(0.0040, -0.0040)" d="M0 121c0 7 5 13 11 15l49 17v163c0 9 8 17 17 17s17 -8 17 -17v-151l87 31v162c0 9 8 17 17 17s17 -8 17 -17v-150l39 13c10 4 21 -4 21 -15v-64c0 -7 -5 -13 -11 -15l-49 -18v-164l39 14c10 4 21 -4 21 -15v-65c0 -7 -5 -13 -11 -15l-49 -17v-163c0 -9 -8 -17 -17 -17
s-17 8 -17 17v151l-87 -31v-162c0 -9 -8 -17 -17 -17s-17 8 -17 17v150l-39 -13c-10 -4 -21 4 -21 15v64c0 7 5 13 11 15l49 18v164l-39 -14c-10 -4 -21 4 -21 15v65zM181 97l-87 -30v-164l87 30v164z" fill="currentColor"/>
</g>
<g transform="translate(14.8843, 23.1697)">
<path transform="scale(0.0040, -0.0040)" d="M0 121c0 7 5 13 11 15l49 17v163c0 9 8 17 17 17s17 -8 17 -17v-151l87 31v162c0 9 8 17 17 17s17 -8 17 -17v-150l39 13c10 4 21 -4 21 -15v-64c0 -7 -5 -13 -11 -15l-49 -18v-164l39 14c10 4 21 -4 21 -15v-65c0 -7 -5 -13 -11 -15l-49 -17v-163c0 -9 -8 -17 -17 -17
s-17 8 -17 17v151l-87 -31v-162c0 -9 -8 -17 -17 -17s-17 8 -17 17v150l-39 -13c-10 -4 -21 4 -21 15v64c0 7 5 13 11 15l49 18v164l-39 -14c-10 -4 -21 4 -21 15v65zM181 97l-87 -30v-164l87 30v164z" fill="currentColor"/>
</g>
<g transform="translate(15.9843, 20.9697)">
<path transform="scale(0.0040, -0.0040)" d="M0 121c0 7 5 13 11 15l49 17v163c0 9 8 17 17 17s17 -8 17 -17v-151l87 31v162c0 9 8 17 17 17s17 -8 17 -17v-150l39 13c10 4 21 -4 21 -15v-64c0 -7 -5 -13 -11 -15l-49 -18v-164l39 14c10 4 21 -4 21 -15v-65c0 -7 -5 -13 -11 -15l-49 -17v-163c0 -9 -8 -17 -17 -17
s-17 8 -17 17v151l-87 -31v-162c0 -9 -8 -17 -17 -17s-17 8 -17 17v150l-39 -13c-10 -4 -21 4 -21 15v64c0 7 5 13 11 15l49 18v164l-39 -14c-10 -4 -21 4 -21 15v65zM181 97l-87 -30v-164l87 30v164z" fill="currentColor"/>
</g>
<g transform="translate(17.0843, 22.6197)">
<path transform="scale(0.0040, -0.0040)" d="M0 121c0 7 5 13 11 15l49 17v163c0 9 8 17 17 17s17 -8 17 -17v-151l87 31v162c0 9 8 17 17 17s17 -8 17 -17v-150l39 13c10 4 21 -4 21 -15v-64c0 -7 -5 -13 -11 -15l-49 -18v-164l39 14c10 4 21 -4 21 -15v-65c0 -7 -5 -13 -11 -15l-49 -17v-163c0 -9 -8 -17 -17 -17
s-17 8 -17 17v151l-87 -31v-162c0 -9 -8 -17 -17 -17s-17 8 -17 17v150l-39 -13c-10 -4 -21 4 -21 15v64c0 7 5 13 11 15l49 18v164l-39 -14c-10 -4 -21 4 -21 15v65zM181 97l-87 -30v-164l87 30v164z" fill="currentColor"/>
</g>
</a>
<a style="color:inherit;" xlink:href="textedit:///Users/marc.mouries/projects/Sheet-Music/Learn-Violin-with-Famous-Themes/Vivaldi_Spring.ly:22:2:3">
<g transform="translate(19.3343, 23.7197)">
<path transform="scale(0.0040, -0.0040)" d="M250 261c117 0 180 -102 180 -162c0 -40 -32 -74 -70 -74c-31 0 -76 25 -76 77c0 39 28 78 74 78c2 0 10 1 18 -1c-29 37 -76 60 -126 60c-106 0 -113 -73 -113 -185v-54v-54c0 -112 7 -185 113 -185c82 0 145 68 164 151c1 6 6 9 10 9c6 0 11 -4 11 -11
c0 -23 -51 -171 -185 -171c-59 0 -250 19 -250 261c0 62 18 261 250 261z" fill="currentColor"/>
</g>
</a>
<a style="color:inherit;" xlink:href="textedit:///Users/marc.mouries/projects/Sheet-Music/Learn-Violin-with-Famous-Themes/Vivaldi_Spring.ly:23:2:3">
<g transform="translate(19.3343, 20.2003)">
<text font-family="serif" font-weight="bold" font-size="2.2002" text-anchor="start" fill="currentColor">
<tspan>Allegro</tspan>
</text>
</g>
<g transform="translate(26.2483, 20.2003)">
<text font-family="serif" font-size="2.2002" text-anchor="start" fill="currentColor">
<tspan> (</tspan>
</text>
</g>
<g transform="translate(27.5287, 19.7177)">
<rect x="1.0470" y="-2.6727" width="0.1158" height="2.5018" ry="0.0193" fill="currentColor"/>
</g>
<g transform="translate(27.5287, 19.7177)">
<path transform="scale(0.0036, -0.0036)" d="M220 135c11 0 106 -2 106 -87c0 -89 -114 -183 -220 -183c-11 0 -106 2 -106 87c0 89 114 183 220 183z" fill="currentColor"/>
</g>
<g transform="translate(28.6915, 20.2003)">
<text font-family="serif" font-size="2.2002" text-anchor="start" fill="currentColor">
<tspan> = 120)</tspan>
</text>
</g>
</a>
<g transform="translate(23.1057, 23.7197)">
<rect x="-0.0579" y="-1.4533" width="0.1158" height="3.6533" ry="0.0333" fill="currentColor"/>
</g>
<g transform="translate(81.2385, 25.7002)">
<polygon stroke-linejoin="round" stroke-linecap="round" stroke-width="0.0667" fill="currentColor" stroke="currentColor" points="2.5787 -0.2307 2.5787 0.2307 0.0333 0.2307 0.0333 -0.2307"/>
</g>
<a style="color:inherit;" xlink:href="textedit:///Users/marc.mouries/projects/Sheet-Music/Learn-Violin-with-Famous-Themes/Vivaldi_Spring.ly:26:7:8">
<g transform="translate(26.7347, 22.0697)">
<path transform="scale(0.0040, -0.0040)" d="M222 135c64 0 104 -35 104 -86c0 -89 -114 -184 -221 -184c-64 0 -105 35 -105 86c0 89 115 184 222 184z" fill="currentColor"/>
</g>
</a>
<g transform="translate(26.7925, 23.7197)">
<rect x="-0.0579" y="-1.4533" width="0.1158" height="3.4338" ry="0.0333" fill="currentColor"/>
</g>
<g transform="translate(59.5356, 25.9197)">
<polygon stroke-linejoin="round" stroke-linecap="round" stroke-width="0.0667" fill="currentColor" stroke="currentColor" points="7.3214 -0.2307 7.3214 0.2307 0.0333 0.2307 0.0333 -0.2307"/>
</g>
<a style="color:inherit;" xlink:href="textedit:///Users/marc.mouries/projects/Sheet-Music/Learn-Violin-with-Famous-Themes/Vivaldi_Spring.ly:26:10:11">
<g transform="translate(29.2310, 22.0697)">
<path transform="scale(0.0040, -0.0040)" d="M222 135c64 0 104 -35 104 -86c0 -89 -114 -184 -221 -184c-64 0 -105 35 -105 86c0 89 115 184 222 184z" fill="currentColor"/>
</g>
</a>
<g transform="translate(29.2888, 23.7197)">
<rect x="-0.0579" y="-1.4533" width="0.1158" height="3.4338" ry="0.0333" fill="currentColor"/>
</g>
<g transform="translate(41.4324, 25.0392)">
<polygon stroke-linejoin="round" stroke-linecap="round" stroke-width="0.0667" fill="currentColor" stroke="currentColor" points="7.3214 -0.2307 7.3214 0.2307 0.0333 0.2307 0.0333 -0.2307"/>
</g>
<a style="color:inherit;" xlink:href="textedit:///Users/marc.mouries/projects/Sheet-Music/Learn-Violin-with-Famous-Themes/Vivaldi_Spring.ly:26:12:13">
<g transform="translate(31.7273, 22.0697)">
<path transform="scale(0.0040, -0.0040)" d="M222 135c64 0 104 -35 104 -86c0 -89 -114 -184 -221 -184c-64 0 -105 35 -105 86c0 89 115 184 222 184z" fill="currentColor"/>
</g>
</a>
<g transform="translate(31.7852, 23.7197)">
<rect x="-0.0579" y="-1.4533" width="0.1158" height="3.6533" ry="0.0333" fill="currentColor"/>
</g>
<g transform="translate(35.4141, 25.7002)">
<polygon stroke-linejoin="round" stroke-linecap="round" stroke-width="0.0667" fill="currentColor" stroke="currentColor" points="2.5787 -0.2307 2.5787 0.2307 0.0333 0.2307 0.0333 -0.2307"/>
</g>
<a style="color:inherit;" xlink:href="textedit:///Users/marc.mouries/projects/Sheet-Music/Learn-Violin-with-Famous-Themes/Vivaldi_Spring.ly:26:15:16">
<g transform="translate(35.4141, 22.0697)">
<path transform="scale(0.0040, -0.0040)" d="M222 135c64 0 104 -35 104 -86c0 -89 -114 -184 -221 -184c-64 0 -105 35 -105 86c0 89 115 184 222 184z" fill="currentColor"/>
</g>
</a>
<g transform="translate(35.4720, 23.7197)">
<rect x="-0.0579" y="-1.4533" width="0.1158" height="3.4338" ry="0.0333" fill="currentColor"/>
</g>
<g transform="translate(26.7347, 25.7002)">
<polygon stroke-linejoin="round" stroke-linecap="round" stroke-width="0.0667" fill="currentColor" stroke="currentColor" points="2.5787 -0.2307 2.5787 0.2307 0.0333 0.2307 0.0333 -0.2307"/>
</g>
<a style="color:inherit;" xlink:href="textedit:///Users/marc.mouries/projects/Sheet-Music/Learn-Violin-with-Famous-Themes/Vivaldi_Spring.ly:26:18:19">
<g transform="translate(37.9104, 22.0697)">
<path transform="scale(0.0040, -0.0040)" d="M222 135c64 0 104 -35 104 -86c0 -89 -114 -184 -221 -184c-64 0 -105 35 -105 86c0 89 115 184 222 184z" fill="currentColor"/>
</g>
</a>
<g transform="translate(37.9683, 23.7197)">
<rect x="-0.0579" y="-1.4533" width="0.1158" height="3.4338" ry="0.0333" fill="currentColor"/>
</g>
<a style="color:inherit;" xlink:href="textedit:///Users/marc.mouries/projects/Sheet-Music/Learn-Violin-with-Famous-Themes/Vivaldi_Spring.ly:27:2:3">
<g transform="translate(41.4324, 22.0697)">
<path transform="scale(0.0040, -0.0040)" d="M222 135c64 0 104 -35 104 -86c0 -89 -114 -184 -221 -184c-64 0 -105 35 -105 86c0 89 115 184 222 184z" fill="currentColor"/>
</g>
</a>
<g transform="translate(41.4903, 23.7197)">
<rect x="-0.0579" y="-1.4533" width="0.1158" height="2.7727" ry="0.0333" fill="currentColor"/>
</g>
<a style="color:inherit;" xlink:href="textedit:///Users/marc.mouries/projects/Sheet-Music/Learn-Violin-with-Famous-Themes/Vivaldi_Spring.ly:27:5:6">
<g transform="translate(43.9288, 21.5197)">
<path transform="scale(0.0040, -0.0040)" d="M222 135c64 0 104 -35 104 -86c0 -89 -114 -184 -221 -184c-64 0 -105 35 -105 86c0 89 115 184 222 184z" fill="currentColor"/>
</g>
</a>
<g transform="translate(43.9866, 23.7197)">
<rect x="-0.0579" y="-2.0033" width="0.1158" height="3.3227" ry="0.0333" fill="currentColor"/>
</g>
<a style="color:inherit;" xlink:href="textedit:///Users/marc.mouries/projects/Sheet-Music/Learn-Violin-with-Famous-Themes/Vivaldi_Spring.ly:27:8:9">
<g transform="translate(46.4251, 20.9697)">
<path transform="scale(0.0040, -0.0040)" d="M222 135c64 0 104 -35 104 -86c0 -89 -114 -184 -221 -184c-64 0 -105 35 -105 86c0 89 115 184 222 184z" fill="currentColor"/>
</g>
</a>
<g transform="translate(46.4830, 23.7197)">
<rect x="-0.0579" y="-2.5533" width="0.1158" height="3.8727" ry="0.0333" fill="currentColor"/>
</g>
<a style="color:inherit;" xlink:href="textedit:///Users/marc.mouries/projects/Sheet-Music/Learn-Violin-with-Famous-Themes/Vivaldi_Spring.ly:27:11:12">
<g transform="translate(48.6714, 22.0697)">
<path transform="scale(0.0040, -0.0040)" d="M222 135c64 0 104 -35 104 -86c0 -89 -114 -184 -221 -184c-64 0 -105 35 -105 86c0 89 115 184 222 184z" fill="currentColor"/>
</g>
</a>
<g transform="translate(48.7293, 23.7197)">
<rect x="-0.0579" y="-1.4533" width="0.1158" height="2.7727" ry="0.0333" fill="currentColor"/>
</g>
<a style="color:inherit;" xlink:href="textedit:///Users/marc.mouries/projects/Sheet-Music/Learn-Violin-with-Famous-Themes/Vivaldi_Spring.ly:27:13:14">
<g transform="translate(51.1677, 21.5197)">
<path transform="scale(0.0040, -0.0040)" d="M222 135c64 0 104 -35 104 -86c0 -89 -114 -184 -221 -184c-64 0 -105 35 -105 86c0 89 115 184 222 184z" fill="currentColor"/>
</g>
</a>
<g transform="translate(51.2256, 23.7197)">
<rect x="-0.0579" y="-2.0033" width="0.1158" height="3.6533" ry="0.0333" fill="currentColor"/>
</g>
<a style="color:inherit;" xlink:href="textedit:///Users/marc.mouries/projects/Sheet-Music/Learn-Violin-with-Famous-Themes/Vivaldi_Spring.ly:27:17:18">
<g transform="translate(54.8545, 22.0697)">
<path transform="scale(0.0040, -0.0040)" d="M222 135c64 0 104 -35 104 -86c0 -89 -114 -184 -221 -184c-64 0 -105 35 -105 86c0 89 115 184 222 184z" fill="currentColor"/>
</g>
</a>
<g transform="translate(54.9124, 23.7197)">
<rect x="-0.0579" y="-1.4533" width="0.1158" height="3.6533" ry="0.0333" fill="currentColor"/>
</g>
<a style="color:inherit;" xlink:href="textedit:///Users/marc.mouries/projects/Sheet-Music/Learn-Violin-with-Famous-Themes/Vivaldi_Spring.ly:28:2:3">
<g transform="translate(59.5356, 22.6197)">
<path transform="scale(0.0040, -0.0040)" d="M222 135c64 0 104 -35 104 -86c0 -89 -114 -184 -221 -184c-64 0 -105 35 -105 86c0 89 115 184 222 184z" fill="currentColor"/>
</g>
</a>
<g transform="translate(59.5935, 23.7197)">
<rect x="-0.0579" y="-0.9033" width="0.1158" height="3.1033" ry="0.0333" fill="currentColor"/>
</g>
<g transform="translate(89.9179, 25.7002)">
<polygon stroke-linejoin="round" stroke-linecap="round" stroke-width="0.0667" fill="currentColor" stroke="currentColor" points="2.5787 -0.2307 2.5787 0.2307 0.0333 0.2307 0.0333 -0.2307"/>
</g>
<a style="color:inherit;" xlink:href="textedit:///Users/marc.mouries/projects/Sheet-Music/Learn-Violin-with-Famous-Themes/Vivaldi_Spring.ly:28:6:7">
<g transform="translate(62.0319, 22.0697)">
<path transform="scale(0.0040, -0.0040)" d="M222 135c64 0 104 -35 104 -86c0 -89 -114 -184 -221 -184c-64 0 -105 35 -105 86c0 89 115 184 222 184z" fill="currentColor"/>
</g>
</a>
<g transform="translate(62.0898, 23.7197)">
<rect x="-0.0579" y="-1.4533" width="0.1158" height="3.6533" ry="0.0333" fill="currentColor"/>
</g>
<a style="color:inherit;" xlink:href="textedit:///Users/marc.mouries/projects/Sheet-Music/Learn-Violin-with-Famous-Themes/Vivaldi_Spring.ly:28:8:9">
<g transform="translate(64.5283, 21.5197)">
<path transform="scale(0.0040, -0.0040)" d="M222 135c64 0 104 -35 104 -86c0 -89 -114 -184 -221 -184c-64 0 -105 35 -105 86c0 89 115 184 222 184z" fill="currentColor"/>
</g>
</a>
<g transform="translate(64.5861, 23.7197)">
<rect x="-0.0579" y="-2.0033" width="0.1158" height="4.2033" ry="0.0333" fill="currentColor"/>
</g>
<a style="color:inherit;" xlink:href="textedit:///Users/marc.mouries/projects/Sheet-Music/Learn-Violin-with-Famous-Themes/Vivaldi_Spring.ly:28:11:12">
<g transform="translate(66.7746, 22.6197)">
<path transform="scale(0.0040, -0.0040)" d="M222 135c64 0 104 -35 104 -86c0 -89 -114 -184 -221 -184c-64 0 -105 35 -105 86c0 89 115 184 222 184z" fill="currentColor"/>
</g>
</a>
<g transform="translate(66.8325, 23.7197)">
<rect x="-0.0579" y="-0.9033" width="0.1158" height="3.1033" ry="0.0333" fill="currentColor"/>
</g>
<a style="color:inherit;" xlink:href="textedit:///Users/marc.mouries/projects/Sheet-Music/Learn-Violin-with-Famous-Themes/Vivaldi_Spring.ly:28:14:15">
<g transform="translate(69.2709, 22.0697)">
<path transform="scale(0.0040, -0.0040)" d="M222 135c64 0 104 -35 104 -86c0 -89 -114 -184 -221 -184c-64 0 -105 35 -105 86c0 89 115 184 222 184z" fill="currentColor"/>
</g>
</a>
<g transform="translate(69.3288, 23.7197)">
<rect x="-0.0579" y="-1.4533" width="0.1158" height="3.6533" ry="0.0333" fill="currentColor"/>
</g>
<a style="color:inherit;" xlink:href="textedit:///Users/marc.mouries/projects/Sheet-Music/Learn-Violin-with-Famous-Themes/Vivaldi_Spring.ly:28:17:18">
<g transform="translate(72.9577, 23.7197)">
<path transform="scale(0.0040, -0.0040)" d="M-4 79c0 59 125 82 125 181c0 24 -8 47 -24 67l-39 46c-2 3 -3 6 -3 9c0 7 7 14 14 14c3 0 7 -1 10 -5l152 -182c7 -8 10 -17 10 -25c0 -59 -125 -82 -125 -181c0 -24 8 -47 24 -67l87 -104c2 -3 3 -5 3 -8c0 -7 -7 -14 -14 -14c-6 0 -48 48 -112 48
c-14 0 -52 -1 -52 -70c0 -35 11 -75 28 -96c6 -7 -4 -16 -10 -9c-46 55 -93 150 -93 204c0 12 0 40 36 40c34 0 85 -15 130 -37l-137 164c-7 8 -10 17 -10 25z" fill="currentColor"/>
</g>
</a>
<g transform="translate(92.4721, 23.7197)">
<rect x="-0.0579" y="-1.4533" width="0.1158" height="3.4338" ry="0.0333" fill="currentColor"/>
</g>
<a style="color:inherit;" xlink:href="textedit:///Users/marc.mouries/projects/Sheet-Music/Learn-Violin-with-Famous-Themes/Vivaldi_Spring.ly:30:2:3">
<g transform="translate(77.5517, 22.0697)">
<path transform="scale(0.0040, -0.0040)" d="M222 135c64 0 104 -35 104 -86c0 -89 -114 -184 -221 -184c-64 0 -105 35 -105 86c0 89 115 184 222 184z" fill="currentColor"/>
</g>
</a>
<g transform="translate(77.6096, 23.7197)">
<rect x="-0.0579" y="-1.4533" width="0.1158" height="3.6533" ry="0.0333" fill="currentColor"/>
</g>
<a style="color:inherit;" xlink:href="textedit:///Users/marc.mouries/projects/Sheet-Music/Learn-Violin-with-Famous-Themes/Vivaldi_Spring.ly:30:16:17">
<g transform="translate(92.4142, 22.0697)">
<path transform="scale(0.0040, -0.0040)" d="M222 135c64 0 104 -35 104 -86c0 -89 -114 -184 -221 -184c-64 0 -105 35 -105 86c0 89 115 184 222 184z" fill="currentColor"/>
</g>
</a>
<a style="color:inherit;" xlink:href="textedit:///Users/marc.mouries/projects/Sheet-Music/Learn-Violin-with-Famous-Themes/Vivaldi_Spring.ly:30:5:6">
<g transform="translate(81.2385, 22.0697)">
<path transform="scale(0.0040, -0.0040)" d="M222 135c64 0 104 -35 104 -86c0 -89 -114 -184 -221 -184c-64 0 -105 35 -105 86c0 89 115 184 222 184z" fill="currentColor"/>
</g>
</a>
<g transform="translate(81.2964, 23.7197)">
<rect x="-0.0579" y="-1.4533" width="0.1158" height="3.4338" ry="0.0333" fill="currentColor"/>
</g>
<a style="color:inherit;" xlink:href="textedit:///Users/marc.mouries/projects/Sheet-Music/Learn-Violin-with-Famous-Themes/Vivaldi_Spring.ly:30:8:9">
<g transform="translate(83.7348, 22.0697)">
<path transform="scale(0.0040, -0.0040)" d="M222 135c64 0 104 -35 104 -86c0 -89 -114 -184 -221 -184c-64 0 -105 35 -105 86c0 89 115 184 222 184z" fill="currentColor"/>
</g>
</a>
<g transform="translate(83.7927, 23.7197)">
<rect x="-0.0579" y="-1.4533" width="0.1158" height="3.4338" ry="0.0333" fill="currentColor"/>
</g>
<a style="color:inherit;" xlink:href="textedit:///Users/marc.mouries/projects/Sheet-Music/Learn-Violin-with-Famous-Themes/Vivaldi_Spring.ly:30:10:11">
<g transform="translate(86.2311, 22.0697)">
<path transform="scale(0.0040, -0.0040)" d="M222 135c64 0 104 -35 104 -86c0 -89 -114 -184 -221 -184c-64 0 -105 35 -105 86c0 89 115 184 222 184z" fill="currentColor"/>
</g>
</a>
<g transform="translate(86.2890, 23.7197)">
<rect x="-0.0579" y="-1.4533" width="0.1158" height="3.6533" ry="0.0333" fill="currentColor"/>
</g>
<a style="color:inherit;" xlink:href="textedit:///Users/marc.mouries/projects/Sheet-Music/Learn-Violin-with-Famous-Themes/Vivaldi_Spring.ly:30:13:14">
<g transform="translate(89.9179, 22.0697)">
<path transform="scale(0.0040, -0.0040)" d="M222 135c64 0 104 -35 104 -86c0 -89 -114 -184 -221 -184c-64 0 -105 35 -105 86c0 89 115 184 222 184z" fill="currentColor"/>
</g>
</a>
<g transform="translate(89.9758, 23.7197)">
<rect x="-0.0579" y="-1.4533" width="0.1158" height="3.4338" ry="0.0333" fill="currentColor"/>
</g>
<g transform="translate(4.7421, 36.4197)">
<rect x="78.2129" y="-0.0995" width="1.9587" height="0.1990" ry="0.0995" fill="currentColor"/>
</g>
<g transform="translate(4.7421, 36.4197)">
<rect x="75.5251" y="-0.0995" width="1.9587" height="0.1990" ry="0.0995" fill="currentColor"/>
</g>
<g transform="translate(4.7421, 35.3197)">
<rect x="72.8372" y="-0.0995" width="1.9587" height="0.1990" ry="0.0995" fill="currentColor"/>
</g>
<g transform="translate(4.7421, 36.4197)">
<rect x="72.8372" y="-0.0995" width="1.9587" height="0.1990" ry="0.0995" fill="currentColor"/>
</g>
<g transform="translate(4.7421, 36.4197)">
<rect x="70.1494" y="-0.0995" width="1.9587" height="0.1990" ry="0.0995" fill="currentColor"/>
</g>
<g transform="translate(4.7421, 36.4197)">
<rect x="66.3212" y="-0.0995" width="1.9587" height="0.1990" ry="0.0995" fill="currentColor"/>
</g>
<g transform="translate(4.7421, 36.4197)">
<rect x="63.6334" y="-0.0995" width="1.9587" height="0.1990" ry="0.0995" fill="currentColor"/>
</g>
<g transform="translate(4.7421, 36.4197)">
<rect x="59.5635" y="-0.0995" width="1.9587" height="0.1990" ry="0.0995" fill="currentColor"/>
</g>
<g transform="translate(4.7421, 36.4197)">
<rect x="56.8757" y="-0.0995" width="1.9587" height="0.1990" ry="0.0995" fill="currentColor"/>
</g>
<g transform="translate(4.7421, 36.4197)">
<rect x="54.1878" y="-0.0995" width="1.9587" height="0.1990" ry="0.0995" fill="currentColor"/>
</g>
<g transform="translate(4.7421, 36.4197)">
<rect x="50.1179" y="-0.0995" width="1.9587" height="0.1990" ry="0.0995" fill="currentColor"/>
</g>
<g transform="translate(4.7421, 41.9197)">
<line stroke-linejoin="round" stroke-linecap="round" stroke-width="0.0890" stroke="currentColor" x1="0.0445" y1="0" x2="90.0559" y2="0"/>
</g>
<g transform="translate(4.7421, 40.8197)">
<line stroke-linejoin="round" stroke-linecap="round" stroke-width="0.0890" stroke="currentColor" x1="0.0445" y1="0" x2="90.0559" y2="0"/>
</g>
<g transform="translate(4.7421, 39.7197)">
<line stroke-linejoin="round" stroke-linecap="round" stroke-width="0.0890" stroke="currentColor" x1="0.0445" y1="0" x2="90.0559" y2="0"/>
</g>
<g transform="translate(4.7421, 38.6197)">
<line stroke-linejoin="round" stroke-linecap="round" stroke-width="0.0890" stroke="currentColor" x1="0.0445" y1="0" x2="90.0559" y2="0"/>
</g>
<g transform="translate(4.7421, 37.5197)">
<line stroke-linejoin="round" stroke-linecap="round" stroke-width="0.0890" stroke="currentColor" x1="0.0445" y1="0" x2="90.0559" y2="0"/>
</g>
<g transform="translate(94.3082, 39.7197)">
<rect x="0.0000" y="-2.2000" width="0.5343" height="4.4000" ry="0.0000" fill="currentColor"/>
</g>
<g transform="translate(93.8719, 39.7197)">
<rect x="0.0000" y="-2.2000" width="0.1692" height="4.4000" ry="0.0000" fill="currentColor"/>
</g>
<g transform="translate(73.9348, 39.7197)">
<rect x="0.0000" y="-2.2000" width="0.1692" height="4.4000" ry="0.0000" fill="currentColor"/>
</g>
<g transform="translate(53.9348, 39.7197)">
<rect x="0.0000" y="-2.2000" width="0.1692" height="4.4000" ry="0.0000" fill="currentColor"/>
</g>
<g transform="translate(34.3461, 39.7197)">
<rect x="0.0000" y="-2.2000" width="0.1692" height="4.4000" ry="0.0000" fill="currentColor"/>
</g>
<g transform="translate(5.5421, 40.8197)">
<path transform="scale(0.0040, -0.0040)" d="M264 -594c47 0 165 26 165 246c0 32 -2 64 -5 96c-5 -1 -44 -8 -89 -8c-193 0 -333 178 -333 372c0 178 133 306 251 440c-27 93 -49 170 -49 345c0 116 55 226 150 295c5 4 11 4 16 0c67 -81 132 -246 132 -359c0 -144 -87 -256 -183 -365c20 -69 39 -138 55 -208
c2 0 7 1 15 1c154 0 254 -127 254 -259c0 -112 -73 -212 -180 -245c3 -36 5 -72 5 -108c0 -19 0 -37 -1 -56c-7 -120 -89 -226 -206 -226c-108 0 -195 87 -195 195c0 58 53 104 112 104c54 0 95 -48 95 -104c0 -52 -43 -95 -95 -95c-12 0 -24 4 -35 9c26 -41 70 -70 121 -70
zM459 -205c71 24 117 92 117 166c0 92 -69 184 -179 193c1 -5 45 -212 62 -359zM71 31c0 -146 142 -251 267 -251c1 0 46 0 82 6c-7 63 -28 201 -64 367c-79 -9 -125 -62 -125 -121c0 -44 26 -92 82 -124c4 -4 7 -9 7 -14c0 -11 -9 -21 -20 -21c-14 0 -125 62 -125 186
c0 88 57 173 158 196c-14 60 -30 119 -46 178c-108 -121 -216 -242 -216 -402zM411 1050c-99 -50 -161 -151 -161 -262c0 -59 11 -123 33 -200c82 97 149 198 149 325c0 35 0 69 -21 137z" fill="currentColor"/>
</g>
<g transform="translate(9.0421, 37.5197)">
<path transform="scale(0.0040, -0.0040)" d="M0 121c0 7 5 13 11 15l49 17v163c0 9 8 17 17 17s17 -8 17 -17v-151l87 31v162c0 9 8 17 17 17s17 -8 17 -17v-150l39 13c10 4 21 -4 21 -15v-64c0 -7 -5 -13 -11 -15l-49 -18v-164l39 14c10 4 21 -4 21 -15v-65c0 -7 -5 -13 -11 -15l-49 -17v-163c0 -9 -8 -17 -17 -17
s-17 8 -17 17v151l-87 -31v-162c0 -9 -8 -17 -17 -17s-17 8 -17 17v150l-39 -13c-10 -4 -21 4 -21 15v64c0 7 5 13 11 15l49 18v164l-39 -14c-10 -4 -21 4 -21 15v65zM181 97l-87 -30v-164l87 30v164z" fill="currentColor"/>
</g>
<g transform="translate(10.1421, 39.1697)">
<path transform="scale(0.0040, -0.0040)" d="M0 121c0 7 5 13 11 15l49 17v163c0 9 8 17 17 17s17 -8 17 -17v-151l87 31v162c0 9 8 17 17 17s17 -8 17 -17v-150l39 13c10 4 21 -4 21 -15v-64c0 -7 -5 -13 -11 -15l-49 -18v-164l39 14c10 4 21 -4 21 -15v-65c0 -7 -5 -13 -11 -15l-49 -17v-163c0 -9 -8 -17 -17 -17
s-17 8 -17 17v151l-87 -31v-162c0 -9 -8 -17 -17 -17s-17 8 -17 17v150l-39 -13c-10 -4 -21 4 -21 15v64c0 7 5 13 11 15l49 18v164l-39 -14c-10 -4 -21 4 -21 15v65zM181 97l-87 -30v-164l87 30v164z" fill="currentColor"/>
</g>
<g transform="translate(11.2421, 36.9697)">
<path transform="scale(0.0040, -0.0040)" d="M0 121c0 7 5 13 11 15l49 17v163c0 9 8 17 17 17s17 -8 17 -17v-151l87 31v162c0 9 8 17 17 17s17 -8 17 -17v-150l39 13c10 4 21 -4 21 -15v-64c0 -7 -5 -13 -11 -15l-49 -18v-164l39 14c10 4 21 -4 21 -15v-65c0 -7 -5 -13 -11 -15l-49 -17v-163c0 -9 -8 -17 -17 -17
s-17 8 -17 17v151l-87 -31v-162c0 -9 -8 -17 -17 -17s-17 8 -17 17v150l-39 -13c-10 -4 -21 4 -21 15v64c0 7 5 13 11 15l49 18v164l-39 -14c-10 -4 -21 4 -21 15v65zM181 97l-87 -30v-164l87 30v164z" fill="currentColor"/>
</g>
<g transform="translate(12.3421, 38.6197)">
<path transform="scale(0.0040, -0.0040)" d="M0 121c0 7 5 13 11 15l49 17v163c0 9 8 17 17 17s17 -8 17 -17v-151l87 31v162c0 9 8 17 17 17s17 -8 17 -17v-150l39 13c10 4 21 -4 21 -15v-64c0 -7 -5 -13 -11 -15l-49 -18v-164l39 14c10 4 21 -4 21 -15v-65c0 -7 -5 -13 -11 -15l-49 -17v-163c0 -9 -8 -17 -17 -17
s-17 8 -17 17v151l-87 -31v-162c0 -9 -8 -17 -17 -17s-17 8 -17 17v150l-39 -13c-10 -4 -21 4 -21 15v64c0 7 5 13 11 15l49 18v164l-39 -14c-10 -4 -21 4 -21 15v65zM181 97l-87 -30v-164l87 30v164z" fill="currentColor"/>
</g>
<g transform="translate(3.8601, 36.4547)">
<text font-family="serif" font-size="1.7463" text-anchor="start" fill="currentColor">
<tspan>5</tspan>
</text>
</g>
<g transform="translate(75.2180, 39.7197)">
<polygon stroke-linejoin="round" stroke-linecap="round" stroke-width="0.0667" fill="currentColor" stroke="currentColor" points="8.1460 -0.0112 8.1460 0.4501 0.0333 0.2307 0.0333 -0.2307"/>
</g>
<a style="color:inherit;" xlink:href="textedit:///Users/marc.mouries/projects/Sheet-Music/Learn-Violin-with-Famous-Themes/Vivaldi_Spring.ly:31:2:3">
<g transform="translate(15.9422, 38.0697)">
<path transform="scale(0.0040, -0.0040)" d="M222 135c64 0 104 -35 104 -86c0 -89 -114 -184 -221 -184c-64 0 -105 35 -105 86c0 89 115 184 222 184z" fill="currentColor"/>
</g>
</a>
<g transform="translate(16.0000, 39.7197)">
<rect x="-0.0579" y="-1.4533" width="0.1158" height="2.7727" ry="0.0333" fill="currentColor"/>
</g>
<g transform="translate(68.7020, 39.7197)">
<polygon stroke-linejoin="round" stroke-linecap="round" stroke-width="0.0667" fill="currentColor" stroke="currentColor" points="2.7703 -0.2307 2.7703 0.2307 0.0333 0.2307 0.0333 -0.2307"/>
</g>
<a style="color:inherit;" xlink:href="textedit:///Users/marc.mouries/projects/Sheet-Music/Learn-Violin-with-Famous-Themes/Vivaldi_Spring.ly:31:5:6">
<g transform="translate(18.6300, 37.5197)">
<path transform="scale(0.0040, -0.0040)" d="M222 135c64 0 104 -35 104 -86c0 -89 -114 -184 -221 -184c-64 0 -105 35 -105 86c0 89 115 184 222 184z" fill="currentColor"/>
</g>
</a>
<g transform="translate(18.6879, 39.7197)">
<rect x="-0.0579" y="-2.0033" width="0.1158" height="3.3227" ry="0.0333" fill="currentColor"/>
</g>
<g transform="translate(59.2564, 39.7197)">
<polygon stroke-linejoin="round" stroke-linecap="round" stroke-width="0.0667" fill="currentColor" stroke="currentColor" points="2.7703 -0.2307 2.7703 0.2307 0.0333 0.2307 0.0333 -0.2307"/>
</g>
<a style="color:inherit;" xlink:href="textedit:///Users/marc.mouries/projects/Sheet-Music/Learn-Violin-with-Famous-Themes/Vivaldi_Spring.ly:31:8:9">
<g transform="translate(21.3178, 36.9697)">
<path transform="scale(0.0040, -0.0040)" d="M222 135c64 0 104 -35 104 -86c0 -89 -114 -184 -221 -184c-64 0 -105 35 -105 86c0 89 115 184 222 184z" fill="currentColor"/>
</g>
</a>
<g transform="translate(21.3757, 39.7197)">
<rect x="-0.0579" y="-2.5533" width="0.1158" height="3.8727" ry="0.0333" fill="currentColor"/>
</g>
<g transform="translate(35.6494, 41.9197)">
<polygon stroke-linejoin="round" stroke-linecap="round" stroke-width="0.0667" fill="currentColor" stroke="currentColor" points="7.8960 -0.2307 7.8960 0.2307 0.0333 0.2307 0.0333 -0.2307"/>
</g>
<a style="color:inherit;" xlink:href="textedit:///Users/marc.mouries/projects/Sheet-Music/Learn-Violin-with-Famous-Themes/Vivaldi_Spring.ly:31:11:12">
<g transform="translate(23.7557, 38.0697)">
<path transform="scale(0.0040, -0.0040)" d="M222 135c64 0 104 -35 104 -86c0 -89 -114 -184 -221 -184c-64 0 -105 35 -105 86c0 89 115 184 222 184z" fill="currentColor"/>
</g>
</a>
<g transform="translate(23.8136, 39.7197)">
<rect x="-0.0579" y="-1.4533" width="0.1158" height="2.7727" ry="0.0333" fill="currentColor"/>
</g>
<g transform="translate(15.9422, 41.0392)">
<polygon stroke-linejoin="round" stroke-linecap="round" stroke-width="0.0667" fill="currentColor" stroke="currentColor" points="7.8960 -0.2307 7.8960 0.2307 0.0333 0.2307 0.0333 -0.2307"/>
</g>
<a style="color:inherit;" xlink:href="textedit:///Users/marc.mouries/projects/Sheet-Music/Learn-Violin-with-Famous-Themes/Vivaldi_Spring.ly:31:13:14">
<g transform="translate(26.4435, 37.5197)">
<path transform="scale(0.0040, -0.0040)" d="M222 135c64 0 104 -35 104 -86c0 -89 -114 -184 -221 -184c-64 0 -105 35 -105 86c0 89 115 184 222 184z" fill="currentColor"/>
</g>
</a>
<g transform="translate(26.5014, 39.7197)">
<rect x="-0.0579" y="-2.0033" width="0.1158" height="3.6533" ry="0.0333" fill="currentColor"/>
</g>
<a style="color:inherit;" xlink:href="textedit:///Users/marc.mouries/projects/Sheet-Music/Learn-Violin-with-Famous-Themes/Vivaldi_Spring.ly:31:17:18">
<g transform="translate(30.5134, 38.0697)">
<path transform="scale(0.0040, -0.0040)" d="M222 135c64 0 104 -35 104 -86c0 -89 -114 -184 -221 -184c-64 0 -105 35 -105 86c0 89 115 184 222 184z" fill="currentColor"/>
</g>
</a>
<g transform="translate(30.5713, 39.7197)">
<rect x="-0.0579" y="-1.4533" width="0.1158" height="3.6533" ry="0.0333" fill="currentColor"/>
</g>
<a style="color:inherit;" xlink:href="textedit:///Users/marc.mouries/projects/Sheet-Music/Learn-Violin-with-Famous-Themes/Vivaldi_Spring.ly:32:2:3">
<g transform="translate(35.6494, 38.6197)">
<path transform="scale(0.0040, -0.0040)" d="M222 135c64 0 104 -35 104 -86c0 -89 -114 -184 -221 -184c-64 0 -105 35 -105 86c0 89 115 184 222 184z" fill="currentColor"/>
</g>
</a>
<g transform="translate(35.7073, 39.7197)">
<rect x="-0.0579" y="-0.9033" width="0.1158" height="3.1033" ry="0.0333" fill="currentColor"/>
</g>
<a style="color:inherit;" xlink:href="textedit:///Users/marc.mouries/projects/Sheet-Music/Learn-Violin-with-Famous-Themes/Vivaldi_Spring.ly:32:6:7">
<g transform="translate(38.3373, 38.0697)">
<path transform="scale(0.0040, -0.0040)" d="M222 135c64 0 104 -35 104 -86c0 -89 -114 -184 -221 -184c-64 0 -105 35 -105 86c0 89 115 184 222 184z" fill="currentColor"/>
</g>
</a>
<g transform="translate(38.3952, 39.7197)">
<rect x="-0.0579" y="-1.4533" width="0.1158" height="3.6533" ry="0.0333" fill="currentColor"/>
</g>
<a style="color:inherit;" xlink:href="textedit:///Users/marc.mouries/projects/Sheet-Music/Learn-Violin-with-Famous-Themes/Vivaldi_Spring.ly:32:8:9">
<g transform="translate(41.0251, 37.5197)">
<path transform="scale(0.0040, -0.0040)" d="M222 135c64 0 104 -35 104 -86c0 -89 -114 -184 -221 -184c-64 0 -105 35 -105 86c0 89 115 184 222 184z" fill="currentColor"/>
</g>
</a>
<g transform="translate(41.0830, 39.7197)">
<rect x="-0.0579" y="-2.0033" width="0.1158" height="4.2033" ry="0.0333" fill="currentColor"/>
</g>
<a style="color:inherit;" xlink:href="textedit:///Users/marc.mouries/projects/Sheet-Music/Learn-Violin-with-Famous-Themes/Vivaldi_Spring.ly:32:11:12">
<g transform="translate(43.4630, 38.6197)">
<path transform="scale(0.0040, -0.0040)" d="M222 135c64 0 104 -35 104 -86c0 -89 -114 -184 -221 -184c-64 0 -105 35 -105 86c0 89 115 184 222 184z" fill="currentColor"/>
</g>
</a>
<g transform="translate(43.5209, 39.7197)">
<rect x="-0.0579" y="-0.9033" width="0.1158" height="3.1033" ry="0.0333" fill="currentColor"/>
</g>
<a style="color:inherit;" xlink:href="textedit:///Users/marc.mouries/projects/Sheet-Music/Learn-Violin-with-Famous-Themes/Vivaldi_Spring.ly:32:14:15">
<g transform="translate(46.1508, 38.0697)">
<path transform="scale(0.0040, -0.0040)" d="M222 135c64 0 104 -35 104 -86c0 -89 -114 -184 -221 -184c-64 0 -105 35 -105 86c0 89 115 184 222 184z" fill="currentColor"/>
</g>
</a>
<g transform="translate(46.2087, 39.7197)">
<rect x="-0.0579" y="-1.4533" width="0.1158" height="3.6533" ry="0.0333" fill="currentColor"/>
</g>
<a style="color:inherit;" xlink:href="textedit:///Users/marc.mouries/projects/Sheet-Music/Learn-Violin-with-Famous-Themes/Vivaldi_Spring.ly:32:17:18">
<g transform="translate(50.2207, 39.7197)">
<path transform="scale(0.0040, -0.0040)" d="M-4 79c0 59 125 82 125 181c0 24 -8 47 -24 67l-39 46c-2 3 -3 6 -3 9c0 7 7 14 14 14c3 0 7 -1 10 -5l152 -182c7 -8 10 -17 10 -25c0 -59 -125 -82 -125 -181c0 -24 8 -47 24 -67l87 -104c2 -3 3 -5 3 -8c0 -7 -7 -14 -14 -14c-6 0 -48 48 -112 48
c-14 0 -52 -1 -52 -70c0 -35 11 -75 28 -96c6 -7 -4 -16 -10 -9c-46 55 -93 150 -93 204c0 12 0 40 36 40c34 0 85 -15 130 -37l-137 164c-7 8 -10 17 -10 25z" fill="currentColor"/>
</g>
</a>
<a style="color:inherit;" xlink:href="textedit:///Users/marc.mouries/projects/Sheet-Music/Learn-Violin-with-Famous-Themes/Vivaldi_Spring.ly:35:2:3">
<g transform="translate(55.1865, 35.8697)">
<path transform="scale(0.0040, -0.0040)" d="M222 135c64 0 104 -35 104 -86c0 -89 -114 -184 -221 -184c-64 0 -105 35 -105 86c0 89 115 184 222 184z" fill="currentColor"/>
</g>
</a>
<g transform="translate(55.2444, 39.7197)">
<rect x="-0.0579" y="-3.6533" width="0.1158" height="3.6533" ry="0.0333" fill="currentColor"/>
</g>
<a style="color:inherit;" xlink:href="textedit:///Users/marc.mouries/projects/Sheet-Music/Learn-Violin-with-Famous-Themes/Vivaldi_Spring.ly:35:6:7">
<g transform="translate(59.2564, 35.8697)">
<path transform="scale(0.0040, -0.0040)" d="M222 135c64 0 104 -35 104 -86c0 -89 -114 -184 -221 -184c-64 0 -105 35 -105 86c0 89 115 184 222 184z" fill="currentColor"/>
</g>
</a>
<g transform="translate(59.3143, 39.7197)">
<rect x="-0.0579" y="-3.6533" width="0.1158" height="3.6533" ry="0.0333" fill="currentColor"/>
</g>
<a style="color:inherit;" xlink:href="textedit:///Users/marc.mouries/projects/Sheet-Music/Learn-Violin-with-Famous-Themes/Vivaldi_Spring.ly:35:9:10">
<g transform="translate(61.9442, 35.8697)">
<path transform="scale(0.0040, -0.0040)" d="M222 135c64 0 104 -35 104 -86c0 -89 -114 -184 -221 -184c-64 0 -105 35 -105 86c0 89 115 184 222 184z" fill="currentColor"/>
</g>
</a>
<g transform="translate(62.0021, 39.7197)">
<rect x="-0.0579" y="-3.6533" width="0.1158" height="3.6533" ry="0.0333" fill="currentColor"/>
</g>
<a style="color:inherit;" xlink:href="textedit:///Users/marc.mouries/projects/Sheet-Music/Learn-Violin-with-Famous-Themes/Vivaldi_Spring.ly:35:11:12">
<g transform="translate(64.6321, 35.8697)">
<path transform="scale(0.0040, -0.0040)" d="M222 135c64 0 104 -35 104 -86c0 -89 -114 -184 -221 -184c-64 0 -105 35 -105 86c0 89 115 184 222 184z" fill="currentColor"/>
</g>
</a>
<g transform="translate(64.6900, 39.7197)">
<rect x="-0.0579" y="-3.6533" width="0.1158" height="3.6533" ry="0.0333" fill="currentColor"/>
</g>
<g transform="translate(90.0971, 39.7197)">
<rect x="-0.0579" y="-2.0033" width="0.1158" height="3.6533" ry="0.0333" fill="currentColor"/>
</g>
<a style="color:inherit;" xlink:href="textedit:///Users/marc.mouries/projects/Sheet-Music/Learn-Violin-with-Famous-Themes/Vivaldi_Spring.ly:35:14:15">
<g transform="translate(68.7020, 35.8697)">
<path transform="scale(0.0040, -0.0040)" d="M222 135c64 0 104 -35 104 -86c0 -89 -114 -184 -221 -184c-64 0 -105 35 -105 86c0 89 115 184 222 184z" fill="currentColor"/>
</g>
</a>
<g transform="translate(68.7599, 39.7197)">
<rect x="-0.0579" y="-3.6533" width="0.1158" height="3.6533" ry="0.0333" fill="currentColor"/>
</g>
<a style="color:inherit;" xlink:href="textedit:///Users/marc.mouries/projects/Sheet-Music/Learn-Violin-with-Famous-Themes/Vivaldi_Spring.ly:36:16:17">
<g transform="translate(90.0392, 37.5197)">
<path transform="scale(0.0040, -0.0040)" d="M222 135c64 0 104 -35 104 -86c0 -89 -114 -184 -221 -184c-64 0 -105 35 -105 86c0 89 115 184 222 184z" fill="currentColor"/>
</g>
</a>
<a style="color:inherit;" xlink:href="textedit:///Users/marc.mouries/projects/Sheet-Music/Learn-Violin-with-Famous-Themes/Vivaldi_Spring.ly:35:17:18">
<g transform="translate(71.3898, 35.8697)">
<path transform="scale(0.0040, -0.0040)" d="M222 135c64 0 104 -35 104 -86c0 -89 -114 -184 -221 -184c-64 0 -105 35 -105 86c0 89 115 184 222 184z" fill="currentColor"/>
</g>
</a>
<g transform="translate(71.4477, 39.7197)">
<rect x="-0.0579" y="-3.6533" width="0.1158" height="3.6533" ry="0.0333" fill="currentColor"/>
</g>
<a style="color:inherit;" xlink:href="textedit:///Users/marc.mouries/projects/Sheet-Music/Learn-Violin-with-Famous-Themes/Vivaldi_Spring.ly:36:2:3">
<g transform="translate(75.2180, 35.8697)">
<path transform="scale(0.0040, -0.0040)" d="M222 135c64 0 104 -35 104 -86c0 -89 -114 -184 -221 -184c-64 0 -105 35 -105 86c0 89 115 184 222 184z" fill="currentColor"/>
</g>
</a>
<g transform="translate(75.2759, 39.7197)">
<rect x="-0.0579" y="-3.6533" width="0.1158" height="3.6548" ry="0.0333" fill="currentColor"/>
</g>
<a style="color:inherit;" xlink:href="textedit:///Users/marc.mouries/projects/Sheet-Music/Learn-Violin-with-Famous-Themes/Vivaldi_Spring.ly:36:5:6">
<g transform="translate(77.9058, 35.3197)">
<path transform="scale(0.0040, -0.0040)" d="M222 135c64 0 104 -35 104 -86c0 -89 -114 -184 -221 -184c-64 0 -105 35 -105 86c0 89 115 184 222 184z" fill="currentColor"/>
</g>
</a>
<g transform="translate(77.9637, 39.7197)">
<rect x="-0.0579" y="-4.2033" width="0.1158" height="4.2769" ry="0.0333" fill="currentColor"/>
</g>
<g transform="translate(86.0272, 39.7197)">
<rect x="-0.0579" y="-2.5533" width="0.1158" height="3.6533" ry="0.0333" fill="currentColor"/>
</g>
<a style="color:inherit;" xlink:href="textedit:///Users/marc.mouries/projects/Sheet-Music/Learn-Violin-with-Famous-Themes/Vivaldi_Spring.ly:36:8:9">
<g transform="translate(80.5937, 35.8697)">
<path transform="scale(0.0040, -0.0040)" d="M222 135c64 0 104 -35 104 -86c0 -89 -114 -184 -221 -184c-64 0 -105 35 -105 86c0 89 115 184 222 184z" fill="currentColor"/>
</g>
</a>
<g transform="translate(80.6515, 39.7197)">
<rect x="-0.0579" y="-3.6533" width="0.1158" height="3.7991" ry="0.0333" fill="currentColor"/>
</g>
<a style="color:inherit;" xlink:href="textedit:///Users/marc.mouries/projects/Sheet-Music/Learn-Violin-with-Famous-Themes/Vivaldi_Spring.ly:36:12:13">
<g transform="translate(85.9694, 36.9697)">
<path transform="scale(0.0040, -0.0040)" d="M222 135c64 0 104 -35 104 -86c0 -89 -114 -184 -221 -184c-64 0 -105 35 -105 86c0 89 115 184 222 184z" fill="currentColor"/>
</g>
</a>
<a style="color:inherit;" xlink:href="textedit:///Users/marc.mouries/projects/Sheet-Music/Learn-Violin-with-Famous-Themes/Vivaldi_Spring.ly:36:10:11">
<g transform="translate(83.2815, 36.4197)">
<path transform="scale(0.0040, -0.0040)" d="M222 135c64 0 104 -35 104 -86c0 -89 -114 -184 -221 -184c-64 0 -105 35 -105 86c0 89 115 184 222 184z" fill="currentColor"/>
</g>
</a>
<g transform="translate(83.3394, 39.7197)">
<rect x="-0.0579" y="-3.1033" width="0.1158" height="3.3212" ry="0.0333" fill="currentColor"/>
</g>
<g transform="translate(48.8249, 137.9729)">
<text font-family="serif" font-size="1.9603" text-anchor="start" fill="currentColor">
<tspan>10</tspan>
</text>
</g>
</svg>
