<svg xmlns="http://www.w3.org/2000/svg" xmlns:xlink="http://www.w3.org/1999/xlink" version="1.2" width="210.00mm" height="297.00mm" viewBox="0.0000 -0.0000 99.5846 140.8411">
<style type="text/css">
<![CDATA[
tspan { white-space: pre; }
]]>
</style>
<g transform="translate(49.5220, 2.3711)">
<text font-family="serif" font-size="2.2002" text-anchor="start" fill="currentColor">
<tspan> </tspan>
</text>
</g>
<g transform="translate(41.3845, 6.3883)">
<text font-family="Optima" font-weight="bold" font-size="4.3999" text-anchor="start" fill="currentColor">
<tspan>F</tspan>
</text>
</g>
<g transform="translate(43.5754, 6.3883)">
<text font-family="Optima" font-weight="bold" font-size="3.4922" text-anchor="start" fill="currentColor">
<tspan>ÜR</tspan>
</text>
</g>
<g transform="translate(48.4124, 6.3883)">
<text font-family="Optima" font-weight="bold" font-size="4.3999" text-anchor="start" fill="currentColor">
<tspan> E</tspan>
</text>
</g>
<g transform="translate(51.8267, 6.3883)">
<text font-family="Optima" font-weight="bold" font-size="3.4922" text-anchor="start" fill="currentColor">
<tspan>LISE</tspan>
</text>
</g>
<g transform="translate(70.7430, 6.3883)">
<text font-family="Optima" font-size="1.9598" text-anchor="start" fill="currentColor">
<tspan>L. V. Beethoven (1770–1827)</tspan>
</text>
</g>
<g transform="translate(4.7421, 24.4956)">
<rect x="55.3926" y="-0.0995" width="1.9587" height="0.1990" ry="0.0995" fill="currentColor"/>
</g>
<g transform="translate(9.4843, 23.3956)">
<line stroke-linejoin="round" stroke-linecap="round" stroke-width="0.0890" stroke="currentColor" x1="0.0445" y1="0" x2="85.3137" y2="0"/>
</g>
<g transform="translate(9.4843, 22.2956)">
<line stroke-linejoin="round" stroke-linecap="round" stroke-width="0.0890" stroke="currentColor" x1="0.0445" y1="0" x2="85.3137" y2="0"/>
</g>
<g transform="translate(9.4843, 21.1956)">
<line stroke-linejoin="round" stroke-linecap="round" stroke-width="0.0890" stroke="currentColor" x1="0.0445" y1="0" x2="85.3137" y2="0"/>
</g>
<g transform="translate(9.4843, 20.0956)">
<line stroke-linejoin="round" stroke-linecap="round" stroke-width="0.0890" stroke="currentColor" x1="0.0445" y1="0" x2="85.3137" y2="0"/>
</g>
<g transform="translate(9.4843, 18.9956)">
<line stroke-linejoin="round" stroke-linecap="round" stroke-width="0.0890" stroke="currentColor" x1="0.0445" y1="0" x2="85.3137" y2="0"/>
</g>
<g transform="translate(94.6733, 21.1956)">
<rect x="0.0000" y="-2.2000" width="0.1692" height="4.4000" ry="0.0000" fill="currentColor"/>
</g>
<g transform="translate(71.8455, 21.1956)">
<rect x="0.0000" y="-2.2000" width="0.1692" height="4.4000" ry="0.0000" fill="currentColor"/>
</g>
<g transform="translate(49.6849, 21.1956)">
<rect x="0.0000" y="-2.2000" width="0.1692" height="4.4000" ry="0.0000" fill="currentColor"/>
</g>
<g transform="translate(25.7011, 21.1956)">
<rect x="0.0000" y="-2.2000" width="0.1692" height="4.4000" ry="0.0000" fill="currentColor"/>
</g>
<a style="color:inherit;" xlink:href="textedit:///Users/marc.mouries/projects/Sheet-Music/Learn-Violin-with-Famous-Themes/Beethoven_Fur-Elise.ly:26:12:13">
<g transform="translate(17.9069, 19.5456)">
<path transform="scale(0.0040, -0.0040)" d="M222 135c64 0 104 -35 104 -86c0 -89 -114 -184 -221 -184c-64 0 -105 35 -105 86c0 89 115 184 222 184z" fill="currentColor"/>
</g>
</a>
<a style="color:inherit;" xlink:href="textedit:///Users/marc.mouries/projects/Sheet-Music/Learn-Violin-with-Famous-Themes/Beethoven_Fur-Elise.ly:26:18:19">
<g transform="translate(17.9069, 18.1058)">
<text font-family="serif" font-weight="bold" font-size="2.2002" text-anchor="start" fill="currentColor">
<tspan>Poco moto.</tspan>
</text>
</g>
</a>
<a style="color:inherit;" xlink:href="textedit:///Users/marc.mouries/projects/Sheet-Music/Learn-Violin-with-Famous-Themes/Beethoven_Fur-Elise.ly:26:15:16">
<g transform="translate(17.1087, 25.2680)">
<g>
<path transform="scale(0.0040, -0.0040)" d="M161 33c79 0 97 175 97 177c0 18 -7 33 -25 33c-60 0 -102 -122 -102 -172c0 -23 8 -38 30 -38zM-54 142c0 2 51 150 133 150c36 0 61 -21 68 -52c29 31 67 52 103 52c69 0 107 -49 107 -114c0 -119 -105 -185 -158 -185s-71 20 -85 20c-7 0 -13 -3 -15 -9l-33 -95
c-1 -2 -1 -4 -1 -6c0 -32 59 -15 59 -37c0 -6 -3 -12 -11 -12c-3 0 -50 5 -117 5s-115 -5 -118 -5c-8 0 -11 6 -11 12c0 28 86 -2 99 35l105 308c2 6 4 13 4 18c0 9 -4 16 -13 16c-34 0 -67 -59 -83 -97c-4 -10 -13 -15 -21 -15c-7 0 -12 4 -12 11z" fill="currentColor"/>

<path transform="translate(1.4511, 0.0000) scale(0.0040, -0.0040)" d="M161 33c79 0 97 175 97 177c0 18 -7 33 -25 33c-60 0 -102 -122 -102 -172c0 -23 8 -38 30 -38zM-54 142c0 2 51 150 133 150c36 0 61 -21 68 -52c29 31 67 52 103 52c69 0 107 -49 107 -114c0 -119 -105 -185 -158 -185s-71 20 -85 20c-7 0 -13 -3 -15 -9l-33 -95
c-1 -2 -1 -4 -1 -6c0 -32 59 -15 59 -37c0 -6 -3 -12 -11 -12c-3 0 -50 5 -117 5s-115 -5 -118 -5c-8 0 -11 6 -11 12c0 28 86 -2 99 35l105 308c2 6 4 13 4 18c0 9 -4 16 -13 16c-34 0 -67 -59 -83 -97c-4 -10 -13 -15 -21 -15c-7 0 -12 4 -12 11z" fill="currentColor"/>
</g>
</g>
</a>
<g transform="translate(10.2843, 22.2956)">
<path transform="scale(0.0040, -0.0040)" d="M264 -594c47 0 165 26 165 246c0 32 -2 64 -5 96c-5 -1 -44 -8 -89 -8c-193 0 -333 178 -333 372c0 178 133 306 251 440c-27 93 -49 170 -49 345c0 116 55 226 150 295c5 4 11 4 16 0c67 -81 132 -246 132 -359c0 -144 -87 -256 -183 -365c20 -69 39 -138 55 -208
c2 0 7 1 15 1c154 0 254 -127 254 -259c0 -112 -73 -212 -180 -245c3 -36 5 -72 5 -108c0 -19 0 -37 -1 -56c-7 -120 -89 -226 -206 -226c-108 0 -195 87 -195 195c0 58 53 104 112 104c54 0 95 -48 95 -104c0 -52 -43 -95 -95 -95c-12 0 -24 4 -35 9c26 -41 70 -70 121 -70
zM459 -205c71 24 117 92 117 166c0 92 -69 184 -179 193c1 -5 45 -212 62 -359zM71 31c0 -146 142 -251 267 -251c1 0 46 0 82 6c-7 63 -28 201 -64 367c-79 -9 -125 -62 -125 -121c0 -44 26 -92 82 -124c4 -4 7 -9 7 -14c0 -11 -9 -21 -20 -21c-14 0 -125 62 -125 186
c0 88 57 173 158 196c-14 60 -30 119 -46 178c-108 -121 -216 -242 -216 -402zM411 1050c-99 -50 -161 -151 -161 -262c0 -59 11 -123 33 -200c82 97 149 198 149 325c0 35 0 69 -21 137z" fill="currentColor"/>
</g>
<g transform="translate(14.5412, 21.1956)">
<path transform="scale(0.0040, -0.0040)" d="M258 264c0 -31 68 -19 68 -124c0 -91 -77 -140 -175 -140c-77 0 -151 41 -151 111c0 36 29 65 65 65s65 -29 65 -65c0 -25 -40 -28 -40 -53c0 -26 31 -37 61 -37c50 0 66 61 66 119c0 62 -1 110 -54 110h-82c-9 0 -13 7 -13 14s4 13 13 13h82c52 0 54 47 54 108
c0 56 -18 94 -70 94c-27 0 -55 -9 -55 -33c0 -22 35 -25 35 -47c0 -32 -25 -57 -57 -57s-57 25 -57 57c0 63 65 101 134 101c90 0 165 -35 165 -115c0 -126 -54 -81 -54 -121z" fill="currentColor"/>
</g>
<g transform="translate(14.4843, 23.1955)">
<path transform="scale(0.0040, -0.0040)" d="M256 283c26 31 45 65 45 105c0 55 -55 91 -114 91c-48 0 -76 -37 -76 -74c0 -22 10 -45 33 -58zM284 266c23 -13 80 -53 80 -124c0 -72 -65 -142 -185 -142c-92 0 -179 53 -179 138c0 51 37 90 73 126c-38 28 -57 66 -57 104c0 67 60 132 171 132c78 0 154 -41 154 -112
c0 -47 -25 -87 -57 -122zM101 246c-32 -31 -61 -64 -61 -108c0 -69 66 -117 139 -117c55 0 88 43 88 85c0 25 -11 51 -37 66z" fill="currentColor"/>
</g>
<g transform="translate(17.9648, 21.1956)">
<rect x="-0.0579" y="-1.4533" width="0.1158" height="3.4366" ry="0.0333" fill="currentColor"/>
</g>
<g transform="translate(61.6512, 20.3151)">
<polygon stroke-linejoin="round" stroke-linecap="round" stroke-width="0.0667" fill="currentColor" stroke="currentColor" points="7.7281 -1.5501 7.7281 -1.0888 0.0333 0.2307 0.0333 -0.2307"/>
</g>
<g transform="translate(61.6512, 21.1956)">
<polygon stroke-linejoin="round" stroke-linecap="round" stroke-width="0.0667" fill="currentColor" stroke="currentColor" points="7.7281 -1.5501 7.7281 -1.0888 0.0333 0.2307 0.0333 -0.2307"/>
</g>
<a style="color:inherit;" xlink:href="textedit:///Users/marc.mouries/projects/Sheet-Music/Learn-Violin-with-Famous-Themes/Beethoven_Fur-Elise.ly:26:50:51">
<g transform="translate(22.3297, 20.0956)">
<path transform="scale(0.0040, -0.0040)" d="M222 135c64 0 104 -35 104 -86c0 -89 -114 -184 -221 -184c-64 0 -105 35 -105 86c0 89 115 184 222 184z" fill="currentColor"/>
</g>
</a>
<g transform="translate(22.3876, 21.1956)">
<rect x="-0.0579" y="-0.9033" width="0.1158" height="3.1005" ry="0.0333" fill="currentColor"/>
</g>
<g transform="translate(20.8797, 20.0956)">
<path transform="scale(0.0040, -0.0040)" d="M0 121c0 7 5 13 11 15l49 17v163c0 9 8 17 17 17s17 -8 17 -17v-151l87 31v162c0 9 8 17 17 17s17 -8 17 -17v-150l39 13c10 4 21 -4 21 -15v-64c0 -7 -5 -13 -11 -15l-49 -18v-164l39 14c10 4 21 -4 21 -15v-65c0 -7 -5 -13 -11 -15l-49 -17v-163c0 -9 -8 -17 -17 -17
s-17 8 -17 17v151l-87 -31v-162c0 -9 -8 -17 -17 -17s-17 8 -17 17v150l-39 -13c-10 -4 -21 4 -21 15v64c0 7 5 13 11 15l49 18v164l-39 -14c-10 -4 -21 4 -21 15v65zM181 97l-87 -30v-164l87 30v164z" fill="currentColor"/>
</g>
<g transform="translate(27.3677, 23.3956)">
<polygon stroke-linejoin="round" stroke-linecap="round" stroke-width="0.0667" fill="currentColor" stroke="currentColor" points="18.9926 -0.2307 18.9926 0.2307 0.0333 0.2307 0.0333 -0.2307"/>
</g>
<g transform="translate(27.3677, 24.2761)">
<polygon stroke-linejoin="round" stroke-linecap="round" stroke-width="0.0667" fill="currentColor" stroke="currentColor" points="18.9926 -0.2307 18.9926 0.2307 0.0333 0.2307 0.0333 -0.2307"/>
</g>
<g transform="translate(17.9069, 22.2956)">
<polygon stroke-linejoin="round" stroke-linecap="round" stroke-width="0.0667" fill="currentColor" stroke="currentColor" points="4.5053 -0.0112 4.5053 0.4501 0.0333 0.2307 0.0333 -0.2307"/>
</g>
<g transform="translate(17.9069, 23.1761)">
<polygon stroke-linejoin="round" stroke-linecap="round" stroke-width="0.0667" fill="currentColor" stroke="currentColor" points="4.5053 -0.0112 4.5053 0.4501 0.0333 0.2307 0.0333 -0.2307"/>
</g>
<a style="color:inherit;" xlink:href="textedit:///Users/marc.mouries/projects/Sheet-Music/Learn-Violin-with-Famous-Themes/Beethoven_Fur-Elise.ly:26:53:54">
<g transform="translate(27.3677, 19.5456)">
<path transform="scale(0.0040, -0.0040)" d="M222 135c64 0 104 -35 104 -86c0 -89 -114 -184 -221 -184c-64 0 -105 35 -105 86c0 89 115 184 222 184z" fill="currentColor"/>
</g>
</a>
<g transform="translate(27.4256, 21.1956)">
<rect x="-0.0579" y="-1.4533" width="0.1158" height="4.5338" ry="0.0333" fill="currentColor"/>
</g>
<a style="color:inherit;" xlink:href="textedit:///Users/marc.mouries/projects/Sheet-Music/Learn-Violin-with-Famous-Themes/Beethoven_Fur-Elise.ly:26:55:56">
<g transform="translate(31.7905, 20.0956)">
<path transform="scale(0.0040, -0.0040)" d="M222 135c64 0 104 -35 104 -86c0 -89 -114 -184 -221 -184c-64 0 -105 35 -105 86c0 89 115 184 222 184z" fill="currentColor"/>
</g>
</a>
<g transform="translate(31.8484, 21.1956)">
<rect x="-0.0579" y="-0.9033" width="0.1158" height="3.9838" ry="0.0333" fill="currentColor"/>
</g>
<g transform="translate(30.3405, 20.0956)">
<path transform="scale(0.0040, -0.0040)" d="M0 121c0 7 5 13 11 15l49 17v163c0 9 8 17 17 17s17 -8 17 -17v-151l87 31v162c0 9 8 17 17 17s17 -8 17 -17v-150l39 13c10 4 21 -4 21 -15v-64c0 -7 -5 -13 -11 -15l-49 -18v-164l39 14c10 4 21 -4 21 -15v-65c0 -7 -5 -13 -11 -15l-49 -17v-163c0 -9 -8 -17 -17 -17
s-17 8 -17 17v151l-87 -31v-162c0 -9 -8 -17 -17 -17s-17 8 -17 17v150l-39 -13c-10 -4 -21 4 -21 15v64c0 7 5 13 11 15l49 18v164l-39 -14c-10 -4 -21 4 -21 15v65zM181 97l-87 -30v-164l87 30v164z" fill="currentColor"/>
</g>
<a style="color:inherit;" xlink:href="textedit:///Users/marc.mouries/projects/Sheet-Music/Learn-Violin-with-Famous-Themes/Beethoven_Fur-Elise.ly:26:58:59">
<g transform="translate(35.3634, 19.5456)">
<path transform="scale(0.0040, -0.0040)" d="M222 135c64 0 104 -35 104 -86c0 -89 -114 -184 -221 -184c-64 0 -105 35 -105 86c0 89 115 184 222 184z" fill="currentColor"/>
</g>
</a>
<g transform="translate(35.4213, 21.1956)">
<rect x="-0.0579" y="-1.4533" width="0.1158" height="4.5338" ry="0.0333" fill="currentColor"/>
</g>
<a style="color:inherit;" xlink:href="textedit:///Users/marc.mouries/projects/Sheet-Music/Learn-Violin-with-Famous-Themes/Beethoven_Fur-Elise.ly:26:60:61">
<g transform="translate(38.6862, 21.1956)">
<path transform="scale(0.0040, -0.0040)" d="M222 135c64 0 104 -35 104 -86c0 -89 -114 -184 -221 -184c-64 0 -105 35 -105 86c0 89 115 184 222 184z" fill="currentColor"/>
</g>
</a>
<g transform="translate(38.7441, 21.1956)">
<rect x="-0.0579" y="0.1967" width="0.1158" height="2.8838" ry="0.0333" fill="currentColor"/>
</g>
<a style="color:inherit;" xlink:href="textedit:///Users/marc.mouries/projects/Sheet-Music/Learn-Violin-with-Famous-Themes/Beethoven_Fur-Elise.ly:26:62:63">
<g transform="translate(42.7051, 20.0956)">
<path transform="scale(0.0040, -0.0040)" d="M222 135c64 0 104 -35 104 -86c0 -89 -114 -184 -221 -184c-64 0 -105 35 -105 86c0 89 115 184 222 184z" fill="currentColor"/>
</g>
</a>
<g transform="translate(42.7629, 21.1956)">
<rect x="-0.0579" y="-0.9033" width="0.1158" height="3.9838" ry="0.0333" fill="currentColor"/>
</g>
<g transform="translate(41.6591, 20.0956)">
<path transform="scale(0.0040, -0.0040)" d="M-7 375c7 4 16 6 24 6s16 -2 23 -6l-2 -177l109 18c1 0 2 1 3 1c9 0 17 -8 17 -17l7 -575c-7 -4 -16 -6 -24 -6s-17 2 -24 6l2 177l-109 -18c-1 0 -1 -1 -2 -1c-9 0 -17 8 -17 17zM132 114l-95 -15l-3 -213l96 15z" fill="currentColor"/>
</g>
<a style="color:inherit;" xlink:href="textedit:///Users/marc.mouries/projects/Sheet-Music/Learn-Violin-with-Famous-Themes/Beethoven_Fur-Elise.ly:26:64:65">
<g transform="translate(46.2779, 20.6456)">
<path transform="scale(0.0040, -0.0040)" d="M222 135c64 0 104 -35 104 -86c0 -89 -114 -184 -221 -184c-64 0 -105 35 -105 86c0 89 115 184 222 184z" fill="currentColor"/>
</g>
</a>
<g transform="translate(46.3358, 21.1956)">
<rect x="-0.0579" y="-0.3533" width="0.1158" height="3.4338" ry="0.0333" fill="currentColor"/>
</g>
<a style="color:inherit;" xlink:href="textedit:///Users/marc.mouries/projects/Sheet-Music/Learn-Violin-with-Famous-Themes/Beethoven_Fur-Elise.ly:26:66:67">
<g transform="translate(51.1543, 21.7456)">
<path transform="scale(0.0040, -0.0040)" d="M222 135c64 0 104 -35 104 -86c0 -89 -114 -184 -221 -184c-64 0 -105 35 -105 86c0 89 115 184 222 184z" fill="currentColor"/>
</g>
</a>
<g transform="translate(52.4022, 21.1956)">
<rect x="-0.0579" y="-3.3000" width="0.1158" height="3.6533" ry="0.0333" fill="currentColor"/>
</g>
<g transform="translate(52.4601, 17.9289)">
<path transform="scale(0.0040, -0.0040)" d="M0 0v-250h-14v250h14zM0 0c0 -198 207 -336 207 -534c0 -71 -16 -142 -42 -208c-4 -7 -10 -11 -17 -11c-12 0 -24 10 -21 25c26 62 41 127 41 194c0 104 -96 209 -168 284v250z" fill="currentColor"/>
</g>
<g transform="translate(83.9148, 19.2151)">
<polygon stroke-linejoin="round" stroke-linecap="round" stroke-width="0.0667" fill="currentColor" stroke="currentColor" points="8.3281 -1.5501 8.3281 -1.0888 0.0333 0.2307 0.0333 -0.2307"/>
</g>
<g transform="translate(83.9148, 20.0956)">
<polygon stroke-linejoin="round" stroke-linecap="round" stroke-width="0.0667" fill="currentColor" stroke="currentColor" points="8.3281 -1.5501 8.3281 -1.0888 0.0333 0.2307 0.0333 -0.2307"/>
</g>
<a style="color:inherit;" xlink:href="textedit:///Users/marc.mouries/projects/Sheet-Music/Learn-Violin-with-Famous-Themes/Beethoven_Fur-Elise.ly:26:69:70">
<g transform="translate(56.9941, 21.1956)">
<path transform="scale(0.0040, -0.0040)" d="M124 205c78 0 47 -100 92 -100c17 0 53 54 60 70c5 11 20 11 24 0l-182 -675c-7 -6 -15 -9 -23 -9s-17 3 -24 9l100 327c-35 -13 -72 -23 -109 -23c-47 0 -87 35 -87 80c0 39 31 71 71 71c78 0 47 -100 92 -100c17 0 57 53 62 70l47 152c-34 -12 -70 -23 -107 -23
c-47 0 -87 35 -87 80c0 39 31 71 71 71z" fill="currentColor"/>
</g>
</a>
<a style="color:inherit;" xlink:href="textedit:///Users/marc.mouries/projects/Sheet-Music/Learn-Violin-with-Famous-Themes/Beethoven_Fur-Elise.ly:26:73:74">
<g transform="translate(60.4612, 24.4956)">
<path transform="scale(0.0040, -0.0040)" d="M222 135c64 0 104 -35 104 -86c0 -89 -114 -184 -221 -184c-64 0 -105 35 -105 86c0 89 115 184 222 184z" fill="currentColor"/>
</g>
</a>
<g transform="translate(61.7091, 21.1956)">
<rect x="-0.0579" y="-0.8904" width="0.1158" height="3.9936" ry="0.0333" fill="currentColor"/>
</g>
<a style="color:inherit;" xlink:href="textedit:///Users/marc.mouries/projects/Sheet-Music/Learn-Violin-with-Famous-Themes/Beethoven_Fur-Elise.ly:26:76:77">
<g transform="translate(64.2840, 23.3956)">
<path transform="scale(0.0040, -0.0040)" d="M222 135c64 0 104 -35 104 -86c0 -89 -114 -184 -221 -184c-64 0 -105 35 -105 86c0 89 115 184 222 184z" fill="currentColor"/>
</g>
</a>
<g transform="translate(65.5319, 21.1956)">
<rect x="-0.0579" y="-1.5403" width="0.1158" height="3.5435" ry="0.0333" fill="currentColor"/>
</g>
<a style="color:inherit;" xlink:href="textedit:///Users/marc.mouries/projects/Sheet-Music/Learn-Violin-with-Famous-Themes/Beethoven_Fur-Elise.ly:26:78:79">
<g transform="translate(68.1068, 21.7456)">
<path transform="scale(0.0040, -0.0040)" d="M222 135c64 0 104 -35 104 -86c0 -89 -114 -184 -221 -184c-64 0 -105 35 -105 86c0 89 115 184 222 184z" fill="currentColor"/>
</g>
</a>
<g transform="translate(69.3548, 21.1956)">
<rect x="-0.0579" y="-2.1902" width="0.1158" height="2.5434" ry="0.0333" fill="currentColor"/>
</g>
<a style="color:inherit;" xlink:href="textedit:///Users/marc.mouries/projects/Sheet-Music/Learn-Violin-with-Famous-Themes/Beethoven_Fur-Elise.ly:26:80:81">
<g transform="translate(73.4178, 21.1956)">
<path transform="scale(0.0040, -0.0040)" d="M222 135c64 0 104 -35 104 -86c0 -89 -114 -184 -221 -184c-64 0 -105 35 -105 86c0 89 115 184 222 184z" fill="currentColor"/>
</g>
</a>
<g transform="translate(73.4757, 21.1956)">
<rect x="-0.0579" y="0.1967" width="0.1158" height="3.5158" ry="0.0333" fill="currentColor"/>
</g>
<g transform="translate(73.5336, 24.8747)">
<path transform="scale(0.0040, -0.0040)" d="M0 0h-14v250h14v-250zM0 0v250c98 58 228 147 228 259c0 57 -15 112 -40 164c-3 15 9 25 21 25c7 0 14 -3 18 -10c25 -56 40 -117 40 -179c0 -203 -267 -306 -267 -509z" fill="currentColor"/>
</g>
<a style="color:inherit;" xlink:href="textedit:///Users/marc.mouries/projects/Sheet-Music/Learn-Violin-with-Famous-Themes/Beethoven_Fur-Elise.ly:26:83:84">
<g transform="translate(79.2577, 21.1956)">
<path transform="scale(0.0040, -0.0040)" d="M124 205c78 0 47 -100 92 -100c17 0 53 54 60 70c5 11 20 11 24 0l-182 -675c-7 -6 -15 -9 -23 -9s-17 3 -24 9l100 327c-35 -13 -72 -23 -109 -23c-47 0 -87 35 -87 80c0 39 31 71 71 71c78 0 47 -100 92 -100c17 0 57 53 62 70l47 152c-34 -12 -70 -23 -107 -23
c-47 0 -87 35 -87 80c0 39 31 71 71 71z" fill="currentColor"/>
</g>
</a>
<a style="color:inherit;" xlink:href="textedit:///Users/marc.mouries/projects/Sheet-Music/Learn-Violin-with-Famous-Themes/Beethoven_Fur-Elise.ly:26:87:88">
<g transform="translate(82.7247, 23.3956)">
<path transform="scale(0.0040, -0.0040)" d="M222 135c64 0 104 -35 104 -86c0 -89 -114 -184 -221 -184c-64 0 -105 35 -105 86c0 89 115 184 222 184z" fill="currentColor"/>
</g>
</a>
<g transform="translate(83.9727, 21.1956)">
<rect x="-0.0579" y="-1.9897" width="0.1158" height="3.9929" ry="0.0333" fill="currentColor"/>
</g>
<g transform="translate(92.2183, 21.1956)">
<rect x="-0.0579" y="-3.2909" width="0.1158" height="3.0941" ry="0.0333" fill="currentColor"/>
</g>
<a style="color:inherit;" xlink:href="textedit:///Users/marc.mouries/projects/Sheet-Music/Learn-Violin-with-Famous-Themes/Beethoven_Fur-Elise.ly:26:90:91">
<g transform="translate(87.1476, 22.2956)">
<path transform="scale(0.0040, -0.0040)" d="M222 135c64 0 104 -35 104 -86c0 -89 -114 -184 -221 -184c-64 0 -105 35 -105 86c0 89 115 184 222 184z" fill="currentColor"/>
</g>
</a>
<g transform="translate(88.3955, 21.1956)">
<rect x="-0.0579" y="-2.6876" width="0.1158" height="3.5909" ry="0.0333" fill="currentColor"/>
</g>
<g transform="translate(85.6976, 22.2956)">
<path transform="scale(0.0040, -0.0040)" d="M0 121c0 7 5 13 11 15l49 17v163c0 9 8 17 17 17s17 -8 17 -17v-151l87 31v162c0 9 8 17 17 17s17 -8 17 -17v-150l39 13c10 4 21 -4 21 -15v-64c0 -7 -5 -13 -11 -15l-49 -18v-164l39 14c10 4 21 -4 21 -15v-65c0 -7 -5 -13 -11 -15l-49 -17v-163c0 -9 -8 -17 -17 -17
s-17 8 -17 17v151l-87 -31v-162c0 -9 -8 -17 -17 -17s-17 8 -17 17v150l-39 -13c-10 -4 -21 4 -21 15v64c0 7 5 13 11 15l49 18v164l-39 -14c-10 -4 -21 4 -21 15v65zM181 97l-87 -30v-164l87 30v164z" fill="currentColor"/>
</g>
<a style="color:inherit;" xlink:href="textedit:///Users/marc.mouries/projects/Sheet-Music/Learn-Violin-with-Famous-Themes/Beethoven_Fur-Elise.ly:26:93:94">
<g transform="translate(90.9704, 21.1956)">
<path transform="scale(0.0040, -0.0040)" d="M222 135c64 0 104 -35 104 -86c0 -89 -114 -184 -221 -184c-64 0 -105 35 -105 86c0 89 115 184 222 184z" fill="currentColor"/>
</g>
</a>
<g transform="translate(4.7421, 40.4956)">
<rect x="52.8065" y="-0.0995" width="1.9587" height="0.1990" ry="0.0995" fill="currentColor"/>
</g>
<g transform="translate(4.7421, 39.3956)">
<line stroke-linejoin="round" stroke-linecap="round" stroke-width="0.0890" stroke="currentColor" x1="0.0445" y1="0" x2="90.0559" y2="0"/>
</g>
<g transform="translate(4.7421, 38.2956)">
<line stroke-linejoin="round" stroke-linecap="round" stroke-width="0.0890" stroke="currentColor" x1="0.0445" y1="0" x2="90.0559" y2="0"/>
</g>
<g transform="translate(4.7421, 37.1956)">
<line stroke-linejoin="round" stroke-linecap="round" stroke-width="0.0890" stroke="currentColor" x1="0.0445" y1="0" x2="90.0559" y2="0"/>
</g>
<g transform="translate(4.7421, 36.0956)">
<line stroke-linejoin="round" stroke-linecap="round" stroke-width="0.0890" stroke="currentColor" x1="0.0445" y1="0" x2="90.0559" y2="0"/>
</g>
<g transform="translate(4.7421, 34.9956)">
<line stroke-linejoin="round" stroke-linecap="round" stroke-width="0.0890" stroke="currentColor" x1="0.0445" y1="0" x2="90.0559" y2="0"/>
</g>
<g transform="translate(86.1116, 37.1956)">
<rect x="0.0000" y="-2.2000" width="0.1692" height="4.4000" ry="0.0000" fill="currentColor"/>
</g>
<g transform="translate(67.6192, 37.1956)">
<rect x="0.0000" y="-2.2000" width="0.1692" height="4.4000" ry="0.0000" fill="currentColor"/>
</g>
<g transform="translate(48.9441, 37.1956)">
<rect x="0.0000" y="-2.2000" width="0.1692" height="4.4000" ry="0.0000" fill="currentColor"/>
</g>
<g transform="translate(28.4457, 37.1956)">
<rect x="0.0000" y="-2.2000" width="0.1692" height="4.4000" ry="0.0000" fill="currentColor"/>
</g>
<g transform="translate(77.8432, 33.8956)">
<polygon stroke-linejoin="round" stroke-linecap="round" stroke-width="0.0667" fill="currentColor" stroke="currentColor" points="6.3846 -0.2307 6.3846 0.2307 0.0333 0.2307 0.0333 -0.2307"/>
</g>
<g transform="translate(77.8432, 34.7761)">
<polygon stroke-linejoin="round" stroke-linecap="round" stroke-width="0.0667" fill="currentColor" stroke="currentColor" points="6.3846 -0.2307 6.3846 0.2307 0.0333 0.2307 0.0333 -0.2307"/>
</g>
<g transform="translate(5.5421, 38.2956)">
<path transform="scale(0.0040, -0.0040)" d="M264 -594c47 0 165 26 165 246c0 32 -2 64 -5 96c-5 -1 -44 -8 -89 -8c-193 0 -333 178 -333 372c0 178 133 306 251 440c-27 93 -49 170 -49 345c0 116 55 226 150 295c5 4 11 4 16 0c67 -81 132 -246 132 -359c0 -144 -87 -256 -183 -365c20 -69 39 -138 55 -208
c2 0 7 1 15 1c154 0 254 -127 254 -259c0 -112 -73 -212 -180 -245c3 -36 5 -72 5 -108c0 -19 0 -37 -1 -56c-7 -120 -89 -226 -206 -226c-108 0 -195 87 -195 195c0 58 53 104 112 104c54 0 95 -48 95 -104c0 -52 -43 -95 -95 -95c-12 0 -24 4 -35 9c26 -41 70 -70 121 -70
zM459 -205c71 24 117 92 117 166c0 92 -69 184 -179 193c1 -5 45 -212 62 -359zM71 31c0 -146 142 -251 267 -251c1 0 46 0 82 6c-7 63 -28 201 -64 367c-79 -9 -125 -62 -125 -121c0 -44 26 -92 82 -124c4 -4 7 -9 7 -14c0 -11 -9 -21 -20 -21c-14 0 -125 62 -125 186
c0 88 57 173 158 196c-14 60 -30 119 -46 178c-108 -121 -216 -242 -216 -402zM411 1050c-99 -50 -161 -151 -161 -262c0 -59 11 -123 33 -200c82 97 149 198 149 325c0 35 0 69 -21 137z" fill="currentColor"/>
</g>
<g transform="translate(3.8601, 33.9511)">
<text font-family="serif" font-size="1.7463" text-anchor="start" fill="currentColor">
<tspan>4</tspan>
</text>
</g>
<g transform="translate(59.0651, 36.3151)">
<polygon stroke-linejoin="round" stroke-linecap="round" stroke-width="0.0667" fill="currentColor" stroke="currentColor" points="6.6346 -1.5501 6.6346 -1.0888 0.0333 0.2307 0.0333 -0.2307"/>
</g>
<g transform="translate(59.0651, 37.1956)">
<polygon stroke-linejoin="round" stroke-linecap="round" stroke-width="0.0667" fill="currentColor" stroke="currentColor" points="6.6346 -1.5501 6.6346 -1.0888 0.0333 0.2307 0.0333 -0.2307"/>
</g>
<a style="color:inherit;" xlink:href="textedit:///Users/marc.mouries/projects/Sheet-Music/Learn-Violin-with-Famous-Themes/Beethoven_Fur-Elise.ly:27:1:2">
<g transform="translate(10.5421, 36.6456)">
<path transform="scale(0.0040, -0.0040)" d="M222 135c64 0 104 -35 104 -86c0 -89 -114 -184 -221 -184c-64 0 -105 35 -105 86c0 89 115 184 222 184z" fill="currentColor"/>
</g>
</a>
<g transform="translate(10.6000, 37.1956)">
<rect x="-0.0579" y="-0.3533" width="0.1158" height="3.6533" ry="0.0333" fill="currentColor"/>
</g>
<g transform="translate(10.6579, 40.4622)">
<path transform="scale(0.0040, -0.0040)" d="M0 0h-14v250h14v-250zM0 0v250c98 58 228 147 228 259c0 57 -15 112 -40 164c-3 15 9 25 21 25c7 0 14 -3 18 -10c25 -56 40 -117 40 -179c0 -203 -267 -306 -267 -509z" fill="currentColor"/>
</g>
<g transform="translate(29.9074, 39.3956)">
<polygon stroke-linejoin="round" stroke-linecap="round" stroke-width="0.0667" fill="currentColor" stroke="currentColor" points="16.2589 -0.2307 16.2589 0.2307 0.0333 0.2307 0.0333 -0.2307"/>
</g>
<g transform="translate(29.9074, 40.2761)">
<polygon stroke-linejoin="round" stroke-linecap="round" stroke-width="0.0667" fill="currentColor" stroke="currentColor" points="16.2589 -0.2307 16.2589 0.2307 0.0333 0.2307 0.0333 -0.2307"/>
</g>
<a style="color:inherit;" xlink:href="textedit:///Users/marc.mouries/projects/Sheet-Music/Learn-Violin-with-Famous-Themes/Beethoven_Fur-Elise.ly:27:4:5">
<g transform="translate(15.2885, 37.1956)">
<path transform="scale(0.0040, -0.0040)" d="M124 205c78 0 47 -100 92 -100c17 0 53 54 60 70c5 11 20 11 24 0l-182 -675c-7 -6 -15 -9 -23 -9s-17 3 -24 9l100 327c-35 -13 -72 -23 -109 -23c-47 0 -87 35 -87 80c0 39 31 71 71 71c78 0 47 -100 92 -100c17 0 57 53 62 70l47 152c-34 -12 -70 -23 -107 -23
c-47 0 -87 35 -87 80c0 39 31 71 71 71z" fill="currentColor"/>
</g>
</a>
<g transform="translate(19.3988, 32.7956)">
<polygon stroke-linejoin="round" stroke-linecap="round" stroke-width="0.0667" fill="currentColor" stroke="currentColor" points="7.2346 -0.2307 7.2346 0.2307 0.0333 0.2307 0.0333 -0.2307"/>
</g>
<g transform="translate(19.3988, 33.6761)">
<polygon stroke-linejoin="round" stroke-linecap="round" stroke-width="0.0667" fill="currentColor" stroke="currentColor" points="7.2346 -0.2307 7.2346 0.2307 0.0333 0.2307 0.0333 -0.2307"/>
</g>
<a style="color:inherit;" xlink:href="textedit:///Users/marc.mouries/projects/Sheet-Music/Learn-Violin-with-Famous-Themes/Beethoven_Fur-Elise.ly:27:8:9">
<g transform="translate(18.2088, 39.3956)">
<path transform="scale(0.0040, -0.0040)" d="M222 135c64 0 104 -35 104 -86c0 -89 -114 -184 -221 -184c-64 0 -105 35 -105 86c0 89 115 184 222 184z" fill="currentColor"/>
</g>
</a>
<g transform="translate(19.4567, 37.1956)">
<rect x="-0.0579" y="-4.4000" width="0.1158" height="6.4033" ry="0.0333" fill="currentColor"/>
</g>
<a style="color:inherit;" xlink:href="textedit:///Users/marc.mouries/projects/Sheet-Music/Learn-Violin-with-Famous-Themes/Beethoven_Fur-Elise.ly:27:11:12">
<g transform="translate(21.4849, 35.5456)">
<path transform="scale(0.0040, -0.0040)" d="M222 135c64 0 104 -35 104 -86c0 -89 -114 -184 -221 -184c-64 0 -105 35 -105 86c0 89 115 184 222 184z" fill="currentColor"/>
</g>
</a>
<g transform="translate(22.7328, 37.1956)">
<rect x="-0.0579" y="-4.4000" width="0.1158" height="2.5533" ry="0.0333" fill="currentColor"/>
</g>
<a style="color:inherit;" xlink:href="textedit:///Users/marc.mouries/projects/Sheet-Music/Learn-Violin-with-Famous-Themes/Beethoven_Fur-Elise.ly:27:14:15">
<g transform="translate(25.3610, 36.0956)">
<path transform="scale(0.0040, -0.0040)" d="M222 135c64 0 104 -35 104 -86c0 -89 -114 -184 -221 -184c-64 0 -105 35 -105 86c0 89 115 184 222 184z" fill="currentColor"/>
</g>
</a>
<g transform="translate(26.6089, 37.1956)">
<rect x="-0.0579" y="-4.4000" width="0.1158" height="3.1033" ry="0.0333" fill="currentColor"/>
</g>
<g transform="translate(23.9110, 36.0956)">
<path transform="scale(0.0040, -0.0040)" d="M0 121c0 7 5 13 11 15l49 17v163c0 9 8 17 17 17s17 -8 17 -17v-151l87 31v162c0 9 8 17 17 17s17 -8 17 -17v-150l39 13c10 4 21 -4 21 -15v-64c0 -7 -5 -13 -11 -15l-49 -18v-164l39 14c10 4 21 -4 21 -15v-65c0 -7 -5 -13 -11 -15l-49 -17v-163c0 -9 -8 -17 -17 -17
s-17 8 -17 17v151l-87 -31v-162c0 -9 -8 -17 -17 -17s-17 8 -17 17v150l-39 -13c-10 -4 -21 4 -21 15v64c0 7 5 13 11 15l49 18v164l-39 -14c-10 -4 -21 4 -21 15v65zM181 97l-87 -30v-164l87 30v164z" fill="currentColor"/>
</g>
<a style="color:inherit;" xlink:href="textedit:///Users/marc.mouries/projects/Sheet-Music/Learn-Violin-with-Famous-Themes/Beethoven_Fur-Elise.ly:27:17:18">
<g transform="translate(29.9074, 35.5456)">
<path transform="scale(0.0040, -0.0040)" d="M222 135c64 0 104 -35 104 -86c0 -89 -114 -184 -221 -184c-64 0 -105 35 -105 86c0 89 115 184 222 184z" fill="currentColor"/>
</g>
</a>
<g transform="translate(29.9652, 37.1956)">
<rect x="-0.0579" y="-1.4533" width="0.1158" height="4.5338" ry="0.0333" fill="currentColor"/>
</g>
<a style="color:inherit;" xlink:href="textedit:///Users/marc.mouries/projects/Sheet-Music/Learn-Violin-with-Famous-Themes/Beethoven_Fur-Elise.ly:27:19:20">
<g transform="translate(33.7835, 36.0956)">
<path transform="scale(0.0040, -0.0040)" d="M222 135c64 0 104 -35 104 -86c0 -89 -114 -184 -221 -184c-64 0 -105 35 -105 86c0 89 115 184 222 184z" fill="currentColor"/>
</g>
</a>
<g transform="translate(33.8413, 37.1956)">
<rect x="-0.0579" y="-0.9033" width="0.1158" height="3.9838" ry="0.0333" fill="currentColor"/>
</g>
<g transform="translate(32.3335, 36.0956)">
<path transform="scale(0.0040, -0.0040)" d="M0 121c0 7 5 13 11 15l49 17v163c0 9 8 17 17 17s17 -8 17 -17v-151l87 31v162c0 9 8 17 17 17s17 -8 17 -17v-150l39 13c10 4 21 -4 21 -15v-64c0 -7 -5 -13 -11 -15l-49 -18v-164l39 14c10 4 21 -4 21 -15v-65c0 -7 -5 -13 -11 -15l-49 -17v-163c0 -9 -8 -17 -17 -17
s-17 8 -17 17v151l-87 -31v-162c0 -9 -8 -17 -17 -17s-17 8 -17 17v150l-39 -13c-10 -4 -21 4 -21 15v64c0 7 5 13 11 15l49 18v164l-39 -14c-10 -4 -21 4 -21 15v65zM181 97l-87 -30v-164l87 30v164z" fill="currentColor"/>
</g>
<a style="color:inherit;" xlink:href="textedit:///Users/marc.mouries/projects/Sheet-Music/Learn-Violin-with-Famous-Themes/Beethoven_Fur-Elise.ly:27:22:23">
<g transform="translate(36.8095, 35.5456)">
<path transform="scale(0.0040, -0.0040)" d="M222 135c64 0 104 -35 104 -86c0 -89 -114 -184 -221 -184c-64 0 -105 35 -105 86c0 89 115 184 222 184z" fill="currentColor"/>
</g>
</a>
<g transform="translate(36.8674, 37.1956)">
<rect x="-0.0579" y="-1.4533" width="0.1158" height="4.5338" ry="0.0333" fill="currentColor"/>
</g>
<a style="color:inherit;" xlink:href="textedit:///Users/marc.mouries/projects/Sheet-Music/Learn-Violin-with-Famous-Themes/Beethoven_Fur-Elise.ly:27:24:25">
<g transform="translate(39.5856, 37.1956)">
<path transform="scale(0.0040, -0.0040)" d="M222 135c64 0 104 -35 104 -86c0 -89 -114 -184 -221 -184c-64 0 -105 35 -105 86c0 89 115 184 222 184z" fill="currentColor"/>
</g>
</a>
<g transform="translate(39.6435, 37.1956)">
<rect x="-0.0579" y="0.1967" width="0.1158" height="2.8838" ry="0.0333" fill="currentColor"/>
</g>
<a style="color:inherit;" xlink:href="textedit:///Users/marc.mouries/projects/Sheet-Music/Learn-Violin-with-Famous-Themes/Beethoven_Fur-Elise.ly:27:26:27">
<g transform="translate(43.0577, 36.0956)">
<path transform="scale(0.0040, -0.0040)" d="M222 135c64 0 104 -35 104 -86c0 -89 -114 -184 -221 -184c-64 0 -105 35 -105 86c0 89 115 184 222 184z" fill="currentColor"/>
</g>
</a>
<g transform="translate(43.1156, 37.1956)">
<rect x="-0.0579" y="-0.9033" width="0.1158" height="3.9838" ry="0.0333" fill="currentColor"/>
</g>
<g transform="translate(42.0117, 36.0956)">
<path transform="scale(0.0040, -0.0040)" d="M-7 375c7 4 16 6 24 6s16 -2 23 -6l-2 -177l109 18c1 0 2 1 3 1c9 0 17 -8 17 -17l7 -575c-7 -4 -16 -6 -24 -6s-17 2 -24 6l2 177l-109 -18c-1 0 -1 -1 -2 -1c-9 0 -17 8 -17 17zM132 114l-95 -15l-3 -213l96 15z" fill="currentColor"/>
</g>
<a style="color:inherit;" xlink:href="textedit:///Users/marc.mouries/projects/Sheet-Music/Learn-Violin-with-Famous-Themes/Beethoven_Fur-Elise.ly:27:28:29">
<g transform="translate(46.0838, 36.6456)">
<path transform="scale(0.0040, -0.0040)" d="M222 135c64 0 104 -35 104 -86c0 -89 -114 -184 -221 -184c-64 0 -105 35 -105 86c0 89 115 184 222 184z" fill="currentColor"/>
</g>
</a>
<g transform="translate(46.1417, 37.1956)">
<rect x="-0.0579" y="-0.3533" width="0.1158" height="3.4338" ry="0.0333" fill="currentColor"/>
</g>
<g transform="translate(89.6238, 37.1956)">
<rect x="-0.0579" y="-3.3000" width="0.1158" height="3.6533" ry="0.0333" fill="currentColor"/>
</g>
<a style="color:inherit;" xlink:href="textedit:///Users/marc.mouries/projects/Sheet-Music/Learn-Violin-with-Famous-Themes/Beethoven_Fur-Elise.ly:27:30:31">
<g transform="translate(50.2084, 37.7456)">
<path transform="scale(0.0040, -0.0040)" d="M222 135c64 0 104 -35 104 -86c0 -89 -114 -184 -221 -184c-64 0 -105 35 -105 86c0 89 115 184 222 184z" fill="currentColor"/>
</g>
</a>
<g transform="translate(51.4564, 37.1956)">
<rect x="-0.0579" y="-3.3000" width="0.1158" height="3.6533" ry="0.0333" fill="currentColor"/>
</g>
<g transform="translate(51.5142, 33.9289)">
<path transform="scale(0.0040, -0.0040)" d="M0 0v-250h-14v250h14zM0 0c0 -198 207 -336 207 -534c0 -71 -16 -142 -42 -208c-4 -7 -10 -11 -17 -11c-12 0 -24 10 -21 25c26 62 41 127 41 194c0 104 -96 209 -168 284v250z" fill="currentColor"/>
</g>
<a style="color:inherit;" xlink:href="textedit:///Users/marc.mouries/projects/Sheet-Music/Learn-Violin-with-Famous-Themes/Beethoven_Fur-Elise.ly:27:33:34">
<g transform="translate(54.9548, 37.1956)">
<path transform="scale(0.0040, -0.0040)" d="M124 205c78 0 47 -100 92 -100c17 0 53 54 60 70c5 11 20 11 24 0l-182 -675c-7 -6 -15 -9 -23 -9s-17 3 -24 9l100 327c-35 -13 -72 -23 -109 -23c-47 0 -87 35 -87 80c0 39 31 71 71 71c78 0 47 -100 92 -100c17 0 57 53 62 70l47 152c-34 -12 -70 -23 -107 -23
c-47 0 -87 35 -87 80c0 39 31 71 71 71z" fill="currentColor"/>
</g>
</a>
<a style="color:inherit;" xlink:href="textedit:///Users/marc.mouries/projects/Sheet-Music/Learn-Violin-with-Famous-Themes/Beethoven_Fur-Elise.ly:27:37:38">
<g transform="translate(57.8751, 40.4956)">
<path transform="scale(0.0040, -0.0040)" d="M222 135c64 0 104 -35 104 -86c0 -89 -114 -184 -221 -184c-64 0 -105 35 -105 86c0 89 115 184 222 184z" fill="currentColor"/>
</g>
</a>
<g transform="translate(59.1230, 37.1956)">
<rect x="-0.0579" y="-0.8920" width="0.1158" height="3.9952" ry="0.0333" fill="currentColor"/>
</g>
<a style="color:inherit;" xlink:href="textedit:///Users/marc.mouries/projects/Sheet-Music/Learn-Violin-with-Famous-Themes/Beethoven_Fur-Elise.ly:27:40:41">
<g transform="translate(61.1512, 39.3956)">
<path transform="scale(0.0040, -0.0040)" d="M222 135c64 0 104 -35 104 -86c0 -89 -114 -184 -221 -184c-64 0 -105 35 -105 86c0 89 115 184 222 184z" fill="currentColor"/>
</g>
</a>
<g transform="translate(62.3991, 37.1956)">
<rect x="-0.0579" y="-1.5403" width="0.1158" height="3.5435" ry="0.0333" fill="currentColor"/>
</g>
<a style="color:inherit;" xlink:href="textedit:///Users/marc.mouries/projects/Sheet-Music/Learn-Violin-with-Famous-Themes/Beethoven_Fur-Elise.ly:27:42:43">
<g transform="translate(64.4273, 37.7456)">
<path transform="scale(0.0040, -0.0040)" d="M222 135c64 0 104 -35 104 -86c0 -89 -114 -184 -221 -184c-64 0 -105 35 -105 86c0 89 115 184 222 184z" fill="currentColor"/>
</g>
</a>
<g transform="translate(65.6752, 37.1956)">
<rect x="-0.0579" y="-2.1885" width="0.1158" height="2.5418" ry="0.0333" fill="currentColor"/>
</g>
<a style="color:inherit;" xlink:href="textedit:///Users/marc.mouries/projects/Sheet-Music/Learn-Violin-with-Famous-Themes/Beethoven_Fur-Elise.ly:27:60:61">
<g transform="translate(88.3758, 37.7456)">
<path transform="scale(0.0040, -0.0040)" d="M222 135c64 0 104 -35 104 -86c0 -89 -114 -184 -221 -184c-64 0 -105 35 -105 86c0 89 115 184 222 184z" fill="currentColor"/>
</g>
</a>
<a style="color:inherit;" xlink:href="textedit:///Users/marc.mouries/projects/Sheet-Music/Learn-Violin-with-Famous-Themes/Beethoven_Fur-Elise.ly:27:44:45">
<g transform="translate(68.9865, 37.1956)">
<path transform="scale(0.0040, -0.0040)" d="M222 135c64 0 104 -35 104 -86c0 -89 -114 -184 -221 -184c-64 0 -105 35 -105 86c0 89 115 184 222 184z" fill="currentColor"/>
</g>
</a>
<g transform="translate(69.0444, 37.1956)">
<rect x="-0.0579" y="0.1967" width="0.1158" height="3.5158" ry="0.0333" fill="currentColor"/>
</g>
<g transform="translate(69.1023, 40.8747)">
<path transform="scale(0.0040, -0.0040)" d="M0 0h-14v250h14v-250zM0 0v250c98 58 228 147 228 259c0 57 -15 112 -40 164c-3 15 9 25 21 25c7 0 14 -3 18 -10c25 -56 40 -117 40 -179c0 -203 -267 -306 -267 -509z" fill="currentColor"/>
</g>
<a style="color:inherit;" xlink:href="textedit:///Users/marc.mouries/projects/Sheet-Music/Learn-Violin-with-Famous-Themes/Beethoven_Fur-Elise.ly:27:47:48">
<g transform="translate(73.7329, 37.1956)">
<path transform="scale(0.0040, -0.0040)" d="M124 205c78 0 47 -100 92 -100c17 0 53 54 60 70c5 11 20 11 24 0l-182 -675c-7 -6 -15 -9 -23 -9s-17 3 -24 9l100 327c-35 -13 -72 -23 -109 -23c-47 0 -87 35 -87 80c0 39 31 71 71 71c78 0 47 -100 92 -100c17 0 57 53 62 70l47 152c-34 -12 -70 -23 -107 -23
c-47 0 -87 35 -87 80c0 39 31 71 71 71z" fill="currentColor"/>
</g>
</a>
<a style="color:inherit;" xlink:href="textedit:///Users/marc.mouries/projects/Sheet-Music/Learn-Violin-with-Famous-Themes/Beethoven_Fur-Elise.ly:27:51:52">
<g transform="translate(76.6532, 39.3956)">
<path transform="scale(0.0040, -0.0040)" d="M222 135c64 0 104 -35 104 -86c0 -89 -114 -184 -221 -184c-64 0 -105 35 -105 86c0 89 115 184 222 184z" fill="currentColor"/>
</g>
</a>
<g transform="translate(77.9011, 37.1956)">
<rect x="-0.0579" y="-3.3000" width="0.1158" height="5.3033" ry="0.0333" fill="currentColor"/>
</g>
<a style="color:inherit;" xlink:href="textedit:///Users/marc.mouries/projects/Sheet-Music/Learn-Violin-with-Famous-Themes/Beethoven_Fur-Elise.ly:27:54:55">
<g transform="translate(79.9293, 36.6456)">
<path transform="scale(0.0040, -0.0040)" d="M222 135c64 0 104 -35 104 -86c0 -89 -114 -184 -221 -184c-64 0 -105 35 -105 86c0 89 115 184 222 184z" fill="currentColor"/>
</g>
</a>
<g transform="translate(81.1772, 37.1956)">
<rect x="-0.0579" y="-3.3000" width="0.1158" height="2.5533" ry="0.0333" fill="currentColor"/>
</g>
<g transform="translate(84.2033, 37.1956)">
<rect x="-0.0579" y="-3.3000" width="0.1158" height="3.1033" ry="0.0333" fill="currentColor"/>
</g>
<a style="color:inherit;" xlink:href="textedit:///Users/marc.mouries/projects/Sheet-Music/Learn-Violin-with-Famous-Themes/Beethoven_Fur-Elise.ly:27:57:58">
<g transform="translate(82.9554, 37.1956)">
<path transform="scale(0.0040, -0.0040)" d="M222 135c64 0 104 -35 104 -86c0 -89 -114 -184 -221 -184c-64 0 -105 35 -105 86c0 89 115 184 222 184z" fill="currentColor"/>
</g>
</a>
<g transform="translate(4.7421, 49.1956)">
<text font-family="serif" font-size="2.2002" text-anchor="start" fill="currentColor">
<tspan>Play it an octave lower to stretch the first finger.</tspan>
</text>
</g>
<g transform="translate(4.7421, 67.2217)">
<rect x="70.4824" y="-0.0995" width="1.9587" height="0.1990" ry="0.0995" fill="currentColor"/>
</g>
<g transform="translate(4.7421, 68.3217)">
<rect x="70.4824" y="-0.0995" width="1.9587" height="0.1990" ry="0.0995" fill="currentColor"/>
</g>
<g transform="translate(4.7421, 67.2217)">
<rect x="66.6574" y="-0.0995" width="1.9587" height="0.1990" ry="0.0995" fill="currentColor"/>
</g>
<g transform="translate(4.7421, 67.2217)">
<rect x="61.2115" y="-0.0995" width="1.9587" height="0.1990" ry="0.0995" fill="currentColor"/>
</g>
<g transform="translate(4.7421, 67.2217)">
<rect x="37.4074" y="-0.0995" width="1.9587" height="0.1990" ry="0.0995" fill="currentColor"/>
</g>
<g transform="translate(4.7421, 68.3217)">
<rect x="37.4074" y="-0.0995" width="1.9587" height="0.1990" ry="0.0995" fill="currentColor"/>
</g>
<g transform="translate(4.7421, 67.2217)">
<rect x="33.5824" y="-0.0995" width="1.9587" height="0.1990" ry="0.0995" fill="currentColor"/>
</g>
<g transform="translate(4.7421, 67.2217)">
<rect x="28.1365" y="-0.0995" width="1.9587" height="0.1990" ry="0.0995" fill="currentColor"/>
</g>
<g transform="translate(9.4843, 66.1217)">
<line stroke-linejoin="round" stroke-linecap="round" stroke-width="0.0890" stroke="currentColor" x1="0.0445" y1="0" x2="69.7280" y2="0"/>
</g>
<g transform="translate(9.4843, 65.0217)">
<line stroke-linejoin="round" stroke-linecap="round" stroke-width="0.0890" stroke="currentColor" x1="0.0445" y1="0" x2="69.7280" y2="0"/>
</g>
<g transform="translate(9.4843, 63.9217)">
<line stroke-linejoin="round" stroke-linecap="round" stroke-width="0.0890" stroke="currentColor" x1="0.0445" y1="0" x2="69.7280" y2="0"/>
</g>
<g transform="translate(9.4843, 62.8217)">
<line stroke-linejoin="round" stroke-linecap="round" stroke-width="0.0890" stroke="currentColor" x1="0.0445" y1="0" x2="69.7280" y2="0"/>
</g>
<g transform="translate(9.4843, 61.7217)">
<line stroke-linejoin="round" stroke-linecap="round" stroke-width="0.0890" stroke="currentColor" x1="0.0445" y1="0" x2="69.7280" y2="0"/>
</g>
<g transform="translate(74.4818, 63.9217)">
<rect x="0.0000" y="-2.2000" width="0.1692" height="4.4000" ry="0.0000" fill="currentColor"/>
</g>
<g transform="translate(57.0934, 63.9217)">
<rect x="0.0000" y="-2.2000" width="0.1692" height="4.4000" ry="0.0000" fill="currentColor"/>
</g>
<g transform="translate(41.4068, 63.9217)">
<rect x="0.0000" y="-2.2000" width="0.1692" height="4.4000" ry="0.0000" fill="currentColor"/>
</g>
<g transform="translate(24.0185, 63.9217)">
<rect x="0.0000" y="-2.2000" width="0.1692" height="4.4000" ry="0.0000" fill="currentColor"/>
</g>
<a style="color:inherit;" xlink:href="textedit:///Users/marc.mouries/projects/Sheet-Music/Learn-Violin-with-Famous-Themes/Learn-Violin-with-Famous-Themes.ly:271:1:2">
<g transform="translate(46.1818, 63.9217)">
<path transform="scale(0.0040, -0.0040)" d="M124 205c78 0 47 -100 92 -100c17 0 53 54 60 70c5 11 20 11 24 0l-182 -675c-7 -6 -15 -9 -23 -9s-17 3 -24 9l100 327c-35 -13 -72 -23 -109 -23c-47 0 -87 35 -87 80c0 39 31 71 71 71c78 0 47 -100 92 -100c17 0 57 53 62 70l47 152c-34 -12 -70 -23 -107 -23
c-47 0 -87 35 -87 80c0 39 31 71 71 71z" fill="currentColor"/>
</g>
</a>
<a style="color:inherit;" xlink:href="textedit:///Users/marc.mouries/projects/Sheet-Music/Learn-Violin-with-Famous-Themes/Learn-Violin-with-Famous-Themes.ly:269:12:13">
<g transform="translate(17.9069, 66.1217)">
<path transform="scale(0.0040, -0.0040)" d="M222 135c64 0 104 -35 104 -86c0 -89 -114 -184 -221 -184c-64 0 -105 35 -105 86c0 89 115 184 222 184z" fill="currentColor"/>
</g>
</a>
<a style="color:inherit;" xlink:href="textedit:///Users/marc.mouries/projects/Sheet-Music/Learn-Violin-with-Famous-Themes/Learn-Violin-with-Famous-Themes.ly:269:18:19">
<g transform="translate(17.9069, 61.1272)">
<text font-family="serif" font-weight="bold" font-size="2.2002" text-anchor="start" fill="currentColor">
<tspan>Poco moto.</tspan>
</text>
</g>
</a>
<a style="color:inherit;" xlink:href="textedit:///Users/marc.mouries/projects/Sheet-Music/Learn-Violin-with-Famous-Themes/Learn-Violin-with-Famous-Themes.ly:269:15:16">
<g transform="translate(17.1087, 69.0639)">
<g>
<path transform="scale(0.0040, -0.0040)" d="M161 33c79 0 97 175 97 177c0 18 -7 33 -25 33c-60 0 -102 -122 -102 -172c0 -23 8 -38 30 -38zM-54 142c0 2 51 150 133 150c36 0 61 -21 68 -52c29 31 67 52 103 52c69 0 107 -49 107 -114c0 -119 -105 -185 -158 -185s-71 20 -85 20c-7 0 -13 -3 -15 -9l-33 -95
c-1 -2 -1 -4 -1 -6c0 -32 59 -15 59 -37c0 -6 -3 -12 -11 -12c-3 0 -50 5 -117 5s-115 -5 -118 -5c-8 0 -11 6 -11 12c0 28 86 -2 99 35l105 308c2 6 4 13 4 18c0 9 -4 16 -13 16c-34 0 -67 -59 -83 -97c-4 -10 -13 -15 -21 -15c-7 0 -12 4 -12 11z" fill="currentColor"/>

<path transform="translate(1.4511, 0.0000) scale(0.0040, -0.0040)" d="M161 33c79 0 97 175 97 177c0 18 -7 33 -25 33c-60 0 -102 -122 -102 -172c0 -23 8 -38 30 -38zM-54 142c0 2 51 150 133 150c36 0 61 -21 68 -52c29 31 67 52 103 52c69 0 107 -49 107 -114c0 -119 -105 -185 -158 -185s-71 20 -85 20c-7 0 -13 -3 -15 -9l-33 -95
c-1 -2 -1 -4 -1 -6c0 -32 59 -15 59 -37c0 -6 -3 -12 -11 -12c-3 0 -50 5 -117 5s-115 -5 -118 -5c-8 0 -11 6 -11 12c0 28 86 -2 99 35l105 308c2 6 4 13 4 18c0 9 -4 16 -13 16c-34 0 -67 -59 -83 -97c-4 -10 -13 -15 -21 -15c-7 0 -12 4 -12 11z" fill="currentColor"/>
</g>
</g>
</a>
<g transform="translate(10.2843, 65.0217)">
<path transform="scale(0.0040, -0.0040)" d="M264 -594c47 0 165 26 165 246c0 32 -2 64 -5 96c-5 -1 -44 -8 -89 -8c-193 0 -333 178 -333 372c0 178 133 306 251 440c-27 93 -49 170 -49 345c0 116 55 226 150 295c5 4 11 4 16 0c67 -81 132 -246 132 -359c0 -144 -87 -256 -183 -365c20 -69 39 -138 55 -208
c2 0 7 1 15 1c154 0 254 -127 254 -259c0 -112 -73 -212 -180 -245c3 -36 5 -72 5 -108c0 -19 0 -37 -1 -56c-7 -120 -89 -226 -206 -226c-108 0 -195 87 -195 195c0 58 53 104 112 104c54 0 95 -48 95 -104c0 -52 -43 -95 -95 -95c-12 0 -24 4 -35 9c26 -41 70 -70 121 -70
zM459 -205c71 24 117 92 117 166c0 92 -69 184 -179 193c1 -5 45 -212 62 -359zM71 31c0 -146 142 -251 267 -251c1 0 46 0 82 6c-7 63 -28 201 -64 367c-79 -9 -125 -62 -125 -121c0 -44 26 -92 82 -124c4 -4 7 -9 7 -14c0 -11 -9 -21 -20 -21c-14 0 -125 62 -125 186
c0 88 57 173 158 196c-14 60 -30 119 -46 178c-108 -121 -216 -242 -216 -402zM411 1050c-99 -50 -161 -151 -161 -262c0 -59 11 -123 33 -200c82 97 149 198 149 325c0 35 0 69 -21 137z" fill="currentColor"/>
</g>
<g transform="translate(14.5412, 63.9217)">
<path transform="scale(0.0040, -0.0040)" d="M258 264c0 -31 68 -19 68 -124c0 -91 -77 -140 -175 -140c-77 0 -151 41 -151 111c0 36 29 65 65 65s65 -29 65 -65c0 -25 -40 -28 -40 -53c0 -26 31 -37 61 -37c50 0 66 61 66 119c0 62 -1 110 -54 110h-82c-9 0 -13 7 -13 14s4 13 13 13h82c52 0 54 47 54 108
c0 56 -18 94 -70 94c-27 0 -55 -9 -55 -33c0 -22 35 -25 35 -47c0 -32 -25 -57 -57 -57s-57 25 -57 57c0 63 65 101 134 101c90 0 165 -35 165 -115c0 -126 -54 -81 -54 -121z" fill="currentColor"/>
</g>
<g transform="translate(14.4843, 65.9216)">
<path transform="scale(0.0040, -0.0040)" d="M256 283c26 31 45 65 45 105c0 55 -55 91 -114 91c-48 0 -76 -37 -76 -74c0 -22 10 -45 33 -58zM284 266c23 -13 80 -53 80 -124c0 -72 -65 -142 -185 -142c-92 0 -179 53 -179 138c0 51 37 90 73 126c-38 28 -57 66 -57 104c0 67 60 132 171 132c78 0 154 -41 154 -112
c0 -47 -25 -87 -57 -122zM101 246c-32 -31 -61 -64 -61 -108c0 -69 66 -117 139 -117c55 0 88 43 88 85c0 25 -11 51 -37 66z" fill="currentColor"/>
</g>
<g transform="translate(19.1548, 63.9217)">
<rect x="-0.0579" y="-1.0963" width="0.1158" height="3.0996" ry="0.0333" fill="currentColor"/>
</g>
<g transform="translate(52.1719, 62.8217)">
<polygon stroke-linejoin="round" stroke-linecap="round" stroke-width="0.0667" fill="currentColor" stroke="currentColor" points="3.4382 -0.0112 3.4382 0.4501 0.0333 0.2307 0.0333 -0.2307"/>
</g>
<g transform="translate(52.1719, 63.7022)">
<polygon stroke-linejoin="round" stroke-linecap="round" stroke-width="0.0667" fill="currentColor" stroke="currentColor" points="3.4382 -0.0112 3.4382 0.4501 0.0333 0.2307 0.0333 -0.2307"/>
</g>
<a style="color:inherit;" xlink:href="textedit:///Users/marc.mouries/projects/Sheet-Music/Learn-Violin-with-Famous-Themes/Learn-Violin-with-Famous-Themes.ly:269:50:51">
<g transform="translate(21.2627, 66.6717)">
<path transform="scale(0.0040, -0.0040)" d="M222 135c64 0 104 -35 104 -86c0 -89 -114 -184 -221 -184c-64 0 -105 35 -105 86c0 89 115 184 222 184z" fill="currentColor"/>
</g>
</a>
<g transform="translate(22.5106, 63.9217)">
<rect x="-0.0579" y="-0.8842" width="0.1158" height="3.4375" ry="0.0333" fill="currentColor"/>
</g>
<g transform="translate(19.8127, 66.6717)">
<path transform="scale(0.0040, -0.0040)" d="M0 121c0 7 5 13 11 15l49 17v163c0 9 8 17 17 17s17 -8 17 -17v-151l87 31v162c0 9 8 17 17 17s17 -8 17 -17v-150l39 13c10 4 21 -4 21 -15v-64c0 -7 -5 -13 -11 -15l-49 -18v-164l39 14c10 4 21 -4 21 -15v-65c0 -7 -5 -13 -11 -15l-49 -17v-163c0 -9 -8 -17 -17 -17
s-17 8 -17 17v151l-87 -31v-162c0 -9 -8 -17 -17 -17s-17 8 -17 17v150l-39 -13c-10 -4 -21 4 -21 15v64c0 7 5 13 11 15l49 18v164l-39 -14c-10 -4 -21 4 -21 15v65zM181 97l-87 -30v-164l87 30v164z" fill="currentColor"/>
</g>
<g transform="translate(26.2777, 63.0412)">
<polygon stroke-linejoin="round" stroke-linecap="round" stroke-width="0.0667" fill="currentColor" stroke="currentColor" points="13.6458 -0.2307 13.6458 0.2307 0.0333 0.2307 0.0333 -0.2307"/>
</g>
<g transform="translate(26.2777, 63.9217)">
<polygon stroke-linejoin="round" stroke-linecap="round" stroke-width="0.0667" fill="currentColor" stroke="currentColor" points="13.6458 -0.2307 13.6458 0.2307 0.0333 0.2307 0.0333 -0.2307"/>
</g>
<g transform="translate(19.0969, 62.8217)">
<polygon stroke-linejoin="round" stroke-linecap="round" stroke-width="0.0667" fill="currentColor" stroke="currentColor" points="3.4382 -0.0112 3.4382 0.4501 0.0333 0.2307 0.0333 -0.2307"/>
</g>
<g transform="translate(19.0969, 63.7022)">
<polygon stroke-linejoin="round" stroke-linecap="round" stroke-width="0.0667" fill="currentColor" stroke="currentColor" points="3.4382 -0.0112 3.4382 0.4501 0.0333 0.2307 0.0333 -0.2307"/>
</g>
<a style="color:inherit;" xlink:href="textedit:///Users/marc.mouries/projects/Sheet-Music/Learn-Violin-with-Famous-Themes/Learn-Violin-with-Famous-Themes.ly:270:1:2">
<g transform="translate(25.0877, 66.1217)">
<path transform="scale(0.0040, -0.0040)" d="M222 135c64 0 104 -35 104 -86c0 -89 -114 -184 -221 -184c-64 0 -105 35 -105 86c0 89 115 184 222 184z" fill="currentColor"/>
</g>
</a>
<g transform="translate(26.3356, 63.9217)">
<rect x="-0.0579" y="-0.8805" width="0.1158" height="2.8838" ry="0.0333" fill="currentColor"/>
</g>
<a style="color:inherit;" xlink:href="textedit:///Users/marc.mouries/projects/Sheet-Music/Learn-Violin-with-Famous-Themes/Learn-Violin-with-Famous-Themes.ly:270:3:4">
<g transform="translate(28.4435, 66.6717)">
<path transform="scale(0.0040, -0.0040)" d="M222 135c64 0 104 -35 104 -86c0 -89 -114 -184 -221 -184c-64 0 -105 35 -105 86c0 89 115 184 222 184z" fill="currentColor"/>
</g>
</a>
<g transform="translate(29.6914, 63.9217)">
<rect x="-0.0579" y="-0.8805" width="0.1158" height="3.4338" ry="0.0333" fill="currentColor"/>
</g>
<g transform="translate(26.9935, 66.6717)">
<path transform="scale(0.0040, -0.0040)" d="M0 121c0 7 5 13 11 15l49 17v163c0 9 8 17 17 17s17 -8 17 -17v-151l87 31v162c0 9 8 17 17 17s17 -8 17 -17v-150l39 13c10 4 21 -4 21 -15v-64c0 -7 -5 -13 -11 -15l-49 -18v-164l39 14c10 4 21 -4 21 -15v-65c0 -7 -5 -13 -11 -15l-49 -17v-163c0 -9 -8 -17 -17 -17
s-17 8 -17 17v151l-87 -31v-162c0 -9 -8 -17 -17 -17s-17 8 -17 17v150l-39 -13c-10 -4 -21 4 -21 15v64c0 7 5 13 11 15l49 18v164l-39 -14c-10 -4 -21 4 -21 15v65zM181 97l-87 -30v-164l87 30v164z" fill="currentColor"/>
</g>
<a style="color:inherit;" xlink:href="textedit:///Users/marc.mouries/projects/Sheet-Music/Learn-Violin-with-Famous-Themes/Learn-Violin-with-Famous-Themes.ly:270:6:7">
<g transform="translate(30.9493, 66.1217)">
<path transform="scale(0.0040, -0.0040)" d="M222 135c64 0 104 -35 104 -86c0 -89 -114 -184 -221 -184c-64 0 -105 35 -105 86c0 89 115 184 222 184z" fill="currentColor"/>
</g>
</a>
<g transform="translate(32.1972, 63.9217)">
<rect x="-0.0579" y="-0.8805" width="0.1158" height="2.8838" ry="0.0333" fill="currentColor"/>
</g>
<a style="color:inherit;" xlink:href="textedit:///Users/marc.mouries/projects/Sheet-Music/Learn-Violin-with-Famous-Themes/Learn-Violin-with-Famous-Themes.ly:270:8:9">
<g transform="translate(33.2051, 67.7717)">
<path transform="scale(0.0040, -0.0040)" d="M222 135c64 0 104 -35 104 -86c0 -89 -114 -184 -221 -184c-64 0 -105 35 -105 86c0 89 115 184 222 184z" fill="currentColor"/>
</g>
</a>
<g transform="translate(34.4530, 63.9217)">
<rect x="-0.0579" y="-0.8805" width="0.1158" height="4.5338" ry="0.0333" fill="currentColor"/>
</g>
<a style="color:inherit;" xlink:href="textedit:///Users/marc.mouries/projects/Sheet-Music/Learn-Violin-with-Famous-Themes/Learn-Violin-with-Famous-Themes.ly:270:10:11">
<g transform="translate(36.1452, 66.6717)">
<path transform="scale(0.0040, -0.0040)" d="M222 135c64 0 104 -35 104 -86c0 -89 -114 -184 -221 -184c-64 0 -105 35 -105 86c0 89 115 184 222 184z" fill="currentColor"/>
</g>
</a>
<g transform="translate(37.3931, 63.9217)">
<rect x="-0.0579" y="-0.8805" width="0.1158" height="3.4338" ry="0.0333" fill="currentColor"/>
</g>
<g transform="translate(35.1109, 66.6717)">
<path transform="scale(0.0040, -0.0040)" d="M-7 375c7 4 16 6 24 6s16 -2 23 -6l-2 -177l109 18c1 0 2 1 3 1c9 0 17 -8 17 -17l7 -575c-7 -4 -16 -6 -24 -6s-17 2 -24 6l2 177l-109 -18c-1 0 -1 -1 -2 -1c-9 0 -17 8 -17 17zM132 114l-95 -15l-3 -213l96 15z" fill="currentColor"/>
</g>
<a style="color:inherit;" xlink:href="textedit:///Users/marc.mouries/projects/Sheet-Music/Learn-Violin-with-Famous-Themes/Learn-Violin-with-Famous-Themes.ly:270:12:13">
<g transform="translate(38.6510, 67.2217)">
<path transform="scale(0.0040, -0.0040)" d="M222 135c64 0 104 -35 104 -86c0 -89 -114 -184 -221 -184c-64 0 -105 35 -105 86c0 89 115 184 222 184z" fill="currentColor"/>
</g>
</a>
<g transform="translate(39.8989, 63.9217)">
<rect x="-0.0579" y="-0.8805" width="0.1158" height="3.9838" ry="0.0333" fill="currentColor"/>
</g>
<a style="color:inherit;" xlink:href="textedit:///Users/marc.mouries/projects/Sheet-Music/Learn-Violin-with-Famous-Themes/Learn-Violin-with-Famous-Themes.ly:270:14:15">
<g transform="translate(42.4760, 68.3217)">
<path transform="scale(0.0040, -0.0040)" d="M222 135c64 0 104 -35 104 -86c0 -89 -114 -184 -221 -184c-64 0 -105 35 -105 86c0 89 115 184 222 184z" fill="currentColor"/>
</g>
</a>
<g transform="translate(43.7239, 63.9217)">
<rect x="-0.0579" y="-0.0000" width="0.1158" height="4.2033" ry="0.0333" fill="currentColor"/>
</g>
<g transform="translate(43.7818, 63.9550)">
<path transform="scale(0.0040, -0.0040)" d="M0 0v-250h-14v250h14zM0 0c0 -198 207 -336 207 -534c0 -71 -16 -142 -42 -208c-4 -7 -10 -11 -17 -11c-12 0 -24 10 -21 25c26 62 41 127 41 194c0 104 -96 209 -168 284v250z" fill="currentColor"/>
</g>
<g transform="translate(59.3527, 63.0412)">
<polygon stroke-linejoin="round" stroke-linecap="round" stroke-width="0.0667" fill="currentColor" stroke="currentColor" points="13.6458 -0.2307 13.6458 0.2307 0.0333 0.2307 0.0333 -0.2307"/>
</g>
<g transform="translate(59.3527, 63.9217)">
<polygon stroke-linejoin="round" stroke-linecap="round" stroke-width="0.0667" fill="currentColor" stroke="currentColor" points="13.6458 -0.2307 13.6458 0.2307 0.0333 0.2307 0.0333 -0.2307"/>
</g>
<a style="color:inherit;" xlink:href="textedit:///Users/marc.mouries/projects/Sheet-Music/Learn-Violin-with-Famous-Themes/Learn-Violin-with-Famous-Themes.ly:271:5:6">
<g transform="translate(48.5818, 63.9217)">
<path transform="scale(0.0040, -0.0040)" d="M124 205c78 0 47 -100 92 -100c17 0 53 54 60 70c5 11 20 11 24 0l-182 -675c-7 -6 -15 -9 -23 -9s-17 3 -24 9l100 327c-35 -13 -72 -23 -109 -23c-47 0 -87 35 -87 80c0 39 31 71 71 71c78 0 47 -100 92 -100c17 0 57 53 62 70l47 152c-34 -12 -70 -23 -107 -23
c-47 0 -87 35 -87 80c0 39 31 71 71 71z" fill="currentColor"/>
</g>
</a>
<g transform="translate(76.8568, 63.9550)">
<path transform="scale(0.0040, -0.0040)" d="M0 0v-250h-14v250h14zM0 0c0 -198 207 -336 207 -534c0 -71 -16 -142 -42 -208c-4 -7 -10 -11 -17 -11c-12 0 -24 10 -21 25c26 62 41 127 41 194c0 104 -96 209 -168 284v250z" fill="currentColor"/>
</g>
<a style="color:inherit;" xlink:href="textedit:///Users/marc.mouries/projects/Sheet-Music/Learn-Violin-with-Famous-Themes/Learn-Violin-with-Famous-Themes.ly:271:7:8">
<g transform="translate(50.9818, 66.1217)">
<path transform="scale(0.0040, -0.0040)" d="M222 135c64 0 104 -35 104 -86c0 -89 -114 -184 -221 -184c-64 0 -105 35 -105 86c0 89 115 184 222 184z" fill="currentColor"/>
</g>
</a>
<g transform="translate(52.2297, 63.9217)">
<rect x="-0.0579" y="-1.0963" width="0.1158" height="3.0996" ry="0.0333" fill="currentColor"/>
</g>
<a style="color:inherit;" xlink:href="textedit:///Users/marc.mouries/projects/Sheet-Music/Learn-Violin-with-Famous-Themes/Learn-Violin-with-Famous-Themes.ly:271:12:13">
<g transform="translate(54.3376, 66.6717)">
<path transform="scale(0.0040, -0.0040)" d="M222 135c64 0 104 -35 104 -86c0 -89 -114 -184 -221 -184c-64 0 -105 35 -105 86c0 89 115 184 222 184z" fill="currentColor"/>
</g>
</a>
<g transform="translate(55.5856, 63.9217)">
<rect x="-0.0579" y="-0.8842" width="0.1158" height="3.4375" ry="0.0333" fill="currentColor"/>
</g>
<g transform="translate(52.8876, 66.6717)">
<path transform="scale(0.0040, -0.0040)" d="M0 121c0 7 5 13 11 15l49 17v163c0 9 8 17 17 17s17 -8 17 -17v-151l87 31v162c0 9 8 17 17 17s17 -8 17 -17v-150l39 13c10 4 21 -4 21 -15v-64c0 -7 -5 -13 -11 -15l-49 -18v-164l39 14c10 4 21 -4 21 -15v-65c0 -7 -5 -13 -11 -15l-49 -17v-163c0 -9 -8 -17 -17 -17
s-17 8 -17 17v151l-87 -31v-162c0 -9 -8 -17 -17 -17s-17 8 -17 17v150l-39 -13c-10 -4 -21 4 -21 15v64c0 7 5 13 11 15l49 18v164l-39 -14c-10 -4 -21 4 -21 15v65zM181 97l-87 -30v-164l87 30v164z" fill="currentColor"/>
</g>
<g transform="translate(76.7989, 63.9217)">
<rect x="-0.0579" y="-0.0000" width="0.1158" height="4.2033" ry="0.0333" fill="currentColor"/>
</g>
<a style="color:inherit;" xlink:href="textedit:///Users/marc.mouries/projects/Sheet-Music/Learn-Violin-with-Famous-Themes/Learn-Violin-with-Famous-Themes.ly:272:1:2">
<g transform="translate(58.1626, 66.1217)">
<path transform="scale(0.0040, -0.0040)" d="M222 135c64 0 104 -35 104 -86c0 -89 -114 -184 -221 -184c-64 0 -105 35 -105 86c0 89 115 184 222 184z" fill="currentColor"/>
</g>
</a>
<g transform="translate(59.4105, 63.9217)">
<rect x="-0.0579" y="-0.8805" width="0.1158" height="2.8838" ry="0.0333" fill="currentColor"/>
</g>
<a style="color:inherit;" xlink:href="textedit:///Users/marc.mouries/projects/Sheet-Music/Learn-Violin-with-Famous-Themes/Learn-Violin-with-Famous-Themes.ly:272:3:4">
<g transform="translate(61.5184, 66.6717)">
<path transform="scale(0.0040, -0.0040)" d="M222 135c64 0 104 -35 104 -86c0 -89 -114 -184 -221 -184c-64 0 -105 35 -105 86c0 89 115 184 222 184z" fill="currentColor"/>
</g>
</a>
<g transform="translate(62.7664, 63.9217)">
<rect x="-0.0579" y="-0.8805" width="0.1158" height="3.4338" ry="0.0333" fill="currentColor"/>
</g>
<g transform="translate(60.0684, 66.6717)">
<path transform="scale(0.0040, -0.0040)" d="M0 121c0 7 5 13 11 15l49 17v163c0 9 8 17 17 17s17 -8 17 -17v-151l87 31v162c0 9 8 17 17 17s17 -8 17 -17v-150l39 13c10 4 21 -4 21 -15v-64c0 -7 -5 -13 -11 -15l-49 -18v-164l39 14c10 4 21 -4 21 -15v-65c0 -7 -5 -13 -11 -15l-49 -17v-163c0 -9 -8 -17 -17 -17
s-17 8 -17 17v151l-87 -31v-162c0 -9 -8 -17 -17 -17s-17 8 -17 17v150l-39 -13c-10 -4 -21 4 -21 15v64c0 7 5 13 11 15l49 18v164l-39 -14c-10 -4 -21 4 -21 15v65zM181 97l-87 -30v-164l87 30v164z" fill="currentColor"/>
</g>
<a style="color:inherit;" xlink:href="textedit:///Users/marc.mouries/projects/Sheet-Music/Learn-Violin-with-Famous-Themes/Learn-Violin-with-Famous-Themes.ly:272:6:7">
<g transform="translate(64.0242, 66.1217)">
<path transform="scale(0.0040, -0.0040)" d="M222 135c64 0 104 -35 104 -86c0 -89 -114 -184 -221 -184c-64 0 -105 35 -105 86c0 89 115 184 222 184z" fill="currentColor"/>
</g>
</a>
<g transform="translate(65.2722, 63.9217)">
<rect x="-0.0579" y="-0.8805" width="0.1158" height="2.8838" ry="0.0333" fill="currentColor"/>
</g>
<a style="color:inherit;" xlink:href="textedit:///Users/marc.mouries/projects/Sheet-Music/Learn-Violin-with-Famous-Themes/Learn-Violin-with-Famous-Themes.ly:272:8:9">
<g transform="translate(66.2800, 67.7717)">
<path transform="scale(0.0040, -0.0040)" d="M222 135c64 0 104 -35 104 -86c0 -89 -114 -184 -221 -184c-64 0 -105 35 -105 86c0 89 115 184 222 184z" fill="currentColor"/>
</g>
</a>
<g transform="translate(67.5280, 63.9217)">
<rect x="-0.0579" y="-0.8805" width="0.1158" height="4.5338" ry="0.0333" fill="currentColor"/>
</g>
<a style="color:inherit;" xlink:href="textedit:///Users/marc.mouries/projects/Sheet-Music/Learn-Violin-with-Famous-Themes/Learn-Violin-with-Famous-Themes.ly:272:14:15">
<g transform="translate(75.5510, 68.3217)">
<path transform="scale(0.0040, -0.0040)" d="M222 135c64 0 104 -35 104 -86c0 -89 -114 -184 -221 -184c-64 0 -105 35 -105 86c0 89 115 184 222 184z" fill="currentColor"/>
</g>
</a>
<a style="color:inherit;" xlink:href="textedit:///Users/marc.mouries/projects/Sheet-Music/Learn-Violin-with-Famous-Themes/Learn-Violin-with-Famous-Themes.ly:272:10:11">
<g transform="translate(69.2201, 66.6717)">
<path transform="scale(0.0040, -0.0040)" d="M222 135c64 0 104 -35 104 -86c0 -89 -114 -184 -221 -184c-64 0 -105 35 -105 86c0 89 115 184 222 184z" fill="currentColor"/>
</g>
</a>
<g transform="translate(70.4681, 63.9217)">
<rect x="-0.0579" y="-0.8805" width="0.1158" height="3.4338" ry="0.0333" fill="currentColor"/>
</g>
<g transform="translate(68.1858, 66.6717)">
<path transform="scale(0.0040, -0.0040)" d="M-7 375c7 4 16 6 24 6s16 -2 23 -6l-2 -177l109 18c1 0 2 1 3 1c9 0 17 -8 17 -17l7 -575c-7 -4 -16 -6 -24 -6s-17 2 -24 6l2 177l-109 -18c-1 0 -1 -1 -2 -1c-9 0 -17 8 -17 17zM132 114l-95 -15l-3 -213l96 15z" fill="currentColor"/>
</g>
<a style="color:inherit;" xlink:href="textedit:///Users/marc.mouries/projects/Sheet-Music/Learn-Violin-with-Famous-Themes/Learn-Violin-with-Famous-Themes.ly:272:12:13">
<g transform="translate(71.7260, 67.2217)">
<path transform="scale(0.0040, -0.0040)" d="M222 135c64 0 104 -35 104 -86c0 -89 -114 -184 -221 -184c-64 0 -105 35 -105 86c0 89 115 184 222 184z" fill="currentColor"/>
</g>
</a>
<g transform="translate(72.9739, 63.9217)">
<rect x="-0.0579" y="-0.8805" width="0.1158" height="3.9838" ry="0.0333" fill="currentColor"/>
</g>
<g transform="translate(49.3086, 137.9729)">
<text font-family="serif" font-size="1.9603" text-anchor="start" fill="currentColor">
<tspan>8</tspan>
</text>
</g>
</svg>
