<svg xmlns="http://www.w3.org/2000/svg" xmlns:xlink="http://www.w3.org/1999/xlink" version="1.2" width="210.00mm" height="297.00mm" viewBox="0.0000 -0.0000 99.5846 140.8411">
<style type="text/css">
<![CDATA[
tspan { white-space: pre; }
]]>
</style>
<g transform="translate(49.5220, 2.3711)">
<text font-family="serif" font-size="2.2002" text-anchor="start" fill="currentColor">
<tspan> </tspan>
</text>
</g>
<g transform="translate(35.2245, 6.4862)">
<text font-family="Optima" font-weight="bold" font-size="4.3999" text-anchor="start" fill="currentColor">
<tspan>S</tspan>
</text>
</g>
<g transform="translate(37.4154, 6.4862)">
<text font-family="Optima" font-weight="bold" font-size="3.4922" text-anchor="start" fill="currentColor">
<tspan>OLVEIG</tspan>
</text>
</g>
<g transform="translate(49.6785, 6.4862)">
<text font-family="Optima" font-weight="bold" font-size="4.3999" text-anchor="start" fill="currentColor">
<tspan>'</tspan>
</text>
</g>
<g transform="translate(50.9020, 6.4862)">
<text font-family="Optima" font-weight="bold" font-size="3.4922" text-anchor="start" fill="currentColor">
<tspan>S</tspan>
</text>
</g>
<g transform="translate(52.6376, 6.4862)">
<text font-family="Optima" font-weight="bold" font-size="4.3999" text-anchor="start" fill="currentColor">
<tspan> S</tspan>
</text>
</g>
<g transform="translate(56.0519, 6.4862)">
<text font-family="Optima" font-weight="bold" font-size="3.4922" text-anchor="start" fill="currentColor">
<tspan>ONG</tspan>
</text>
</g>
<g transform="translate(73.0477, 6.4862)">
<text font-family="Optima" font-size="1.9598" text-anchor="start" fill="currentColor">
<tspan>Edvard Grieg (1843-1907)</tspan>
</text>
</g>
<g transform="translate(9.4843, 25.8818)">
<line stroke-linejoin="round" stroke-linecap="round" stroke-width="0.0890" stroke="currentColor" x1="0.0445" y1="0" x2="85.3137" y2="0"/>
</g>
<g transform="translate(9.4843, 24.7818)">
<line stroke-linejoin="round" stroke-linecap="round" stroke-width="0.0890" stroke="currentColor" x1="0.0445" y1="0" x2="85.3137" y2="0"/>
</g>
<g transform="translate(9.4843, 23.6818)">
<line stroke-linejoin="round" stroke-linecap="round" stroke-width="0.0890" stroke="currentColor" x1="0.0445" y1="0" x2="85.3137" y2="0"/>
</g>
<g transform="translate(9.4843, 22.5818)">
<line stroke-linejoin="round" stroke-linecap="round" stroke-width="0.0890" stroke="currentColor" x1="0.0445" y1="0" x2="85.3137" y2="0"/>
</g>
<g transform="translate(9.4843, 21.4818)">
<line stroke-linejoin="round" stroke-linecap="round" stroke-width="0.0890" stroke="currentColor" x1="0.0445" y1="0" x2="85.3137" y2="0"/>
</g>
<g transform="translate(94.3082, 23.6818)">
<rect x="0.0000" y="-2.2000" width="0.5343" height="4.4000" ry="0.0000" fill="currentColor"/>
</g>
<g transform="translate(93.8719, 23.6818)">
<rect x="0.0000" y="-2.2000" width="0.1692" height="4.4000" ry="0.0000" fill="currentColor"/>
</g>
<g transform="translate(80.1178, 23.6818)">
<rect x="0.0000" y="-2.2000" width="0.1692" height="4.4000" ry="0.0000" fill="currentColor"/>
</g>
<g transform="translate(61.9814, 23.6818)">
<rect x="0.0000" y="-2.2000" width="0.1692" height="4.4000" ry="0.0000" fill="currentColor"/>
</g>
<g transform="translate(45.0937, 23.6818)">
<rect x="0.0000" y="-2.2000" width="0.1692" height="4.4000" ry="0.0000" fill="currentColor"/>
</g>
<g transform="translate(29.4105, 23.1318)">
<path transform="scale(0.0040, -0.0040)" d="M0 0c0 32 25 57 57 57s57 -25 57 -57s-25 -57 -57 -57s-57 25 -57 57z" fill="currentColor"/>
</g>
<g transform="translate(29.4105, 24.2318)">
<path transform="scale(0.0040, -0.0040)" d="M0 0c0 32 25 57 57 57s57 -25 57 -57s-25 -57 -57 -57s-57 25 -57 57z" fill="currentColor"/>
</g>
<g transform="translate(28.9741, 23.6818)">
<rect x="0.0000" y="-2.2000" width="0.1692" height="4.4000" ry="0.0000" fill="currentColor"/>
</g>
<g transform="translate(28.1727, 23.6818)">
<rect x="0.0000" y="-2.2000" width="0.5343" height="4.4000" ry="0.0000" fill="currentColor"/>
</g>
<a style="color:inherit;" xlink:href="textedit:///Users/marc.mouries/projects/Sheet-Music/Learn-Violin-with-Famous-Themes/Grieg_Solveigs-Song.ly:24:2:3">
<g transform="translate(18.1978, 23.6818)">
<path transform="scale(0.0040, -0.0040)" d="M367 0h-359c-4 0 -8 4 -8 8v140c0 4 4 8 8 8h359c4 0 8 -4 8 -8v-140c0 -4 -4 -8 -8 -8z" fill="currentColor"/>
</g>
</a>
<g transform="translate(10.2843, 24.7818)">
<path transform="scale(0.0040, -0.0040)" d="M264 -594c47 0 165 26 165 246c0 32 -2 64 -5 96c-5 -1 -44 -8 -89 -8c-193 0 -333 178 -333 372c0 178 133 306 251 440c-27 93 -49 170 -49 345c0 116 55 226 150 295c5 4 11 4 16 0c67 -81 132 -246 132 -359c0 -144 -87 -256 -183 -365c20 -69 39 -138 55 -208
c2 0 7 1 15 1c154 0 254 -127 254 -259c0 -112 -73 -212 -180 -245c3 -36 5 -72 5 -108c0 -19 0 -37 -1 -56c-7 -120 -89 -226 -206 -226c-108 0 -195 87 -195 195c0 58 53 104 112 104c54 0 95 -48 95 -104c0 -52 -43 -95 -95 -95c-12 0 -24 4 -35 9c26 -41 70 -70 121 -70
zM459 -205c71 24 117 92 117 166c0 92 -69 184 -179 193c1 -5 45 -212 62 -359zM71 31c0 -146 142 -251 267 -251c1 0 46 0 82 6c-7 63 -28 201 -64 367c-79 -9 -125 -62 -125 -121c0 -44 26 -92 82 -124c4 -4 7 -9 7 -14c0 -11 -9 -21 -20 -21c-14 0 -125 62 -125 186
c0 88 57 173 158 196c-14 60 -30 119 -46 178c-108 -121 -216 -242 -216 -402zM411 1050c-99 -50 -161 -151 -161 -262c0 -59 11 -123 33 -200c82 97 149 198 149 325c0 35 0 69 -21 137z" fill="currentColor"/>
</g>
<a style="color:inherit;" xlink:href="textedit:///Users/marc.mouries/projects/Sheet-Music/Learn-Violin-with-Famous-Themes/Grieg_Solveigs-Song.ly:20:2:3">
</a>
<a style="color:inherit;" xlink:href="textedit:///Users/marc.mouries/projects/Sheet-Music/Learn-Violin-with-Famous-Themes/Grieg_Solveigs-Song.ly:21:2:3">
<g transform="translate(14.4843, 23.6818)">
<path transform="scale(0.0040, -0.0040)" d="M250 261c117 0 180 -102 180 -162c0 -40 -32 -74 -70 -74c-31 0 -76 25 -76 77c0 39 28 78 74 78c2 0 10 1 18 -1c-29 37 -76 60 -126 60c-106 0 -113 -73 -113 -185v-54v-54c0 -112 7 -185 113 -185c82 0 145 68 164 151c1 6 6 9 10 9c6 0 11 -4 11 -11
c0 -23 -51 -171 -185 -171c-59 0 -250 19 -250 261c0 62 18 261 250 261z" fill="currentColor"/>
</g>
</a>
<a style="color:inherit;" xlink:href="textedit:///Users/marc.mouries/projects/Sheet-Music/Learn-Violin-with-Famous-Themes/Grieg_Solveigs-Song.ly:22:2:3">
<g transform="translate(14.4843, 20.1668)">
<text font-family="serif" font-weight="bold" font-size="2.2002" text-anchor="start" fill="currentColor">
<tspan>Andante</tspan>
</text>
</g>
<g transform="translate(22.5648, 20.1668)">
<text font-family="serif" font-size="2.2002" text-anchor="start" fill="currentColor">
<tspan> (</tspan>
</text>
</g>
<g transform="translate(23.8452, 19.6841)">
<rect x="1.0470" y="-2.6727" width="0.1158" height="2.5018" ry="0.0193" fill="currentColor"/>
</g>
<g transform="translate(23.8452, 19.6841)">
<path transform="scale(0.0036, -0.0036)" d="M220 135c11 0 106 -2 106 -87c0 -89 -114 -183 -220 -183c-11 0 -106 2 -106 87c0 89 114 183 220 183z" fill="currentColor"/>
</g>
<g transform="translate(25.0080, 20.1668)">
<text font-family="serif" font-size="2.2002" text-anchor="start" fill="currentColor">
<tspan> = 60)</tspan>
</text>
</g>
</a>
<a style="color:inherit;" xlink:href="textedit:///Users/marc.mouries/projects/Sheet-Music/Learn-Violin-with-Famous-Themes/Grieg_Solveigs-Song.ly:28:32:33">
<g transform="translate(76.8657, 23.6818)">
<path stroke-width="0.0712" stroke-linejoin="round" stroke-linecap="round" stroke="currentColor" fill="currentColor" d="M0.8529 3.0000C1.6137 3.7571 3.8983 3.7571 4.6591 3.0000L4.6591 3.0000C3.8983 3.6502 1.6137 3.6502 0.8529 3.0000z"/>
</g>
</a>
<a style="color:inherit;" xlink:href="textedit:///Users/marc.mouries/projects/Sheet-Music/Learn-Violin-with-Famous-Themes/Grieg_Solveigs-Song.ly:24:5:6">
<g transform="translate(22.2615, 23.6818)">
<path transform="scale(0.0040, -0.0040)" d="M-4 79c0 59 125 82 125 181c0 24 -8 47 -24 67l-39 46c-2 3 -3 6 -3 9c0 7 7 14 14 14c3 0 7 -1 10 -5l152 -182c7 -8 10 -17 10 -25c0 -59 -125 -82 -125 -181c0 -24 8 -47 24 -67l87 -104c2 -3 3 -5 3 -8c0 -7 -7 -14 -14 -14c-6 0 -48 48 -112 48
c-14 0 -52 -1 -52 -70c0 -35 11 -75 28 -96c6 -7 -4 -16 -10 -9c-46 55 -93 150 -93 204c0 12 0 40 36 40c34 0 85 -15 130 -37l-137 164c-7 8 -10 17 -10 25z" fill="currentColor"/>
</g>
</a>
<a style="color:inherit;" xlink:href="textedit:///Users/marc.mouries/projects/Sheet-Music/Learn-Violin-with-Famous-Themes/Grieg_Solveigs-Song.ly:24:8:9">
<g transform="translate(24.9206, 25.8818)">
<path transform="scale(0.0040, -0.0040)" d="M222 135c64 0 104 -35 104 -86c0 -89 -114 -184 -221 -184c-64 0 -105 35 -105 86c0 89 115 184 222 184z" fill="currentColor"/>
</g>
</a>
<g transform="translate(26.1685, 23.6818)">
<rect x="-0.0579" y="-1.6500" width="0.1158" height="3.6533" ry="0.0333" fill="currentColor"/>
</g>
<g transform="translate(73.7624, 21.7013)">
<polygon stroke-linejoin="round" stroke-linecap="round" stroke-width="0.0667" fill="currentColor" stroke="currentColor" points="1.7155 0.4304 1.7155 0.8917 0.0333 0.2307 0.0333 -0.2307"/>
</g>
<g transform="translate(73.7624, 22.5818)">
<polygon stroke-linejoin="round" stroke-linecap="round" stroke-width="0.0667" fill="currentColor" stroke="currentColor" points="1.1245 0.2070 1.1245 0.6683 0.0333 0.2307 0.0333 -0.2307"/>
</g>
<a style="color:inherit;" xlink:href="textedit:///Users/marc.mouries/projects/Sheet-Music/Learn-Violin-with-Famous-Themes/Grieg_Solveigs-Song.ly:28:27:28">
<g transform="translate(74.2054, 23.6818)">
<path stroke-width="0.0712" stroke-linejoin="round" stroke-linecap="round" stroke="currentColor" fill="currentColor" d="M0.8529 3.0000C1.3872 3.6065 2.5788 3.6065 3.1131 3.0000L3.1131 3.0000C2.5788 3.4996 1.3872 3.4996 0.8529 3.0000z"/>
</g>
</a>
<a style="color:inherit;" xlink:href="textedit:///Users/marc.mouries/projects/Sheet-Music/Learn-Violin-with-Famous-Themes/Grieg_Solveigs-Song.ly:26:4:5">
<g transform="translate(30.6521, 24.2318)">
<path transform="scale(0.0040, -0.0040)" d="M222 135c64 0 104 -35 104 -86c0 -89 -114 -184 -221 -184c-64 0 -105 35 -105 86c0 89 115 184 222 184z" fill="currentColor"/>
</g>
</a>
<g transform="translate(64.1255, 20.3818)">
<polygon stroke-linejoin="round" stroke-linecap="round" stroke-width="0.0667" fill="currentColor" stroke="currentColor" points="7.5590 0.6499 7.5590 1.1112 0.0333 0.2307 0.0333 -0.2307"/>
</g>
<g transform="translate(31.9000, 23.6818)">
<rect x="-0.0579" y="-3.3000" width="0.1158" height="3.6533" ry="0.0333" fill="currentColor"/>
</g>
<a style="color:inherit;" xlink:href="textedit:///Users/marc.mouries/projects/Sheet-Music/Learn-Violin-with-Famous-Themes/Grieg_Solveigs-Song.ly:28:20:21">
<g transform="translate(72.5723, 23.6818)">
<path stroke-width="0.0712" stroke-linejoin="round" stroke-linecap="round" stroke="currentColor" fill="currentColor" d="M0.4366 2.3539C0.6475 3.0592 1.3547 3.4641 2.0697 3.2889L2.0697 3.2889C1.4078 3.3714 0.7006 2.9665 0.4366 2.3539z"/>
</g>
</a>
<a style="color:inherit;" xlink:href="textedit:///Users/marc.mouries/projects/Sheet-Music/Learn-Violin-with-Famous-Themes/Grieg_Solveigs-Song.ly:26:8:9">
<g transform="translate(33.6873, 23.6818)">
<path transform="scale(0.0040, -0.0040)" d="M222 135c64 0 104 -35 104 -86c0 -89 -114 -184 -221 -184c-64 0 -105 35 -105 86c0 89 115 184 222 184z" fill="currentColor"/>
</g>
</a>
<g transform="translate(33.7452, 23.6818)">
<rect x="-0.0579" y="0.1967" width="0.1158" height="3.0977" ry="0.0333" fill="currentColor"/>
</g>
<g transform="translate(57.5765, 26.7624)">
<polygon stroke-linejoin="round" stroke-linecap="round" stroke-width="0.0667" fill="currentColor" stroke="currentColor" points="2.4928 -0.8917 2.4928 -0.4304 0.0333 0.2307 0.0333 -0.2307"/>
</g>
<a style="color:inherit;" xlink:href="textedit:///Users/marc.mouries/projects/Sheet-Music/Learn-Violin-with-Famous-Themes/Grieg_Solveigs-Song.ly:26:11:12">
<g transform="translate(35.8477, 23.1318)">
<path transform="scale(0.0040, -0.0040)" d="M222 135c64 0 104 -35 104 -86c0 -89 -114 -184 -221 -184c-64 0 -105 35 -105 86c0 89 115 184 222 184z" fill="currentColor"/>
</g>
</a>
<g transform="translate(35.9056, 23.6818)">
<rect x="-0.0579" y="-0.3533" width="0.1158" height="3.4394" ry="0.0333" fill="currentColor"/>
</g>
<a style="color:inherit;" xlink:href="textedit:///Users/marc.mouries/projects/Sheet-Music/Learn-Violin-with-Famous-Themes/Grieg_Solveigs-Song.ly:28:6:7">
<g transform="translate(62.9355, 23.6818)">
<path stroke-width="0.0712" stroke-linejoin="round" stroke-linecap="round" stroke="currentColor" fill="currentColor" d="M0.5161 0.5577C0.9268 1.3637 1.8927 1.6834 2.6765 1.2727L2.6765 1.2727C1.9262 1.5819 0.9604 1.2622 0.5161 0.5577z"/>
</g>
</a>
<a style="color:inherit;" xlink:href="textedit:///Users/marc.mouries/projects/Sheet-Music/Learn-Violin-with-Famous-Themes/Grieg_Solveigs-Song.ly:26:14:15">
<g transform="translate(38.0081, 22.5818)">
<path transform="scale(0.0040, -0.0040)" d="M222 135c64 0 104 -35 104 -86c0 -89 -114 -184 -221 -184c-64 0 -105 35 -105 86c0 89 115 184 222 184z" fill="currentColor"/>
</g>
</a>
<g transform="translate(38.0659, 23.6818)">
<rect x="-0.0579" y="-0.9033" width="0.1158" height="3.6533" ry="0.0333" fill="currentColor"/>
</g>
<a style="color:inherit;" xlink:href="textedit:///Users/marc.mouries/projects/Sheet-Music/Learn-Violin-with-Famous-Themes/Grieg_Solveigs-Song.ly:27:19:20">
<g transform="translate(57.5765, 23.6818)">
<path stroke-width="0.0712" stroke-linejoin="round" stroke-linecap="round" stroke="currentColor" fill="currentColor" d="M0.4722 -0.5389C0.8442 -1.4475 1.9524 -1.9533 2.8826 -1.6389L2.8826 -1.6389C1.9968 -1.8560 0.8886 -1.3503 0.4722 -0.5389z"/>
</g>
</a>
<a style="color:inherit;" xlink:href="textedit:///Users/marc.mouries/projects/Sheet-Music/Learn-Violin-with-Famous-Themes/Grieg_Solveigs-Song.ly:26:18:19">
<g transform="translate(41.0230, 22.0318)">
<path transform="scale(0.0040, -0.0040)" d="M222 135c64 0 104 -35 104 -86c0 -89 -114 -184 -221 -184c-64 0 -105 35 -105 86c0 89 115 184 222 184z" fill="currentColor"/>
</g>
</a>
<g transform="translate(41.0808, 23.6818)">
<rect x="-0.0579" y="-1.4533" width="0.1158" height="2.7672" ry="0.0333" fill="currentColor"/>
</g>
<g transform="translate(46.2619, 25.0013)">
<polygon stroke-linejoin="round" stroke-linecap="round" stroke-width="0.0667" fill="currentColor" stroke="currentColor" points="6.3135 0.6499 6.3135 1.1112 0.0333 0.2307 0.0333 -0.2307"/>
</g>
<a style="color:inherit;" xlink:href="textedit:///Users/marc.mouries/projects/Sheet-Music/Learn-Violin-with-Famous-Themes/Grieg_Solveigs-Song.ly:26:21:22">
<g transform="translate(43.1833, 21.4818)">
<path transform="scale(0.0040, -0.0040)" d="M222 135c64 0 104 -35 104 -86c0 -89 -114 -184 -221 -184c-64 0 -105 35 -105 86c0 89 115 184 222 184z" fill="currentColor"/>
</g>
</a>
<g transform="translate(43.2412, 23.6818)">
<rect x="-0.0579" y="-2.0033" width="0.1158" height="3.1089" ry="0.0333" fill="currentColor"/>
</g>
<g transform="translate(41.0230, 25.0013)">
<polygon stroke-linejoin="round" stroke-linecap="round" stroke-width="0.0667" fill="currentColor" stroke="currentColor" points="2.2428 -0.4501 2.2428 0.0112 0.0333 0.2307 0.0333 -0.2307"/>
</g>
<a style="color:inherit;" xlink:href="textedit:///Users/marc.mouries/projects/Sheet-Music/Learn-Violin-with-Famous-Themes/Grieg_Solveigs-Song.ly:27:5:6">
<g transform="translate(46.2619, 23.6818)">
<path stroke-width="0.0712" stroke-linejoin="round" stroke-linecap="round" stroke="currentColor" fill="currentColor" d="M0.7603 -3.2889C1.5033 -3.7022 2.4657 -3.4572 2.9207 -2.7389L2.9207 -2.7389C2.4393 -3.3536 1.4770 -3.5987 0.7603 -3.2889z"/>
</g>
</a>
<a style="color:inherit;" xlink:href="textedit:///Users/marc.mouries/projects/Sheet-Music/Learn-Violin-with-Famous-Themes/Grieg_Solveigs-Song.ly:27:4:5">
<g transform="translate(46.2619, 21.4818)">
<path transform="scale(0.0040, -0.0040)" d="M222 135c64 0 104 -35 104 -86c0 -89 -114 -184 -221 -184c-64 0 -105 35 -105 86c0 89 115 184 222 184z" fill="currentColor"/>
</g>
</a>
<g transform="translate(46.3198, 23.6818)">
<rect x="-0.0579" y="-2.0033" width="0.1158" height="3.3308" ry="0.0333" fill="currentColor"/>
</g>
<g transform="translate(33.6873, 26.9818)">
<polygon stroke-linejoin="round" stroke-linecap="round" stroke-width="0.0667" fill="currentColor" stroke="currentColor" points="2.2428 -0.4501 2.2428 0.0112 0.0333 0.2307 0.0333 -0.2307"/>
</g>
<a style="color:inherit;" xlink:href="textedit:///Users/marc.mouries/projects/Sheet-Music/Learn-Violin-with-Famous-Themes/Grieg_Solveigs-Song.ly:27:7:8">
<g transform="translate(48.4223, 22.0318)">
<path transform="scale(0.0040, -0.0040)" d="M222 135c64 0 104 -35 104 -86c0 -89 -114 -184 -221 -184c-64 0 -105 35 -105 86c0 89 115 184 222 184z" fill="currentColor"/>
</g>
</a>
<g transform="translate(48.4801, 23.6818)">
<rect x="-0.0579" y="-1.4533" width="0.1158" height="3.0805" ry="0.0333" fill="currentColor"/>
</g>
<a style="color:inherit;" xlink:href="textedit:///Users/marc.mouries/projects/Sheet-Music/Learn-Violin-with-Famous-Themes/Grieg_Solveigs-Song.ly:26:16:17">
<g transform="translate(38.0081, 23.6818)">
<path stroke-width="0.0712" stroke-linejoin="round" stroke-linecap="round" stroke="currentColor" fill="currentColor" d="M0.5755 -2.3539C1.5832 -3.6631 4.3487 -4.1627 5.7508 -3.2889L5.7508 -3.2889C4.3677 -4.0576 1.6022 -3.5579 0.5755 -2.3539z"/>
</g>
</a>
<a style="color:inherit;" xlink:href="textedit:///Users/marc.mouries/projects/Sheet-Music/Learn-Violin-with-Famous-Themes/Grieg_Solveigs-Song.ly:27:10:11">
<g transform="translate(50.5826, 22.0318)">
<path transform="scale(0.0040, -0.0040)" d="M222 135c64 0 104 -35 104 -86c0 -89 -114 -184 -221 -184c-64 0 -105 35 -105 86c0 89 115 184 222 184z" fill="currentColor"/>
</g>
</a>
<g transform="translate(50.6405, 23.6818)">
<rect x="-0.0579" y="-1.4533" width="0.1158" height="3.3802" ry="0.0333" fill="currentColor"/>
</g>
<a style="color:inherit;" xlink:href="textedit:///Users/marc.mouries/projects/Sheet-Music/Learn-Violin-with-Famous-Themes/Grieg_Solveigs-Song.ly:26:6:7">
<g transform="translate(30.6521, 23.6818)">
<path stroke-width="0.0712" stroke-linejoin="round" stroke-linecap="round" stroke="currentColor" fill="currentColor" d="M1.6058 -0.5389C2.3723 -1.7432 4.4756 -2.3030 5.7393 -1.6389L5.7393 -1.6389C4.5031 -2.1997 2.3997 -1.6400 1.6058 -0.5389z"/>
</g>
</a>
<a style="color:inherit;" xlink:href="textedit:///Users/marc.mouries/projects/Sheet-Music/Learn-Violin-with-Famous-Themes/Grieg_Solveigs-Song.ly:27:12:13">
<g transform="translate(52.4930, 23.1318)">
<path transform="scale(0.0040, -0.0040)" d="M222 135c64 0 104 -35 104 -86c0 -89 -114 -184 -221 -184c-64 0 -105 35 -105 86c0 89 115 184 222 184z" fill="currentColor"/>
</g>
</a>
<g transform="translate(52.5509, 23.6818)">
<rect x="-0.0579" y="-0.3533" width="0.1158" height="2.5452" ry="0.0333" fill="currentColor"/>
</g>
<a style="color:inherit;" xlink:href="textedit:///Users/marc.mouries/projects/Sheet-Music/Learn-Violin-with-Famous-Themes/Grieg_Solveigs-Song.ly:27:14:15">
<g transform="translate(54.5616, 24.2318)">
<path transform="scale(0.0040, -0.0040)" d="M222 135c64 0 104 -35 104 -86c0 -89 -114 -184 -221 -184c-64 0 -105 35 -105 86c0 89 115 184 222 184z" fill="currentColor"/>
</g>
</a>
<g transform="translate(55.8095, 23.6818)">
<rect x="-0.0579" y="-3.3000" width="0.1158" height="3.6533" ry="0.0333" fill="currentColor"/>
</g>
<a style="color:inherit;" xlink:href="textedit:///Users/marc.mouries/projects/Sheet-Music/Learn-Violin-with-Famous-Themes/Grieg_Solveigs-Song.ly:27:17:18">
<g transform="translate(57.5765, 24.2318)">
<path transform="scale(0.0040, -0.0040)" d="M222 135c64 0 104 -35 104 -86c0 -89 -114 -184 -221 -184c-64 0 -105 35 -105 86c0 89 115 184 222 184z" fill="currentColor"/>
</g>
</a>
<g transform="translate(57.6344, 23.6818)">
<rect x="-0.0579" y="0.7467" width="0.1158" height="2.3186" ry="0.0333" fill="currentColor"/>
</g>
<a style="color:inherit;" xlink:href="textedit:///Users/marc.mouries/projects/Sheet-Music/Learn-Violin-with-Famous-Themes/Grieg_Solveigs-Song.ly:27:21:22">
<g transform="translate(59.9869, 23.1318)">
<path transform="scale(0.0040, -0.0040)" d="M222 135c64 0 104 -35 104 -86c0 -89 -114 -184 -221 -184c-64 0 -105 35 -105 86c0 89 115 184 222 184z" fill="currentColor"/>
</g>
</a>
<g transform="translate(60.0447, 23.6818)">
<rect x="-0.0579" y="-0.3533" width="0.1158" height="2.7879" ry="0.0333" fill="currentColor"/>
</g>
<a style="color:inherit;" xlink:href="textedit:///Users/marc.mouries/projects/Sheet-Music/Learn-Violin-with-Famous-Themes/Grieg_Solveigs-Song.ly:28:4:5">
<g transform="translate(62.9355, 23.1318)">
<path transform="scale(0.0040, -0.0040)" d="M222 135c64 0 104 -35 104 -86c0 -89 -114 -184 -221 -184c-64 0 -105 35 -105 86c0 89 115 184 222 184z" fill="currentColor"/>
</g>
</a>
<g transform="translate(64.1834, 23.6818)">
<rect x="-0.0579" y="-3.2933" width="0.1158" height="2.5466" ry="0.0333" fill="currentColor"/>
</g>
<a style="color:inherit;" xlink:href="textedit:///Users/marc.mouries/projects/Sheet-Music/Learn-Violin-with-Famous-Themes/Grieg_Solveigs-Song.ly:28:8:9">
<g transform="translate(65.0958, 23.6818)">
<path transform="scale(0.0040, -0.0040)" d="M222 135c64 0 104 -35 104 -86c0 -89 -114 -184 -221 -184c-64 0 -105 35 -105 86c0 89 115 184 222 184z" fill="currentColor"/>
</g>
</a>
<g transform="translate(66.3437, 23.6818)">
<rect x="-0.0579" y="-3.0427" width="0.1158" height="2.8460" ry="0.0333" fill="currentColor"/>
</g>
<a style="color:inherit;" xlink:href="textedit:///Users/marc.mouries/projects/Sheet-Music/Learn-Violin-with-Famous-Themes/Grieg_Solveigs-Song.ly:28:11:12">
<g transform="translate(67.2562, 23.6818)">
<path transform="scale(0.0040, -0.0040)" d="M222 135c64 0 104 -35 104 -86c0 -89 -114 -184 -221 -184c-64 0 -105 35 -105 86c0 89 115 184 222 184z" fill="currentColor"/>
</g>
</a>
<g transform="translate(68.5041, 23.6818)">
<rect x="-0.0579" y="-2.7922" width="0.1158" height="2.5955" ry="0.0333" fill="currentColor"/>
</g>
<a style="color:inherit;" xlink:href="textedit:///Users/marc.mouries/projects/Sheet-Music/Learn-Violin-with-Famous-Themes/Grieg_Solveigs-Song.ly:28:13:14">
<g transform="translate(70.4120, 24.7818)">
<path transform="scale(0.0040, -0.0040)" d="M222 135c64 0 104 -35 104 -86c0 -89 -114 -184 -221 -184c-64 0 -105 35 -105 86c0 89 115 184 222 184z" fill="currentColor"/>
</g>
</a>
<g transform="translate(71.6599, 23.6818)">
<rect x="-0.0579" y="-2.4262" width="0.1158" height="3.3295" ry="0.0333" fill="currentColor"/>
</g>
<g transform="translate(68.9620, 24.7818)">
<path transform="scale(0.0040, -0.0040)" d="M0 121c0 7 5 13 11 15l49 17v163c0 9 8 17 17 17s17 -8 17 -17v-151l87 31v162c0 9 8 17 17 17s17 -8 17 -17v-150l39 13c10 4 21 -4 21 -15v-64c0 -7 -5 -13 -11 -15l-49 -18v-164l39 14c10 4 21 -4 21 -15v-65c0 -7 -5 -13 -11 -15l-49 -17v-163c0 -9 -8 -17 -17 -17
s-17 8 -17 17v151l-87 -31v-162c0 -9 -8 -17 -17 -17s-17 8 -17 17v150l-39 -13c-10 -4 -21 4 -21 15v64c0 7 5 13 11 15l49 18v164l-39 -14c-10 -4 -21 4 -21 15v65zM181 97l-87 -30v-164l87 30v164z" fill="currentColor"/>
</g>
<a style="color:inherit;" xlink:href="textedit:///Users/marc.mouries/projects/Sheet-Music/Learn-Violin-with-Famous-Themes/Grieg_Solveigs-Song.ly:28:16:17">
<g transform="translate(72.5723, 24.7818)">
<path transform="scale(0.0040, -0.0040)" d="M222 135c64 0 104 -35 104 -86c0 -89 -114 -184 -221 -184c-64 0 -105 35 -105 86c0 89 115 184 222 184z" fill="currentColor"/>
</g>
</a>
<g transform="translate(73.8203, 23.6818)">
<rect x="-0.0579" y="-1.9586" width="0.1158" height="2.8619" ry="0.0333" fill="currentColor"/>
</g>
<a style="color:inherit;" xlink:href="textedit:///Users/marc.mouries/projects/Sheet-Music/Learn-Violin-with-Famous-Themes/Grieg_Solveigs-Song.ly:28:22:23">
<g transform="translate(74.2054, 25.8818)">
<path transform="scale(0.0040, -0.0040)" d="M222 135c64 0 104 -35 104 -86c0 -89 -114 -184 -221 -184c-64 0 -105 35 -105 86c0 89 115 184 222 184z" fill="currentColor"/>
</g>
</a>
<g transform="translate(75.9680, 25.3318)">
<path transform="scale(0.0040, -0.0040)" d="M0 0c0 32 25 57 57 57s57 -25 57 -57s-25 -57 -57 -57s-57 25 -57 57z" fill="currentColor"/>
</g>
<g transform="translate(75.4533, 23.6818)">
<rect x="-0.0579" y="-1.3414" width="0.1158" height="3.3446" ry="0.0333" fill="currentColor"/>
</g>
<a style="color:inherit;" xlink:href="textedit:///Users/marc.mouries/projects/Sheet-Music/Learn-Violin-with-Famous-Themes/Grieg_Solveigs-Song.ly:28:29:30">
<g transform="translate(76.8657, 25.8818)">
<path transform="scale(0.0040, -0.0040)" d="M222 135c64 0 104 -35 104 -86c0 -89 -114 -184 -221 -184c-64 0 -105 35 -105 86c0 89 115 184 222 184z" fill="currentColor"/>
</g>
</a>
<g transform="translate(78.1136, 23.6818)">
<rect x="-0.0579" y="-1.6500" width="0.1158" height="3.6533" ry="0.0333" fill="currentColor"/>
</g>
<a style="color:inherit;" xlink:href="textedit:///Users/marc.mouries/projects/Sheet-Music/Learn-Violin-with-Famous-Themes/Grieg_Solveigs-Song.ly:29:4:5">
<g transform="translate(81.0718, 25.8818)">
<path transform="scale(0.0040, -0.0040)" d="M222 135c64 0 104 -35 104 -86c0 -89 -114 -184 -221 -184c-64 0 -105 35 -105 86c0 89 115 184 222 184z" fill="currentColor"/>
</g>
</a>
<g transform="translate(82.3198, 23.6818)">
<rect x="-0.0579" y="-1.6500" width="0.1158" height="3.6533" ry="0.0333" fill="currentColor"/>
</g>
<g transform="translate(82.3776, 22.0652)">
<path transform="scale(0.0040, -0.0040)" d="M0 0v-250h-14v250h14zM0 0c0 -198 207 -336 207 -534c0 -71 -16 -142 -42 -208c-4 -7 -10 -11 -17 -11c-12 0 -24 10 -21 25c26 62 41 127 41 194c0 104 -96 209 -168 284v250z" fill="currentColor"/>
</g>
<a style="color:inherit;" xlink:href="textedit:///Users/marc.mouries/projects/Sheet-Music/Learn-Violin-with-Famous-Themes/Grieg_Solveigs-Song.ly:29:7:8">
<g transform="translate(83.4470, 23.6818)">
<path transform="scale(0.0040, -0.0040)" d="M69 205c78 0 47 -100 92 -100c17 0 58 54 65 70c5 11 20 11 24 0l-126 -425c-7 -6 -16 -9 -24 -9s-17 3 -24 9l116 327c-35 -12 -70 -23 -107 -23c-47 0 -87 35 -87 80c0 39 31 71 71 71z" fill="currentColor"/>
</g>
</a>
<g transform="translate(91.8677, 23.6818)">
<rect x="-0.0579" y="-1.6500" width="0.1158" height="3.6533" ry="0.0333" fill="currentColor"/>
</g>
<a style="color:inherit;" xlink:href="textedit:///Users/marc.mouries/projects/Sheet-Music/Learn-Violin-with-Famous-Themes/Grieg_Solveigs-Song.ly:29:10:11">
<g transform="translate(85.3016, 23.6818)">
<path transform="scale(0.0040, -0.0040)" d="M-4 79c0 59 125 82 125 181c0 24 -8 47 -24 67l-39 46c-2 3 -3 6 -3 9c0 7 7 14 14 14c3 0 7 -1 10 -5l152 -182c7 -8 10 -17 10 -25c0 -59 -125 -82 -125 -181c0 -24 8 -47 24 -67l87 -104c2 -3 3 -5 3 -8c0 -7 -7 -14 -14 -14c-6 0 -48 48 -112 48
c-14 0 -52 -1 -52 -70c0 -35 11 -75 28 -96c6 -7 -4 -16 -10 -9c-46 55 -93 150 -93 204c0 12 0 40 36 40c34 0 85 -15 130 -37l-137 164c-7 8 -10 17 -10 25z" fill="currentColor"/>
</g>
</a>
<a style="color:inherit;" xlink:href="textedit:///Users/marc.mouries/projects/Sheet-Music/Learn-Violin-with-Famous-Themes/Grieg_Solveigs-Song.ly:29:16:17">
<g transform="translate(90.6198, 25.8818)">
<path transform="scale(0.0040, -0.0040)" d="M222 135c64 0 104 -35 104 -86c0 -89 -114 -184 -221 -184c-64 0 -105 35 -105 86c0 89 115 184 222 184z" fill="currentColor"/>
</g>
</a>
<a style="color:inherit;" xlink:href="textedit:///Users/marc.mouries/projects/Sheet-Music/Learn-Violin-with-Famous-Themes/Grieg_Solveigs-Song.ly:29:13:14">
<g transform="translate(87.9607, 23.6818)">
<path transform="scale(0.0040, -0.0040)" d="M-4 79c0 59 125 82 125 181c0 24 -8 47 -24 67l-39 46c-2 3 -3 6 -3 9c0 7 7 14 14 14c3 0 7 -1 10 -5l152 -182c7 -8 10 -17 10 -25c0 -59 -125 -82 -125 -181c0 -24 8 -47 24 -67l87 -104c2 -3 3 -5 3 -8c0 -7 -7 -14 -14 -14c-6 0 -48 48 -112 48
c-14 0 -52 -1 -52 -70c0 -35 11 -75 28 -96c6 -7 -4 -16 -10 -9c-46 55 -93 150 -93 204c0 12 0 40 36 40c34 0 85 -15 130 -37l-137 164c-7 8 -10 17 -10 25z" fill="currentColor"/>
</g>
</a>
<g transform="translate(49.3086, 137.9729)">
<text font-family="serif" font-size="1.9603" text-anchor="start" fill="currentColor">
<tspan>6</tspan>
</text>
</g>
</svg>
