<svg xmlns="http://www.w3.org/2000/svg" xmlns:xlink="http://www.w3.org/1999/xlink" version="1.2" width="210.00mm" height="297.00mm" viewBox="0.0000 -0.0000 99.5846 140.8411">
<style type="text/css">
<![CDATA[
tspan { white-space: pre; }
]]>
</style>
<g transform="translate(49.5220, 2.3711)">
<text font-family="serif" font-size="2.2002" text-anchor="start" fill="currentColor">
<tspan> </tspan>
</text>
</g>
<g transform="translate(34.2856, 6.4422)">
<text font-family="Optima" font-weight="bold" font-size="4.3999" text-anchor="start" fill="currentColor">
<tspan>T</tspan>
</text>
</g>
<g transform="translate(36.7325, 6.4422)">
<text font-family="Optima" font-weight="bold" font-size="3.4922" text-anchor="start" fill="currentColor">
<tspan>OREADOR</tspan>
</text>
</g>
<g transform="translate(53.5765, 6.4422)">
<text font-family="Optima" font-weight="bold" font-size="4.3999" text-anchor="start" fill="currentColor">
<tspan> S</tspan>
</text>
</g>
<g transform="translate(56.9909, 6.4422)">
<text font-family="Optima" font-weight="bold" font-size="3.4922" text-anchor="start" fill="currentColor">
<tspan>ONG</tspan>
</text>
</g>
<g transform="translate(83.1484, 6.4422)">
<text font-family="Optima" font-size="1.9598" text-anchor="start" fill="currentColor">
<tspan>Georges Bizet</tspan>
</text>
</g>
<g transform="translate(9.4843, 26.5046)">
<line stroke-linejoin="round" stroke-linecap="round" stroke-width="0.0890" stroke="currentColor" x1="0.0445" y1="0" x2="85.3137" y2="0"/>
</g>
<g transform="translate(9.4843, 25.4046)">
<line stroke-linejoin="round" stroke-linecap="round" stroke-width="0.0890" stroke="currentColor" x1="0.0445" y1="0" x2="85.3137" y2="0"/>
</g>
<g transform="translate(9.4843, 24.3046)">
<line stroke-linejoin="round" stroke-linecap="round" stroke-width="0.0890" stroke="currentColor" x1="0.0445" y1="0" x2="85.3137" y2="0"/>
</g>
<g transform="translate(9.4843, 23.2046)">
<line stroke-linejoin="round" stroke-linecap="round" stroke-width="0.0890" stroke="currentColor" x1="0.0445" y1="0" x2="85.3137" y2="0"/>
</g>
<g transform="translate(9.4843, 22.1046)">
<line stroke-linejoin="round" stroke-linecap="round" stroke-width="0.0890" stroke="currentColor" x1="0.0445" y1="0" x2="85.3137" y2="0"/>
</g>
<g transform="translate(94.3082, 24.3046)">
<rect x="0.0000" y="-2.2000" width="0.5343" height="4.4000" ry="0.0000" fill="currentColor"/>
</g>
<g transform="translate(93.8719, 24.3046)">
<rect x="0.0000" y="-2.2000" width="0.1692" height="4.4000" ry="0.0000" fill="currentColor"/>
</g>
<g transform="translate(86.8533, 24.3046)">
<rect x="0.0000" y="-2.2000" width="0.1692" height="4.4000" ry="0.0000" fill="currentColor"/>
</g>
<g transform="translate(77.9358, 24.3046)">
<rect x="0.0000" y="-2.2000" width="0.1692" height="4.4000" ry="0.0000" fill="currentColor"/>
</g>
<g transform="translate(67.6448, 24.3046)">
<rect x="0.0000" y="-2.2000" width="0.1692" height="4.4000" ry="0.0000" fill="currentColor"/>
</g>
<g transform="translate(57.7050, 24.3046)">
<rect x="0.0000" y="-2.2000" width="0.1692" height="4.4000" ry="0.0000" fill="currentColor"/>
</g>
<g transform="translate(48.8488, 24.3046)">
<rect x="0.0000" y="-2.2000" width="0.1692" height="4.4000" ry="0.0000" fill="currentColor"/>
</g>
<g transform="translate(38.6255, 24.3046)">
<rect x="0.0000" y="-2.2000" width="0.1692" height="4.4000" ry="0.0000" fill="currentColor"/>
</g>
<g transform="translate(28.6421, 24.3046)">
<rect x="0.0000" y="-2.2000" width="0.1692" height="4.4000" ry="0.0000" fill="currentColor"/>
</g>
<a style="color:inherit;" xlink:href="textedit:///Users/marc.mouries/projects/Sheet-Music/Learn-Violin-with-Famous-Themes/Bizet_Toreador-Song.ly:26:4:5">
<g transform="translate(20.0558, 27.0546)">
<path transform="scale(0.0040, -0.0040)" d="M-50 0c0 28 22 50 50 50s50 -22 50 -50s-22 -50 -50 -50s-50 22 -50 50z" fill="currentColor"/>
</g>
</a>
<g transform="translate(10.2843, 25.4046)">
<path transform="scale(0.0040, -0.0040)" d="M264 -594c47 0 165 26 165 246c0 32 -2 64 -5 96c-5 -1 -44 -8 -89 -8c-193 0 -333 178 -333 372c0 178 133 306 251 440c-27 93 -49 170 -49 345c0 116 55 226 150 295c5 4 11 4 16 0c67 -81 132 -246 132 -359c0 -144 -87 -256 -183 -365c20 -69 39 -138 55 -208
c2 0 7 1 15 1c154 0 254 -127 254 -259c0 -112 -73 -212 -180 -245c3 -36 5 -72 5 -108c0 -19 0 -37 -1 -56c-7 -120 -89 -226 -206 -226c-108 0 -195 87 -195 195c0 58 53 104 112 104c54 0 95 -48 95 -104c0 -52 -43 -95 -95 -95c-12 0 -24 4 -35 9c26 -41 70 -70 121 -70
zM459 -205c71 24 117 92 117 166c0 92 -69 184 -179 193c1 -5 45 -212 62 -359zM71 31c0 -146 142 -251 267 -251c1 0 46 0 82 6c-7 63 -28 201 -64 367c-79 -9 -125 -62 -125 -121c0 -44 26 -92 82 -124c4 -4 7 -9 7 -14c0 -11 -9 -21 -20 -21c-14 0 -125 62 -125 186
c0 88 57 173 158 196c-14 60 -30 119 -46 178c-108 -121 -216 -242 -216 -402zM411 1050c-99 -50 -161 -151 -161 -262c0 -59 11 -123 33 -200c82 97 149 198 149 325c0 35 0 69 -21 137z" fill="currentColor"/>
</g>
<a style="color:inherit;" xlink:href="textedit:///Users/marc.mouries/projects/Sheet-Music/Learn-Violin-with-Famous-Themes/Bizet_Toreador-Song.ly:21:2:3">
<g transform="translate(13.8880, 24.3046)">
<path transform="scale(0.0040, -0.0040)" d="M25 44l-1 -69c0 -4 -1 -7 -1 -11c0 -22 2 -44 4 -66c46 38 96 80 96 139c0 34 -14 69 -44 69c-31 0 -53 -29 -54 -62zM-25 463c8 4 16 7 25 7s17 -3 25 -7l-6 -349c26 19 56 30 88 30c53 0 93 -46 93 -100c0 -82 -90 -118 -153 -169c-14 -11 -22 -32 -40 -32
c-12 0 -21 9 -21 21z" fill="currentColor"/>
</g>
</a>
<a style="color:inherit;" xlink:href="textedit:///Users/marc.mouries/projects/Sheet-Music/Learn-Violin-with-Famous-Themes/Bizet_Toreador-Song.ly:22:2:3">
<g transform="translate(15.9091, 24.3046)">
<path transform="scale(0.0040, -0.0040)" d="M227 0c-87 0 -89 65 -144 65c-30 0 -59 -21 -62 -55c-1 -7 -5 -10 -10 -10s-11 3 -11 10c0 154 232 171 232 345c0 60 -19 124 -71 124c-24 0 -46 -15 -46 -37c0 -27 35 -41 35 -68c0 -38 -31 -69 -69 -69s-68 31 -68 69c0 74 70 126 148 126c93 0 180 -58 180 -145
c0 -156 -160 -160 -254 -229c12 3 25 5 38 5c81 0 111 -58 171 -58c46 0 36 36 52 36c5 0 11 -4 11 -10c0 -21 -41 -99 -132 -99z" fill="currentColor"/>
</g>
<g transform="translate(15.8380, 26.3205)">
<path transform="scale(0.0040, -0.0040)" d="M-2 146c0 13 148 151 148 339c0 10 7 18 15 15c22 -7 44 -13 67 -13s45 6 67 13c12 4 21 -8 15 -15l-283 -333h173v147c0 32 34 24 65 67c11 15 18 32 25 49c4 9 20 7 20 -7v-256h68c9 0 13 -7 13 -14s-4 -13 -13 -13h-68v-16c0 -45 26 -88 68 -88c7 0 10 -5 10 -10
s-3 -11 -10 -11c-41 0 -82 13 -123 13s-82 -13 -123 -13c-7 0 -10 6 -10 11s3 10 10 10c42 0 68 43 68 88v16h-173c-21 0 -29 13 -29 21z" fill="currentColor"/>
</g>
</a>
<a style="color:inherit;" xlink:href="textedit:///Users/marc.mouries/projects/Sheet-Music/Learn-Violin-with-Famous-Themes/Bizet_Toreador-Song.ly:23:2:3">
<g transform="translate(15.8380, 20.1228)">
<text font-family="serif" font-weight="bold" font-size="2.2002" text-anchor="start" fill="currentColor">
<tspan>Allegro moderato</tspan>
</text>
</g>
<g transform="translate(32.3406, 20.1228)">
<text font-family="serif" font-size="2.2002" text-anchor="start" fill="currentColor">
<tspan> (</tspan>
</text>
</g>
<g transform="translate(33.6210, 19.6401)">
<rect x="1.0470" y="-2.6727" width="0.1158" height="2.5018" ry="0.0193" fill="currentColor"/>
</g>
<g transform="translate(33.6210, 19.6401)">
<path transform="scale(0.0036, -0.0036)" d="M220 135c11 0 106 -2 106 -87c0 -89 -114 -183 -220 -183c-11 0 -106 2 -106 87c0 89 114 183 220 183z" fill="currentColor"/>
</g>
<g transform="translate(34.7838, 20.1228)">
<text font-family="serif" font-size="2.2002" text-anchor="start" fill="currentColor">
<tspan> = 120)</tspan>
</text>
</g>
</a>
<g transform="translate(20.6508, 24.3046)">
<rect x="-0.0579" y="-1.9805" width="0.1158" height="3.4338" ry="0.0333" fill="currentColor"/>
</g>
<g transform="translate(74.4234, 21.8851)">
<polygon stroke-linejoin="round" stroke-linecap="round" stroke-width="0.0667" fill="currentColor" stroke="currentColor" points="2.3329 -0.0112 2.3329 0.4501 0.0333 0.2307 0.0333 -0.2307"/>
</g>
<a style="color:inherit;" xlink:href="textedit:///Users/marc.mouries/projects/Sheet-Music/Learn-Violin-with-Famous-Themes/Bizet_Toreador-Song.ly:26:9:10">
<g transform="translate(21.6534, 25.9546)">
<path transform="scale(0.0040, -0.0040)" d="M222 135c64 0 104 -35 104 -86c0 -89 -114 -184 -221 -184c-64 0 -105 35 -105 86c0 89 115 184 222 184z" fill="currentColor"/>
</g>
</a>
<a style="color:inherit;" xlink:href="textedit:///Users/marc.mouries/projects/Sheet-Music/Learn-Violin-with-Famous-Themes/Bizet_Toreador-Song.ly:26:10:11">
<g transform="translate(22.3063, 27.0546)">
<path transform="scale(0.0040, -0.0040)" d="M-50 0c0 28 22 50 50 50s50 -22 50 -50s-22 -50 -50 -50s-50 22 -50 50z" fill="currentColor"/>
</g>
</a>
<g transform="translate(22.9013, 24.3046)">
<rect x="-0.0579" y="-1.9805" width="0.1158" height="3.4338" ry="0.0333" fill="currentColor"/>
</g>
<g transform="translate(68.7527, 27.3851)">
<polygon stroke-linejoin="round" stroke-linecap="round" stroke-width="0.0667" fill="currentColor" stroke="currentColor" points="2.3329 -0.0112 2.3329 0.4501 0.0333 0.2307 0.0333 -0.2307"/>
</g>
<a style="color:inherit;" xlink:href="textedit:///Users/marc.mouries/projects/Sheet-Music/Learn-Violin-with-Famous-Themes/Bizet_Toreador-Song.ly:26:13:14">
<g transform="translate(23.9039, 25.9546)">
<path transform="scale(0.0040, -0.0040)" d="M222 135c64 0 104 -35 104 -86c0 -89 -114 -184 -221 -184c-64 0 -105 35 -105 86c0 89 115 184 222 184z" fill="currentColor"/>
</g>
</a>
<a style="color:inherit;" xlink:href="textedit:///Users/marc.mouries/projects/Sheet-Music/Learn-Violin-with-Famous-Themes/Bizet_Toreador-Song.ly:26:14:15">
<g transform="translate(24.5568, 27.0546)">
<path transform="scale(0.0040, -0.0040)" d="M-50 0c0 28 22 50 50 50s50 -22 50 -50s-22 -50 -50 -50s-50 22 -50 50z" fill="currentColor"/>
</g>
</a>
<g transform="translate(25.1518, 24.3046)">
<rect x="-0.0579" y="-1.9805" width="0.1158" height="3.4338" ry="0.0333" fill="currentColor"/>
</g>
<g transform="translate(63.3453, 26.5046)">
<polygon stroke-linejoin="round" stroke-linecap="round" stroke-width="0.0667" fill="currentColor" stroke="currentColor" points="2.3329 -0.2307 2.3329 0.2307 0.0333 0.2307 0.0333 -0.2307"/>
</g>
<a style="color:inherit;" xlink:href="textedit:///Users/marc.mouries/projects/Sheet-Music/Learn-Violin-with-Famous-Themes/Bizet_Toreador-Song.ly:26:17:18">
<g transform="translate(26.1544, 25.9546)">
<path transform="scale(0.0040, -0.0040)" d="M222 135c64 0 104 -35 104 -86c0 -89 -114 -184 -221 -184c-64 0 -105 35 -105 86c0 89 115 184 222 184z" fill="currentColor"/>
</g>
</a>
<a style="color:inherit;" xlink:href="textedit:///Users/marc.mouries/projects/Sheet-Music/Learn-Violin-with-Famous-Themes/Bizet_Toreador-Song.ly:26:18:19">
<g transform="translate(26.8073, 27.0546)">
<path transform="scale(0.0040, -0.0040)" d="M-50 0c0 28 22 50 50 50s50 -22 50 -50s-22 -50 -50 -50s-50 22 -50 50z" fill="currentColor"/>
</g>
</a>
<g transform="translate(27.4023, 24.3046)">
<rect x="-0.0579" y="-1.9805" width="0.1158" height="3.4338" ry="0.0333" fill="currentColor"/>
</g>
<g transform="translate(58.8443, 26.5046)">
<polygon stroke-linejoin="round" stroke-linecap="round" stroke-width="0.0667" fill="currentColor" stroke="currentColor" points="2.3329 -0.2307 2.3329 0.2307 0.0333 0.2307 0.0333 -0.2307"/>
</g>
<g transform="translate(51.0229, 21.8851)">
<polygon stroke-linejoin="round" stroke-linecap="round" stroke-width="0.0667" fill="currentColor" stroke="currentColor" points="2.5829 -0.8917 2.5829 -0.4304 0.0333 0.2307 0.0333 -0.2307"/>
</g>
<a style="color:inherit;" xlink:href="textedit:///Users/marc.mouries/projects/Sheet-Music/Learn-Violin-with-Famous-Themes/Bizet_Toreador-Song.ly:27:2:3">
<g transform="translate(29.6262, 25.9546)">
<path transform="scale(0.0040, -0.0040)" d="M222 135c64 0 104 -35 104 -86c0 -89 -114 -184 -221 -184c-64 0 -105 35 -105 86c0 89 115 184 222 184z" fill="currentColor"/>
</g>
</a>
<a style="color:inherit;" xlink:href="textedit:///Users/marc.mouries/projects/Sheet-Music/Learn-Violin-with-Famous-Themes/Bizet_Toreador-Song.ly:26:6:7">
<g transform="translate(19.4156, 29.3245)">
<path transform="scale(0.0040, -0.0040)" d="M254 251l-51 -165c-30 -99 -121 -256 -218 -256c-45 0 -87 25 -87 65c0 39 17 77 52 77c24 0 44 -20 44 -44c0 -30 -38 -25 -38 -55c0 -10 11 -10 23 -10h6c50 0 60 61 73 113l69 275h-53c-9 0 -16 8 -16 17s7 17 16 17h62c31 97 119 193 214 193c45 0 87 -24 87 -64
c0 -39 -17 -78 -52 -78c-24 0 -44 20 -44 44c0 30 38 25 38 55c0 10 -10 11 -22 11c-2 0 -5 -1 -7 -1c-65 0 -70 -93 -87 -160h58c9 0 17 -8 17 -17s-8 -17 -17 -17h-67z" fill="currentColor"/>
</g>
</a>
<g transform="translate(30.8741, 24.3046)">
<rect x="-0.0579" y="-2.4341" width="0.1158" height="3.8874" ry="0.0333" fill="currentColor"/>
</g>
<g transform="translate(45.3006, 22.3241)">
<polygon stroke-linejoin="round" stroke-linecap="round" stroke-width="0.0667" fill="currentColor" stroke="currentColor" points="2.3329 -0.2307 2.3329 0.2307 0.0333 0.2307 0.0333 -0.2307"/>
</g>
<a style="color:inherit;" xlink:href="textedit:///Users/marc.mouries/projects/Sheet-Music/Learn-Violin-with-Famous-Themes/Bizet_Toreador-Song.ly:27:5:6">
<g transform="translate(32.1267, 24.8546)">
<path transform="scale(0.0040, -0.0040)" d="M222 135c64 0 104 -35 104 -86c0 -89 -114 -184 -221 -184c-64 0 -105 35 -105 86c0 89 115 184 222 184z" fill="currentColor"/>
</g>
</a>
<g transform="translate(33.3746, 24.3046)">
<rect x="-0.0579" y="-3.0659" width="0.1158" height="3.4192" ry="0.0333" fill="currentColor"/>
</g>
<g transform="translate(40.7996, 22.3241)">
<polygon stroke-linejoin="round" stroke-linecap="round" stroke-width="0.0667" fill="currentColor" stroke="currentColor" points="2.3329 -0.2307 2.3329 0.2307 0.0333 0.2307 0.0333 -0.2307"/>
</g>
<a style="color:inherit;" xlink:href="textedit:///Users/marc.mouries/projects/Sheet-Music/Learn-Violin-with-Famous-Themes/Bizet_Toreador-Song.ly:27:7:8">
<g transform="translate(34.4689, 23.7546)">
<path transform="scale(0.0040, -0.0040)" d="M222 135c64 0 104 -35 104 -86c0 -89 -114 -184 -221 -184c-64 0 -105 35 -105 86c0 89 115 184 222 184z" fill="currentColor"/>
</g>
</a>
<g transform="translate(34.5268, 24.3046)">
<rect x="-0.0579" y="-0.3533" width="0.1158" height="2.7908" ry="0.0333" fill="currentColor"/>
</g>
<g transform="translate(34.4689, 26.7241)">
<polygon stroke-linejoin="round" stroke-linecap="round" stroke-width="0.0667" fill="currentColor" stroke="currentColor" points="2.0829 0.4304 2.0829 0.8917 0.0333 0.2307 0.0333 -0.2307"/>
</g>
<a style="color:inherit;" xlink:href="textedit:///Users/marc.mouries/projects/Sheet-Music/Learn-Violin-with-Famous-Themes/Bizet_Toreador-Song.ly:27:9:10">
<g transform="translate(36.4694, 24.8546)">
<path transform="scale(0.0040, -0.0040)" d="M222 135c64 0 104 -35 104 -86c0 -89 -114 -184 -221 -184c-64 0 -105 35 -105 86c0 89 115 184 222 184z" fill="currentColor"/>
</g>
</a>
<g transform="translate(36.5273, 24.3046)">
<rect x="-0.0579" y="0.7467" width="0.1158" height="2.3157" ry="0.0333" fill="currentColor"/>
</g>
<g transform="translate(30.8162, 21.8851)">
<polygon stroke-linejoin="round" stroke-linecap="round" stroke-width="0.0667" fill="currentColor" stroke="currentColor" points="2.5829 -0.8917 2.5829 -0.4304 0.0333 0.2307 0.0333 -0.2307"/>
</g>
<g transform="translate(25.0939, 22.3241)">
<polygon stroke-linejoin="round" stroke-linecap="round" stroke-width="0.0667" fill="currentColor" stroke="currentColor" points="2.3329 -0.2307 2.3329 0.2307 0.0333 0.2307 0.0333 -0.2307"/>
</g>
<a style="color:inherit;" xlink:href="textedit:///Users/marc.mouries/projects/Sheet-Music/Learn-Violin-with-Famous-Themes/Bizet_Toreador-Song.ly:28:2:3">
<g transform="translate(39.6096, 25.9546)">
<path transform="scale(0.0040, -0.0040)" d="M222 135c64 0 104 -35 104 -86c0 -89 -114 -184 -221 -184c-64 0 -105 35 -105 86c0 89 115 184 222 184z" fill="currentColor"/>
</g>
</a>
<a style="color:inherit;" xlink:href="textedit:///Users/marc.mouries/projects/Sheet-Music/Learn-Violin-with-Famous-Themes/Bizet_Toreador-Song.ly:28:4:5">
<g transform="translate(40.2625, 27.0546)">
<path transform="scale(0.0040, -0.0040)" d="M-50 0c0 28 22 50 50 50s50 -22 50 -50s-22 -50 -50 -50s-50 22 -50 50z" fill="currentColor"/>
</g>
</a>
<a style="color:inherit;" xlink:href="textedit:///Users/marc.mouries/projects/Sheet-Music/Learn-Violin-with-Famous-Themes/Bizet_Toreador-Song.ly:26:2:3">
<g transform="translate(19.4029, 25.9546)">
<path transform="scale(0.0040, -0.0040)" d="M222 135c64 0 104 -35 104 -86c0 -89 -114 -184 -221 -184c-64 0 -105 35 -105 86c0 89 115 184 222 184z" fill="currentColor"/>
</g>
</a>
<g transform="translate(40.8575, 24.3046)">
<rect x="-0.0579" y="-1.9805" width="0.1158" height="3.4338" ry="0.0333" fill="currentColor"/>
</g>
<g transform="translate(20.5929, 22.3241)">
<polygon stroke-linejoin="round" stroke-linecap="round" stroke-width="0.0667" fill="currentColor" stroke="currentColor" points="2.3329 -0.2307 2.3329 0.2307 0.0333 0.2307 0.0333 -0.2307"/>
</g>
<a style="color:inherit;" xlink:href="textedit:///Users/marc.mouries/projects/Sheet-Music/Learn-Violin-with-Famous-Themes/Bizet_Toreador-Song.ly:28:7:8">
<g transform="translate(41.8601, 25.9546)">
<path transform="scale(0.0040, -0.0040)" d="M222 135c64 0 104 -35 104 -86c0 -89 -114 -184 -221 -184c-64 0 -105 35 -105 86c0 89 115 184 222 184z" fill="currentColor"/>
</g>
</a>
<a style="color:inherit;" xlink:href="textedit:///Users/marc.mouries/projects/Sheet-Music/Learn-Violin-with-Famous-Themes/Bizet_Toreador-Song.ly:28:8:9">
<g transform="translate(42.5130, 27.0546)">
<path transform="scale(0.0040, -0.0040)" d="M-50 0c0 28 22 50 50 50s50 -22 50 -50s-22 -50 -50 -50s-50 22 -50 50z" fill="currentColor"/>
</g>
</a>
<g transform="translate(43.1080, 24.3046)">
<rect x="-0.0579" y="-1.9805" width="0.1158" height="3.4338" ry="0.0333" fill="currentColor"/>
</g>
<a style="color:inherit;" xlink:href="textedit:///Users/marc.mouries/projects/Sheet-Music/Learn-Violin-with-Famous-Themes/Bizet_Toreador-Song.ly:28:11:12">
<g transform="translate(44.1106, 25.9546)">
<path transform="scale(0.0040, -0.0040)" d="M222 135c64 0 104 -35 104 -86c0 -89 -114 -184 -221 -184c-64 0 -105 35 -105 86c0 89 115 184 222 184z" fill="currentColor"/>
</g>
</a>
<a style="color:inherit;" xlink:href="textedit:///Users/marc.mouries/projects/Sheet-Music/Learn-Violin-with-Famous-Themes/Bizet_Toreador-Song.ly:28:12:13">
<g transform="translate(44.7635, 27.0546)">
<path transform="scale(0.0040, -0.0040)" d="M-50 0c0 28 22 50 50 50s50 -22 50 -50s-22 -50 -50 -50s-50 22 -50 50z" fill="currentColor"/>
</g>
</a>
<g transform="translate(45.3585, 24.3046)">
<rect x="-0.0579" y="-1.9805" width="0.1158" height="3.4338" ry="0.0333" fill="currentColor"/>
</g>
<a style="color:inherit;" xlink:href="textedit:///Users/marc.mouries/projects/Sheet-Music/Learn-Violin-with-Famous-Themes/Bizet_Toreador-Song.ly:28:15:16">
<g transform="translate(46.3611, 25.9546)">
<path transform="scale(0.0040, -0.0040)" d="M222 135c64 0 104 -35 104 -86c0 -89 -114 -184 -221 -184c-64 0 -105 35 -105 86c0 89 115 184 222 184z" fill="currentColor"/>
</g>
</a>
<a style="color:inherit;" xlink:href="textedit:///Users/marc.mouries/projects/Sheet-Music/Learn-Violin-with-Famous-Themes/Bizet_Toreador-Song.ly:28:16:17">
<g transform="translate(47.0140, 27.0546)">
<path transform="scale(0.0040, -0.0040)" d="M-50 0c0 28 22 50 50 50s50 -22 50 -50s-22 -50 -50 -50s-50 22 -50 50z" fill="currentColor"/>
</g>
</a>
<g transform="translate(47.6090, 24.3046)">
<rect x="-0.0579" y="-1.9805" width="0.1158" height="3.4338" ry="0.0333" fill="currentColor"/>
</g>
<a style="color:inherit;" xlink:href="textedit:///Users/marc.mouries/projects/Sheet-Music/Learn-Violin-with-Famous-Themes/Bizet_Toreador-Song.ly:29:2:3">
<g transform="translate(49.8329, 25.9546)">
<path transform="scale(0.0040, -0.0040)" d="M222 135c64 0 104 -35 104 -86c0 -89 -114 -184 -221 -184c-64 0 -105 35 -105 86c0 89 115 184 222 184z" fill="currentColor"/>
</g>
</a>
<g transform="translate(51.0808, 24.3046)">
<rect x="-0.0579" y="-2.4341" width="0.1158" height="3.8874" ry="0.0333" fill="currentColor"/>
</g>
<a style="color:inherit;" xlink:href="textedit:///Users/marc.mouries/projects/Sheet-Music/Learn-Violin-with-Famous-Themes/Bizet_Toreador-Song.ly:29:5:6">
<g transform="translate(52.3334, 24.8546)">
<path transform="scale(0.0040, -0.0040)" d="M222 135c64 0 104 -35 104 -86c0 -89 -114 -184 -221 -184c-64 0 -105 35 -105 86c0 89 115 184 222 184z" fill="currentColor"/>
</g>
</a>
<g transform="translate(53.5813, 24.3046)">
<rect x="-0.0579" y="-3.0659" width="0.1158" height="3.4192" ry="0.0333" fill="currentColor"/>
</g>
<a style="color:inherit;" xlink:href="textedit:///Users/marc.mouries/projects/Sheet-Music/Learn-Violin-with-Famous-Themes/Bizet_Toreador-Song.ly:29:7:8">
<g transform="translate(54.6756, 23.7546)">
<path transform="scale(0.0040, -0.0040)" d="M222 135c64 0 104 -35 104 -86c0 -89 -114 -184 -221 -184c-64 0 -105 35 -105 86c0 89 115 184 222 184z" fill="currentColor"/>
</g>
</a>
<g transform="translate(54.7335, 24.3046)">
<rect x="-0.0579" y="-0.3533" width="0.1158" height="3.6533" ry="0.0333" fill="currentColor"/>
</g>
<g transform="translate(83.3051, 22.3241)">
<polygon stroke-linejoin="round" stroke-linecap="round" stroke-width="0.0667" fill="currentColor" stroke="currentColor" points="2.3329 -0.2307 2.3329 0.2307 0.0333 0.2307 0.0333 -0.2307"/>
</g>
<a style="color:inherit;" xlink:href="textedit:///Users/marc.mouries/projects/Sheet-Music/Learn-Violin-with-Famous-Themes/Bizet_Toreador-Song.ly:31:2:3">
<g transform="translate(58.8443, 23.2046)">
<path transform="scale(0.0040, -0.0040)" d="M222 135c64 0 104 -35 104 -86c0 -89 -114 -184 -221 -184c-64 0 -105 35 -105 86c0 89 115 184 222 184z" fill="currentColor"/>
</g>
</a>
<a style="color:inherit;" xlink:href="textedit:///Users/marc.mouries/projects/Sheet-Music/Learn-Violin-with-Famous-Themes/Bizet_Toreador-Song.ly:31:4:5">
<g transform="translate(59.4972, 21.5546)">
<path transform="scale(0.0040, -0.0040)" d="M-50 0c0 28 22 50 50 50s50 -22 50 -50s-22 -50 -50 -50s-50 22 -50 50z" fill="currentColor"/>
</g>
</a>
<g transform="translate(58.9022, 24.3046)">
<rect x="-0.0579" y="-0.9033" width="0.1158" height="3.1033" ry="0.0333" fill="currentColor"/>
</g>
<a style="color:inherit;" xlink:href="textedit:///Users/marc.mouries/projects/Sheet-Music/Learn-Violin-with-Famous-Themes/Bizet_Toreador-Song.ly:31:7:8">
<g transform="translate(61.0948, 23.2046)">
<path transform="scale(0.0040, -0.0040)" d="M222 135c64 0 104 -35 104 -86c0 -89 -114 -184 -221 -184c-64 0 -105 35 -105 86c0 89 115 184 222 184z" fill="currentColor"/>
</g>
</a>
<a style="color:inherit;" xlink:href="textedit:///Users/marc.mouries/projects/Sheet-Music/Learn-Violin-with-Famous-Themes/Bizet_Toreador-Song.ly:31:8:9">
<g transform="translate(61.7477, 21.5546)">
<path transform="scale(0.0040, -0.0040)" d="M-50 0c0 28 22 50 50 50s50 -22 50 -50s-22 -50 -50 -50s-50 22 -50 50z" fill="currentColor"/>
</g>
</a>
<g transform="translate(61.1527, 24.3046)">
<rect x="-0.0579" y="-0.9033" width="0.1158" height="3.1033" ry="0.0333" fill="currentColor"/>
</g>
<a style="color:inherit;" xlink:href="textedit:///Users/marc.mouries/projects/Sheet-Music/Learn-Violin-with-Famous-Themes/Bizet_Toreador-Song.ly:31:11:12">
<g transform="translate(63.3453, 23.2046)">
<path transform="scale(0.0040, -0.0040)" d="M222 135c64 0 104 -35 104 -86c0 -89 -114 -184 -221 -184c-64 0 -105 35 -105 86c0 89 115 184 222 184z" fill="currentColor"/>
</g>
</a>
<a style="color:inherit;" xlink:href="textedit:///Users/marc.mouries/projects/Sheet-Music/Learn-Violin-with-Famous-Themes/Bizet_Toreador-Song.ly:31:12:13">
<g transform="translate(63.9982, 21.5546)">
<path transform="scale(0.0040, -0.0040)" d="M-50 0c0 28 22 50 50 50s50 -22 50 -50s-22 -50 -50 -50s-50 22 -50 50z" fill="currentColor"/>
</g>
</a>
<g transform="translate(63.4032, 24.3046)">
<rect x="-0.0579" y="-0.9033" width="0.1158" height="3.1033" ry="0.0333" fill="currentColor"/>
</g>
<a style="color:inherit;" xlink:href="textedit:///Users/marc.mouries/projects/Sheet-Music/Learn-Violin-with-Famous-Themes/Bizet_Toreador-Song.ly:31:15:16">
<g transform="translate(65.5958, 23.2046)">
<path transform="scale(0.0040, -0.0040)" d="M222 135c64 0 104 -35 104 -86c0 -89 -114 -184 -221 -184c-64 0 -105 35 -105 86c0 89 115 184 222 184z" fill="currentColor"/>
</g>
</a>
<a style="color:inherit;" xlink:href="textedit:///Users/marc.mouries/projects/Sheet-Music/Learn-Violin-with-Famous-Themes/Bizet_Toreador-Song.ly:31:16:17">
<g transform="translate(66.2487, 21.5546)">
<path transform="scale(0.0040, -0.0040)" d="M-50 0c0 28 22 50 50 50s50 -22 50 -50s-22 -50 -50 -50s-50 22 -50 50z" fill="currentColor"/>
</g>
</a>
<g transform="translate(65.6537, 24.3046)">
<rect x="-0.0579" y="-0.9033" width="0.1158" height="3.1033" ry="0.0333" fill="currentColor"/>
</g>
<a style="color:inherit;" xlink:href="textedit:///Users/marc.mouries/projects/Sheet-Music/Learn-Violin-with-Famous-Themes/Bizet_Toreador-Song.ly:32:2:3">
<g transform="translate(68.7527, 23.7546)">
<path transform="scale(0.0040, -0.0040)" d="M222 135c64 0 104 -35 104 -86c0 -89 -114 -184 -221 -184c-64 0 -105 35 -105 86c0 89 115 184 222 184z" fill="currentColor"/>
</g>
</a>
<g transform="translate(68.8106, 24.3046)">
<rect x="-0.0579" y="-0.3533" width="0.1158" height="3.4392" ry="0.0333" fill="currentColor"/>
</g>
<a style="color:inherit;" xlink:href="textedit:///Users/marc.mouries/projects/Sheet-Music/Learn-Violin-with-Famous-Themes/Bizet_Toreador-Song.ly:32:5:6">
<g transform="translate(71.0032, 24.3046)">
<path transform="scale(0.0040, -0.0040)" d="M222 135c64 0 104 -35 104 -86c0 -89 -114 -184 -221 -184c-64 0 -105 35 -105 86c0 89 115 184 222 184z" fill="currentColor"/>
</g>
</a>
<g transform="translate(71.0611, 24.3046)">
<rect x="-0.0579" y="0.1967" width="0.1158" height="3.0979" ry="0.0333" fill="currentColor"/>
</g>
<a style="color:inherit;" xlink:href="textedit:///Users/marc.mouries/projects/Sheet-Music/Learn-Violin-with-Famous-Themes/Bizet_Toreador-Song.ly:32:8:9">
<g transform="translate(73.2333, 24.8546)">
<path transform="scale(0.0040, -0.0040)" d="M222 135c64 0 104 -35 104 -86c0 -89 -114 -184 -221 -184c-64 0 -105 35 -105 86c0 89 115 184 222 184z" fill="currentColor"/>
</g>
</a>
<g transform="translate(74.4813, 24.3046)">
<rect x="-0.0579" y="-2.4141" width="0.1158" height="2.7674" ry="0.0333" fill="currentColor"/>
</g>
<a style="color:inherit;" xlink:href="textedit:///Users/marc.mouries/projects/Sheet-Music/Learn-Violin-with-Famous-Themes/Bizet_Toreador-Song.ly:34:5:6">
<g transform="translate(91.0325, 24.3046)">
<path transform="scale(0.0040, -0.0040)" d="M-4 79c0 59 125 82 125 181c0 24 -8 47 -24 67l-39 46c-2 3 -3 6 -3 9c0 7 7 14 14 14c3 0 7 -1 10 -5l152 -182c7 -8 10 -17 10 -25c0 -59 -125 -82 -125 -181c0 -24 8 -47 24 -67l87 -104c2 -3 3 -5 3 -8c0 -7 -7 -14 -14 -14c-6 0 -48 48 -112 48
c-14 0 -52 -1 -52 -70c0 -35 11 -75 28 -96c6 -7 -4 -16 -10 -9c-46 55 -93 150 -93 204c0 12 0 40 36 40c34 0 85 -15 130 -37l-137 164c-7 8 -10 17 -10 25z" fill="currentColor"/>
</g>
</a>
<a style="color:inherit;" xlink:href="textedit:///Users/marc.mouries/projects/Sheet-Music/Learn-Violin-with-Famous-Themes/Bizet_Toreador-Song.ly:32:10:11">
<g transform="translate(75.4838, 25.4046)">
<path transform="scale(0.0040, -0.0040)" d="M222 135c64 0 104 -35 104 -86c0 -89 -114 -184 -221 -184c-64 0 -105 35 -105 86c0 89 115 184 222 184z" fill="currentColor"/>
</g>
</a>
<g transform="translate(76.7317, 24.3046)">
<rect x="-0.0579" y="-2.2054" width="0.1158" height="3.1086" ry="0.0333" fill="currentColor"/>
</g>
<a style="color:inherit;" xlink:href="textedit:///Users/marc.mouries/projects/Sheet-Music/Learn-Violin-with-Famous-Themes/Bizet_Toreador-Song.ly:33:2:3">
<g transform="translate(78.9199, 25.9546)">
<path transform="scale(0.0040, -0.0040)" d="M222 135c64 0 104 -35 104 -86c0 -89 -114 -184 -221 -184c-64 0 -105 35 -105 86c0 89 115 184 222 184z" fill="currentColor"/>
</g>
</a>
<g transform="translate(80.1678, 24.3046)">
<rect x="-0.0579" y="-2.2000" width="0.1158" height="3.6533" ry="0.0333" fill="currentColor"/>
</g>
<a style="color:inherit;" xlink:href="textedit:///Users/marc.mouries/projects/Sheet-Music/Learn-Violin-with-Famous-Themes/Bizet_Toreador-Song.ly:33:5:6">
<g transform="translate(82.1151, 25.9546)">
<path transform="scale(0.0040, -0.0040)" d="M222 135c64 0 104 -35 104 -86c0 -89 -114 -184 -221 -184c-64 0 -105 35 -105 86c0 89 115 184 222 184z" fill="currentColor"/>
</g>
</a>
<a style="color:inherit;" xlink:href="textedit:///Users/marc.mouries/projects/Sheet-Music/Learn-Violin-with-Famous-Themes/Bizet_Toreador-Song.ly:33:7:8">
<g transform="translate(82.7680, 27.0546)">
<path transform="scale(0.0040, -0.0040)" d="M-50 0c0 28 22 50 50 50s50 -22 50 -50s-22 -50 -50 -50s-50 22 -50 50z" fill="currentColor"/>
</g>
</a>
<g transform="translate(83.3630, 24.3046)">
<rect x="-0.0579" y="-1.9805" width="0.1158" height="3.4338" ry="0.0333" fill="currentColor"/>
</g>
<a style="color:inherit;" xlink:href="textedit:///Users/marc.mouries/projects/Sheet-Music/Learn-Violin-with-Famous-Themes/Bizet_Toreador-Song.ly:33:10:11">
<g transform="translate(84.3656, 25.9546)">
<path transform="scale(0.0040, -0.0040)" d="M222 135c64 0 104 -35 104 -86c0 -89 -114 -184 -221 -184c-64 0 -105 35 -105 86c0 89 115 184 222 184z" fill="currentColor"/>
</g>
</a>
<a style="color:inherit;" xlink:href="textedit:///Users/marc.mouries/projects/Sheet-Music/Learn-Violin-with-Famous-Themes/Bizet_Toreador-Song.ly:33:11:12">
<g transform="translate(85.0185, 27.0546)">
<path transform="scale(0.0040, -0.0040)" d="M-50 0c0 28 22 50 50 50s50 -22 50 -50s-22 -50 -50 -50s-50 22 -50 50z" fill="currentColor"/>
</g>
</a>
<g transform="translate(85.6135, 24.3046)">
<rect x="-0.0579" y="-1.9805" width="0.1158" height="3.4338" ry="0.0333" fill="currentColor"/>
</g>
<a style="color:inherit;" xlink:href="textedit:///Users/marc.mouries/projects/Sheet-Music/Learn-Violin-with-Famous-Themes/Bizet_Toreador-Song.ly:34:2:3">
<g transform="translate(87.8374, 25.9546)">
<path transform="scale(0.0040, -0.0040)" d="M222 135c64 0 104 -35 104 -86c0 -89 -114 -184 -221 -184c-64 0 -105 35 -105 86c0 89 115 184 222 184z" fill="currentColor"/>
</g>
</a>
<g transform="translate(89.0853, 24.3046)">
<rect x="-0.0579" y="-2.2000" width="0.1158" height="3.6533" ry="0.0333" fill="currentColor"/>
</g>
<g transform="translate(49.3086, 137.9691)">
<text font-family="serif" font-size="1.9603" text-anchor="start" fill="currentColor">
<tspan>9</tspan>
</text>
</g>
</svg>
