<svg xmlns="http://www.w3.org/2000/svg" xmlns:xlink="http://www.w3.org/1999/xlink" version="1.2" width="210.00mm" height="297.00mm" viewBox="0.0000 -0.0000 99.5846 140.8411">
<style type="text/css">
<![CDATA[
tspan { white-space: pre; }
]]>
</style>
<g transform="translate(49.5220, 2.3711)">
<text font-family="serif" font-size="2.2002" text-anchor="start" fill="currentColor">
<tspan> </tspan>
</text>
</g>
<g transform="translate(21.5814, 6.4422)">
<text font-family="Optima" font-weight="bold" font-size="4.3999" text-anchor="start" fill="currentColor">
<tspan>S</tspan>
</text>
</g>
<g transform="translate(23.7723, 6.4422)">
<text font-family="Optima" font-weight="bold" font-size="3.4922" text-anchor="start" fill="currentColor">
<tspan>YMPHONY</tspan>
</text>
</g>
<g transform="translate(41.3845, 6.4422)">
<text font-family="Optima" font-weight="bold" font-size="4.3999" text-anchor="start" fill="currentColor">
<tspan> N</tspan>
</text>
</g>
<g transform="translate(46.0223, 6.4422)">
<text font-family="Optima" font-weight="bold" font-size="3.4922" text-anchor="start" fill="currentColor">
<tspan>O</tspan>
</text>
</g>
<g transform="translate(48.9245, 6.4422)">
<text font-family="Optima" font-weight="bold" font-size="4.3999" text-anchor="start" fill="currentColor">
<tspan> 40 </tspan>
</text>
</g>
<g transform="translate(56.2653, 6.4422)">
<text font-family="Optima" font-weight="bold" font-size="3.4922" text-anchor="start" fill="currentColor">
<tspan>IN</tspan>
</text>
</g>
<g transform="translate(60.1349, 6.4422)">
<text font-family="Optima" font-weight="bold" font-size="4.3999" text-anchor="start" fill="currentColor">
<tspan> G </tspan>
</text>
</g>
<g transform="translate(65.9962, 6.4422)">
<text font-family="Optima" font-weight="bold" font-size="3.4922" text-anchor="start" fill="currentColor">
<tspan>MINOR</tspan>
</text>
</g>
<g transform="translate(88.8959, 6.4422)">
<text font-family="Optima" font-size="1.9598" text-anchor="start" fill="currentColor">
<tspan>Mozart</tspan>
</text>
</g>
<g transform="translate(4.7421, 18.3533)">
<rect x="48.7379" y="-0.0995" width="1.9087" height="0.1990" ry="0.0995" fill="currentColor"/>
</g>
<g transform="translate(4.7421, 18.3533)">
<rect x="46.7292" y="-0.0995" width="1.9087" height="0.1990" ry="0.0995" fill="currentColor"/>
</g>
<g transform="translate(4.7421, 18.3533)">
<rect x="41.9966" y="-0.0995" width="1.9587" height="0.1990" ry="0.0995" fill="currentColor"/>
</g>
<g transform="translate(9.4843, 23.8533)">
<line stroke-linejoin="round" stroke-linecap="round" stroke-width="0.0890" stroke="currentColor" x1="0.0445" y1="0" x2="85.3137" y2="0"/>
</g>
<g transform="translate(9.4843, 22.7533)">
<line stroke-linejoin="round" stroke-linecap="round" stroke-width="0.0890" stroke="currentColor" x1="0.0445" y1="0" x2="85.3137" y2="0"/>
</g>
<g transform="translate(9.4843, 21.6533)">
<line stroke-linejoin="round" stroke-linecap="round" stroke-width="0.0890" stroke="currentColor" x1="0.0445" y1="0" x2="85.3137" y2="0"/>
</g>
<g transform="translate(9.4843, 20.5533)">
<line stroke-linejoin="round" stroke-linecap="round" stroke-width="0.0890" stroke="currentColor" x1="0.0445" y1="0" x2="85.3137" y2="0"/>
</g>
<g transform="translate(9.4843, 19.4533)">
<line stroke-linejoin="round" stroke-linecap="round" stroke-width="0.0890" stroke="currentColor" x1="0.0445" y1="0" x2="85.3137" y2="0"/>
</g>
<g transform="translate(94.6733, 21.6533)">
<rect x="0.0000" y="-2.2000" width="0.1692" height="4.4000" ry="0.0000" fill="currentColor"/>
</g>
<g transform="translate(81.0650, 21.6533)">
<rect x="0.0000" y="-2.2000" width="0.1692" height="4.4000" ry="0.0000" fill="currentColor"/>
</g>
<g transform="translate(69.1182, 21.6533)">
<rect x="0.0000" y="-2.2000" width="0.1692" height="4.4000" ry="0.0000" fill="currentColor"/>
</g>
<g transform="translate(55.5029, 21.6533)">
<rect x="0.0000" y="-2.2000" width="0.1692" height="4.4000" ry="0.0000" fill="currentColor"/>
</g>
<g transform="translate(43.2538, 21.6533)">
<rect x="0.0000" y="-2.2000" width="0.1692" height="4.4000" ry="0.0000" fill="currentColor"/>
</g>
<g transform="translate(29.6497, 21.6533)">
<rect x="0.0000" y="-2.2000" width="0.1692" height="4.4000" ry="0.0000" fill="currentColor"/>
</g>
<a style="color:inherit;" xlink:href="textedit:///Users/marc.mouries/projects/Sheet-Music/Learn-Violin-with-Famous-Themes/Mozart_Symphony-No-40-in-G-minor-K-550.ly:18:2:3">
<g transform="translate(20.4553, 21.6533)">
<path transform="scale(0.0040, -0.0040)" d="M367 0h-359c-4 0 -8 4 -8 8v140c0 4 4 8 8 8h359c4 0 8 -4 8 -8v-140c0 -4 -4 -8 -8 -8z" fill="currentColor"/>
</g>
</a>
<g transform="translate(10.2843, 22.7533)">
<path transform="scale(0.0040, -0.0040)" d="M264 -594c47 0 165 26 165 246c0 32 -2 64 -5 96c-5 -1 -44 -8 -89 -8c-193 0 -333 178 -333 372c0 178 133 306 251 440c-27 93 -49 170 -49 345c0 116 55 226 150 295c5 4 11 4 16 0c67 -81 132 -246 132 -359c0 -144 -87 -256 -183 -365c20 -69 39 -138 55 -208
c2 0 7 1 15 1c154 0 254 -127 254 -259c0 -112 -73 -212 -180 -245c3 -36 5 -72 5 -108c0 -19 0 -37 -1 -56c-7 -120 -89 -226 -206 -226c-108 0 -195 87 -195 195c0 58 53 104 112 104c54 0 95 -48 95 -104c0 -52 -43 -95 -95 -95c-12 0 -24 4 -35 9c26 -41 70 -70 121 -70
zM459 -205c71 24 117 92 117 166c0 92 -69 184 -179 193c1 -5 45 -212 62 -359zM71 31c0 -146 142 -251 267 -251c1 0 46 0 82 6c-7 63 -28 201 -64 367c-79 -9 -125 -62 -125 -121c0 -44 26 -92 82 -124c4 -4 7 -9 7 -14c0 -11 -9 -21 -20 -21c-14 0 -125 62 -125 186
c0 88 57 173 158 196c-14 60 -30 119 -46 178c-108 -121 -216 -242 -216 -402zM411 1050c-99 -50 -161 -151 -161 -262c0 -59 11 -123 33 -200c82 97 149 198 149 325c0 35 0 69 -21 137z" fill="currentColor"/>
</g>
<a style="color:inherit;" xlink:href="textedit:///Users/marc.mouries/projects/Sheet-Music/Learn-Violin-with-Famous-Themes/Mozart_Symphony-No-40-in-G-minor-K-550.ly:17:2:3">
<g transform="translate(13.8880, 21.6533)">
<path transform="scale(0.0040, -0.0040)" d="M25 44l-1 -69c0 -4 -1 -7 -1 -11c0 -22 2 -44 4 -66c46 38 96 80 96 139c0 34 -14 69 -44 69c-31 0 -53 -29 -54 -62zM-25 463c8 4 16 7 25 7s17 -3 25 -7l-6 -349c26 19 56 30 88 30c53 0 93 -46 93 -100c0 -82 -90 -118 -153 -169c-14 -11 -22 -32 -40 -32
c-12 0 -21 9 -21 21z" fill="currentColor"/>
</g>
<g transform="translate(14.7917, 20.0033)">
<path transform="scale(0.0040, -0.0040)" d="M25 44l-1 -69c0 -4 -1 -7 -1 -11c0 -22 2 -44 4 -66c46 38 96 80 96 139c0 34 -14 69 -44 69c-31 0 -53 -29 -54 -62zM-25 463c8 4 16 7 25 7s17 -3 25 -7l-6 -349c26 19 56 30 88 30c53 0 93 -46 93 -100c0 -82 -90 -118 -153 -169c-14 -11 -22 -32 -40 -32
c-12 0 -21 9 -21 21z" fill="currentColor"/>
</g>
</a>
<g transform="translate(16.7418, 21.6533)">
<path transform="scale(0.0040, -0.0040)" d="M250 261c117 0 180 -102 180 -162c0 -40 -32 -74 -70 -74c-31 0 -76 25 -76 77c0 39 28 78 74 78c2 0 10 1 18 -1c-29 37 -76 60 -126 60c-106 0 -113 -73 -113 -185v-54v-54c0 -112 7 -185 113 -185c82 0 145 68 164 151c1 6 6 9 10 9c6 0 11 -4 11 -11
c0 -23 -51 -171 -185 -171c-59 0 -250 19 -250 261c0 62 18 261 250 261z" fill="currentColor"/>
</g>
<g transform="translate(84.5950, 23.8533)">
<polygon stroke-linejoin="round" stroke-linecap="round" stroke-width="0.0667" fill="currentColor" stroke="currentColor" points="2.0074 -0.0112 2.0074 0.4501 0.0333 0.2307 0.0333 -0.2307"/>
</g>
<a style="color:inherit;" xlink:href="textedit:///Users/marc.mouries/projects/Sheet-Music/Learn-Violin-with-Famous-Themes/Mozart_Symphony-No-40-in-G-minor-K-550.ly:18:5:6">
<g transform="translate(23.8129, 21.6533)">
<path transform="scale(0.0040, -0.0040)" d="M-4 79c0 59 125 82 125 181c0 24 -8 47 -24 67l-39 46c-2 3 -3 6 -3 9c0 7 7 14 14 14c3 0 7 -1 10 -5l152 -182c7 -8 10 -17 10 -25c0 -59 -125 -82 -125 -181c0 -24 8 -47 24 -67l87 -104c2 -3 3 -5 3 -8c0 -7 -7 -14 -14 -14c-6 0 -48 48 -112 48
c-14 0 -52 -1 -52 -70c0 -35 11 -75 28 -96c6 -7 -4 -16 -10 -9c-46 55 -93 150 -93 204c0 12 0 40 36 40c34 0 85 -15 130 -37l-137 164c-7 8 -10 17 -10 25z" fill="currentColor"/>
</g>
</a>
<g transform="translate(77.3808, 23.8533)">
<polygon stroke-linejoin="round" stroke-linecap="round" stroke-width="0.0667" fill="currentColor" stroke="currentColor" points="2.0074 -0.0112 2.0074 0.4501 0.0333 0.2307 0.0333 -0.2307"/>
</g>
<a style="color:inherit;" xlink:href="textedit:///Users/marc.mouries/projects/Sheet-Music/Learn-Violin-with-Famous-Themes/Mozart_Symphony-No-40-in-G-minor-K-550.ly:18:8:9">
<g transform="translate(26.0012, 20.0033)">
<path transform="scale(0.0040, -0.0040)" d="M222 135c64 0 104 -35 104 -86c0 -89 -114 -184 -221 -184c-64 0 -105 35 -105 86c0 89 115 184 222 184z" fill="currentColor"/>
</g>
</a>
<a style="color:inherit;" xlink:href="textedit:///Users/marc.mouries/projects/Sheet-Music/Learn-Violin-with-Famous-Themes/Mozart_Symphony-No-40-in-G-minor-K-550.ly:18:11:12">
<g transform="translate(26.1989, 18.5706)">
<path transform="scale(0.0022, -0.0022)" d="M151 501c9 0 40 -14 71 -14c32 0 62 14 74 14c14 0 24 -10 24 -20c0 -3 -1 -7 -4 -10l-266 -296h141v4c0 56 46 40 72 83c7 11 9 24 15 36c3 6 10 10 16 10c11 0 22 -9 22 -24v-109h69c17 0 25 -12 25 -25s-8 -25 -25 -25h-69c0 -46 34 -85 78 -85c13 0 20 -10 20 -20
s-7 -20 -20 -20c-47 0 -94 13 -141 13s-94 -13 -141 -13c-13 0 -20 10 -20 20s7 20 20 20c44 0 79 39 79 85h-141c-40 0 -53 24 -53 40c0 5 1 8 3 10c74 83 128 185 128 296c0 16 10 30 23 30z" fill="currentColor"/>
</g>
</a>
<g transform="translate(26.0591, 21.6533)">
<rect x="-0.0579" y="-1.4533" width="0.1158" height="3.4400" ry="0.0333" fill="currentColor"/>
</g>
<g transform="translate(65.4697, 23.6338)">
<polygon stroke-linejoin="round" stroke-linecap="round" stroke-width="0.0667" fill="currentColor" stroke="currentColor" points="2.0074 -0.0112 2.0074 0.4501 0.0333 0.2307 0.0333 -0.2307"/>
</g>
<a style="color:inherit;" xlink:href="textedit:///Users/marc.mouries/projects/Sheet-Music/Learn-Violin-with-Famous-Themes/Mozart_Symphony-No-40-in-G-minor-K-550.ly:18:15:16">
<g transform="translate(27.9262, 20.5533)">
<path transform="scale(0.0040, -0.0040)" d="M222 135c64 0 104 -35 104 -86c0 -89 -114 -184 -221 -184c-64 0 -105 35 -105 86c0 89 115 184 222 184z" fill="currentColor"/>
</g>
</a>
<g transform="translate(27.9841, 21.6533)">
<rect x="-0.0579" y="-0.9033" width="0.1158" height="3.0970" ry="0.0333" fill="currentColor"/>
</g>
<a style="color:inherit;" xlink:href="textedit:///Users/marc.mouries/projects/Sheet-Music/Learn-Violin-with-Famous-Themes/Mozart_Symphony-No-40-in-G-minor-K-550.ly:25:4:5">
<g transform="translate(70.1041, 21.6533)">
<path stroke-width="0.0712" stroke-linejoin="round" stroke-linecap="round" stroke="currentColor" fill="currentColor" d="M0.6529 -1.6100C1.3446 -2.1446 2.5054 -2.1446 3.1971 -1.6100L3.1971 -1.6100C2.5054 -2.0378 1.3446 -2.0378 0.6529 -1.6100z"/>
</g>
</a>
<a style="color:inherit;" xlink:href="textedit:///Users/marc.mouries/projects/Sheet-Music/Learn-Violin-with-Famous-Themes/Mozart_Symphony-No-40-in-G-minor-K-550.ly:24:9:10">
<g transform="translate(65.4697, 21.6533)">
<path stroke-width="0.0712" stroke-linejoin="round" stroke-linecap="round" stroke="currentColor" fill="currentColor" d="M0.7383 -2.7389C1.3842 -3.1456 2.2235 -2.9777 2.6633 -2.3539L2.6633 -2.3539C2.2025 -2.8730 1.3632 -3.0408 0.7383 -2.7389z"/>
</g>
</a>
<a style="color:inherit;" xlink:href="textedit:///Users/marc.mouries/projects/Sheet-Music/Learn-Violin-with-Famous-Themes/Mozart_Symphony-No-40-in-G-minor-K-550.ly:19:2:3">
<g transform="translate(30.6670, 20.5533)">
<path transform="scale(0.0040, -0.0040)" d="M222 135c64 0 104 -35 104 -86c0 -89 -114 -184 -221 -184c-64 0 -105 35 -105 86c0 89 115 184 222 184z" fill="currentColor"/>
</g>
</a>
<g transform="translate(59.0756, 22.5338)">
<polygon stroke-linejoin="round" stroke-linecap="round" stroke-width="0.0667" fill="currentColor" stroke="currentColor" points="2.0074 -0.0112 2.0074 0.4501 0.0333 0.2307 0.0333 -0.2307"/>
</g>
<g transform="translate(30.7249, 21.6533)">
<rect x="-0.0579" y="-0.9033" width="0.1158" height="3.6533" ry="0.0333" fill="currentColor"/>
</g>
<a style="color:inherit;" xlink:href="textedit:///Users/marc.mouries/projects/Sheet-Music/Learn-Violin-with-Famous-Themes/Mozart_Symphony-No-40-in-G-minor-K-550.ly:23:7:8">
<g transform="translate(59.0756, 21.6533)">
<path stroke-width="0.0712" stroke-linejoin="round" stroke-linecap="round" stroke="currentColor" fill="currentColor" d="M0.7725 -3.8389C1.4607 -4.1978 2.3027 -3.9572 2.6975 -3.2889L2.6975 -3.2889C2.2734 -3.8544 1.4313 -4.0950 0.7725 -3.8389z"/>
</g>
</a>
<a style="color:inherit;" xlink:href="textedit:///Users/marc.mouries/projects/Sheet-Music/Learn-Violin-with-Famous-Themes/Mozart_Symphony-No-40-in-G-minor-K-550.ly:19:5:6">
<g transform="translate(33.2111, 20.0033)">
<path transform="scale(0.0040, -0.0040)" d="M222 135c64 0 104 -35 104 -86c0 -89 -114 -184 -221 -184c-64 0 -105 35 -105 86c0 89 115 184 222 184z" fill="currentColor"/>
</g>
</a>
<g transform="translate(33.2690, 21.6533)">
<rect x="-0.0579" y="-1.4533" width="0.1158" height="3.4400" ry="0.0333" fill="currentColor"/>
</g>
<g transform="translate(51.7978, 21.6533)">
<polygon stroke-linejoin="round" stroke-linecap="round" stroke-width="0.0667" fill="currentColor" stroke="currentColor" points="2.0411 -0.0112 2.0411 0.4501 0.0333 0.2307 0.0333 -0.2307"/>
</g>
<a style="color:inherit;" xlink:href="textedit:///Users/marc.mouries/projects/Sheet-Music/Learn-Violin-with-Famous-Themes/Mozart_Symphony-No-40-in-G-minor-K-550.ly:19:10:11">
<g transform="translate(35.1361, 20.5533)">
<path transform="scale(0.0040, -0.0040)" d="M222 135c64 0 104 -35 104 -86c0 -89 -114 -184 -221 -184c-64 0 -105 35 -105 86c0 89 115 184 222 184z" fill="currentColor"/>
</g>
</a>
<g transform="translate(35.1940, 21.6533)">
<rect x="-0.0579" y="-0.9033" width="0.1158" height="3.0970" ry="0.0333" fill="currentColor"/>
</g>
<a style="color:inherit;" xlink:href="textedit:///Users/marc.mouries/projects/Sheet-Music/Learn-Violin-with-Famous-Themes/Mozart_Symphony-No-40-in-G-minor-K-550.ly:22:5:6">
<g transform="translate(51.7978, 21.6533)">
<path stroke-width="0.0712" stroke-linejoin="round" stroke-linecap="round" stroke="currentColor" fill="currentColor" d="M0.7706 -4.9389C1.4667 -5.3057 2.3258 -5.0644 2.7293 -4.3889L2.7293 -4.3889C2.2969 -4.9616 1.4379 -5.2028 0.7706 -4.9389z"/>
</g>
</a>
<a style="color:inherit;" xlink:href="textedit:///Users/marc.mouries/projects/Sheet-Music/Learn-Violin-with-Famous-Themes/Mozart_Symphony-No-40-in-G-minor-K-550.ly:20:2:3">
<g transform="translate(37.0611, 20.5533)">
<path transform="scale(0.0040, -0.0040)" d="M222 135c64 0 104 -35 104 -86c0 -89 -114 -184 -221 -184c-64 0 -105 35 -105 86c0 89 115 184 222 184z" fill="currentColor"/>
</g>
</a>
<g transform="translate(37.1190, 21.6533)">
<rect x="-0.0579" y="-0.9033" width="0.1158" height="3.6533" ry="0.0333" fill="currentColor"/>
</g>
<g transform="translate(39.6053, 23.6338)">
<polygon stroke-linejoin="round" stroke-linecap="round" stroke-width="0.0667" fill="currentColor" stroke="currentColor" points="2.0074 -0.0112 2.0074 0.4501 0.0333 0.2307 0.0333 -0.2307"/>
</g>
<a style="color:inherit;" xlink:href="textedit:///Users/marc.mouries/projects/Sheet-Music/Learn-Violin-with-Famous-Themes/Mozart_Symphony-No-40-in-G-minor-K-550.ly:20:5:6">
<g transform="translate(39.6053, 20.0033)">
<path transform="scale(0.0040, -0.0040)" d="M222 135c64 0 104 -35 104 -86c0 -89 -114 -184 -221 -184c-64 0 -105 35 -105 86c0 89 115 184 222 184z" fill="currentColor"/>
</g>
</a>
<g transform="translate(39.6632, 21.6533)">
<rect x="-0.0579" y="-1.4533" width="0.1158" height="3.4400" ry="0.0333" fill="currentColor"/>
</g>
<a style="color:inherit;" xlink:href="textedit:///Users/marc.mouries/projects/Sheet-Music/Learn-Violin-with-Famous-Themes/Mozart_Symphony-No-40-in-G-minor-K-550.ly:21:4:5">
<g transform="translate(44.2711, 21.6533)">
<path stroke-width="0.0712" stroke-linejoin="round" stroke-linecap="round" stroke="currentColor" fill="currentColor" d="M0.3573 -2.3539C0.4581 -3.6586 1.8429 -4.9398 3.1515 -4.9389L3.1515 -4.9389C1.9154 -4.8613 0.5306 -3.5802 0.3573 -2.3539z"/>
</g>
</a>
<a style="color:inherit;" xlink:href="textedit:///Users/marc.mouries/projects/Sheet-Music/Learn-Violin-with-Famous-Themes/Mozart_Symphony-No-40-in-G-minor-K-550.ly:20:10:11">
<g transform="translate(41.5303, 20.5533)">
<path transform="scale(0.0040, -0.0040)" d="M222 135c64 0 104 -35 104 -86c0 -89 -114 -184 -221 -184c-64 0 -105 35 -105 86c0 89 115 184 222 184z" fill="currentColor"/>
</g>
</a>
<g transform="translate(41.5882, 21.6533)">
<rect x="-0.0579" y="-0.9033" width="0.1158" height="3.0970" ry="0.0333" fill="currentColor"/>
</g>
<a style="color:inherit;" xlink:href="textedit:///Users/marc.mouries/projects/Sheet-Music/Learn-Violin-with-Famous-Themes/Mozart_Symphony-No-40-in-G-minor-K-550.ly:20:8:9">
<g transform="translate(39.6053, 21.6533)">
<path stroke-width="0.0712" stroke-linejoin="round" stroke-linecap="round" stroke="currentColor" fill="currentColor" d="M0.7383 -2.7389C1.3842 -3.1456 2.2235 -2.9777 2.6633 -2.3539L2.6633 -2.3539C2.2025 -2.8730 1.3632 -3.0408 0.7383 -2.7389z"/>
</g>
</a>
<g transform="translate(33.2111, 23.6338)">
<polygon stroke-linejoin="round" stroke-linecap="round" stroke-width="0.0667" fill="currentColor" stroke="currentColor" points="2.0074 -0.0112 2.0074 0.4501 0.0333 0.2307 0.0333 -0.2307"/>
</g>
<a style="color:inherit;" xlink:href="textedit:///Users/marc.mouries/projects/Sheet-Music/Learn-Violin-with-Famous-Themes/Mozart_Symphony-No-40-in-G-minor-K-550.ly:21:2:3">
<g transform="translate(44.2711, 20.5533)">
<path transform="scale(0.0040, -0.0040)" d="M222 135c64 0 104 -35 104 -86c0 -89 -114 -184 -221 -184c-64 0 -105 35 -105 86c0 89 115 184 222 184z" fill="currentColor"/>
</g>
</a>
<a style="color:inherit;" xlink:href="textedit:///Users/marc.mouries/projects/Sheet-Music/Learn-Violin-with-Famous-Themes/Mozart_Symphony-No-40-in-G-minor-K-550.ly:19:8:9">
<g transform="translate(33.2111, 21.6533)">
<path stroke-width="0.0712" stroke-linejoin="round" stroke-linecap="round" stroke="currentColor" fill="currentColor" d="M0.7383 -2.7389C1.3842 -3.1456 2.2235 -2.9777 2.6633 -2.3539L2.6633 -2.3539C2.2025 -2.8730 1.3632 -3.0408 0.7383 -2.7389z"/>
</g>
</a>
<g transform="translate(44.3289, 21.6533)">
<rect x="-0.0579" y="-0.9033" width="0.1158" height="3.6533" ry="0.0333" fill="currentColor"/>
</g>
<g transform="translate(26.0012, 23.6338)">
<polygon stroke-linejoin="round" stroke-linecap="round" stroke-width="0.0667" fill="currentColor" stroke="currentColor" points="2.0074 -0.0112 2.0074 0.4501 0.0333 0.2307 0.0333 -0.2307"/>
</g>
<a style="color:inherit;" xlink:href="textedit:///Users/marc.mouries/projects/Sheet-Music/Learn-Violin-with-Famous-Themes/Mozart_Symphony-No-40-in-G-minor-K-550.ly:21:7:8">
<g transform="translate(47.0652, 17.8033)">
<path transform="scale(0.0040, -0.0040)" d="M222 135c64 0 104 -35 104 -86c0 -89 -114 -184 -221 -184c-64 0 -105 35 -105 86c0 89 115 184 222 184z" fill="currentColor"/>
</g>
</a>
<g transform="translate(47.1231, 21.6533)">
<rect x="-0.0579" y="-3.6533" width="0.1158" height="3.6533" ry="0.0333" fill="currentColor"/>
</g>
<a style="color:inherit;" xlink:href="textedit:///Users/marc.mouries/projects/Sheet-Music/Learn-Violin-with-Famous-Themes/Mozart_Symphony-No-40-in-G-minor-K-550.ly:18:13:14">
<g transform="translate(26.0012, 21.6533)">
<path stroke-width="0.0712" stroke-linejoin="round" stroke-linecap="round" stroke="currentColor" fill="currentColor" d="M0.7383 -2.7389C1.3842 -3.1456 2.2235 -2.9777 2.6633 -2.3539L2.6633 -2.3539C2.2025 -2.8730 1.3632 -3.0408 0.7383 -2.7389z"/>
</g>
</a>
<a style="color:inherit;" xlink:href="textedit:///Users/marc.mouries/projects/Sheet-Music/Learn-Violin-with-Famous-Themes/Mozart_Symphony-No-40-in-G-minor-K-550.ly:21:13:14">
<g transform="translate(49.6094, 21.6533)">
<path transform="scale(0.0040, -0.0040)" d="M-4 79c0 59 125 82 125 181c0 24 -8 47 -24 67l-39 46c-2 3 -3 6 -3 9c0 7 7 14 14 14c3 0 7 -1 10 -5l152 -182c7 -8 10 -17 10 -25c0 -59 -125 -82 -125 -181c0 -24 8 -47 24 -67l87 -104c2 -3 3 -5 3 -8c0 -7 -7 -14 -14 -14c-6 0 -48 48 -112 48
c-14 0 -52 -1 -52 -70c0 -35 11 -75 28 -96c6 -7 -4 -16 -10 -9c-46 55 -93 150 -93 204c0 12 0 40 36 40c34 0 85 -15 130 -37l-137 164c-7 8 -10 17 -10 25z" fill="currentColor"/>
</g>
</a>
<a style="color:inherit;" xlink:href="textedit:///Users/marc.mouries/projects/Sheet-Music/Learn-Violin-with-Famous-Themes/Mozart_Symphony-No-40-in-G-minor-K-550.ly:22:2:3">
<g transform="translate(51.7978, 17.8033)">
<path transform="scale(0.0040, -0.0040)" d="M222 135c64 0 104 -35 104 -86c0 -89 -114 -184 -221 -184c-64 0 -105 35 -105 86c0 89 115 184 222 184z" fill="currentColor"/>
</g>
</a>
<g transform="translate(51.8556, 21.6533)">
<rect x="-0.0579" y="-3.6533" width="0.1158" height="3.6594" ry="0.0333" fill="currentColor"/>
</g>
<a style="color:inherit;" xlink:href="textedit:///Users/marc.mouries/projects/Sheet-Music/Learn-Violin-with-Famous-Themes/Mozart_Symphony-No-40-in-G-minor-K-550.ly:22:7:8">
<g transform="translate(53.7565, 18.3533)">
<path transform="scale(0.0040, -0.0040)" d="M222 135c64 0 104 -35 104 -86c0 -89 -114 -184 -221 -184c-64 0 -105 35 -105 86c0 89 115 184 222 184z" fill="currentColor"/>
</g>
</a>
<g transform="translate(53.8144, 21.6533)">
<rect x="-0.0579" y="-3.1033" width="0.1158" height="3.3166" ry="0.0333" fill="currentColor"/>
</g>
<a style="color:inherit;" xlink:href="textedit:///Users/marc.mouries/projects/Sheet-Music/Learn-Violin-with-Famous-Themes/Mozart_Symphony-No-40-in-G-minor-K-550.ly:23:2:3">
<g transform="translate(56.5314, 18.9033)">
<path transform="scale(0.0040, -0.0040)" d="M222 135c64 0 104 -35 104 -86c0 -89 -114 -184 -221 -184c-64 0 -105 35 -105 86c0 89 115 184 222 184z" fill="currentColor"/>
</g>
</a>
<g transform="translate(56.5893, 21.6533)">
<rect x="-0.0579" y="-2.5533" width="0.1158" height="3.6533" ry="0.0333" fill="currentColor"/>
</g>
<g transform="translate(90.9891, 23.8533)">
<polygon stroke-linejoin="round" stroke-linecap="round" stroke-width="0.0667" fill="currentColor" stroke="currentColor" points="2.0074 -0.0112 2.0074 0.4501 0.0333 0.2307 0.0333 -0.2307"/>
</g>
<a style="color:inherit;" xlink:href="textedit:///Users/marc.mouries/projects/Sheet-Music/Learn-Violin-with-Famous-Themes/Mozart_Symphony-No-40-in-G-minor-K-550.ly:23:5:6">
<g transform="translate(59.0756, 18.9033)">
<path transform="scale(0.0040, -0.0040)" d="M222 135c64 0 104 -35 104 -86c0 -89 -114 -184 -221 -184c-64 0 -105 35 -105 86c0 89 115 184 222 184z" fill="currentColor"/>
</g>
</a>
<g transform="translate(59.1335, 21.6533)">
<rect x="-0.0579" y="-2.5533" width="0.1158" height="3.4400" ry="0.0333" fill="currentColor"/>
</g>
<a style="color:inherit;" xlink:href="textedit:///Users/marc.mouries/projects/Sheet-Music/Learn-Violin-with-Famous-Themes/Mozart_Symphony-No-40-in-G-minor-K-550.ly:23:9:10">
<g transform="translate(61.0006, 19.4533)">
<path transform="scale(0.0040, -0.0040)" d="M222 135c64 0 104 -35 104 -86c0 -89 -114 -184 -221 -184c-64 0 -105 35 -105 86c0 89 115 184 222 184z" fill="currentColor"/>
</g>
</a>
<g transform="translate(61.0585, 21.6533)">
<rect x="-0.0579" y="-2.0033" width="0.1158" height="3.0970" ry="0.0333" fill="currentColor"/>
</g>
<a style="color:inherit;" xlink:href="textedit:///Users/marc.mouries/projects/Sheet-Music/Learn-Violin-with-Famous-Themes/Mozart_Symphony-No-40-in-G-minor-K-550.ly:24:2:3">
<g transform="translate(62.9256, 20.0033)">
<path transform="scale(0.0040, -0.0040)" d="M222 135c64 0 104 -35 104 -86c0 -89 -114 -184 -221 -184c-64 0 -105 35 -105 86c0 89 115 184 222 184z" fill="currentColor"/>
</g>
</a>
<g transform="translate(62.9835, 21.6533)">
<rect x="-0.0579" y="-1.4533" width="0.1158" height="3.6533" ry="0.0333" fill="currentColor"/>
</g>
<a style="color:inherit;" xlink:href="textedit:///Users/marc.mouries/projects/Sheet-Music/Learn-Violin-with-Famous-Themes/Mozart_Symphony-No-40-in-G-minor-K-550.ly:24:6:7">
<g transform="translate(65.4697, 20.0033)">
<path transform="scale(0.0040, -0.0040)" d="M222 135c64 0 104 -35 104 -86c0 -89 -114 -184 -221 -184c-64 0 -105 35 -105 86c0 89 115 184 222 184z" fill="currentColor"/>
</g>
</a>
<g transform="translate(65.5276, 21.6533)">
<rect x="-0.0579" y="-1.4533" width="0.1158" height="3.4400" ry="0.0333" fill="currentColor"/>
</g>
<a style="color:inherit;" xlink:href="textedit:///Users/marc.mouries/projects/Sheet-Music/Learn-Violin-with-Famous-Themes/Mozart_Symphony-No-40-in-G-minor-K-550.ly:24:11:12">
<g transform="translate(67.3947, 20.5533)">
<path transform="scale(0.0040, -0.0040)" d="M222 135c64 0 104 -35 104 -86c0 -89 -114 -184 -221 -184c-64 0 -105 35 -105 86c0 89 115 184 222 184z" fill="currentColor"/>
</g>
</a>
<g transform="translate(67.4526, 21.6533)">
<rect x="-0.0579" y="-0.9033" width="0.1158" height="3.0970" ry="0.0333" fill="currentColor"/>
</g>
<a style="color:inherit;" xlink:href="textedit:///Users/marc.mouries/projects/Sheet-Music/Learn-Violin-with-Famous-Themes/Mozart_Symphony-No-40-in-G-minor-K-550.ly:25:2:3">
<g transform="translate(70.1041, 21.1033)">
<path transform="scale(0.0040, -0.0040)" d="M222 135c64 0 104 -35 104 -86c0 -89 -114 -184 -221 -184c-64 0 -105 35 -105 86c0 89 115 184 222 184z" fill="currentColor"/>
</g>
</a>
<g transform="translate(70.1619, 21.6533)">
<rect x="-0.0579" y="-0.3533" width="0.1158" height="3.6533" ry="0.0333" fill="currentColor"/>
</g>
<a style="color:inherit;" xlink:href="textedit:///Users/marc.mouries/projects/Sheet-Music/Learn-Violin-with-Famous-Themes/Mozart_Symphony-No-40-in-G-minor-K-550.ly:25:7:8">
<g transform="translate(72.6482, 21.1033)">
<path transform="scale(0.0040, -0.0040)" d="M222 135c64 0 104 -35 104 -86c0 -89 -114 -184 -221 -184c-64 0 -105 35 -105 86c0 89 115 184 222 184z" fill="currentColor"/>
</g>
</a>
<g transform="translate(72.7061, 21.6533)">
<rect x="-0.0579" y="-0.3533" width="0.1158" height="3.6533" ry="0.0333" fill="currentColor"/>
</g>
<a style="color:inherit;" xlink:href="textedit:///Users/marc.mouries/projects/Sheet-Music/Learn-Violin-with-Famous-Themes/Mozart_Symphony-No-40-in-G-minor-K-550.ly:25:11:12">
<g transform="translate(75.1924, 21.6533)">
<path transform="scale(0.0040, -0.0040)" d="M-4 79c0 59 125 82 125 181c0 24 -8 47 -24 67l-39 46c-2 3 -3 6 -3 9c0 7 7 14 14 14c3 0 7 -1 10 -5l152 -182c7 -8 10 -17 10 -25c0 -59 -125 -82 -125 -181c0 -24 8 -47 24 -67l87 -104c2 -3 3 -5 3 -8c0 -7 -7 -14 -14 -14c-6 0 -48 48 -112 48
c-14 0 -52 -1 -52 -70c0 -35 11 -75 28 -96c6 -7 -4 -16 -10 -9c-46 55 -93 150 -93 204c0 12 0 40 36 40c34 0 85 -15 130 -37l-137 164c-7 8 -10 17 -10 25z" fill="currentColor"/>
</g>
</a>
<a style="color:inherit;" xlink:href="textedit:///Users/marc.mouries/projects/Sheet-Music/Learn-Violin-with-Famous-Themes/Mozart_Symphony-No-40-in-G-minor-K-550.ly:25:14:15">
<g transform="translate(77.3808, 20.5533)">
<path transform="scale(0.0040, -0.0040)" d="M222 135c64 0 104 -35 104 -86c0 -89 -114 -184 -221 -184c-64 0 -105 35 -105 86c0 89 115 184 222 184z" fill="currentColor"/>
</g>
</a>
<g transform="translate(77.4387, 21.6533)">
<rect x="-0.0579" y="-0.9033" width="0.1158" height="3.1095" ry="0.0333" fill="currentColor"/>
</g>
<a style="color:inherit;" xlink:href="textedit:///Users/marc.mouries/projects/Sheet-Music/Learn-Violin-with-Famous-Themes/Mozart_Symphony-No-40-in-G-minor-K-550.ly:25:17:18">
<g transform="translate(79.3058, 21.1033)">
<path transform="scale(0.0040, -0.0040)" d="M222 135c64 0 104 -35 104 -86c0 -89 -114 -184 -221 -184c-64 0 -105 35 -105 86c0 89 115 184 222 184z" fill="currentColor"/>
</g>
</a>
<g transform="translate(79.3637, 21.6533)">
<rect x="-0.0579" y="-0.3533" width="0.1158" height="2.7665" ry="0.0333" fill="currentColor"/>
</g>
<g transform="translate(92.9720, 21.6533)">
<rect x="-0.0579" y="-0.3533" width="0.1158" height="2.7665" ry="0.0333" fill="currentColor"/>
</g>
<a style="color:inherit;" xlink:href="textedit:///Users/marc.mouries/projects/Sheet-Music/Learn-Violin-with-Famous-Themes/Mozart_Symphony-No-40-in-G-minor-K-550.ly:26:2:3">
<g transform="translate(82.0508, 21.1033)">
<path transform="scale(0.0040, -0.0040)" d="M222 135c64 0 104 -35 104 -86c0 -89 -114 -184 -221 -184c-64 0 -105 35 -105 86c0 89 115 184 222 184z" fill="currentColor"/>
</g>
</a>
<g transform="translate(82.1087, 21.6533)">
<rect x="-0.0579" y="-0.3533" width="0.1158" height="3.6533" ry="0.0333" fill="currentColor"/>
</g>
<a style="color:inherit;" xlink:href="textedit:///Users/marc.mouries/projects/Sheet-Music/Learn-Violin-with-Famous-Themes/Mozart_Symphony-No-40-in-G-minor-K-550.ly:26:16:17">
<g transform="translate(92.9141, 21.1033)">
<path transform="scale(0.0040, -0.0040)" d="M222 135c64 0 104 -35 104 -86c0 -89 -114 -184 -221 -184c-64 0 -105 35 -105 86c0 89 115 184 222 184z" fill="currentColor"/>
</g>
</a>
<a style="color:inherit;" xlink:href="textedit:///Users/marc.mouries/projects/Sheet-Music/Learn-Violin-with-Famous-Themes/Mozart_Symphony-No-40-in-G-minor-K-550.ly:26:5:6">
<g transform="translate(84.5950, 20.5533)">
<path transform="scale(0.0040, -0.0040)" d="M222 135c64 0 104 -35 104 -86c0 -89 -114 -184 -221 -184c-64 0 -105 35 -105 86c0 89 115 184 222 184z" fill="currentColor"/>
</g>
</a>
<g transform="translate(84.6529, 21.6533)">
<rect x="-0.0579" y="-0.9033" width="0.1158" height="3.1095" ry="0.0333" fill="currentColor"/>
</g>
<a style="color:inherit;" xlink:href="textedit:///Users/marc.mouries/projects/Sheet-Music/Learn-Violin-with-Famous-Themes/Mozart_Symphony-No-40-in-G-minor-K-550.ly:26:8:9">
<g transform="translate(86.5200, 21.1033)">
<path transform="scale(0.0040, -0.0040)" d="M222 135c64 0 104 -35 104 -86c0 -89 -114 -184 -221 -184c-64 0 -105 35 -105 86c0 89 115 184 222 184z" fill="currentColor"/>
</g>
</a>
<g transform="translate(86.5779, 21.6533)">
<rect x="-0.0579" y="-0.3533" width="0.1158" height="2.7665" ry="0.0333" fill="currentColor"/>
</g>
<a style="color:inherit;" xlink:href="textedit:///Users/marc.mouries/projects/Sheet-Music/Learn-Violin-with-Famous-Themes/Mozart_Symphony-No-40-in-G-minor-K-550.ly:26:10:11">
<g transform="translate(88.4450, 21.1033)">
<path transform="scale(0.0040, -0.0040)" d="M222 135c64 0 104 -35 104 -86c0 -89 -114 -184 -221 -184c-64 0 -105 35 -105 86c0 89 115 184 222 184z" fill="currentColor"/>
</g>
</a>
<g transform="translate(88.5029, 21.6533)">
<rect x="-0.0579" y="-0.3533" width="0.1158" height="3.6533" ry="0.0333" fill="currentColor"/>
</g>
<a style="color:inherit;" xlink:href="textedit:///Users/marc.mouries/projects/Sheet-Music/Learn-Violin-with-Famous-Themes/Mozart_Symphony-No-40-in-G-minor-K-550.ly:26:13:14">
<g transform="translate(90.9891, 20.5533)">
<path transform="scale(0.0040, -0.0040)" d="M222 135c64 0 104 -35 104 -86c0 -89 -114 -184 -221 -184c-64 0 -105 35 -105 86c0 89 115 184 222 184z" fill="currentColor"/>
</g>
</a>
<g transform="translate(91.0470, 21.6533)">
<rect x="-0.0579" y="-0.9033" width="0.1158" height="3.1095" ry="0.0333" fill="currentColor"/>
</g>
<g transform="translate(4.7421, 34.3533)">
<rect x="64.0759" y="-0.0995" width="1.9328" height="0.1990" ry="0.0995" fill="currentColor"/>
</g>
<g transform="translate(4.7421, 34.3533)">
<rect x="61.5681" y="-0.0995" width="1.9587" height="0.1990" ry="0.0995" fill="currentColor"/>
</g>
<g transform="translate(4.7421, 34.3533)">
<rect x="55.4591" y="-0.0995" width="1.9587" height="0.1990" ry="0.0995" fill="currentColor"/>
</g>
<g transform="translate(4.7421, 33.2533)">
<rect x="49.5454" y="-0.0995" width="1.9587" height="0.1990" ry="0.0995" fill="currentColor"/>
</g>
<g transform="translate(4.7421, 34.3533)">
<rect x="49.5454" y="-0.0995" width="1.9587" height="0.1990" ry="0.0995" fill="currentColor"/>
</g>
<g transform="translate(4.7421, 34.3533)">
<rect x="46.7876" y="-0.0995" width="1.9587" height="0.1990" ry="0.0995" fill="currentColor"/>
</g>
<g transform="translate(4.7421, 34.3533)">
<rect x="44.1190" y="-0.0995" width="1.9087" height="0.1990" ry="0.0995" fill="currentColor"/>
</g>
<g transform="translate(4.7421, 34.3533)">
<rect x="42.1103" y="-0.0995" width="1.9087" height="0.1990" ry="0.0995" fill="currentColor"/>
</g>
<g transform="translate(4.7421, 34.3533)">
<rect x="15.6989" y="-0.0995" width="1.9328" height="0.1990" ry="0.0995" fill="currentColor"/>
</g>
<g transform="translate(4.7421, 34.3533)">
<rect x="11.0389" y="-0.0995" width="1.9587" height="0.1990" ry="0.0995" fill="currentColor"/>
</g>
<g transform="translate(4.7421, 39.8533)">
<line stroke-linejoin="round" stroke-linecap="round" stroke-width="0.0890" stroke="currentColor" x1="0.0445" y1="0" x2="90.0559" y2="0"/>
</g>
<g transform="translate(4.7421, 38.7533)">
<line stroke-linejoin="round" stroke-linecap="round" stroke-width="0.0890" stroke="currentColor" x1="0.0445" y1="0" x2="90.0559" y2="0"/>
</g>
<g transform="translate(4.7421, 37.6533)">
<line stroke-linejoin="round" stroke-linecap="round" stroke-width="0.0890" stroke="currentColor" x1="0.0445" y1="0" x2="90.0559" y2="0"/>
</g>
<g transform="translate(4.7421, 36.5533)">
<line stroke-linejoin="round" stroke-linecap="round" stroke-width="0.0890" stroke="currentColor" x1="0.0445" y1="0" x2="90.0559" y2="0"/>
</g>
<g transform="translate(4.7421, 35.4533)">
<line stroke-linejoin="round" stroke-linecap="round" stroke-width="0.0890" stroke="currentColor" x1="0.0445" y1="0" x2="90.0559" y2="0"/>
</g>
<g transform="translate(94.6733, 37.6533)">
<rect x="0.0000" y="-2.2000" width="0.1692" height="4.4000" ry="0.0000" fill="currentColor"/>
</g>
<g transform="translate(88.9100, 37.6533)">
<rect x="0.0000" y="-2.2000" width="0.1692" height="4.4000" ry="0.0000" fill="currentColor"/>
</g>
<g transform="translate(82.2980, 37.6533)">
<rect x="0.0000" y="-2.2000" width="0.1692" height="4.4000" ry="0.0000" fill="currentColor"/>
</g>
<g transform="translate(76.5347, 37.6533)">
<rect x="0.0000" y="-2.2000" width="0.1692" height="4.4000" ry="0.0000" fill="currentColor"/>
</g>
<g transform="translate(62.8570, 37.6533)">
<rect x="0.0000" y="-2.2000" width="0.1692" height="4.4000" ry="0.0000" fill="currentColor"/>
</g>
<g transform="translate(50.8658, 37.6533)">
<rect x="0.0000" y="-2.2000" width="0.1692" height="4.4000" ry="0.0000" fill="currentColor"/>
</g>
<g transform="translate(39.0634, 37.6533)">
<rect x="0.0000" y="-2.2000" width="0.1692" height="4.4000" ry="0.0000" fill="currentColor"/>
</g>
<g transform="translate(24.3669, 37.6533)">
<rect x="0.0000" y="-2.2000" width="0.1692" height="4.4000" ry="0.0000" fill="currentColor"/>
</g>
<g transform="translate(3.8601, 34.3849)">
<text font-family="serif" font-size="1.7463" text-anchor="start" fill="currentColor">
<tspan>7</tspan>
</text>
</g>
<g transform="translate(69.1445, 37.8727)">
<polygon stroke-linejoin="round" stroke-linecap="round" stroke-width="0.0667" fill="currentColor" stroke="currentColor" points="5.8030 0.8693 5.8030 1.3307 0.0333 0.2307 0.0333 -0.2307"/>
</g>
<a style="color:inherit;" xlink:href="textedit:///Users/marc.mouries/projects/Sheet-Music/Learn-Violin-with-Famous-Themes/Mozart_Symphony-No-40-in-G-minor-K-550.ly:28:2:3">
<g transform="translate(13.3496, 37.1033)">
<path transform="scale(0.0040, -0.0040)" d="M222 135c64 0 104 -35 104 -86c0 -89 -114 -184 -221 -184c-64 0 -105 35 -105 86c0 89 115 184 222 184z" fill="currentColor"/>
</g>
</a>
<g transform="translate(13.4075, 37.6533)">
<rect x="-0.0579" y="-0.3533" width="0.1158" height="3.6533" ry="0.0333" fill="currentColor"/>
</g>
<g transform="translate(47.1789, 37.6533)">
<polygon stroke-linejoin="round" stroke-linecap="round" stroke-width="0.0667" fill="currentColor" stroke="currentColor" points="2.0411 -0.0112 2.0411 0.4501 0.0333 0.2307 0.0333 -0.2307"/>
</g>
<a style="color:inherit;" xlink:href="textedit:///Users/marc.mouries/projects/Sheet-Music/Learn-Violin-with-Famous-Themes/Mozart_Symphony-No-40-in-G-minor-K-550.ly:28:6:7">
<g transform="translate(16.1075, 34.3533)">
<path transform="scale(0.0040, -0.0040)" d="M222 135c64 0 104 -35 104 -86c0 -89 -114 -184 -221 -184c-64 0 -105 35 -105 86c0 89 115 184 222 184z" fill="currentColor"/>
</g>
</a>
<g transform="translate(16.1654, 37.6533)">
<rect x="-0.0579" y="-3.1033" width="0.1158" height="3.6533" ry="0.0333" fill="currentColor"/>
</g>
<a style="color:inherit;" xlink:href="textedit:///Users/marc.mouries/projects/Sheet-Music/Learn-Violin-with-Famous-Themes/Mozart_Symphony-No-40-in-G-minor-K-550.ly:31:4:5">
<g transform="translate(51.8561, 37.6533)">
<path stroke-width="0.0712" stroke-linejoin="round" stroke-linecap="round" stroke="currentColor" fill="currentColor" d="M0.6529 -4.3889C2.3630 -5.8390 7.6144 -5.8390 9.3245 -4.3889L9.3245 -4.3889C7.6144 -5.7321 2.3630 -5.7321 0.6529 -4.3889z"/>
</g>
</a>
<a style="color:inherit;" xlink:href="textedit:///Users/marc.mouries/projects/Sheet-Music/Learn-Violin-with-Famous-Themes/Mozart_Symphony-No-40-in-G-minor-K-550.ly:28:11:12">
<g transform="translate(18.6154, 37.6533)">
<path transform="scale(0.0040, -0.0040)" d="M-4 79c0 59 125 82 125 181c0 24 -8 47 -24 67l-39 46c-2 3 -3 6 -3 9c0 7 7 14 14 14c3 0 7 -1 10 -5l152 -182c7 -8 10 -17 10 -25c0 -59 -125 -82 -125 -181c0 -24 8 -47 24 -67l87 -104c2 -3 3 -5 3 -8c0 -7 -7 -14 -14 -14c-6 0 -48 48 -112 48
c-14 0 -52 -1 -52 -70c0 -35 11 -75 28 -96c6 -7 -4 -16 -10 -9c-46 55 -93 150 -93 204c0 12 0 40 36 40c34 0 85 -15 130 -37l-137 164c-7 8 -10 17 -10 25z" fill="currentColor"/>
</g>
</a>
<g transform="translate(35.4155, 39.8533)">
<polygon stroke-linejoin="round" stroke-linecap="round" stroke-width="0.0667" fill="currentColor" stroke="currentColor" points="1.9893 -0.0112 1.9893 0.4501 0.0333 0.2307 0.0333 -0.2307"/>
</g>
<a style="color:inherit;" xlink:href="textedit:///Users/marc.mouries/projects/Sheet-Music/Learn-Violin-with-Famous-Themes/Mozart_Symphony-No-40-in-G-minor-K-550.ly:28:14:15">
<g transform="translate(20.7675, 34.3533)">
<path transform="scale(0.0040, -0.0040)" d="M222 135c64 0 104 -35 104 -86c0 -89 -114 -184 -221 -184c-64 0 -105 35 -105 86c0 89 115 184 222 184z" fill="currentColor"/>
</g>
</a>
<g transform="translate(20.8253, 37.6533)">
<rect x="-0.0579" y="-3.1033" width="0.1158" height="3.1096" ry="0.0333" fill="currentColor"/>
</g>
<g transform="translate(29.0939, 38.7533)">
<polygon stroke-linejoin="round" stroke-linecap="round" stroke-width="0.0667" fill="currentColor" stroke="currentColor" points="1.9893 -0.0112 1.9893 0.4501 0.0333 0.2307 0.0333 -0.2307"/>
</g>
<a style="color:inherit;" xlink:href="textedit:///Users/marc.mouries/projects/Sheet-Music/Learn-Violin-with-Famous-Themes/Mozart_Symphony-No-40-in-G-minor-K-550.ly:28:17:18">
<g transform="translate(22.6743, 34.9033)">
<path transform="scale(0.0040, -0.0040)" d="M222 135c64 0 104 -35 104 -86c0 -89 -114 -184 -221 -184c-64 0 -105 35 -105 86c0 89 115 184 222 184z" fill="currentColor"/>
</g>
</a>
<g transform="translate(22.7322, 37.6533)">
<rect x="-0.0579" y="-2.5533" width="0.1158" height="2.7665" ry="0.0333" fill="currentColor"/>
</g>
<g transform="translate(20.7675, 37.6533)">
<polygon stroke-linejoin="round" stroke-linecap="round" stroke-width="0.0667" fill="currentColor" stroke="currentColor" points="1.9893 -0.0112 1.9893 0.4501 0.0333 0.2307 0.0333 -0.2307"/>
</g>
<a style="color:inherit;" xlink:href="textedit:///Users/marc.mouries/projects/Sheet-Music/Learn-Violin-with-Famous-Themes/Mozart_Symphony-No-40-in-G-minor-K-550.ly:28:4:5">
<g transform="translate(13.3496, 37.6533)">
<path stroke-width="0.0712" stroke-linejoin="round" stroke-linecap="round" stroke="currentColor" fill="currentColor" d="M0.3456 -1.6389C0.3991 -2.9693 1.7729 -4.3392 3.1034 -4.3889L3.1034 -4.3889C1.8484 -4.2635 0.4746 -2.8936 0.3456 -1.6389z"/>
</g>
</a>
<a style="color:inherit;" xlink:href="textedit:///Users/marc.mouries/projects/Sheet-Music/Learn-Violin-with-Famous-Themes/Mozart_Symphony-No-40-in-G-minor-K-550.ly:29:2:3">
<g transform="translate(26.5861, 35.4533)">
<path transform="scale(0.0040, -0.0040)" d="M222 135c64 0 104 -35 104 -86c0 -89 -114 -184 -221 -184c-64 0 -105 35 -105 86c0 89 115 184 222 184z" fill="currentColor"/>
</g>
</a>
<g transform="translate(9.1459, 37.6533)">
<path transform="scale(0.0040, -0.0040)" d="M25 44l-1 -69c0 -4 -1 -7 -1 -11c0 -22 2 -44 4 -66c46 38 96 80 96 139c0 34 -14 69 -44 69c-31 0 -53 -29 -54 -62zM-25 463c8 4 16 7 25 7s17 -3 25 -7l-6 -349c26 19 56 30 88 30c53 0 93 -46 93 -100c0 -82 -90 -118 -153 -169c-14 -11 -22 -32 -40 -32
c-12 0 -21 9 -21 21z" fill="currentColor"/>
</g>
<g transform="translate(10.0496, 36.0033)">
<path transform="scale(0.0040, -0.0040)" d="M25 44l-1 -69c0 -4 -1 -7 -1 -11c0 -22 2 -44 4 -66c46 38 96 80 96 139c0 34 -14 69 -44 69c-31 0 -53 -29 -54 -62zM-25 463c8 4 16 7 25 7s17 -3 25 -7l-6 -349c26 19 56 30 88 30c53 0 93 -46 93 -100c0 -82 -90 -118 -153 -169c-14 -11 -22 -32 -40 -32
c-12 0 -21 9 -21 21z" fill="currentColor"/>
</g>
<g transform="translate(26.6439, 37.6533)">
<rect x="-0.0579" y="-2.0033" width="0.1158" height="3.6533" ry="0.0333" fill="currentColor"/>
</g>
<g transform="translate(25.1361, 35.4533)">
<path transform="scale(0.0040, -0.0040)" d="M0 121c0 7 5 13 11 15l49 17v163c0 9 8 17 17 17s17 -8 17 -17v-151l87 31v162c0 9 8 17 17 17s17 -8 17 -17v-150l39 13c10 4 21 -4 21 -15v-64c0 -7 -5 -13 -11 -15l-49 -18v-164l39 14c10 4 21 -4 21 -15v-65c0 -7 -5 -13 -11 -15l-49 -17v-163c0 -9 -8 -17 -17 -17
s-17 8 -17 17v151l-87 -31v-162c0 -9 -8 -17 -17 -17s-17 8 -17 17v150l-39 -13c-10 -4 -21 4 -21 15v64c0 7 5 13 11 15l49 18v164l-39 -14c-10 -4 -21 4 -21 15v65zM181 97l-87 -30v-164l87 30v164z" fill="currentColor"/>
</g>
<a style="color:inherit;" xlink:href="textedit:///Users/marc.mouries/projects/Sheet-Music/Learn-Violin-with-Famous-Themes/Mozart_Symphony-No-40-in-G-minor-K-550.ly:29:6:7">
<g transform="translate(29.0939, 35.4533)">
<path transform="scale(0.0040, -0.0040)" d="M222 135c64 0 104 -35 104 -86c0 -89 -114 -184 -221 -184c-64 0 -105 35 -105 86c0 89 115 184 222 184z" fill="currentColor"/>
</g>
</a>
<g transform="translate(29.1518, 37.6533)">
<rect x="-0.0579" y="-2.0033" width="0.1158" height="3.1096" ry="0.0333" fill="currentColor"/>
</g>
<a style="color:inherit;" xlink:href="textedit:///Users/marc.mouries/projects/Sheet-Music/Learn-Violin-with-Famous-Themes/Mozart_Symphony-No-40-in-G-minor-K-550.ly:29:10:11">
<g transform="translate(31.0008, 36.0033)">
<path transform="scale(0.0040, -0.0040)" d="M222 135c64 0 104 -35 104 -86c0 -89 -114 -184 -221 -184c-64 0 -105 35 -105 86c0 89 115 184 222 184z" fill="currentColor"/>
</g>
</a>
<g transform="translate(31.0587, 37.6533)">
<rect x="-0.0579" y="-1.4533" width="0.1158" height="2.7665" ry="0.0333" fill="currentColor"/>
</g>
<a style="color:inherit;" xlink:href="textedit:///Users/marc.mouries/projects/Sheet-Music/Learn-Violin-with-Famous-Themes/Mozart_Symphony-No-40-in-G-minor-K-550.ly:29:13:14">
<g transform="translate(32.9076, 36.5533)">
<path transform="scale(0.0040, -0.0040)" d="M222 135c64 0 104 -35 104 -86c0 -89 -114 -184 -221 -184c-64 0 -105 35 -105 86c0 89 115 184 222 184z" fill="currentColor"/>
</g>
</a>
<g transform="translate(32.9655, 37.6533)">
<rect x="-0.0579" y="-0.9033" width="0.1158" height="3.6533" ry="0.0333" fill="currentColor"/>
</g>
<a style="color:inherit;" xlink:href="textedit:///Users/marc.mouries/projects/Sheet-Music/Learn-Violin-with-Famous-Themes/Mozart_Symphony-No-40-in-G-minor-K-550.ly:29:16:17">
<g transform="translate(35.4155, 36.5533)">
<path transform="scale(0.0040, -0.0040)" d="M222 135c64 0 104 -35 104 -86c0 -89 -114 -184 -221 -184c-64 0 -105 35 -105 86c0 89 115 184 222 184z" fill="currentColor"/>
</g>
</a>
<g transform="translate(35.4734, 37.6533)">
<rect x="-0.0579" y="-0.9033" width="0.1158" height="3.1096" ry="0.0333" fill="currentColor"/>
</g>
<a style="color:inherit;" xlink:href="textedit:///Users/marc.mouries/projects/Sheet-Music/Learn-Violin-with-Famous-Themes/Mozart_Symphony-No-40-in-G-minor-K-550.ly:29:19:20">
<g transform="translate(37.3224, 37.1033)">
<path transform="scale(0.0040, -0.0040)" d="M222 135c64 0 104 -35 104 -86c0 -89 -114 -184 -221 -184c-64 0 -105 35 -105 86c0 89 115 184 222 184z" fill="currentColor"/>
</g>
</a>
<g transform="translate(37.3802, 37.6533)">
<rect x="-0.0579" y="-0.3533" width="0.1158" height="2.7665" ry="0.0333" fill="currentColor"/>
</g>
<a style="color:inherit;" xlink:href="textedit:///Users/marc.mouries/projects/Sheet-Music/Learn-Violin-with-Famous-Themes/Mozart_Symphony-No-40-in-G-minor-K-550.ly:30:2:3">
<g transform="translate(40.0110, 37.6533)">
<path transform="scale(0.0040, -0.0040)" d="M222 135c64 0 104 -35 104 -86c0 -89 -114 -184 -221 -184c-64 0 -105 35 -105 86c0 89 115 184 222 184z" fill="currentColor"/>
</g>
</a>
<g transform="translate(5.5421, 38.7533)">
<path transform="scale(0.0040, -0.0040)" d="M264 -594c47 0 165 26 165 246c0 32 -2 64 -5 96c-5 -1 -44 -8 -89 -8c-193 0 -333 178 -333 372c0 178 133 306 251 440c-27 93 -49 170 -49 345c0 116 55 226 150 295c5 4 11 4 16 0c67 -81 132 -246 132 -359c0 -144 -87 -256 -183 -365c20 -69 39 -138 55 -208
c2 0 7 1 15 1c154 0 254 -127 254 -259c0 -112 -73 -212 -180 -245c3 -36 5 -72 5 -108c0 -19 0 -37 -1 -56c-7 -120 -89 -226 -206 -226c-108 0 -195 87 -195 195c0 58 53 104 112 104c54 0 95 -48 95 -104c0 -52 -43 -95 -95 -95c-12 0 -24 4 -35 9c26 -41 70 -70 121 -70
zM459 -205c71 24 117 92 117 166c0 92 -69 184 -179 193c1 -5 45 -212 62 -359zM71 31c0 -146 142 -251 267 -251c1 0 46 0 82 6c-7 63 -28 201 -64 367c-79 -9 -125 -62 -125 -121c0 -44 26 -92 82 -124c4 -4 7 -9 7 -14c0 -11 -9 -21 -20 -21c-14 0 -125 62 -125 186
c0 88 57 173 158 196c-14 60 -30 119 -46 178c-108 -121 -216 -242 -216 -402zM411 1050c-99 -50 -161 -151 -161 -262c0 -59 11 -123 33 -200c82 97 149 198 149 325c0 35 0 69 -21 137z" fill="currentColor"/>
</g>
<g transform="translate(40.0689, 37.6533)">
<rect x="-0.0579" y="0.1967" width="0.1158" height="3.4699" ry="0.0333" fill="currentColor"/>
</g>
<a style="color:inherit;" xlink:href="textedit:///Users/marc.mouries/projects/Sheet-Music/Learn-Violin-with-Famous-Themes/Mozart_Symphony-No-40-in-G-minor-K-550.ly:30:6:7">
<g transform="translate(42.5189, 37.6533)">
<path transform="scale(0.0040, -0.0040)" d="M222 135c64 0 104 -35 104 -86c0 -89 -114 -184 -221 -184c-64 0 -105 35 -105 86c0 89 115 184 222 184z" fill="currentColor"/>
</g>
</a>
<g transform="translate(42.5768, 37.6533)">
<rect x="-0.0579" y="0.1967" width="0.1158" height="3.4699" ry="0.0333" fill="currentColor"/>
</g>
<a style="color:inherit;" xlink:href="textedit:///Users/marc.mouries/projects/Sheet-Music/Learn-Violin-with-Famous-Themes/Mozart_Symphony-No-40-in-G-minor-K-550.ly:30:9:10">
<g transform="translate(45.0268, 37.6533)">
<path transform="scale(0.0040, -0.0040)" d="M-4 79c0 59 125 82 125 181c0 24 -8 47 -24 67l-39 46c-2 3 -3 6 -3 9c0 7 7 14 14 14c3 0 7 -1 10 -5l152 -182c7 -8 10 -17 10 -25c0 -59 -125 -82 -125 -181c0 -24 8 -47 24 -67l87 -104c2 -3 3 -5 3 -8c0 -7 -7 -14 -14 -14c-6 0 -48 48 -112 48
c-14 0 -52 -1 -52 -70c0 -35 11 -75 28 -96c6 -7 -4 -16 -10 -9c-46 55 -93 150 -93 204c0 12 0 40 36 40c34 0 85 -15 130 -37l-137 164c-7 8 -10 17 -10 25z" fill="currentColor"/>
</g>
</a>
<a style="color:inherit;" xlink:href="textedit:///Users/marc.mouries/projects/Sheet-Music/Learn-Violin-with-Famous-Themes/Mozart_Symphony-No-40-in-G-minor-K-550.ly:30:12:13">
<g transform="translate(47.1789, 33.8033)">
<path transform="scale(0.0040, -0.0040)" d="M222 135c64 0 104 -35 104 -86c0 -89 -114 -184 -221 -184c-64 0 -105 35 -105 86c0 89 115 184 222 184z" fill="currentColor"/>
</g>
</a>
<g transform="translate(47.2367, 37.6533)">
<rect x="-0.0579" y="-3.6533" width="0.1158" height="3.6594" ry="0.0333" fill="currentColor"/>
</g>
<a style="color:inherit;" xlink:href="textedit:///Users/marc.mouries/projects/Sheet-Music/Learn-Violin-with-Famous-Themes/Mozart_Symphony-No-40-in-G-minor-K-550.ly:30:17:18">
<g transform="translate(49.1376, 34.3533)">
<path transform="scale(0.0040, -0.0040)" d="M222 135c64 0 104 -35 104 -86c0 -89 -114 -184 -221 -184c-64 0 -105 35 -105 86c0 89 115 184 222 184z" fill="currentColor"/>
</g>
</a>
<g transform="translate(49.1955, 37.6533)">
<rect x="-0.0579" y="-3.1033" width="0.1158" height="3.3166" ry="0.0333" fill="currentColor"/>
</g>
<a style="color:inherit;" xlink:href="textedit:///Users/marc.mouries/projects/Sheet-Music/Learn-Violin-with-Famous-Themes/Mozart_Symphony-No-40-in-G-minor-K-550.ly:31:2:3">
<g transform="translate(51.8561, 34.3533)">
<path transform="scale(0.0040, -0.0040)" d="M222 135c64 0 104 -35 104 -86c0 -89 -114 -184 -221 -184c-64 0 -105 35 -105 86c0 89 115 184 222 184z" fill="currentColor"/>
</g>
</a>
<g transform="translate(51.9140, 37.6533)">
<rect x="-0.0579" y="-3.1033" width="0.1158" height="3.6533" ry="0.0333" fill="currentColor"/>
</g>
<a style="color:inherit;" xlink:href="textedit:///Users/marc.mouries/projects/Sheet-Music/Learn-Violin-with-Famous-Themes/Mozart_Symphony-No-40-in-G-minor-K-550.ly:31:6:7">
<g transform="translate(54.6140, 33.2533)">
<path transform="scale(0.0040, -0.0040)" d="M222 135c64 0 104 -35 104 -86c0 -89 -114 -184 -221 -184c-64 0 -105 35 -105 86c0 89 115 184 222 184z" fill="currentColor"/>
</g>
</a>
<g transform="translate(54.6719, 37.6533)">
<rect x="-0.0579" y="-4.2033" width="0.1158" height="4.2033" ry="0.0333" fill="currentColor"/>
</g>
<a style="color:inherit;" xlink:href="textedit:///Users/marc.mouries/projects/Sheet-Music/Learn-Violin-with-Famous-Themes/Mozart_Symphony-No-40-in-G-minor-K-550.ly:31:8:9">
<g transform="translate(57.7698, 35.4533)">
<path transform="scale(0.0040, -0.0040)" d="M222 135c64 0 104 -35 104 -86c0 -89 -114 -184 -221 -184c-64 0 -105 35 -105 86c0 89 115 184 222 184z" fill="currentColor"/>
</g>
</a>
<g transform="translate(57.8277, 37.6533)">
<rect x="-0.0579" y="-2.0033" width="0.1158" height="3.6533" ry="0.0333" fill="currentColor"/>
</g>
<g transform="translate(56.3198, 35.4533)">
<path transform="scale(0.0040, -0.0040)" d="M0 121c0 7 5 13 11 15l49 17v163c0 9 8 17 17 17s17 -8 17 -17v-151l87 31v162c0 9 8 17 17 17s17 -8 17 -17v-150l39 13c10 4 21 -4 21 -15v-64c0 -7 -5 -13 -11 -15l-49 -18v-164l39 14c10 4 21 -4 21 -15v-65c0 -7 -5 -13 -11 -15l-49 -17v-163c0 -9 -8 -17 -17 -17
s-17 8 -17 17v151l-87 -31v-162c0 -9 -8 -17 -17 -17s-17 8 -17 17v150l-39 -13c-10 -4 -21 4 -21 15v64c0 7 5 13 11 15l49 18v164l-39 -14c-10 -4 -21 4 -21 15v65zM181 97l-87 -30v-164l87 30v164z" fill="currentColor"/>
</g>
<a style="color:inherit;" xlink:href="textedit:///Users/marc.mouries/projects/Sheet-Music/Learn-Violin-with-Famous-Themes/Mozart_Symphony-No-40-in-G-minor-K-550.ly:31:12:13">
<g transform="translate(60.5277, 34.3533)">
<path transform="scale(0.0040, -0.0040)" d="M222 135c64 0 104 -35 104 -86c0 -89 -114 -184 -221 -184c-64 0 -105 35 -105 86c0 89 115 184 222 184z" fill="currentColor"/>
</g>
</a>
<g transform="translate(60.5856, 37.6533)">
<rect x="-0.0579" y="-3.1033" width="0.1158" height="3.6533" ry="0.0333" fill="currentColor"/>
</g>
<a style="color:inherit;" xlink:href="textedit:///Users/marc.mouries/projects/Sheet-Music/Learn-Violin-with-Famous-Themes/Mozart_Symphony-No-40-in-G-minor-K-550.ly:32:2:3">
<g transform="translate(63.8787, 34.9033)">
<path transform="scale(0.0040, -0.0040)" d="M222 135c64 0 104 -35 104 -86c0 -89 -114 -184 -221 -184c-64 0 -105 35 -105 86c0 89 115 184 222 184z" fill="currentColor"/>
</g>
</a>
<g transform="translate(63.9366, 37.6533)">
<rect x="-0.0579" y="-2.5533" width="0.1158" height="3.6533" ry="0.0333" fill="currentColor"/>
</g>
<a style="color:inherit;" xlink:href="textedit:///Users/marc.mouries/projects/Sheet-Music/Learn-Violin-with-Famous-Themes/Mozart_Symphony-No-40-in-G-minor-K-550.ly:32:5:6">
<g transform="translate(66.6366, 33.8033)">
<path transform="scale(0.0040, -0.0040)" d="M222 135c64 0 104 -35 104 -86c0 -89 -114 -184 -221 -184c-64 0 -105 35 -105 86c0 89 115 184 222 184z" fill="currentColor"/>
</g>
</a>
<g transform="translate(66.6945, 37.6533)">
<rect x="-0.0579" y="-3.6533" width="0.1158" height="3.6533" ry="0.0333" fill="currentColor"/>
</g>
<a style="color:inherit;" xlink:href="textedit:///Users/marc.mouries/projects/Sheet-Music/Learn-Violin-with-Famous-Themes/Mozart_Symphony-No-40-in-G-minor-K-550.ly:32:8:9">
<g transform="translate(69.1445, 34.3533)">
<path transform="scale(0.0040, -0.0040)" d="M222 135c64 0 104 -35 104 -86c0 -89 -114 -184 -221 -184c-64 0 -105 35 -105 86c0 89 115 184 222 184z" fill="currentColor"/>
</g>
</a>
<g transform="translate(69.2024, 37.6533)">
<rect x="-0.0579" y="-3.1033" width="0.1158" height="3.3337" ry="0.0333" fill="currentColor"/>
</g>
<a style="color:inherit;" xlink:href="textedit:///Users/marc.mouries/projects/Sheet-Music/Learn-Violin-with-Famous-Themes/Mozart_Symphony-No-40-in-G-minor-K-550.ly:32:11:12">
<g transform="translate(71.0514, 34.9033)">
<path transform="scale(0.0040, -0.0040)" d="M222 135c64 0 104 -35 104 -86c0 -89 -114 -184 -221 -184c-64 0 -105 35 -105 86c0 89 115 184 222 184z" fill="currentColor"/>
</g>
</a>
<g transform="translate(71.1092, 37.6533)">
<rect x="-0.0579" y="-2.5533" width="0.1158" height="3.1430" ry="0.0333" fill="currentColor"/>
</g>
<a style="color:inherit;" xlink:href="textedit:///Users/marc.mouries/projects/Sheet-Music/Learn-Violin-with-Famous-Themes/Mozart_Symphony-No-40-in-G-minor-K-550.ly:32:13:14">
<g transform="translate(72.9582, 35.4533)">
<path transform="scale(0.0040, -0.0040)" d="M222 135c64 0 104 -35 104 -86c0 -89 -114 -184 -221 -184c-64 0 -105 35 -105 86c0 89 115 184 222 184z" fill="currentColor"/>
</g>
</a>
<g transform="translate(73.0161, 37.6533)">
<rect x="-0.0579" y="-2.0033" width="0.1158" height="2.9524" ry="0.0333" fill="currentColor"/>
</g>
<a style="color:inherit;" xlink:href="textedit:///Users/marc.mouries/projects/Sheet-Music/Learn-Violin-with-Famous-Themes/Mozart_Symphony-No-40-in-G-minor-K-550.ly:32:15:16">
<g transform="translate(74.8650, 36.0033)">
<path transform="scale(0.0040, -0.0040)" d="M222 135c64 0 104 -35 104 -86c0 -89 -114 -184 -221 -184c-64 0 -105 35 -105 86c0 89 115 184 222 184z" fill="currentColor"/>
</g>
</a>
<g transform="translate(74.9229, 37.6533)">
<rect x="-0.0579" y="-1.4533" width="0.1158" height="2.7618" ry="0.0333" fill="currentColor"/>
</g>
<a style="color:inherit;" xlink:href="textedit:///Users/marc.mouries/projects/Sheet-Music/Learn-Violin-with-Famous-Themes/Mozart_Symphony-No-40-in-G-minor-K-550.ly:33:2:3">
<g transform="translate(77.9051, 36.5533)">
<path transform="scale(0.0040, -0.0040)" d="M215 114c-41 0 -71 -27 -71 -88c0 -104 91 -140 139 -140c41 0 70 27 70 88c0 104 -90 140 -138 140zM249 135c145 0 248 -64 248 -135s-103 -135 -248 -135s-249 64 -249 135s104 135 249 135z" fill="currentColor"/>
</g>
</a>
<a style="color:inherit;" xlink:href="textedit:///Users/marc.mouries/projects/Sheet-Music/Learn-Violin-with-Famous-Themes/Mozart_Symphony-No-40-in-G-minor-K-550.ly:33:9:10">
<g transform="translate(90.2804, 36.5533)">
<path transform="scale(0.0040, -0.0040)" d="M215 114c-41 0 -71 -27 -71 -88c0 -104 91 -140 139 -140c41 0 70 27 70 88c0 104 -90 140 -138 140zM249 135c145 0 248 -64 248 -135s-103 -135 -248 -135s-249 64 -249 135s104 135 249 135z" fill="currentColor"/>
</g>
</a>
<a style="color:inherit;" xlink:href="textedit:///Users/marc.mouries/projects/Sheet-Music/Learn-Violin-with-Famous-Themes/Mozart_Symphony-No-40-in-G-minor-K-550.ly:33:5:6">
<g transform="translate(84.5171, 37.1033)">
<path transform="scale(0.0040, -0.0040)" d="M215 114c-41 0 -71 -27 -71 -88c0 -104 91 -140 139 -140c41 0 70 27 70 88c0 104 -90 140 -138 140zM249 135c145 0 248 -64 248 -135s-103 -135 -248 -135s-249 64 -249 135s104 135 249 135z" fill="currentColor"/>
</g>
</a>
<g transform="translate(83.0671, 37.1033)">
<path transform="scale(0.0040, -0.0040)" d="M0 121c0 7 5 13 11 15l49 17v163c0 9 8 17 17 17s17 -8 17 -17v-151l87 31v162c0 9 8 17 17 17s17 -8 17 -17v-150l39 13c10 4 21 -4 21 -15v-64c0 -7 -5 -13 -11 -15l-49 -18v-164l39 14c10 4 21 -4 21 -15v-65c0 -7 -5 -13 -11 -15l-49 -17v-163c0 -9 -8 -17 -17 -17
s-17 8 -17 17v151l-87 -31v-162c0 -9 -8 -17 -17 -17s-17 8 -17 17v150l-39 -13c-10 -4 -21 4 -21 15v64c0 7 5 13 11 15l49 18v164l-39 -14c-10 -4 -21 4 -21 15v65zM181 97l-87 -30v-164l87 30v164z" fill="currentColor"/>
</g>
<g transform="translate(49.3086, 137.9729)">
<text font-family="serif" font-size="1.9603" text-anchor="start" fill="currentColor">
<tspan>5</tspan>
</text>
</g>
</svg>
