<svg xmlns="http://www.w3.org/2000/svg" xmlns:xlink="http://www.w3.org/1999/xlink" version="1.2" width="210.00mm" height="297.00mm" viewBox="0.0000 -0.0000 119.5016 169.0094">
<style type="text/css">
<![CDATA[
tspan { white-space: pre; }
]]>
</style>
<g transform="translate(5.6906, 4.3320)">
<text font-family="serif" font-size="2.2001" text-anchor="start" fill="currentColor">
<tspan>2</tspan>
</text>
</g>
<g transform="translate(11.3811, 16.8912)">
<line stroke-linejoin="round" stroke-linecap="round" stroke-width="0.1000" stroke="currentColor" x1="0.0500" y1="0" x2="18.8877" y2="0"/>
</g>
<g transform="translate(11.3811, 15.7912)">
<line stroke-linejoin="round" stroke-linecap="round" stroke-width="0.1000" stroke="currentColor" x1="0.0500" y1="0" x2="18.8877" y2="0"/>
</g>
<g transform="translate(11.3811, 14.6912)">
<line stroke-linejoin="round" stroke-linecap="round" stroke-width="0.1000" stroke="currentColor" x1="0.0500" y1="0" x2="18.8877" y2="0"/>
</g>
<g transform="translate(11.3811, 13.5912)">
<line stroke-linejoin="round" stroke-linecap="round" stroke-width="0.1000" stroke="currentColor" x1="0.0500" y1="0" x2="18.8877" y2="0"/>
</g>
<g transform="translate(11.3811, 12.4912)">
<line stroke-linejoin="round" stroke-linecap="round" stroke-width="0.1000" stroke="currentColor" x1="0.0500" y1="0" x2="18.8877" y2="0"/>
</g>
<g transform="translate(38.4032, 16.8912)">
<line stroke-linejoin="round" stroke-linecap="round" stroke-width="0.1000" stroke="currentColor" x1="0.0500" y1="0" x2="16.8438" y2="0"/>
</g>
<g transform="translate(38.4032, 15.7912)">
<line stroke-linejoin="round" stroke-linecap="round" stroke-width="0.1000" stroke="currentColor" x1="0.0500" y1="0" x2="16.8438" y2="0"/>
</g>
<g transform="translate(38.4032, 14.6912)">
<line stroke-linejoin="round" stroke-linecap="round" stroke-width="0.1000" stroke="currentColor" x1="0.0500" y1="0" x2="16.8438" y2="0"/>
</g>
<g transform="translate(38.4032, 13.5912)">
<line stroke-linejoin="round" stroke-linecap="round" stroke-width="0.1000" stroke="currentColor" x1="0.0500" y1="0" x2="16.8438" y2="0"/>
</g>
<g transform="translate(38.4032, 12.4912)">
<line stroke-linejoin="round" stroke-linecap="round" stroke-width="0.1000" stroke="currentColor" x1="0.0500" y1="0" x2="16.8438" y2="0"/>
</g>
<g transform="translate(62.9950, 16.8912)">
<line stroke-linejoin="round" stroke-linecap="round" stroke-width="0.1000" stroke="currentColor" x1="0.0500" y1="0" x2="21.3200" y2="0"/>
</g>
<g transform="translate(62.9950, 15.7912)">
<line stroke-linejoin="round" stroke-linecap="round" stroke-width="0.1000" stroke="currentColor" x1="0.0500" y1="0" x2="21.3200" y2="0"/>
</g>
<g transform="translate(62.9950, 14.6912)">
<line stroke-linejoin="round" stroke-linecap="round" stroke-width="0.1000" stroke="currentColor" x1="0.0500" y1="0" x2="21.3200" y2="0"/>
</g>
<g transform="translate(62.9950, 13.5912)">
<line stroke-linejoin="round" stroke-linecap="round" stroke-width="0.1000" stroke="currentColor" x1="0.0500" y1="0" x2="21.3200" y2="0"/>
</g>
<g transform="translate(62.9950, 12.4912)">
<line stroke-linejoin="round" stroke-linecap="round" stroke-width="0.1000" stroke="currentColor" x1="0.0500" y1="0" x2="21.3200" y2="0"/>
</g>
<g transform="translate(5.6906, 17.9912)">
<rect x="72.8970" y="-0.1050" width="1.9563" height="0.2100" ry="0.1050" fill="currentColor"/>
</g>
<g transform="translate(5.6906, 17.9912)">
<rect x="71.2462" y="-0.1050" width="0.9670" height="0.2100" ry="0.1050" fill="currentColor"/>
</g>
<g transform="translate(5.6906, 17.9912)">
<rect x="64.5358" y="-0.1050" width="1.1293" height="0.2100" ry="0.1050" fill="currentColor"/>
</g>
<g transform="translate(5.6906, 17.9912)">
<rect x="61.0631" y="-0.1050" width="2.0660" height="0.2100" ry="0.1050" fill="currentColor"/>
</g>
<g transform="translate(18.9353, 14.1412)">
<path transform="scale(0.0040, -0.0040)" d="M0 0c0 31 25 56 56 56s56 -25 56 -56s-25 -56 -56 -56s-56 25 -56 56z" fill="currentColor"/>
</g>
<g transform="translate(17.2461, 14.6912)">
<rect x="-0.0650" y="-0.3639" width="0.1300" height="3.6639" ry="0.0400" fill="currentColor"/>
</g>
<g transform="translate(15.7311, 14.1412)">
<path transform="scale(0.0040, -0.0040)" d="M0 119c0 8 5 15 13 18l46 17v158c0 10 8 19 18 19s19 -9 19 -19v-145l83 31v158c0 10 9 19 19 19s18 -9 18 -19v-145l32 12c2 1 5 1 7 1c11 0 20 -9 20 -20v-60c0 -8 -5 -16 -13 -19l-46 -16v-160l32 11c2 1 5 1 7 1c11 0 20 -9 20 -20v-60c0 -8 -5 -15 -13 -18l-46 -17
v-158c0 -10 -8 -19 -18 -19s-19 9 -19 19v145l-83 -31v-158c0 -10 -9 -19 -19 -19s-18 9 -18 19v145l-32 -12c-2 -1 -5 -1 -7 -1c-11 0 -20 9 -20 20v60c0 8 5 16 13 19l46 16v160l-32 -11c-2 -1 -5 -1 -7 -1c-11 0 -20 9 -20 20v60zM179 95l-83 -30v-160l83 30v160z" fill="currentColor"/>
</g>
<g transform="translate(15.5311, 14.1412)">
<path transform="scale(0.0020, -0.0020)" d="M-31 -250c0 -10 -9 -19 -19 -19c-5 0 -12 2 -16 8c-54 77 -90 167 -90 261s36 184 90 261c4 6 11 8 16 8c10 0 19 -9 19 -19c0 -21 -63 -57 -63 -250s63 -229 63 -250z" fill="currentColor"/>
</g>
<g transform="translate(19.5853, 14.1412)">
<path transform="scale(0.0020, -0.0020)" d="M31 -250c0 21 63 57 63 250s-63 229 -63 250c0 10 9 19 19 19c5 0 12 -2 16 -8c54 -77 90 -167 90 -261s-36 -184 -90 -261c-4 -6 -11 -8 -16 -8c-10 0 -19 9 -19 19z" fill="currentColor"/>
</g>
<a style="color:inherit;" xlink:href="textedit:///Users/marc.mouries/projects/Sheet-Music/Practice/MyViolinPracticeBook/ii-V-I-Lick-in-D-Em-A7-D.ly:166:4:5">
<g transform="translate(14.7461, 8.3469)">
<text font-family="serif" font-style="italic" font-size="1.9600" text-anchor="start" fill="currentColor">
<tspan>Using:</tspan>
</text>
</g>
<g transform="translate(14.7461, 11.2469)">
<text font-family="monospace" font-size="1.9600" text-anchor="start" fill="currentColor">
<tspan>\parenthesize</tspan>
</text>
</g>
</a>
<a style="color:inherit;" xlink:href="textedit:///Users/marc.mouries/projects/Sheet-Music/Practice/MyViolinPracticeBook/ii-V-I-Lick-in-D-Em-A7-D.ly:192:2:3">
<g transform="translate(5.6906, 14.6912)">
<line stroke-linejoin="round" stroke-linecap="round" stroke-width="0.1000" stroke="currentColor" x1="66.2475" y1="3.3409" x2="69.8156" y2="2.8164"/>
</g>
</a>
<a style="color:inherit;" xlink:href="textedit:///Users/marc.mouries/projects/Sheet-Music/Practice/MyViolinPracticeBook/ii-V-I-Lick-in-D-Em-A7-D.ly:197:13:14">
<g transform="translate(67.0980, 14.6912)">
<path stroke-width="0.0800" stroke-linejoin="round" stroke-linecap="round" stroke="currentColor" fill="currentColor" d="M1.5773 4.4000C2.8137 5.3402 10.3793 5.3402 11.6157 4.4000L11.6157 4.4000C10.3793 5.2202 2.8137 5.2202 1.5773 4.4000z"/>
</g>
</a>
<a style="color:inherit;" xlink:href="textedit:///Users/marc.mouries/projects/Sheet-Music/Practice/MyViolinPracticeBook/ii-V-I-Lick-in-D-Em-A7-D.ly:191:18:19">
<g transform="rotate(-0.0000, 68.8946, 10.8912)">
<g transform="translate(73.1186, 11.2912)">
<path transform="scale(0.0040, -0.0040)" d="M175 -1c-42 0 -65 91 -131 91c-17 0 -33 -5 -47 -17l-25 -31c-3 -4 -8 -6 -12 -6c-8 0 -16 7 -16 16c0 3 1 7 4 10l107 128c6 8 13 11 20 11c42 0 65 -91 131 -91c17 0 33 5 47 17l25 31c3 4 8 6 12 6c8 0 16 -7 16 -16c0 -3 -1 -7 -4 -10l-107 -128
c-6 -8 -13 -11 -20 -11z" fill="currentColor"/>
</g>
<g transform="translate(72.1186, 11.2912)">
<path transform="scale(0.0040, -0.0040)" d="M175 -1c-42 0 -65 91 -131 91c-17 0 -33 -5 -47 -17l-25 -31c-3 -4 -8 -6 -12 -6c-8 0 -16 7 -16 16c0 3 1 7 4 10l107 128c6 8 13 11 20 11c42 0 65 -91 131 -91c17 0 33 5 47 17l25 31c3 4 8 6 12 6c8 0 16 -7 16 -16c0 -3 -1 -7 -4 -10l-107 -128
c-6 -8 -13 -11 -20 -11z" fill="currentColor"/>
</g>
<g transform="translate(71.1186, 11.2912)">
<path transform="scale(0.0040, -0.0040)" d="M175 -1c-42 0 -65 91 -131 91c-17 0 -33 -5 -47 -17l-25 -31c-3 -4 -8 -6 -12 -6c-8 0 -16 7 -16 16c0 3 1 7 4 10l107 128c6 8 13 11 20 11c42 0 65 -91 131 -91c17 0 33 5 47 17l25 31c3 4 8 6 12 6c8 0 16 -7 16 -16c0 -3 -1 -7 -4 -10l-107 -128
c-6 -8 -13 -11 -20 -11z" fill="currentColor"/>
</g>
<g transform="translate(70.1186, 11.2912)">
<path transform="scale(0.0040, -0.0040)" d="M175 -1c-42 0 -65 91 -131 91c-17 0 -33 -5 -47 -17l-25 -31c-3 -4 -8 -6 -12 -6c-8 0 -16 7 -16 16c0 3 1 7 4 10l107 128c6 8 13 11 20 11c42 0 65 -91 131 -91c17 0 33 5 47 17l25 31c3 4 8 6 12 6c8 0 16 -7 16 -16c0 -3 -1 -7 -4 -10l-107 -128
c-6 -8 -13 -11 -20 -11z" fill="currentColor"/>
</g>
<g transform="translate(69.1186, 11.2912)">
<path transform="scale(0.0040, -0.0040)" d="M175 -1c-42 0 -65 91 -131 91c-17 0 -33 -5 -47 -17l-25 -31c-3 -4 -8 -6 -12 -6c-8 0 -16 7 -16 16c0 3 1 7 4 10l107 128c6 8 13 11 20 11c42 0 65 -91 131 -91c17 0 33 5 47 17l25 31c3 4 8 6 12 6c8 0 16 -7 16 -16c0 -3 -1 -7 -4 -10l-107 -128
c-6 -8 -13 -11 -20 -11z" fill="currentColor"/>
</g>
</g>
<g transform="translate(67.7866, 11.8912)">
<path transform="scale(0.0040, -0.0040)" d="M-297 227c0 -15 8 -30 39 -30c10 0 46 2 103 28l5 24c-23 17 -50 29 -81 29c-51 0 -66 -31 -66 -51zM-26 104c0 -61 -47 -115 -98 -115c-39 0 -56 44 -56 91c0 14 1 28 4 41l15 76c-20 -8 -63 -25 -101 -25c-19 0 -60 6 -60 51c0 38 32 80 96 80c31 0 58 -10 82 -25
l46 232c6 -3 13 -5 20 -5c22 0 48 16 68 35l-53 -266l64 36c26 14 51 20 74 20c29 0 53 -10 64 -28c18 20 44 30 69 30c36 0 69 -22 69 -69c0 -49 -31 -90 -65 -90c-25 0 -38 22 -38 48c0 50 37 64 60 64h3c-8 14 -23 20 -38 20c-24 0 -50 -16 -55 -43l-54 -270
c-11 7 -24 11 -38 11s-29 -4 -43 -11l54 270v7c0 16 -12 26 -29 26c-7 0 -16 -3 -24 -7l-79 -44l-7 -31c27 -31 50 -67 50 -109zM-86 39c23 0 35 34 35 61c0 30 -14 55 -32 78l-5 -27c-4 -18 -13 -56 -13 -83c0 -17 4 -29 15 -29z" fill="currentColor"/>
</g>
</a>
<a style="color:inherit;" xlink:href="textedit:///Users/marc.mouries/projects/Sheet-Music/Practice/MyViolinPracticeBook/ii-V-I-Lick-in-D-Em-A7-D.ly:180:4:5">
<g transform="translate(43.3512, 14.1412)">
<path transform="scale(0.0040, -0.0040)" d="M218 136c66 0 108 -36 108 -89c0 -89 -113 -183 -218 -183c-66 0 -108 36 -108 89c0 89 113 183 218 183z" fill="currentColor"/>
</g>
</a>
<a style="color:inherit;" xlink:href="textedit:///Users/marc.mouries/projects/Sheet-Music/Practice/MyViolinPracticeBook/ii-V-I-Lick-in-D-Em-A7-D.ly:176:4:5">
<g transform="translate(41.3012, 8.3469)">
<text font-family="serif" font-style="italic" font-size="1.9600" text-anchor="start" fill="currentColor">
<tspan>Using:</tspan>
</text>
</g>
<g transform="translate(41.3012, 11.2469)">
<text font-family="monospace" font-size="1.9600" text-anchor="start" fill="currentColor">
<tspan>\parentheAll</tspan>
</text>
</g>
</a>
<g transform="translate(45.1054, 14.1412)">
<path transform="scale(0.0040, -0.0040)" d="M0 0c0 31 25 56 56 56s56 -25 56 -56s-25 -56 -56 -56s-56 25 -56 56z" fill="currentColor"/>
</g>
<g transform="translate(43.4162, 14.6912)">
<rect x="-0.0650" y="-0.3639" width="0.1300" height="3.6639" ry="0.0400" fill="currentColor"/>
</g>
<g transform="translate(41.9012, 14.1412)">
<path transform="scale(0.0040, -0.0040)" d="M0 119c0 8 5 15 13 18l46 17v158c0 10 8 19 18 19s19 -9 19 -19v-145l83 31v158c0 10 9 19 19 19s18 -9 18 -19v-145l32 12c2 1 5 1 7 1c11 0 20 -9 20 -20v-60c0 -8 -5 -16 -13 -19l-46 -16v-160l32 11c2 1 5 1 7 1c11 0 20 -9 20 -20v-60c0 -8 -5 -15 -13 -18l-46 -17
v-158c0 -10 -8 -19 -18 -19s-19 9 -19 19v145l-83 -31v-158c0 -10 -9 -19 -19 -19s-18 9 -18 19v145l-32 -12c-2 -1 -5 -1 -7 -1c-11 0 -20 9 -20 20v60c0 8 5 16 13 19l46 16v160l-32 -11c-2 -1 -5 -1 -7 -1c-11 0 -20 9 -20 20v60zM179 95l-83 -30v-160l83 30v160z" fill="currentColor"/>
</g>
<g transform="translate(41.7012, 14.1412)">
<path transform="scale(0.0020, -0.0020)" d="M-31 -250c0 -10 -9 -19 -19 -19c-5 0 -12 2 -16 8c-54 77 -90 167 -90 261s36 184 90 261c4 6 11 8 16 8c10 0 19 -9 19 -19c0 -21 -63 -57 -63 -250s63 -229 63 -250z" fill="currentColor"/>
</g>
<g transform="translate(45.7554, 14.1412)">
<path transform="scale(0.0020, -0.0020)" d="M31 -250c0 21 63 57 63 250s-63 229 -63 250c0 10 9 19 19 19c5 0 12 -2 16 -8c54 -77 90 -167 90 -261s-36 -184 -90 -261c-4 -6 -11 -8 -16 -8c-10 0 -19 9 -19 19z" fill="currentColor"/>
</g>
<a style="color:inherit;" xlink:href="textedit:///Users/marc.mouries/projects/Sheet-Music/Practice/MyViolinPracticeBook/ii-V-I-Lick-in-D-Em-A7-D.ly:170:4:5">
<g transform="translate(17.1811, 14.1412)">
<path transform="scale(0.0040, -0.0040)" d="M218 136c66 0 108 -36 108 -89c0 -89 -113 -183 -218 -183c-66 0 -108 36 -108 89c0 89 113 183 218 183z" fill="currentColor"/>
</g>
</a>
<a style="color:inherit;" xlink:href="textedit:///Users/marc.mouries/projects/Sheet-Music/Practice/MyViolinPracticeBook/ii-V-I-Lick-in-D-Em-A7-D.ly:203:5:6">
<g transform="translate(82.0231, 14.6912)">
<path transform="scale(0.0040, -0.0040)" d="M70 205c79 0 46 -98 91 -98c16 0 54 48 61 63c6 12 23 12 28 0l-123 -420c-8 -7 -17 -10 -27 -10s-20 3 -28 10l117 326c-34 -12 -69 -22 -105 -22c-47 0 -87 34 -87 79c0 40 33 72 73 72z" fill="currentColor"/>
</g>
</a>
<g transform="translate(80.2179, 14.7312)">
<path transform="scale(0.0040, -0.0040)" d="M0 0v-250h-16v250h16zM0 0c0 -197 207 -336 207 -533c0 -71 -15 -141 -41 -207c-5 -8 -13 -12 -20 -12c-13 0 -26 11 -23 27c26 61 42 126 42 192c0 103 -94 208 -165 283v250z" fill="currentColor"/>
</g>
<a style="color:inherit;" xlink:href="textedit:///Users/marc.mouries/projects/Sheet-Music/Practice/MyViolinPracticeBook/ii-V-I-Lick-in-D-Em-A7-D.ly:191:2:3">
<g transform="translate(67.0980, 18.5412)">
<path transform="scale(0.0040, -0.0040)" d="M314 65c0 23 -19 41 -42 41c-39 0 -204 -110 -231 -143c-7 -8 -10 -18 -10 -28c0 -23 19 -41 42 -41c39 0 203 110 230 143c7 8 11 18 11 28zM262 136c41 0 82 -14 82 -71c0 -26 -16 -112 -74 -151c-25 -17 -87 -50 -187 -50c-41 0 -83 14 -83 71c0 26 16 112 74 151
c25 17 88 50 188 50z" fill="currentColor"/>
</g>
</a>
<a style="color:inherit;" xlink:href="textedit:///Users/marc.mouries/projects/Sheet-Music/Practice/MyViolinPracticeBook/ii-V-I-Lick-in-D-Em-A7-D.ly:186:4:5">
<g transform="translate(66.8931, 5.2083)">
<text font-family="monospace" font-size="1.9600" text-anchor="start" fill="currentColor">
<tspan>\pitchedTrill</tspan>
</text>
</g>
<g transform="translate(66.8931, 7.8083)">
<text font-family="serif" font-style="italic" font-size="1.9600" text-anchor="start" fill="currentColor">
<tspan>context:</tspan>
</text>
</g>
</a>
<a style="color:inherit;" xlink:href="textedit:///Users/marc.mouries/projects/Sheet-Music/Practice/MyViolinPracticeBook/ii-V-I-Lick-in-D-Em-A7-D.ly:191:18:19">
<g transform="translate(70.3363, 17.9912)">
<path transform="scale(0.0025, -0.0025)" d="M204 141c70 0 120 -41 120 -103c0 -91 -104 -179 -205 -179c-70 0 -119 41 -119 103c0 91 103 179 204 179z" fill="currentColor"/>
</g>
</a>
<a style="color:inherit;" xlink:href="textedit:///Users/marc.mouries/projects/Sheet-Music/Practice/MyViolinPracticeBook/ii-V-I-Lick-in-D-Em-A7-D.ly:191:18:19">
<g transform="translate(69.6124, 17.9912)">
<path transform="scale(0.0025, -0.0025)" d="M34 33l-1 -58v-10c0 -21 2 -43 5 -64c41 38 85 80 85 136c0 31 -13 63 -40 63c-31 0 -48 -33 -49 -67zM32 441l-8 -333c25 27 60 42 97 42c49 0 79 -52 79 -106c0 -76 -78 -117 -133 -169c-19 -18 -27 -52 -55 -52c-17 0 -30 17 -30 35l-14 583c10 6 21 9 32 9
s22 -3 32 -9z" fill="currentColor"/>
</g>
</a>
<g transform="translate(69.2076, 17.9912)">
<path transform="scale(0.0025, -0.0025)" d="M-32 -250c0 -10 -9 -18 -18 -18c-5 0 -10 3 -14 8c-54 77 -91 166 -91 260s37 183 91 260c4 5 9 8 14 8c9 0 18 -8 18 -18c0 -20 -63 -57 -63 -250s63 -230 63 -250z" fill="currentColor"/>
</g>
<g transform="translate(71.4518, 17.9912)">
<path transform="scale(0.0025, -0.0025)" d="M32 -250c0 20 63 57 63 250s-63 230 -63 250c0 10 9 18 18 18c5 0 10 -3 14 -8c54 -77 91 -166 91 -260s-37 -183 -91 -260c-4 -5 -9 -8 -14 -8c-9 0 -18 8 -18 18z" fill="currentColor"/>
</g>
<g transform="translate(68.4103, 14.6912)">
<rect x="-0.0650" y="-0.0000" width="0.1300" height="3.5910" ry="0.0400" fill="currentColor"/>
</g>
<g transform="translate(80.1529, 14.6912)">
<rect x="-0.0650" y="-0.0000" width="0.1300" height="3.6639" ry="0.0400" fill="currentColor"/>
</g>
<a style="color:inherit;" xlink:href="textedit:///Users/marc.mouries/projects/Sheet-Music/Practice/MyViolinPracticeBook/ii-V-I-Lick-in-D-Em-A7-D.ly:202:12:13">
<g transform="translate(77.0980, 17.9912)">
<path transform="scale(0.0020, -0.0020)" d="M199 142c72 0 123 -44 123 -108c0 -91 -100 -176 -199 -176c-72 0 -123 44 -123 108c0 91 100 176 199 176z" fill="currentColor"/>
</g>
</a>
<g transform="translate(76.3178, 17.9912)">
<path transform="scale(0.0025, -0.0025)" d="M-8 375c9 5 18 7 28 7s19 -2 28 -7l-3 -202l97 26c2 0 3 1 5 1c11 0 20 -9 20 -20l7 -555c-9 -5 -17 -7 -27 -7s-19 2 -28 7l3 202l-97 -26c-2 0 -3 -1 -5 -1c-11 0 -20 9 -20 20zM126 108l-82 -22l-3 -194l82 22z" fill="currentColor"/>
</g>
<g transform="translate(76.1178, 17.9912)">
<path transform="scale(0.0010, -0.0010)" d="M-31 -250c0 -10 -9 -19 -19 -19c-5 0 -12 2 -16 8c-54 77 -90 167 -90 261s36 184 90 261c4 6 11 8 16 8c10 0 19 -9 19 -19c0 -21 -63 -57 -63 -250s63 -229 63 -250z" fill="currentColor"/>
</g>
<g transform="translate(77.9427, 17.9912)">
<path transform="scale(0.0010, -0.0010)" d="M31 -250c0 21 63 57 63 250s-63 229 -63 250c0 10 9 19 19 19c5 0 12 -2 16 -8c54 -77 90 -167 90 -261s-36 -184 -90 -261c-4 -6 -11 -8 -16 -8c-10 0 -19 9 -19 19z" fill="currentColor"/>
</g>
<a style="color:inherit;" xlink:href="textedit:///Users/marc.mouries/projects/Sheet-Music/Practice/MyViolinPracticeBook/ii-V-I-Lick-in-D-Em-A7-D.ly:203:2:3">
<g transform="translate(78.9136, 18.5412)">
<path transform="scale(0.0040, -0.0040)" d="M218 136c66 0 108 -36 108 -89c0 -89 -113 -183 -218 -183c-66 0 -108 36 -108 89c0 89 113 183 218 183z" fill="currentColor"/>
</g>
</a>
</svg>
