<svg xmlns="http://www.w3.org/2000/svg" xmlns:xlink="http://www.w3.org/1999/xlink" version="1.2" width="210.00mm" height="297.00mm" viewBox="0.0000 -0.0000 119.5016 169.0094">
<style type="text/css">
<![CDATA[
tspan { white-space: pre; }
]]>
</style>
<g transform="translate(44.6424, 6.2124)">
<text font-family="serif" font-weight="bold" font-size="3.4927" text-anchor="start" fill="currentColor">
<tspan>4th Finger Exercises</tspan>
</text>
</g>
<g transform="translate(101.3146, 9.7124)">
<text font-family="serif" font-size="2.2001" text-anchor="start" fill="currentColor">
<tspan>Marc Mouries</tspan>
</text>
</g>
<g transform="translate(5.6906, 11.7701)">
<text font-family="serif" font-size="2.2001" text-anchor="start" fill="currentColor">
<tspan>EXERCISE</tspan>
</text>
</g>
<g transform="translate(16.7725, 11.7701)">
<text font-family="serif" font-size="2.2001" text-anchor="start" fill="currentColor">
<tspan>I</tspan>
</text>
</g>
<g transform="translate(18.0896, 11.7701)">
<text font-family="serif" font-size="2.2001" text-anchor="start" fill="currentColor">
<tspan>(fast</tspan>
</text>
</g>
<g transform="translate(22.5819, 11.7701)">
<text font-family="serif" font-size="2.2001" text-anchor="start" fill="currentColor">
<tspan>pinky</tspan>
</text>
</g>
<g transform="translate(28.1668, 11.7701)">
<text font-family="serif" font-size="2.2001" text-anchor="start" fill="currentColor">
<tspan>use)</tspan>
</text>
</g>
<g transform="translate(5.6906, 15.3724)">
<text font-family="serif" font-size="2.2001" text-anchor="start" fill="currentColor">
<tspan>Play</tspan>
</text>
</g>
<g transform="translate(10.2853, 15.3724)">
<text font-family="serif" font-size="2.2001" text-anchor="start" fill="currentColor">
<tspan>a</tspan>
</text>
</g>
<g transform="translate(11.9437, 15.3724)">
<text font-family="serif" font-size="2.2001" text-anchor="start" fill="currentColor">
<tspan>scale</tspan>
</text>
</g>
<g transform="translate(17.0506, 15.3724)">
<text font-family="serif" font-size="2.2001" text-anchor="start" fill="currentColor">
<tspan>in</tspan>
</text>
</g>
<g transform="translate(19.4260, 15.3724)">
<text font-family="serif" font-size="2.2001" text-anchor="start" fill="currentColor">
<tspan>perfect</tspan>
</text>
</g>
<g transform="translate(26.2059, 15.3724)">
<text font-family="serif" font-size="2.2001" text-anchor="start" fill="currentColor">
<tspan>fourths</tspan>
</text>
</g>
<g transform="translate(33.0541, 15.3724)">
<text font-family="serif" font-size="2.2001" text-anchor="start" fill="currentColor">
<tspan>(A-D,</tspan>
</text>
</g>
<g transform="translate(38.9121, 15.3724)">
<text font-family="serif" font-size="2.2001" text-anchor="start" fill="currentColor">
<tspan>B-E,</tspan>
</text>
</g>
<g transform="translate(43.6434, 15.3724)">
<text font-family="serif" font-size="2.2001" text-anchor="start" fill="currentColor">
<tspan>C</tspan>
</text>
</g>
<g transform="translate(45.7798, 15.3724)">
<path transform="scale(0.0040, -0.0040)" d="M0 119c0 8 5 15 13 18l46 17v158c0 10 8 19 18 19s19 -9 19 -19v-145l83 31v158c0 10 9 19 19 19s18 -9 18 -19v-145l32 12c2 1 5 1 7 1c11 0 20 -9 20 -20v-60c0 -8 -5 -16 -13 -19l-46 -16v-160l32 11c2 1 5 1 7 1c11 0 20 -9 20 -20v-60c0 -8 -5 -15 -13 -18l-46 -17
v-158c0 -10 -8 -19 -18 -19s-19 9 -19 19v145l-83 -31v-158c0 -10 -9 -19 -19 -19s-18 9 -18 19v145l-32 -12c-2 -1 -5 -1 -7 -1c-11 0 -20 9 -20 20v60c0 8 5 16 13 19l46 16v160l-32 -11c-2 -1 -5 -1 -7 -1c-11 0 -20 9 -20 20v60zM179 95l-83 -30v-160l83 30v160z" fill="currentColor"/>
</g>
<g transform="translate(47.5481, 15.3724)">
<text font-family="serif" font-size="2.2001" text-anchor="start" fill="currentColor">
<tspan>-</tspan>
</text>
</g>
<g transform="translate(48.9333, 15.3724)">
<text font-family="serif" font-size="2.2001" text-anchor="start" fill="currentColor">
<tspan>F</tspan>
</text>
</g>
<g transform="translate(50.8308, 15.3724)">
<path transform="scale(0.0040, -0.0040)" d="M0 119c0 8 5 15 13 18l46 17v158c0 10 8 19 18 19s19 -9 19 -19v-145l83 31v158c0 10 9 19 19 19s18 -9 18 -19v-145l32 12c2 1 5 1 7 1c11 0 20 -9 20 -20v-60c0 -8 -5 -16 -13 -19l-46 -16v-160l32 11c2 1 5 1 7 1c11 0 20 -9 20 -20v-60c0 -8 -5 -15 -13 -18l-46 -17
v-158c0 -10 -8 -19 -18 -19s-19 9 -19 19v145l-83 -31v-158c0 -10 -9 -19 -19 -19s-18 9 -18 19v145l-32 -12c-2 -1 -5 -1 -7 -1c-11 0 -20 9 -20 20v60c0 8 5 16 13 19l46 16v160l-32 -11c-2 -1 -5 -1 -7 -1c-11 0 -20 9 -20 20v60zM179 95l-83 -30v-160l83 30v160z" fill="currentColor"/>
</g>
<g transform="translate(52.5990, 15.3724)">
<text font-family="serif" font-size="2.2001" text-anchor="start" fill="currentColor">
<tspan>,</tspan>
</text>
</g>
<g transform="translate(53.8136, 15.3724)">
<text font-family="serif" font-size="2.2001" text-anchor="start" fill="currentColor">
<tspan>etc)</tspan>
</text>
</g>
<g transform="translate(57.7937, 15.3724)">
<text font-family="serif" font-size="2.2001" text-anchor="start" fill="currentColor">
<tspan>in</tspan>
</text>
</g>
<g transform="translate(60.1691, 15.3724)">
<text font-family="serif" font-size="2.2001" text-anchor="start" fill="currentColor">
<tspan>repeated</tspan>
</text>
</g>
<g transform="translate(68.3148, 15.3724)">
<text font-family="serif" font-size="2.2001" text-anchor="start" fill="currentColor">
<tspan>pairs</tspan>
</text>
</g>
<g transform="translate(73.2509, 15.3724)">
<text font-family="serif" font-size="2.2001" text-anchor="start" fill="currentColor">
<tspan>of</tspan>
</text>
</g>
<g transform="translate(75.7288, 15.3724)">
<text font-family="serif" font-size="2.2001" text-anchor="start" fill="currentColor">
<tspan>notes.</tspan>
</text>
</g>
<g transform="translate(81.5868, 15.3724)">
<text font-family="serif" font-size="2.2001" text-anchor="start" fill="currentColor">
<tspan>The</tspan>
</text>
</g>
<g transform="translate(85.6694, 15.3724)">
<text font-family="serif" font-size="2.2001" text-anchor="start" fill="currentColor">
<tspan>bottom</tspan>
</text>
</g>
<g transform="translate(92.5517, 15.3724)">
<text font-family="serif" font-size="2.2001" text-anchor="start" fill="currentColor">
<tspan>note</tspan>
</text>
</g>
<g transform="translate(97.0099, 15.3724)">
<text font-family="serif" font-size="2.2001" text-anchor="start" fill="currentColor">
<tspan>(A,</tspan>
</text>
</g>
<g transform="translate(100.5462, 15.3724)">
<text font-family="serif" font-size="2.2001" text-anchor="start" fill="currentColor">
<tspan>B,</tspan>
</text>
</g>
<g transform="translate(103.2289, 15.3724)">
<text font-family="serif" font-size="2.2001" text-anchor="start" fill="currentColor">
<tspan>C</tspan>
</text>
</g>
<g transform="translate(105.3653, 15.3724)">
<path transform="scale(0.0040, -0.0040)" d="M0 119c0 8 5 15 13 18l46 17v158c0 10 8 19 18 19s19 -9 19 -19v-145l83 31v158c0 10 9 19 19 19s18 -9 18 -19v-145l32 12c2 1 5 1 7 1c11 0 20 -9 20 -20v-60c0 -8 -5 -16 -13 -19l-46 -16v-160l32 11c2 1 5 1 7 1c11 0 20 -9 20 -20v-60c0 -8 -5 -15 -13 -18l-46 -17
v-158c0 -10 -8 -19 -18 -19s-19 9 -19 19v145l-83 -31v-158c0 -10 -9 -19 -19 -19s-18 9 -18 19v145l-32 -12c-2 -1 -5 -1 -7 -1c-11 0 -20 9 -20 20v60c0 8 5 16 13 19l46 16v160l-32 -11c-2 -1 -5 -1 -7 -1c-11 0 -20 9 -20 20v60zM179 95l-83 -30v-160l83 30v160z" fill="currentColor"/>
</g>
<g transform="translate(107.1336, 15.3724)">
<text font-family="serif" font-size="2.2001" text-anchor="start" fill="currentColor">
<tspan>etc)</tspan>
</text>
</g>
<g transform="translate(111.1137, 15.3724)">
<text font-family="serif" font-size="2.2001" text-anchor="start" fill="currentColor">
<tspan>are</tspan>
</text>
</g>
<g transform="translate(5.6906, 18.4000)">
<text font-family="serif" font-size="2.2001" text-anchor="start" fill="currentColor">
<tspan>double-dotted</tspan>
</text>
</g>
<g transform="translate(18.4797, 18.4000)">
<text font-family="serif" font-size="2.2001" text-anchor="start" fill="currentColor">
<tspan>eighth.</tspan>
</text>
</g>
<g transform="translate(25.1231, 18.4000)">
<text font-family="serif" font-size="2.2001" text-anchor="start" fill="currentColor">
<tspan>The</tspan>
</text>
</g>
<g transform="translate(29.1374, 18.4000)">
<text font-family="serif" font-size="2.2001" text-anchor="start" fill="currentColor">
<tspan>top</tspan>
</text>
</g>
<g transform="translate(32.5372, 18.4000)">
<text font-family="serif" font-size="2.2001" text-anchor="start" fill="currentColor">
<tspan>note</tspan>
</text>
</g>
<g transform="translate(36.9271, 18.4000)">
<text font-family="serif" font-size="2.2001" text-anchor="start" fill="currentColor">
<tspan>(D,</tspan>
</text>
</g>
<g transform="translate(40.3951, 18.4000)">
<text font-family="serif" font-size="2.2001" text-anchor="start" fill="currentColor">
<tspan>E,</tspan>
</text>
</g>
<g transform="translate(42.8730, 18.4000)">
<text font-family="serif" font-size="2.2001" text-anchor="start" fill="currentColor">
<tspan>F</tspan>
</text>
</g>
<g transform="translate(44.7021, 18.4000)">
<path transform="scale(0.0040, -0.0040)" d="M0 119c0 8 5 15 13 18l46 17v158c0 10 8 19 18 19s19 -9 19 -19v-145l83 31v158c0 10 9 19 19 19s18 -9 18 -19v-145l32 12c2 1 5 1 7 1c11 0 20 -9 20 -20v-60c0 -8 -5 -16 -13 -19l-46 -16v-160l32 11c2 1 5 1 7 1c11 0 20 -9 20 -20v-60c0 -8 -5 -15 -13 -18l-46 -17
v-158c0 -10 -8 -19 -18 -19s-19 9 -19 19v145l-83 -31v-158c0 -10 -9 -19 -19 -19s-18 9 -18 19v145l-32 -12c-2 -1 -5 -1 -7 -1c-11 0 -20 9 -20 20v60c0 8 5 16 13 19l46 16v160l-32 -11c-2 -1 -5 -1 -7 -1c-11 0 -20 9 -20 20v60zM179 95l-83 -30v-160l83 30v160z" fill="currentColor"/>
</g>
<g transform="translate(46.4022, 18.4000)">
<text font-family="serif" font-size="2.2001" text-anchor="start" fill="currentColor">
<tspan>,</tspan>
</text>
</g>
<g transform="translate(47.5484, 18.4000)">
<text font-family="serif" font-size="2.2001" text-anchor="start" fill="currentColor">
<tspan>etc)</tspan>
</text>
</g>
<g transform="translate(51.4603, 18.4000)">
<text font-family="serif" font-size="2.2001" text-anchor="start" fill="currentColor">
<tspan>should</tspan>
</text>
</g>
<g transform="translate(57.8989, 18.4000)">
<text font-family="serif" font-size="2.2001" text-anchor="start" fill="currentColor">
<tspan>be</tspan>
</text>
</g>
<g transform="translate(60.5816, 18.4000)">
<text font-family="serif" font-size="2.2001" text-anchor="start" fill="currentColor">
<tspan>the</tspan>
</text>
</g>
<g transform="translate(63.8789, 18.4000)">
<text font-family="serif" font-size="2.2001" text-anchor="start" fill="currentColor">
<tspan>fastest</tspan>
</text>
</g>
<g transform="translate(70.1126, 18.4000)">
<text font-family="serif" font-size="2.2001" text-anchor="start" fill="currentColor">
<tspan>32nd</tspan>
</text>
</g>
<g transform="translate(75.0829, 18.4000)">
<text font-family="serif" font-size="2.2001" text-anchor="start" fill="currentColor">
<tspan>imaginable.</tspan>
</text>
</g>
<g transform="translate(5.6906, 27.1790)">
<rect x="34.9153" y="-0.1000" width="1.8053" height="0.2000" ry="0.1000" fill="currentColor"/>
</g>
<g transform="translate(5.6906, 27.1790)">
<rect x="25.2870" y="-0.1000" width="1.9563" height="0.2000" ry="0.1000" fill="currentColor"/>
</g>
<g transform="translate(5.6906, 27.1790)">
<rect x="16.9098" y="-0.1000" width="1.9563" height="0.2000" ry="0.1000" fill="currentColor"/>
</g>
<g transform="translate(5.6906, 28.1790)">
<rect x="16.9098" y="-0.1000" width="1.9563" height="0.2000" ry="0.1000" fill="currentColor"/>
</g>
<g transform="translate(14.2264, 26.1790)">
<line stroke-linejoin="round" stroke-linecap="round" stroke-width="0.1000" stroke="currentColor" x1="0.0500" y1="0" x2="34.8817" y2="0"/>
</g>
<g transform="translate(14.2264, 25.1790)">
<line stroke-linejoin="round" stroke-linecap="round" stroke-width="0.1000" stroke="currentColor" x1="0.0500" y1="0" x2="34.8817" y2="0"/>
</g>
<g transform="translate(14.2264, 24.1790)">
<line stroke-linejoin="round" stroke-linecap="round" stroke-width="0.1000" stroke="currentColor" x1="0.0500" y1="0" x2="34.8817" y2="0"/>
</g>
<g transform="translate(14.2264, 23.1790)">
<line stroke-linejoin="round" stroke-linecap="round" stroke-width="0.1000" stroke="currentColor" x1="0.0500" y1="0" x2="34.8817" y2="0"/>
</g>
<g transform="translate(14.2264, 22.1790)">
<line stroke-linejoin="round" stroke-linecap="round" stroke-width="0.1000" stroke="currentColor" x1="0.0500" y1="0" x2="34.8817" y2="0"/>
</g>
<a style="color:inherit;" xlink:href="textedit:///Users/marc.mouries/projects/Sheet-Music/Practice/MyViolinPracticeBook/pinky.ly:32:2:3">
<g transform="translate(22.9264, 28.1790)">
<path transform="scale(0.0040, -0.0040)" d="M218 136c66 0 108 -36 108 -89c0 -89 -113 -183 -218 -183c-66 0 -108 36 -108 89c0 89 113 183 218 183z" fill="currentColor"/>
</g>
</a>
<g transform="translate(15.0264, 25.1790)">
<path transform="scale(0.0040, -0.0040)" d="M266 -635h-6c-108 0 -195 88 -195 197c0 58 53 103 112 103c54 0 95 -47 95 -103c0 -52 -43 -95 -95 -95c-11 0 -21 2 -31 6c26 -39 68 -65 117 -65h4zM461 -203c68 24 113 90 113 164c0 90 -66 179 -173 190c19 -89 48 -242 60 -354zM74 28c0 -145 141 -247 264 -247
c1 0 47 0 82 6c-7 64 -29 203 -63 364c-79 -8 -124 -61 -124 -119c0 -44 25 -91 81 -123c5 -5 7 -10 7 -15c0 -11 -10 -22 -22 -22c-15 0 -126 62 -126 187c0 88 58 174 160 197c-14 58 -29 117 -46 175c-107 -121 -213 -243 -213 -403zM250 553c-29 96 -52 170 -52 346
c0 115 55 224 149 292c6 5 14 5 20 0c68 -80 133 -245 133 -358c0 -143 -86 -255 -180 -364c21 -68 39 -138 56 -207c2 0 7 1 13 1c155 0 256 -128 256 -261c0 -113 -74 -212 -180 -246c3 -35 5 -70 5 -105c0 -19 -1 -39 -2 -58c-7 -119 -88 -225 -202 -228l1 43
c93 2 153 92 159 191c1 18 2 37 2 55c0 31 -1 61 -4 92c-5 -1 -44 -8 -89 -8c-193 0 -333 180 -333 374c0 177 131 306 248 441zM428 916c0 34 1 66 -20 129c-99 -48 -162 -149 -162 -259c0 -52 12 -115 36 -194c80 97 146 198 146 324z" fill="currentColor"/>
</g>
<a style="color:inherit;" xlink:href="textedit:///Users/marc.mouries/projects/Sheet-Music/Practice/MyViolinPracticeBook/pinky.ly:12:2:3">
</a>
<a style="color:inherit;" xlink:href="textedit:///Users/marc.mouries/projects/Sheet-Music/Practice/MyViolinPracticeBook/pinky.ly:11:2:3">
<g transform="translate(19.2264, 24.1790)">
<path transform="scale(0.0040, -0.0040)" d="M250 262c116 0 176 -106 176 -163c0 -40 -30 -72 -67 -72c-31 0 -75 25 -75 75c0 38 27 77 72 77c4 0 9 0 14 -1c-28 37 -72 59 -120 59c-106 0 -113 -73 -113 -186v-51v-51c0 -113 7 -187 113 -187c80 0 139 70 158 151c2 7 7 10 12 10c6 0 13 -4 13 -12
c0 -22 -50 -174 -183 -174c-59 0 -250 19 -250 263c0 62 18 262 250 262z" fill="currentColor"/>
</g>
</a>
<g transform="translate(24.6806, 27.6790)">
<path transform="scale(0.0040, -0.0040)" d="M0 0c0 31 25 56 56 56s56 -25 56 -56s-25 -56 -56 -56s-56 25 -56 56z" fill="currentColor"/>
</g>
<g transform="translate(25.5806, 27.6790)">
<path transform="scale(0.0040, -0.0040)" d="M0 0c0 31 25 56 56 56s56 -25 56 -56s-25 -56 -56 -56s-56 25 -56 56z" fill="currentColor"/>
</g>
<g transform="translate(24.1656, 24.1790)">
<rect x="-0.0650" y="-0.8120" width="0.1300" height="4.6259" ry="0.0400" fill="currentColor"/>
</g>
<g transform="translate(41.9551, 23.1790)">
<polygon stroke-linejoin="round" stroke-linecap="round" stroke-width="0.0800" fill="currentColor" stroke="currentColor" points="5.9630 -1.0100 5.9630 -0.6100 0.0400 0.2000 0.0400 -0.2000"/>
</g>
<g transform="translate(46.7931, 23.3362)">
<polygon stroke-linejoin="round" stroke-linecap="round" stroke-width="0.0800" fill="currentColor" stroke="currentColor" points="1.1250 -0.3572 1.1250 0.0428 0.0400 0.2000 0.0400 -0.2000"/>
</g>
<g transform="translate(46.7931, 24.1462)">
<polygon stroke-linejoin="round" stroke-linecap="round" stroke-width="0.0800" fill="currentColor" stroke="currentColor" points="1.1250 -0.3572 1.1250 0.0428 0.0400 0.2000 0.0400 -0.2000"/>
</g>
<g transform="translate(32.4778, 23.1790)">
<polygon stroke-linejoin="round" stroke-linecap="round" stroke-width="0.0800" fill="currentColor" stroke="currentColor" points="6.2130 -0.7000 6.2130 -0.3000 0.0400 0.2000 0.0400 -0.2000"/>
</g>
<g transform="translate(37.5659, 23.5822)">
<polygon stroke-linejoin="round" stroke-linecap="round" stroke-width="0.0800" fill="currentColor" stroke="currentColor" points="1.1250 -0.2932 1.1250 0.1068 0.0400 0.2000 0.0400 -0.2000"/>
</g>
<g transform="translate(37.5659, 24.3922)">
<polygon stroke-linejoin="round" stroke-linecap="round" stroke-width="0.0800" fill="currentColor" stroke="currentColor" points="1.1250 -0.2932 1.1250 0.1068 0.0400 0.2000 0.0400 -0.2000"/>
</g>
<g transform="translate(24.1006, 23.3690)">
<polygon stroke-linejoin="round" stroke-linecap="round" stroke-width="0.0800" fill="currentColor" stroke="currentColor" points="6.2130 -0.3900 6.2130 0.0100 0.0400 0.2000 0.0400 -0.2000"/>
</g>
<g transform="translate(29.1886, 24.0244)">
<polygon stroke-linejoin="round" stroke-linecap="round" stroke-width="0.0800" fill="currentColor" stroke="currentColor" points="1.1250 -0.2354 1.1250 0.1646 0.0400 0.2000 0.0400 -0.2000"/>
</g>
<g transform="translate(29.1886, 24.8344)">
<polygon stroke-linejoin="round" stroke-linecap="round" stroke-width="0.0800" fill="currentColor" stroke="currentColor" points="1.1250 -0.2354 1.1250 0.1646 0.0400 0.2000 0.0400 -0.2000"/>
</g>
<a style="color:inherit;" xlink:href="textedit:///Users/marc.mouries/projects/Sheet-Music/Practice/MyViolinPracticeBook/pinky.ly:32:8:9">
<g transform="translate(29.0494, 26.6790)">
<path transform="scale(0.0040, -0.0040)" d="M218 136c66 0 108 -36 108 -89c0 -89 -113 -183 -218 -183c-66 0 -108 36 -108 89c0 89 113 183 218 183z" fill="currentColor"/>
</g>
</a>
<g transform="translate(30.2886, 24.1790)">
<rect x="-0.0650" y="-0.9980" width="0.1300" height="3.3119" ry="0.0400" fill="currentColor"/>
</g>
<a style="color:inherit;" xlink:href="textedit:///Users/marc.mouries/projects/Sheet-Music/Practice/MyViolinPracticeBook/pinky.ly:32:12:13">
<g transform="translate(31.3036, 27.6790)">
<path transform="scale(0.0040, -0.0040)" d="M218 136c66 0 108 -36 108 -89c0 -89 -113 -183 -218 -183c-66 0 -108 36 -108 89c0 89 113 183 218 183z" fill="currentColor"/>
</g>
</a>
<g transform="translate(33.0578, 27.6790)">
<path transform="scale(0.0040, -0.0040)" d="M0 0c0 31 25 56 56 56s56 -25 56 -56s-25 -56 -56 -56s-56 25 -56 56z" fill="currentColor"/>
</g>
<g transform="translate(33.9578, 27.6790)">
<path transform="scale(0.0040, -0.0040)" d="M0 0c0 31 25 56 56 56s56 -25 56 -56s-25 -56 -56 -56s-56 25 -56 56z" fill="currentColor"/>
</g>
<g transform="translate(32.5428, 24.1790)">
<rect x="-0.0650" y="-1.0052" width="0.1300" height="4.3191" ry="0.0400" fill="currentColor"/>
</g>
<g transform="translate(45.2039, 25.6790)">
<path transform="scale(0.0040, -0.0040)" d="M0 119c0 8 5 15 13 18l46 17v158c0 10 8 19 18 19s19 -9 19 -19v-145l83 31v158c0 10 9 19 19 19s18 -9 18 -19v-145l32 12c2 1 5 1 7 1c11 0 20 -9 20 -20v-60c0 -8 -5 -16 -13 -19l-46 -16v-160l32 11c2 1 5 1 7 1c11 0 20 -9 20 -20v-60c0 -8 -5 -15 -13 -18l-46 -17
v-158c0 -10 -8 -19 -18 -19s-19 9 -19 19v145l-83 -31v-158c0 -10 -9 -19 -19 -19s-18 9 -18 19v145l-32 -12c-2 -1 -5 -1 -7 -1c-11 0 -20 9 -20 20v60c0 8 5 16 13 19l46 16v160l-32 -11c-2 -1 -5 -1 -7 -1c-11 0 -20 9 -20 20v60zM179 95l-83 -30v-160l83 30v160z" fill="currentColor"/>
</g>
<a style="color:inherit;" xlink:href="textedit:///Users/marc.mouries/projects/Sheet-Music/Practice/MyViolinPracticeBook/pinky.ly:32:17:18">
<g transform="translate(37.4267, 26.1790)">
<path transform="scale(0.0040, -0.0040)" d="M218 136c66 0 108 -36 108 -89c0 -89 -113 -183 -218 -183c-66 0 -108 36 -108 89c0 89 113 183 218 183z" fill="currentColor"/>
</g>
</a>
<g transform="translate(38.6659, 24.1790)">
<rect x="-0.0650" y="-1.4948" width="0.1300" height="3.3087" ry="0.0400" fill="currentColor"/>
</g>
<a style="color:inherit;" xlink:href="textedit:///Users/marc.mouries/projects/Sheet-Music/Practice/MyViolinPracticeBook/pinky.ly:32:21:22">
<g transform="translate(40.7809, 27.1790)">
<path transform="scale(0.0040, -0.0040)" d="M218 136c66 0 108 -36 108 -89c0 -89 -113 -183 -218 -183c-66 0 -108 36 -108 89c0 89 113 183 218 183z" fill="currentColor"/>
</g>
</a>
<g transform="translate(42.5351, 26.6790)">
<path transform="scale(0.0040, -0.0040)" d="M0 0c0 31 25 56 56 56s56 -25 56 -56s-25 -56 -56 -56s-56 25 -56 56z" fill="currentColor"/>
</g>
<g transform="translate(43.4351, 26.6790)">
<path transform="scale(0.0040, -0.0040)" d="M0 0c0 31 25 56 56 56s56 -25 56 -56s-25 -56 -56 -56s-56 25 -56 56z" fill="currentColor"/>
</g>
<g transform="translate(42.0201, 24.1790)">
<rect x="-0.0650" y="-1.0088" width="0.1300" height="3.8227" ry="0.0400" fill="currentColor"/>
</g>
<g transform="translate(39.3309, 27.1790)">
<path transform="scale(0.0040, -0.0040)" d="M0 119c0 8 5 15 13 18l46 17v158c0 10 8 19 18 19s19 -9 19 -19v-145l83 31v158c0 10 9 19 19 19s18 -9 18 -19v-145l32 12c2 1 5 1 7 1c11 0 20 -9 20 -20v-60c0 -8 -5 -16 -13 -19l-46 -16v-160l32 11c2 1 5 1 7 1c11 0 20 -9 20 -20v-60c0 -8 -5 -15 -13 -18l-46 -17
v-158c0 -10 -8 -19 -18 -19s-19 9 -19 19v145l-83 -31v-158c0 -10 -9 -19 -19 -19s-18 9 -18 19v145l-32 -12c-2 -1 -5 -1 -7 -1c-11 0 -20 9 -20 20v60c0 8 5 16 13 19l46 16v160l-32 -11c-2 -1 -5 -1 -7 -1c-11 0 -20 9 -20 20v60zM179 95l-83 -30v-160l83 30v160z" fill="currentColor"/>
</g>
<a style="color:inherit;" xlink:href="textedit:///Users/marc.mouries/projects/Sheet-Music/Practice/MyViolinPracticeBook/pinky.ly:32:27:28">
<g transform="translate(46.6539, 25.6790)">
<path transform="scale(0.0040, -0.0040)" d="M218 136c66 0 108 -36 108 -89c0 -89 -113 -183 -218 -183c-66 0 -108 36 -108 89c0 89 113 183 218 183z" fill="currentColor"/>
</g>
</a>
<g transform="translate(47.8931, 24.1790)">
<rect x="-0.0650" y="-1.8012" width="0.1300" height="3.1151" ry="0.0400" fill="currentColor"/>
</g>
<g transform="translate(5.6906, 36.1790)">
<text font-family="serif" font-size="2.2001" text-anchor="start" fill="currentColor">
<tspan>EXERCISE</tspan>
</text>
</g>
<g transform="translate(16.7725, 36.1790)">
<text font-family="serif" font-size="2.2001" text-anchor="start" fill="currentColor">
<tspan>II</tspan>
</text>
</g>
<g transform="translate(18.8066, 36.1790)">
<text font-family="serif" font-size="2.2001" text-anchor="start" fill="currentColor">
<tspan>(harmonics</tspan>
</text>
</g>
<g transform="translate(29.2740, 36.1790)">
<text font-family="serif" font-size="2.2001" text-anchor="start" fill="currentColor">
<tspan>transitioning</tspan>
</text>
</g>
<g transform="translate(40.9706, 36.1790)">
<text font-family="serif" font-size="2.2001" text-anchor="start" fill="currentColor">
<tspan>into</tspan>
</text>
</g>
<g transform="translate(44.9849, 36.1790)">
<text font-family="serif" font-size="2.2001" text-anchor="start" fill="currentColor">
<tspan>scale</tspan>
</text>
</g>
<g transform="translate(50.0235, 36.1790)">
<text font-family="serif" font-size="2.2001" text-anchor="start" fill="currentColor">
<tspan>in</tspan>
</text>
</g>
<g transform="translate(52.3307, 36.1790)">
<text font-family="serif" font-size="2.2001" text-anchor="start" fill="currentColor">
<tspan>fourths)</tspan>
</text>
</g>
<g transform="translate(5.6906, 45.7538)">
<rect x="33.2611" y="-0.1000" width="1.9563" height="0.2000" ry="0.1000" fill="currentColor"/>
</g>
<g transform="translate(5.6906, 45.7538)">
<rect x="30.2588" y="-0.1000" width="1.9563" height="0.2000" ry="0.1000" fill="currentColor"/>
</g>
<g transform="translate(5.6906, 45.7538)">
<rect x="25.9165" y="-0.1000" width="1.9563" height="0.2000" ry="0.1000" fill="currentColor"/>
</g>
<g transform="translate(5.6906, 45.7538)">
<rect x="22.9143" y="-0.1000" width="1.9563" height="0.2000" ry="0.1000" fill="currentColor"/>
</g>
<g transform="translate(5.6906, 45.7538)">
<rect x="19.9120" y="-0.1000" width="1.9563" height="0.2000" ry="0.1000" fill="currentColor"/>
</g>
<g transform="translate(5.6906, 46.7538)">
<rect x="19.9120" y="-0.1000" width="1.9563" height="0.2000" ry="0.1000" fill="currentColor"/>
</g>
<g transform="translate(5.6906, 45.7538)">
<rect x="16.9098" y="-0.1000" width="1.9563" height="0.2000" ry="0.1000" fill="currentColor"/>
</g>
<g transform="translate(5.6906, 46.7538)">
<rect x="16.9098" y="-0.1000" width="1.9563" height="0.2000" ry="0.1000" fill="currentColor"/>
</g>
<g transform="translate(14.2264, 44.7538)">
<line stroke-linejoin="round" stroke-linecap="round" stroke-width="0.1000" stroke="currentColor" x1="0.0500" y1="0" x2="34.4480" y2="0"/>
</g>
<g transform="translate(14.2264, 43.7538)">
<line stroke-linejoin="round" stroke-linecap="round" stroke-width="0.1000" stroke="currentColor" x1="0.0500" y1="0" x2="34.4480" y2="0"/>
</g>
<g transform="translate(14.2264, 42.7538)">
<line stroke-linejoin="round" stroke-linecap="round" stroke-width="0.1000" stroke="currentColor" x1="0.0500" y1="0" x2="34.4480" y2="0"/>
</g>
<g transform="translate(14.2264, 41.7538)">
<line stroke-linejoin="round" stroke-linecap="round" stroke-width="0.1000" stroke="currentColor" x1="0.0500" y1="0" x2="34.4480" y2="0"/>
</g>
<g transform="translate(14.2264, 40.7538)">
<line stroke-linejoin="round" stroke-linecap="round" stroke-width="0.1000" stroke="currentColor" x1="0.0500" y1="0" x2="34.4480" y2="0"/>
</g>
<g transform="translate(48.5344, 42.7538)">
<rect x="0.0000" y="-2.0000" width="0.1900" height="4.0000" ry="0.0000" fill="currentColor"/>
</g>
<g transform="translate(35.1854, 42.7538)">
<rect x="0.0000" y="-2.0000" width="0.1900" height="4.0000" ry="0.0000" fill="currentColor"/>
</g>
<a style="color:inherit;" xlink:href="textedit:///Users/marc.mouries/projects/Sheet-Music/Practice/MyViolinPracticeBook/pinky.ly:55:5:6">
<g transform="translate(22.9264, 46.7538)">
<path transform="scale(0.0040, -0.0040)" d="M218 136c66 0 108 -36 108 -89c0 -89 -113 -183 -218 -183c-66 0 -108 36 -108 89c0 89 113 183 218 183z" fill="currentColor"/>
</g>
</a>
<g transform="translate(15.0264, 43.7538)">
<path transform="scale(0.0040, -0.0040)" d="M266 -635h-6c-108 0 -195 88 -195 197c0 58 53 103 112 103c54 0 95 -47 95 -103c0 -52 -43 -95 -95 -95c-11 0 -21 2 -31 6c26 -39 68 -65 117 -65h4zM461 -203c68 24 113 90 113 164c0 90 -66 179 -173 190c19 -89 48 -242 60 -354zM74 28c0 -145 141 -247 264 -247
c1 0 47 0 82 6c-7 64 -29 203 -63 364c-79 -8 -124 -61 -124 -119c0 -44 25 -91 81 -123c5 -5 7 -10 7 -15c0 -11 -10 -22 -22 -22c-15 0 -126 62 -126 187c0 88 58 174 160 197c-14 58 -29 117 -46 175c-107 -121 -213 -243 -213 -403zM250 553c-29 96 -52 170 -52 346
c0 115 55 224 149 292c6 5 14 5 20 0c68 -80 133 -245 133 -358c0 -143 -86 -255 -180 -364c21 -68 39 -138 56 -207c2 0 7 1 13 1c155 0 256 -128 256 -261c0 -113 -74 -212 -180 -246c3 -35 5 -70 5 -105c0 -19 -1 -39 -2 -58c-7 -119 -88 -225 -202 -228l1 43
c93 2 153 92 159 191c1 18 2 37 2 55c0 31 -1 61 -4 92c-5 -1 -44 -8 -89 -8c-193 0 -333 180 -333 374c0 177 131 306 248 441zM428 916c0 34 1 66 -20 129c-99 -48 -162 -149 -162 -259c0 -52 12 -115 36 -194c80 97 146 198 146 324z" fill="currentColor"/>
</g>
<a style="color:inherit;" xlink:href="textedit:///Users/marc.mouries/projects/Sheet-Music/Practice/MyViolinPracticeBook/pinky.ly:12:2:3">
</a>
<a style="color:inherit;" xlink:href="textedit:///Users/marc.mouries/projects/Sheet-Music/Practice/MyViolinPracticeBook/pinky.ly:11:2:3">
<g transform="translate(19.2264, 42.7538)">
<path transform="scale(0.0040, -0.0040)" d="M250 262c116 0 176 -106 176 -163c0 -40 -30 -72 -67 -72c-31 0 -75 25 -75 75c0 38 27 77 72 77c4 0 9 0 14 -1c-28 37 -72 59 -120 59c-106 0 -113 -73 -113 -186v-51v-51c0 -113 7 -187 113 -187c80 0 139 70 158 151c2 7 7 10 12 10c6 0 13 -4 13 -12
c0 -22 -50 -174 -183 -174c-59 0 -250 19 -250 263c0 62 18 262 250 262z" fill="currentColor"/>
</g>
</a>
<g transform="translate(24.1656, 42.7538)">
<rect x="-0.0650" y="-0.0000" width="0.1300" height="3.8139" ry="0.0400" fill="currentColor"/>
</g>
<a style="color:inherit;" xlink:href="textedit:///Users/marc.mouries/projects/Sheet-Music/Practice/MyViolinPracticeBook/pinky.ly:55:11:12">
<g transform="translate(25.9286, 46.7538)">
<path transform="scale(0.0040, -0.0040)" d="M218 136c66 0 108 -36 108 -89c0 -89 -113 -183 -218 -183c-66 0 -108 36 -108 89c0 89 113 183 218 183z" fill="currentColor"/>
</g>
</a>
<a style="color:inherit;" xlink:href="textedit:///Users/marc.mouries/projects/Sheet-Music/Practice/MyViolinPracticeBook/pinky.ly:55:13:14">
<g transform="translate(25.9328, 45.2538)">
<path transform="scale(0.0040, -0.0040)" d="M87 51c-2 -2 -3 -4 -3 -6s1 -5 3 -7l109 -120c2 -2 4 -4 7 -4s5 2 7 4l28 31c2 2 3 4 3 6s-1 5 -3 7l-109 120c-2 2 -4 4 -7 4s-5 -2 -7 -4zM0 0c0 11 65 55 155 175c2 2 5 4 8 4c12 0 46 -67 159 -172c2 -2 3 -4 3 -7c0 -11 -65 -55 -155 -175c-2 -2 -4 -4 -7 -4
c-12 0 -47 67 -160 172c-2 2 -3 4 -3 7z" fill="currentColor"/>
</g>
</a>
<g transform="translate(27.1678, 42.7538)">
<rect x="-0.0650" y="-1.0000" width="0.1300" height="4.8139" ry="0.0400" fill="currentColor"/>
</g>
<a style="color:inherit;" xlink:href="textedit:///Users/marc.mouries/projects/Sheet-Music/Practice/MyViolinPracticeBook/pinky.ly:56:5:6">
<g transform="translate(28.9309, 46.2538)">
<path transform="scale(0.0040, -0.0040)" d="M218 136c66 0 108 -36 108 -89c0 -89 -113 -183 -218 -183c-66 0 -108 36 -108 89c0 89 113 183 218 183z" fill="currentColor"/>
</g>
</a>
<g transform="translate(30.1701, 42.7538)">
<rect x="-0.0650" y="-0.0000" width="0.1300" height="3.3139" ry="0.0400" fill="currentColor"/>
</g>
<a style="color:inherit;" xlink:href="textedit:///Users/marc.mouries/projects/Sheet-Music/Practice/MyViolinPracticeBook/pinky.ly:56:10:11">
<g transform="translate(31.9331, 46.2538)">
<path transform="scale(0.0040, -0.0040)" d="M218 136c66 0 108 -36 108 -89c0 -89 -113 -183 -218 -183c-66 0 -108 36 -108 89c0 89 113 183 218 183z" fill="currentColor"/>
</g>
</a>
<a style="color:inherit;" xlink:href="textedit:///Users/marc.mouries/projects/Sheet-Music/Practice/MyViolinPracticeBook/pinky.ly:56:12:13">
<g transform="translate(31.9374, 44.7538)">
<path transform="scale(0.0040, -0.0040)" d="M87 51c-2 -2 -3 -4 -3 -6s1 -5 3 -7l109 -120c2 -2 4 -4 7 -4s5 2 7 4l28 31c2 2 3 4 3 6s-1 5 -3 7l-109 120c-2 2 -4 4 -7 4s-5 -2 -7 -4zM0 0c0 11 65 55 155 175c2 2 5 4 8 4c12 0 46 -67 159 -172c2 -2 3 -4 3 -7c0 -11 -65 -55 -155 -175c-2 -2 -4 -4 -7 -4
c-12 0 -47 67 -160 172c-2 2 -3 4 -3 7z" fill="currentColor"/>
</g>
</a>
<g transform="translate(33.1724, 42.7538)">
<rect x="-0.0650" y="-1.5000" width="0.1300" height="4.8139" ry="0.0400" fill="currentColor"/>
</g>
<a style="color:inherit;" xlink:href="textedit:///Users/marc.mouries/projects/Sheet-Music/Practice/MyViolinPracticeBook/pinky.ly:57:5:6">
<g transform="translate(36.2754, 45.7538)">
<path transform="scale(0.0040, -0.0040)" d="M218 136c66 0 108 -36 108 -89c0 -89 -113 -183 -218 -183c-66 0 -108 36 -108 89c0 89 113 183 218 183z" fill="currentColor"/>
</g>
</a>
<g transform="translate(37.5146, 42.7538)">
<rect x="-0.0650" y="-0.5000" width="0.1300" height="3.3139" ry="0.0400" fill="currentColor"/>
</g>
<a style="color:inherit;" xlink:href="textedit:///Users/marc.mouries/projects/Sheet-Music/Practice/MyViolinPracticeBook/pinky.ly:57:10:11">
<g transform="translate(39.2777, 45.7538)">
<path transform="scale(0.0040, -0.0040)" d="M218 136c66 0 108 -36 108 -89c0 -89 -113 -183 -218 -183c-66 0 -108 36 -108 89c0 89 113 183 218 183z" fill="currentColor"/>
</g>
</a>
<a style="color:inherit;" xlink:href="textedit:///Users/marc.mouries/projects/Sheet-Music/Practice/MyViolinPracticeBook/pinky.ly:57:12:13">
<g transform="translate(39.2819, 44.2538)">
<path transform="scale(0.0040, -0.0040)" d="M87 51c-2 -2 -3 -4 -3 -6s1 -5 3 -7l109 -120c2 -2 4 -4 7 -4s5 2 7 4l28 31c2 2 3 4 3 6s-1 5 -3 7l-109 120c-2 2 -4 4 -7 4s-5 -2 -7 -4zM0 0c0 11 65 55 155 175c2 2 5 4 8 4c12 0 46 -67 159 -172c2 -2 3 -4 3 -7c0 -11 -65 -55 -155 -175c-2 -2 -4 -4 -7 -4
c-12 0 -47 67 -160 172c-2 2 -3 4 -3 7z" fill="currentColor"/>
</g>
</a>
<g transform="translate(40.5169, 42.7538)">
<rect x="-0.0650" y="-2.0000" width="0.1300" height="4.8139" ry="0.0400" fill="currentColor"/>
</g>
<a style="color:inherit;" xlink:href="textedit:///Users/marc.mouries/projects/Sheet-Music/Practice/MyViolinPracticeBook/pinky.ly:58:5:6">
<g transform="translate(42.2799, 45.2538)">
<path transform="scale(0.0040, -0.0040)" d="M218 136c66 0 108 -36 108 -89c0 -89 -113 -183 -218 -183c-66 0 -108 36 -108 89c0 89 113 183 218 183z" fill="currentColor"/>
</g>
</a>
<g transform="translate(43.5191, 42.7538)">
<rect x="-0.0650" y="-1.0000" width="0.1300" height="3.3139" ry="0.0400" fill="currentColor"/>
</g>
<a style="color:inherit;" xlink:href="textedit:///Users/marc.mouries/projects/Sheet-Music/Practice/MyViolinPracticeBook/pinky.ly:58:10:11">
<g transform="translate(45.2822, 45.2538)">
<path transform="scale(0.0040, -0.0040)" d="M218 136c66 0 108 -36 108 -89c0 -89 -113 -183 -218 -183c-66 0 -108 36 -108 89c0 89 113 183 218 183z" fill="currentColor"/>
</g>
</a>
<a style="color:inherit;" xlink:href="textedit:///Users/marc.mouries/projects/Sheet-Music/Practice/MyViolinPracticeBook/pinky.ly:58:12:13">
<g transform="translate(45.2864, 43.7538)">
<path transform="scale(0.0040, -0.0040)" d="M87 51c-2 -2 -3 -4 -3 -6s1 -5 3 -7l109 -120c2 -2 4 -4 7 -4s5 2 7 4l28 31c2 2 3 4 3 6s-1 5 -3 7l-109 120c-2 2 -4 4 -7 4s-5 -2 -7 -4zM0 0c0 11 65 55 155 175c2 2 5 4 8 4c12 0 46 -67 159 -172c2 -2 3 -4 3 -7c0 -11 -65 -55 -155 -175c-2 -2 -4 -4 -7 -4
c-12 0 -47 67 -160 172c-2 2 -3 4 -3 7z" fill="currentColor"/>
</g>
</a>
<g transform="translate(46.5214, 42.7538)">
<rect x="-0.0650" y="-2.5000" width="0.1300" height="4.8139" ry="0.0400" fill="currentColor"/>
</g>
<g transform="translate(34.5530, 165.1202)">
<a xlink:href="https://lilypond.org/">
<rect x="0.0000" y="-0.4748" width="50.3955" height="2.0024" fill="none" stroke="none" stroke-width="0.0"/>
</a>
</g>
<g transform="translate(34.5530, 165.1202)">
<text font-family="serif" font-size="2.2001" text-anchor="start" fill="currentColor">
<tspan>Music engraving by LilyPond 2.24.4—www.lilypond.org</tspan>
</text>
</g>
</svg>
