<svg xmlns="http://www.w3.org/2000/svg" xmlns:xlink="http://www.w3.org/1999/xlink" version="1.2" width="210.00mm" height="297.00mm" viewBox="0.0000 -0.0000 113.8110 160.9613">
<style type="text/css">
<![CDATA[
tspan { white-space: pre; }
]]>
</style>
<g transform="translate(10.8391, 6.9064)">
<text font-family="serif" font-size="2.2001" text-anchor="start" fill="currentColor">
<tspan>10</tspan>
</text>
</g>
<g transform="translate(10.8391, 15.1531)">
<rect x="13.0449" y="-0.1034" width="1.8053" height="0.2069" ry="0.1034" fill="currentColor"/>
</g>
<g transform="translate(10.8391, 14.0531)">
<line stroke-linejoin="round" stroke-linecap="round" stroke-width="0.0969" stroke="currentColor" x1="0.0484" y1="0" x2="19.5279" y2="0"/>
</g>
<g transform="translate(10.8391, 12.9531)">
<line stroke-linejoin="round" stroke-linecap="round" stroke-width="0.0969" stroke="currentColor" x1="0.0484" y1="0" x2="19.5279" y2="0"/>
</g>
<g transform="translate(10.8391, 11.8531)">
<line stroke-linejoin="round" stroke-linecap="round" stroke-width="0.0969" stroke="currentColor" x1="0.0484" y1="0" x2="19.5279" y2="0"/>
</g>
<g transform="translate(10.8391, 10.7531)">
<line stroke-linejoin="round" stroke-linecap="round" stroke-width="0.0969" stroke="currentColor" x1="0.0484" y1="0" x2="19.5279" y2="0"/>
</g>
<g transform="translate(10.8391, 9.6531)">
<line stroke-linejoin="round" stroke-linecap="round" stroke-width="0.0969" stroke="currentColor" x1="0.0484" y1="0" x2="19.5279" y2="0"/>
</g>
<a style="color:inherit;" xlink:href="textedit:///Users/marc.mouries/projects/Sheet-Music/Practice/MyViolinPracticeBook/Violin-Practice-Book.ly:609:2:3">
<g transform="translate(19.5391, 14.6031)">
<path transform="scale(0.0040, -0.0040)" d="M218 136c66 0 108 -36 108 -89c0 -89 -113 -183 -218 -183c-66 0 -108 36 -108 89c0 89 113 183 218 183z" fill="currentColor"/>
</g>
</a>
<a style="color:inherit;" xlink:href="textedit:///Users/marc.mouries/projects/Sheet-Music/Practice/MyViolinPracticeBook/Violin-Practice-Book.ly:609:6:7">
<g transform="translate(20.7048, 14.6031)">
<path transform="scale(0.0040, -0.0040)" d="M218 136c66 0 108 -36 108 -89c0 -89 -113 -183 -218 -183c-66 0 -108 36 -108 89c0 89 113 183 218 183z" fill="currentColor"/>
</g>
</a>
<g transform="translate(11.6391, 12.9531)">
<path transform="scale(0.0040, -0.0040)" d="M266 -635h-6c-108 0 -195 88 -195 197c0 58 53 103 112 103c54 0 95 -47 95 -103c0 -52 -43 -95 -95 -95c-11 0 -21 2 -31 6c26 -39 68 -65 117 -65h4zM461 -203c68 24 113 90 113 164c0 90 -66 179 -173 190c19 -89 48 -242 60 -354zM74 28c0 -145 141 -247 264 -247
c1 0 47 0 82 6c-7 64 -29 203 -63 364c-79 -8 -124 -61 -124 -119c0 -44 25 -91 81 -123c5 -5 7 -10 7 -15c0 -11 -10 -22 -22 -22c-15 0 -126 62 -126 187c0 88 58 174 160 197c-14 58 -29 117 -46 175c-107 -121 -213 -243 -213 -403zM250 553c-29 96 -52 170 -52 346
c0 115 55 224 149 292c6 5 14 5 20 0c68 -80 133 -245 133 -358c0 -143 -86 -255 -180 -364c21 -68 39 -138 56 -207c2 0 7 1 13 1c155 0 256 -128 256 -261c0 -113 -74 -212 -180 -246c3 -35 5 -70 5 -105c0 -19 -1 -39 -2 -58c-7 -119 -88 -225 -202 -228l1 43
c93 2 153 92 159 191c1 18 2 37 2 55c0 31 -1 61 -4 92c-5 -1 -44 -8 -89 -8c-193 0 -333 180 -333 374c0 177 131 306 248 441zM428 916c0 34 1 66 -20 129c-99 -48 -162 -149 -162 -259c0 -52 12 -115 36 -194c80 97 146 198 146 324z" fill="currentColor"/>
</g>
<g transform="translate(15.8391, 11.8531)">
<path transform="scale(0.0040, -0.0040)" d="M250 262c116 0 176 -106 176 -163c0 -40 -30 -72 -67 -72c-31 0 -75 25 -75 75c0 38 27 77 72 77c4 0 9 0 14 -1c-28 37 -72 59 -120 59c-106 0 -113 -73 -113 -186v-51v-51c0 -113 7 -187 113 -187c80 0 139 70 158 151c2 7 7 10 12 10c6 0 13 -4 13 -12
c0 -22 -50 -174 -183 -174c-59 0 -250 19 -250 263c0 62 18 262 250 262z" fill="currentColor"/>
</g>
<g transform="translate(20.7804, 11.8531)">
<rect x="-0.0630" y="-1.1000" width="0.1259" height="3.6639" ry="0.0381" fill="currentColor"/>
</g>
<a style="color:inherit;" xlink:href="textedit:///Users/marc.mouries/projects/Sheet-Music/Practice/MyViolinPracticeBook/Violin-Practice-Book.ly:609:3:4">
<g transform="translate(19.7197, 16.8229)">
<path transform="scale(0.0022, -0.0022)" d="M148 501c10 0 41 -15 72 -15c32 0 63 15 76 15c15 0 26 -11 26 -21c0 -4 -1 -7 -4 -10l-264 -291h134v4c0 60 50 41 75 85c7 11 8 24 14 36c3 7 10 10 17 10c11 0 24 -8 24 -25v-110h70c18 0 27 -14 27 -27s-9 -27 -27 -27h-70c2 -45 36 -82 80 -82c14 0 22 -10 22 -21
s-8 -22 -22 -22c-49 0 -96 14 -145 14s-97 -14 -146 -14c-14 0 -21 11 -21 22s7 21 21 21c44 0 79 37 81 82h-134c-43 0 -57 25 -57 42c0 5 1 10 3 12c73 81 123 182 123 291c0 17 11 31 25 31z" fill="currentColor"/>
</g>
</a>
<g transform="translate(25.9632, 13.5031)">
<path transform="scale(0.0040, -0.0040)" d="M0 119c0 8 5 15 13 18l46 17v158c0 10 8 19 18 19s19 -9 19 -19v-145l83 31v158c0 10 9 19 19 19s18 -9 18 -19v-145l32 12c2 1 5 1 7 1c11 0 20 -9 20 -20v-60c0 -8 -5 -16 -13 -19l-46 -16v-160l32 11c2 1 5 1 7 1c11 0 20 -9 20 -20v-60c0 -8 -5 -15 -13 -18l-46 -17
v-158c0 -10 -8 -19 -18 -19s-19 9 -19 19v145l-83 -31v-158c0 -10 -9 -19 -19 -19s-18 9 -18 19v145l-32 -12c-2 -1 -5 -1 -7 -1c-11 0 -20 9 -20 20v60c0 8 5 16 13 19l46 16v160l-32 -11c-2 -1 -5 -1 -7 -1c-11 0 -20 9 -20 20v60zM179 95l-83 -30v-160l83 30v160z" fill="currentColor"/>
</g>
<a style="color:inherit;" xlink:href="textedit:///Users/marc.mouries/projects/Sheet-Music/Practice/MyViolinPracticeBook/Violin-Practice-Book.ly:609:7:8">
<g transform="translate(20.9342, 9.0547)">
<path transform="scale(0.0022, -0.0022)" d="M190 446c-56 0 -61 -84 -61 -155v-41v-41c0 -71 5 -155 61 -155s61 84 61 155v41v41c0 71 -5 155 -61 155zM190 500c118 0 190 -122 190 -250s-72 -250 -190 -250s-190 122 -190 250s72 250 190 250z" fill="currentColor"/>
</g>
</a>
<a style="color:inherit;" xlink:href="textedit:///Users/marc.mouries/projects/Sheet-Music/Practice/MyViolinPracticeBook/Violin-Practice-Book.ly:609:13:14">
<g transform="translate(24.0590, 15.1531)">
<path transform="scale(0.0040, -0.0040)" d="M218 136c66 0 108 -36 108 -89c0 -89 -113 -183 -218 -183c-66 0 -108 36 -108 89c0 89 113 183 218 183z" fill="currentColor"/>
</g>
</a>
<a style="color:inherit;" xlink:href="textedit:///Users/marc.mouries/projects/Sheet-Music/Practice/MyViolinPracticeBook/Violin-Practice-Book.ly:609:16:17">
<g transform="translate(24.0590, 14.0531)">
<path transform="scale(0.0040, -0.0040)" d="M218 136c66 0 108 -36 108 -89c0 -89 -113 -183 -218 -183c-66 0 -108 36 -108 89c0 89 113 183 218 183z" fill="currentColor"/>
</g>
</a>
<g transform="translate(25.3003, 11.8531)">
<rect x="-0.0630" y="-1.6500" width="0.1259" height="4.7639" ry="0.0381" fill="currentColor"/>
</g>
<g transform="translate(22.6090, 15.1531)">
<path transform="scale(0.0040, -0.0040)" d="M0 119c0 8 5 15 13 18l46 17v158c0 10 8 19 18 19s19 -9 19 -19v-145l83 31v158c0 10 9 19 19 19s18 -9 18 -19v-145l32 12c2 1 5 1 7 1c11 0 20 -9 20 -20v-60c0 -8 -5 -16 -13 -19l-46 -16v-160l32 11c2 1 5 1 7 1c11 0 20 -9 20 -20v-60c0 -8 -5 -15 -13 -18l-46 -17
v-158c0 -10 -8 -19 -18 -19s-19 9 -19 19v145l-83 -31v-158c0 -10 -9 -19 -19 -19s-18 9 -18 19v145l-32 -12c-2 -1 -5 -1 -7 -1c-11 0 -20 9 -20 20v60c0 8 5 16 13 19l46 16v160l-32 -11c-2 -1 -5 -1 -7 -1c-11 0 -20 9 -20 20v60zM179 95l-83 -30v-160l83 30v160z" fill="currentColor"/>
</g>
<a style="color:inherit;" xlink:href="textedit:///Users/marc.mouries/projects/Sheet-Music/Practice/MyViolinPracticeBook/Violin-Practice-Book.ly:609:20:21">
<g transform="translate(27.4132, 14.6031)">
<path transform="scale(0.0040, -0.0040)" d="M218 136c66 0 108 -36 108 -89c0 -89 -113 -183 -218 -183c-66 0 -108 36 -108 89c0 89 113 183 218 183z" fill="currentColor"/>
</g>
</a>
<a style="color:inherit;" xlink:href="textedit:///Users/marc.mouries/projects/Sheet-Music/Practice/MyViolinPracticeBook/Violin-Practice-Book.ly:609:22:23">
<g transform="translate(27.4132, 13.5031)">
<path transform="scale(0.0040, -0.0040)" d="M218 136c66 0 108 -36 108 -89c0 -89 -113 -183 -218 -183c-66 0 -108 36 -108 89c0 89 113 183 218 183z" fill="currentColor"/>
</g>
</a>
<g transform="translate(28.6545, 11.8531)">
<rect x="-0.0630" y="-2.2000" width="0.1259" height="4.7639" ry="0.0381" fill="currentColor"/>
</g>
<g transform="translate(10.8391, 23.3191)">
<text font-family="serif" font-size="2.2001" text-anchor="start" fill="currentColor">
<tspan>rhythms</tspan>
</text>
</g>
<g transform="translate(10.8391, 41.2926)">
<rect x="74.3141" y="-0.1034" width="1.9563" height="0.2069" ry="0.1034" fill="currentColor"/>
</g>
<g transform="translate(10.8391, 41.2926)">
<rect x="71.7446" y="-0.1034" width="1.9563" height="0.2069" ry="0.1034" fill="currentColor"/>
</g>
<g transform="translate(10.8391, 41.2926)">
<rect x="69.1752" y="-0.1034" width="1.9563" height="0.2069" ry="0.1034" fill="currentColor"/>
</g>
<g transform="translate(10.8391, 41.2926)">
<rect x="63.2554" y="-0.1034" width="1.9563" height="0.2069" ry="0.1034" fill="currentColor"/>
</g>
<g transform="translate(10.8391, 41.2926)">
<rect x="56.8516" y="-0.1034" width="1.9563" height="0.2069" ry="0.1034" fill="currentColor"/>
</g>
<g transform="translate(10.8391, 41.2926)">
<rect x="54.2822" y="-0.1034" width="1.9563" height="0.2069" ry="0.1034" fill="currentColor"/>
</g>
<g transform="translate(10.8391, 41.2926)">
<rect x="51.7127" y="-0.1034" width="1.9563" height="0.2069" ry="0.1034" fill="currentColor"/>
</g>
<g transform="translate(10.8391, 41.2926)">
<rect x="45.7929" y="-0.1034" width="1.9563" height="0.2069" ry="0.1034" fill="currentColor"/>
</g>
<g transform="translate(10.8391, 41.2926)">
<rect x="37.5525" y="-0.1034" width="1.9563" height="0.2069" ry="0.1034" fill="currentColor"/>
</g>
<g transform="translate(10.8391, 41.2926)">
<rect x="31.6327" y="-0.1034" width="1.9563" height="0.2069" ry="0.1034" fill="currentColor"/>
</g>
<g transform="translate(10.8391, 41.2926)">
<rect x="27.2265" y="-0.1034" width="1.9563" height="0.2069" ry="0.1034" fill="currentColor"/>
</g>
<g transform="translate(10.8391, 41.2926)">
<rect x="24.0204" y="-0.1034" width="1.9563" height="0.2069" ry="0.1034" fill="currentColor"/>
</g>
<g transform="translate(10.8391, 41.2926)">
<rect x="17.6819" y="-0.1034" width="1.9563" height="0.2069" ry="0.1034" fill="currentColor"/>
</g>
<g transform="translate(10.8391, 41.2926)">
<rect x="15.1777" y="-0.1034" width="1.9563" height="0.2069" ry="0.1034" fill="currentColor"/>
</g>
<g transform="translate(10.8391, 41.2926)">
<rect x="12.6735" y="-0.1034" width="1.9563" height="0.2069" ry="0.1034" fill="currentColor"/>
</g>
<g transform="translate(10.8391, 41.2926)">
<rect x="8.2673" y="-0.1034" width="1.9563" height="0.2069" ry="0.1034" fill="currentColor"/>
</g>
<g transform="translate(10.8391, 40.1926)">
<line stroke-linejoin="round" stroke-linecap="round" stroke-width="0.0969" stroke="currentColor" x1="0.0484" y1="0" x2="78.9577" y2="0"/>
</g>
<g transform="translate(10.8391, 39.0926)">
<line stroke-linejoin="round" stroke-linecap="round" stroke-width="0.0969" stroke="currentColor" x1="0.0484" y1="0" x2="78.9577" y2="0"/>
</g>
<g transform="translate(10.8391, 37.9926)">
<line stroke-linejoin="round" stroke-linecap="round" stroke-width="0.0969" stroke="currentColor" x1="0.0484" y1="0" x2="78.9577" y2="0"/>
</g>
<g transform="translate(10.8391, 36.8926)">
<line stroke-linejoin="round" stroke-linecap="round" stroke-width="0.0969" stroke="currentColor" x1="0.0484" y1="0" x2="78.9577" y2="0"/>
</g>
<g transform="translate(10.8391, 35.7926)">
<line stroke-linejoin="round" stroke-linecap="round" stroke-width="0.0969" stroke="currentColor" x1="0.0484" y1="0" x2="78.9577" y2="0"/>
</g>
<g transform="translate(88.0488, 37.4426)">
<path transform="scale(0.0040, -0.0040)" d="M0 0c0 31 25 56 56 56s56 -25 56 -56s-25 -56 -56 -56s-56 25 -56 56z" fill="currentColor"/>
</g>
<g transform="translate(88.0488, 38.5426)">
<path transform="scale(0.0040, -0.0040)" d="M0 0c0 31 25 56 56 56s56 -25 56 -56s-25 -56 -56 -56s-56 25 -56 56z" fill="currentColor"/>
</g>
<g transform="translate(89.2641, 37.9926)">
<rect x="0.0000" y="-2.2000" width="0.5812" height="4.4000" ry="0.0000" fill="currentColor"/>
</g>
<g transform="translate(88.7894, 37.9926)">
<rect x="0.0000" y="-2.2000" width="0.1841" height="4.4000" ry="0.0000" fill="currentColor"/>
</g>
<g transform="translate(76.8544, 37.9926)">
<rect x="0.0000" y="-2.2000" width="0.1841" height="4.4000" ry="0.0000" fill="currentColor"/>
</g>
<g transform="translate(70.5863, 37.4426)">
<path transform="scale(0.0040, -0.0040)" d="M0 0c0 31 25 56 56 56s56 -25 56 -56s-25 -56 -56 -56s-56 25 -56 56z" fill="currentColor"/>
</g>
<g transform="translate(70.5863, 38.5426)">
<path transform="scale(0.0040, -0.0040)" d="M0 0c0 31 25 56 56 56s56 -25 56 -56s-25 -56 -56 -56s-56 25 -56 56z" fill="currentColor"/>
</g>
<g transform="translate(73.0706, 37.4426)">
<path transform="scale(0.0040, -0.0040)" d="M0 0c0 31 25 56 56 56s56 -25 56 -56s-25 -56 -56 -56s-56 25 -56 56z" fill="currentColor"/>
</g>
<g transform="translate(73.0706, 38.5426)">
<path transform="scale(0.0040, -0.0040)" d="M0 0c0 31 25 56 56 56s56 -25 56 -56s-25 -56 -56 -56s-56 25 -56 56z" fill="currentColor"/>
</g>
<g transform="translate(72.1988, 37.9926)">
<rect x="0.0000" y="-2.2000" width="0.5812" height="4.4000" ry="0.0000" fill="currentColor"/>
</g>
<g transform="translate(71.3269, 37.9926)">
<rect x="0.0000" y="-2.2000" width="0.5812" height="4.4000" ry="0.0000" fill="currentColor"/>
</g>
<g transform="translate(59.3919, 37.9926)">
<rect x="0.0000" y="-2.2000" width="0.1841" height="4.4000" ry="0.0000" fill="currentColor"/>
</g>
<g transform="translate(53.1239, 37.4426)">
<path transform="scale(0.0040, -0.0040)" d="M0 0c0 31 25 56 56 56s56 -25 56 -56s-25 -56 -56 -56s-56 25 -56 56z" fill="currentColor"/>
</g>
<g transform="translate(53.1239, 38.5426)">
<path transform="scale(0.0040, -0.0040)" d="M0 0c0 31 25 56 56 56s56 -25 56 -56s-25 -56 -56 -56s-56 25 -56 56z" fill="currentColor"/>
</g>
<g transform="translate(55.6081, 37.4426)">
<path transform="scale(0.0040, -0.0040)" d="M0 0c0 31 25 56 56 56s56 -25 56 -56s-25 -56 -56 -56s-56 25 -56 56z" fill="currentColor"/>
</g>
<g transform="translate(55.6081, 38.5426)">
<path transform="scale(0.0040, -0.0040)" d="M0 0c0 31 25 56 56 56s56 -25 56 -56s-25 -56 -56 -56s-56 25 -56 56z" fill="currentColor"/>
</g>
<g transform="translate(54.7363, 37.9926)">
<rect x="0.0000" y="-2.2000" width="0.5812" height="4.4000" ry="0.0000" fill="currentColor"/>
</g>
<g transform="translate(53.8645, 37.9926)">
<rect x="0.0000" y="-2.2000" width="0.5812" height="4.4000" ry="0.0000" fill="currentColor"/>
</g>
<g transform="translate(45.2317, 37.9926)">
<rect x="0.0000" y="-2.2000" width="0.1841" height="4.4000" ry="0.0000" fill="currentColor"/>
</g>
<g transform="translate(31.3513, 37.4426)">
<path transform="scale(0.0040, -0.0040)" d="M0 0c0 31 25 56 56 56s56 -25 56 -56s-25 -56 -56 -56s-56 25 -56 56z" fill="currentColor"/>
</g>
<g transform="translate(31.3513, 38.5426)">
<path transform="scale(0.0040, -0.0040)" d="M0 0c0 31 25 56 56 56s56 -25 56 -56s-25 -56 -56 -56s-56 25 -56 56z" fill="currentColor"/>
</g>
<g transform="translate(33.8356, 37.4426)">
<path transform="scale(0.0040, -0.0040)" d="M0 0c0 31 25 56 56 56s56 -25 56 -56s-25 -56 -56 -56s-56 25 -56 56z" fill="currentColor"/>
</g>
<g transform="translate(33.8356, 38.5426)">
<path transform="scale(0.0040, -0.0040)" d="M0 0c0 31 25 56 56 56s56 -25 56 -56s-25 -56 -56 -56s-56 25 -56 56z" fill="currentColor"/>
</g>
<g transform="translate(32.9637, 37.9926)">
<rect x="0.0000" y="-2.2000" width="0.5812" height="4.4000" ry="0.0000" fill="currentColor"/>
</g>
<g transform="translate(32.0919, 37.9926)">
<rect x="0.0000" y="-2.2000" width="0.5812" height="4.4000" ry="0.0000" fill="currentColor"/>
</g>
<g transform="translate(11.6391, 39.0926)">
<path transform="scale(0.0040, -0.0040)" d="M266 -635h-6c-108 0 -195 88 -195 197c0 58 53 103 112 103c54 0 95 -47 95 -103c0 -52 -43 -95 -95 -95c-11 0 -21 2 -31 6c26 -39 68 -65 117 -65h4zM461 -203c68 24 113 90 113 164c0 90 -66 179 -173 190c19 -89 48 -242 60 -354zM74 28c0 -145 141 -247 264 -247
c1 0 47 0 82 6c-7 64 -29 203 -63 364c-79 -8 -124 -61 -124 -119c0 -44 25 -91 81 -123c5 -5 7 -10 7 -15c0 -11 -10 -22 -22 -22c-15 0 -126 62 -126 187c0 88 58 174 160 197c-14 58 -29 117 -46 175c-107 -121 -213 -243 -213 -403zM250 553c-29 96 -52 170 -52 346
c0 115 55 224 149 292c6 5 14 5 20 0c68 -80 133 -245 133 -358c0 -143 -86 -255 -180 -364c21 -68 39 -138 56 -207c2 0 7 1 13 1c155 0 256 -128 256 -261c0 -113 -74 -212 -180 -246c3 -35 5 -70 5 -105c0 -19 -1 -39 -2 -58c-7 -119 -88 -225 -202 -228l1 43
c93 2 153 92 159 191c1 18 2 37 2 55c0 31 -1 61 -4 92c-5 -1 -44 -8 -89 -8c-193 0 -333 180 -333 374c0 177 131 306 248 441zM428 916c0 34 1 66 -20 129c-99 -48 -162 -149 -162 -259c0 -52 12 -115 36 -194c80 97 146 198 146 324z" fill="currentColor"/>
</g>
<a style="color:inherit;" xlink:href="textedit:///Users/marc.mouries/projects/Sheet-Music/Practice/MyViolinPracticeBook/Violin-Practice-Book.ly:619:2:3">
<g transform="translate(15.9042, 37.9926)">
<path transform="scale(0.0040, -0.0040)" d="M229 0c-88 0 -90 66 -144 66c-30 0 -59 -20 -62 -55c-1 -7 -6 -11 -11 -11c-6 0 -12 4 -12 11c0 154 232 170 232 344c0 59 -16 122 -67 122c-25 0 -49 -14 -49 -37c0 -27 35 -41 35 -68c0 -38 -31 -69 -69 -69s-69 31 -69 69c0 76 72 128 152 128c95 0 183 -57 183 -145
c0 -151 -150 -159 -246 -220c9 2 18 3 27 3c83 0 111 -59 171 -59c48 0 38 38 55 38c6 0 12 -5 12 -12c0 -22 -44 -105 -138 -105z" fill="currentColor"/>
</g>
<g transform="translate(15.8391, 40.0086)">
<path transform="scale(0.0040, -0.0040)" d="M196 117h117c0 -48 27 -94 72 -94c8 0 12 -5 12 -11s-4 -12 -12 -12c-44 0 -87 13 -131 13s-87 -13 -131 -13c-8 0 -12 6 -12 12s4 11 12 11c45 0 73 46 73 94zM-2 148c0 12 140 143 140 336c0 10 7 19 16 16c23 -7 47 -13 71 -13s48 6 71 13c14 4 23 -9 17 -16
l-284 -330h167v131c0 34 34 27 68 72c22 30 23 56 36 56c6 0 13 -5 13 -14v-245h72c10 0 15 -7 15 -14s-5 -15 -15 -15h-72v-8h-117v8h-167c-23 0 -31 14 -31 23z" fill="currentColor"/>
</g>
</a>
<g transform="translate(20.6737, 37.9926)">
<rect x="-0.0630" y="-0.5500" width="0.1259" height="3.6639" ry="0.0381" fill="currentColor"/>
</g>
<a style="color:inherit;" xlink:href="textedit:///Users/marc.mouries/projects/Sheet-Music/Practice/MyViolinPracticeBook/Violin-Practice-Book.ly:623:20:21">
<g transform="translate(83.7121, 34.9738)">
<text font-family="serif" font-style="italic" font-size="1.7460" text-anchor="start" fill="currentColor">
<tspan>3</tspan>
</text>
</g>
</a>
<a style="color:inherit;" xlink:href="textedit:///Users/marc.mouries/projects/Sheet-Music/Practice/MyViolinPracticeBook/Violin-Practice-Book.ly:620:33:34">
<g transform="translate(23.8387, 41.2926)">
<path transform="scale(0.0040, -0.0040)" d="M218 136c66 0 108 -36 108 -89c0 -89 -113 -183 -218 -183c-66 0 -108 36 -108 89c0 89 113 183 218 183z" fill="currentColor"/>
</g>
</a>
<g transform="translate(25.0799, 37.9926)">
<rect x="-0.0630" y="-0.0000" width="0.1259" height="3.1139" ry="0.0381" fill="currentColor"/>
</g>
<a style="color:inherit;" xlink:href="textedit:///Users/marc.mouries/projects/Sheet-Music/Practice/MyViolinPracticeBook/Violin-Practice-Book.ly:623:20:21">
<g transform="translate(81.5186, 34.3941)">
<line stroke-linejoin="round" stroke-linecap="round" stroke-width="0.1550" stroke="currentColor" x1="5.4849" y1="-0.0000" x2="5.4849" y2="0.7700"/>
</g>
<g transform="translate(81.5186, 34.3941)">
<line stroke-linejoin="round" stroke-linecap="round" stroke-width="0.1550" stroke="currentColor" x1="-0.2200" y1="-0.0000" x2="-0.2200" y2="0.7700"/>
</g>
<g transform="translate(81.5186, 34.3941)">
<line stroke-linejoin="round" stroke-linecap="round" stroke-width="0.1550" stroke="currentColor" x1="5.4849" y1="-0.0000" x2="3.6714" y2="-0.0000"/>
</g>
<g transform="translate(81.5186, 34.3941)">
<line stroke-linejoin="round" stroke-linecap="round" stroke-width="0.1550" stroke="currentColor" x1="-0.2200" y1="-0.0000" x2="1.7935" y2="-0.0000"/>
</g>
</a>
<a style="color:inherit;" xlink:href="textedit:///Users/marc.mouries/projects/Sheet-Music/Practice/MyViolinPracticeBook/Violin-Practice-Book.ly:620:36:37">
<g transform="translate(26.3429, 41.2926)">
<path transform="scale(0.0040, -0.0040)" d="M218 136c66 0 108 -36 108 -89c0 -89 -113 -183 -218 -183c-66 0 -108 36 -108 89c0 89 113 183 218 183z" fill="currentColor"/>
</g>
</a>
<g transform="translate(27.5841, 37.9926)">
<rect x="-0.0630" y="-0.0000" width="0.1259" height="3.1139" ry="0.0381" fill="currentColor"/>
</g>
<a style="color:inherit;" xlink:href="textedit:///Users/marc.mouries/projects/Sheet-Music/Practice/MyViolinPracticeBook/Violin-Practice-Book.ly:622:20:21">
<g transform="translate(66.2496, 34.9738)">
<text font-family="serif" font-style="italic" font-size="1.7460" text-anchor="start" fill="currentColor">
<tspan>3</tspan>
</text>
</g>
</a>
<a style="color:inherit;" xlink:href="textedit:///Users/marc.mouries/projects/Sheet-Music/Practice/MyViolinPracticeBook/Violin-Practice-Book.ly:620:38:39">
<g transform="translate(28.8471, 41.2926)">
<path transform="scale(0.0040, -0.0040)" d="M218 136c66 0 108 -36 108 -89c0 -89 -113 -183 -218 -183c-66 0 -108 36 -108 89c0 89 113 183 218 183z" fill="currentColor"/>
</g>
</a>
<g transform="translate(30.0883, 37.9926)">
<rect x="-0.0630" y="-0.0000" width="0.1259" height="3.1139" ry="0.0381" fill="currentColor"/>
</g>
<a style="color:inherit;" xlink:href="textedit:///Users/marc.mouries/projects/Sheet-Music/Practice/MyViolinPracticeBook/Violin-Practice-Book.ly:622:20:21">
<g transform="translate(64.0562, 34.3941)">
<line stroke-linejoin="round" stroke-linecap="round" stroke-width="0.1550" stroke="currentColor" x1="5.4849" y1="-0.0000" x2="5.4849" y2="0.7700"/>
</g>
<g transform="translate(64.0562, 34.3941)">
<line stroke-linejoin="round" stroke-linecap="round" stroke-width="0.1550" stroke="currentColor" x1="-0.2200" y1="-0.0000" x2="-0.2200" y2="0.7700"/>
</g>
<g transform="translate(64.0562, 34.3941)">
<line stroke-linejoin="round" stroke-linecap="round" stroke-width="0.1550" stroke="currentColor" x1="5.4849" y1="-0.0000" x2="3.6714" y2="-0.0000"/>
</g>
<g transform="translate(64.0562, 34.3941)">
<line stroke-linejoin="round" stroke-linecap="round" stroke-width="0.1550" stroke="currentColor" x1="-0.2200" y1="-0.0000" x2="1.7935" y2="-0.0000"/>
</g>
</a>
<g transform="translate(25.0169, 37.9926)">
<polygon stroke-linejoin="round" stroke-linecap="round" stroke-width="0.0762" fill="currentColor" stroke="currentColor" points="5.0963 -0.2259 5.0963 0.2259 0.0381 0.2259 0.0381 -0.2259"/>
</g>
<a style="color:inherit;" xlink:href="textedit:///Users/marc.mouries/projects/Sheet-Music/Practice/MyViolinPracticeBook/Violin-Practice-Book.ly:621:17:18">
<g transform="translate(35.1856, 41.2926)">
<path transform="scale(0.0040, -0.0040)" d="M218 136c66 0 108 -36 108 -89c0 -89 -113 -183 -218 -183c-66 0 -108 36 -108 89c0 89 113 183 218 183z" fill="currentColor"/>
</g>
</a>
<a style="color:inherit;" xlink:href="textedit:///Users/marc.mouries/projects/Sheet-Music/Practice/MyViolinPracticeBook/Violin-Practice-Book.ly:620:17:18">
<g transform="translate(19.4325, 41.2926)">
<path transform="scale(0.0040, -0.0040)" d="M218 136c66 0 108 -36 108 -89c0 -89 -113 -183 -218 -183c-66 0 -108 36 -108 89c0 89 113 183 218 183z" fill="currentColor"/>
</g>
</a>
<g transform="translate(36.4268, 37.9926)">
<rect x="-0.0630" y="-0.5500" width="0.1259" height="3.6639" ry="0.0381" fill="currentColor"/>
</g>
<g transform="translate(36.4898, 37.4807)">
<path transform="scale(0.0040, -0.0040)" d="M0 0v-250h-16v250h16zM0 0c0 -197 207 -336 207 -533c0 -71 -15 -141 -41 -207c-5 -8 -13 -12 -20 -12c-13 0 -26 11 -23 27c26 61 42 126 42 192c0 103 -94 208 -165 283v250z" fill="currentColor"/>
</g>
<a style="color:inherit;" xlink:href="textedit:///Users/marc.mouries/projects/Sheet-Music/Practice/MyViolinPracticeBook/Violin-Practice-Book.ly:620:20:21">
<g transform="translate(27.1451, 36.9223)">
<text font-family="serif" font-style="italic" font-size="1.7460" text-anchor="start" fill="currentColor">
<tspan>3</tspan>
</text>
</g>
</a>
<a style="color:inherit;" xlink:href="textedit:///Users/marc.mouries/projects/Sheet-Music/Practice/MyViolinPracticeBook/Violin-Practice-Book.ly:621:20:21">
<g transform="translate(38.3917, 41.2926)">
<path transform="scale(0.0040, -0.0040)" d="M218 136c66 0 108 -36 108 -89c0 -89 -113 -183 -218 -183c-66 0 -108 36 -108 89c0 89 113 183 218 183z" fill="currentColor"/>
</g>
</a>
<g transform="translate(39.6330, 37.9926)">
<rect x="-0.0630" y="-0.5500" width="0.1259" height="3.6639" ry="0.0381" fill="currentColor"/>
</g>
<a style="color:inherit;" xlink:href="textedit:///Users/marc.mouries/projects/Sheet-Music/Practice/MyViolinPracticeBook/Violin-Practice-Book.ly:620:20:21">
</a>
<a style="color:inherit;" xlink:href="textedit:///Users/marc.mouries/projects/Sheet-Music/Practice/MyViolinPracticeBook/Violin-Practice-Book.ly:621:24:25">
<g transform="translate(42.7979, 41.2926)">
<path transform="scale(0.0040, -0.0040)" d="M218 136c66 0 108 -36 108 -89c0 -89 -113 -183 -218 -183c-66 0 -108 36 -108 89c0 89 113 183 218 183z" fill="currentColor"/>
</g>
</a>
<g transform="translate(44.0392, 37.9926)">
<rect x="-0.0630" y="-0.5500" width="0.1259" height="3.6639" ry="0.0381" fill="currentColor"/>
</g>
<a style="color:inherit;" xlink:href="textedit:///Users/marc.mouries/projects/Sheet-Music/Practice/MyViolinPracticeBook/Violin-Practice-Book.ly:621:26:27">
<g transform="translate(48.7177, 41.2926)">
<path transform="scale(0.0040, -0.0040)" d="M218 136c66 0 108 -36 108 -89c0 -89 -113 -183 -218 -183c-66 0 -108 36 -108 89c0 89 113 183 218 183z" fill="currentColor"/>
</g>
</a>
<g transform="translate(49.9589, 37.9926)">
<rect x="-0.0630" y="-0.5500" width="0.1259" height="3.6639" ry="0.0381" fill="currentColor"/>
</g>
<a style="color:inherit;" xlink:href="textedit:///Users/marc.mouries/projects/Sheet-Music/Practice/MyViolinPracticeBook/Violin-Practice-Book.ly:622:17:18">
<g transform="translate(56.9581, 41.2926)">
<path transform="scale(0.0040, -0.0040)" d="M218 136c66 0 108 -36 108 -89c0 -89 -113 -183 -218 -183c-66 0 -108 36 -108 89c0 89 113 183 218 183z" fill="currentColor"/>
</g>
</a>
<g transform="translate(58.1994, 37.9926)">
<rect x="-0.0630" y="-0.5500" width="0.1259" height="3.6639" ry="0.0381" fill="currentColor"/>
</g>
<a style="color:inherit;" xlink:href="textedit:///Users/marc.mouries/projects/Sheet-Music/Practice/MyViolinPracticeBook/Violin-Practice-Book.ly:622:33:34">
<g transform="translate(62.8779, 41.2926)">
<path transform="scale(0.0040, -0.0040)" d="M218 136c66 0 108 -36 108 -89c0 -89 -113 -183 -218 -183c-66 0 -108 36 -108 89c0 89 113 183 218 183z" fill="currentColor"/>
</g>
</a>
<g transform="translate(64.1191, 37.9926)">
<rect x="-0.0630" y="-0.5500" width="0.1259" height="3.6639" ry="0.0381" fill="currentColor"/>
</g>
<g transform="translate(64.1821, 37.4807)">
<path transform="scale(0.0040, -0.0040)" d="M0 0v-250h-16v250h16zM0 0c0 -197 207 -336 207 -533c0 -71 -15 -141 -41 -207c-5 -8 -13 -12 -20 -12c-13 0 -26 11 -23 27c26 61 42 126 42 192c0 103 -94 208 -165 283v250z" fill="currentColor"/>
</g>
<a style="color:inherit;" xlink:href="textedit:///Users/marc.mouries/projects/Sheet-Music/Practice/MyViolinPracticeBook/Violin-Practice-Book.ly:622:36:37">
<g transform="translate(65.4474, 41.2926)">
<path transform="scale(0.0040, -0.0040)" d="M218 136c66 0 108 -36 108 -89c0 -89 -113 -183 -218 -183c-66 0 -108 36 -108 89c0 89 113 183 218 183z" fill="currentColor"/>
</g>
</a>
<g transform="translate(66.6886, 37.9926)">
<rect x="-0.0630" y="-0.5500" width="0.1259" height="3.6639" ry="0.0381" fill="currentColor"/>
</g>
<g transform="translate(66.7516, 37.4807)">
<path transform="scale(0.0040, -0.0040)" d="M0 0v-250h-16v250h16zM0 0c0 -197 207 -336 207 -533c0 -71 -15 -141 -41 -207c-5 -8 -13 -12 -20 -12c-13 0 -26 11 -23 27c26 61 42 126 42 192c0 103 -94 208 -165 283v250z" fill="currentColor"/>
</g>
<a style="color:inherit;" xlink:href="textedit:///Users/marc.mouries/projects/Sheet-Music/Practice/MyViolinPracticeBook/Violin-Practice-Book.ly:622:38:39">
<g transform="translate(68.0168, 41.2926)">
<path transform="scale(0.0040, -0.0040)" d="M218 136c66 0 108 -36 108 -89c0 -89 -113 -183 -218 -183c-66 0 -108 36 -108 89c0 89 113 183 218 183z" fill="currentColor"/>
</g>
</a>
<g transform="translate(69.2581, 37.9926)">
<rect x="-0.0630" y="-0.5500" width="0.1259" height="3.6639" ry="0.0381" fill="currentColor"/>
</g>
<g transform="translate(69.3211, 37.4807)">
<path transform="scale(0.0040, -0.0040)" d="M0 0v-250h-16v250h16zM0 0c0 -197 207 -336 207 -533c0 -71 -15 -141 -41 -207c-5 -8 -13 -12 -20 -12c-13 0 -26 11 -23 27c26 61 42 126 42 192c0 103 -94 208 -165 283v250z" fill="currentColor"/>
</g>
<a style="color:inherit;" xlink:href="textedit:///Users/marc.mouries/projects/Sheet-Music/Practice/MyViolinPracticeBook/Violin-Practice-Book.ly:623:17:18">
<g transform="translate(74.4206, 41.2926)">
<path transform="scale(0.0040, -0.0040)" d="M218 136c66 0 108 -36 108 -89c0 -89 -113 -183 -218 -183c-66 0 -108 36 -108 89c0 89 113 183 218 183z" fill="currentColor"/>
</g>
</a>
<g transform="translate(75.6618, 37.9926)">
<rect x="-0.0630" y="-0.5500" width="0.1259" height="3.6639" ry="0.0381" fill="currentColor"/>
</g>
<g transform="translate(86.7835, 37.4807)">
<path transform="scale(0.0040, -0.0040)" d="M0 0v-250h-16v250h16zM0 0c0 -197 207 -336 207 -533c0 -71 -15 -141 -41 -207c-5 -8 -13 -12 -20 -12c-13 0 -26 11 -23 27c26 61 42 126 42 192c0 103 -94 208 -165 283v250z" fill="currentColor"/>
</g>
<a style="color:inherit;" xlink:href="textedit:///Users/marc.mouries/projects/Sheet-Music/Practice/MyViolinPracticeBook/Violin-Practice-Book.ly:623:33:34">
<g transform="translate(80.3404, 41.2926)">
<path transform="scale(0.0040, -0.0040)" d="M218 136c66 0 108 -36 108 -89c0 -89 -113 -183 -218 -183c-66 0 -108 36 -108 89c0 89 113 183 218 183z" fill="currentColor"/>
</g>
</a>
<g transform="translate(81.5816, 37.9926)">
<rect x="-0.0630" y="-0.5500" width="0.1259" height="3.6639" ry="0.0381" fill="currentColor"/>
</g>
<g transform="translate(81.6446, 37.4807)">
<path transform="scale(0.0040, -0.0040)" d="M0 0v-250h-16v250h16zM0 0c0 -197 207 -336 207 -533c0 -71 -15 -141 -41 -207c-5 -8 -13 -12 -20 -12c-13 0 -26 11 -23 27c26 61 42 126 42 192c0 103 -94 208 -165 283v250z" fill="currentColor"/>
</g>
<g transform="translate(86.7206, 37.9926)">
<rect x="-0.0630" y="-0.5500" width="0.1259" height="3.6639" ry="0.0381" fill="currentColor"/>
</g>
<a style="color:inherit;" xlink:href="textedit:///Users/marc.mouries/projects/Sheet-Music/Practice/MyViolinPracticeBook/Violin-Practice-Book.ly:623:36:37">
<g transform="translate(82.9098, 41.2926)">
<path transform="scale(0.0040, -0.0040)" d="M218 136c66 0 108 -36 108 -89c0 -89 -113 -183 -218 -183c-66 0 -108 36 -108 89c0 89 113 183 218 183z" fill="currentColor"/>
</g>
</a>
<g transform="translate(84.1511, 37.9926)">
<rect x="-0.0630" y="-0.5500" width="0.1259" height="3.6639" ry="0.0381" fill="currentColor"/>
</g>
<g transform="translate(84.2141, 37.4807)">
<path transform="scale(0.0040, -0.0040)" d="M0 0v-250h-16v250h16zM0 0c0 -197 207 -336 207 -533c0 -71 -15 -141 -41 -207c-5 -8 -13 -12 -20 -12c-13 0 -26 11 -23 27c26 61 42 126 42 192c0 103 -94 208 -165 283v250z" fill="currentColor"/>
</g>
<a style="color:inherit;" xlink:href="textedit:///Users/marc.mouries/projects/Sheet-Music/Practice/MyViolinPracticeBook/Violin-Practice-Book.ly:623:38:39">
<g transform="translate(85.4793, 41.2926)">
<path transform="scale(0.0040, -0.0040)" d="M218 136c66 0 108 -36 108 -89c0 -89 -113 -183 -218 -183c-66 0 -108 36 -108 89c0 89 113 183 218 183z" fill="currentColor"/>
</g>
</a>
</svg>
