<svg xmlns="http://www.w3.org/2000/svg" xmlns:xlink="http://www.w3.org/1999/xlink" version="1.2" width="210.00mm" height="297.00mm" viewBox="0.0000 -0.0000 113.8110 160.9613">
<style type="text/css">
<![CDATA[
tspan { white-space: pre; }
]]>
</style>
<g transform="translate(101.8663, 6.8763)">
<text font-family="serif" font-size="2.2001" text-anchor="start" fill="currentColor">
<tspan>7</tspan>
</text>
</g>
<g transform="translate(10.8391, 9.3974)">
<text font-family="serif" font-weight="bold" font-size="2.2001" text-anchor="start" fill="currentColor">
<tspan>Slides</tspan>
</text>
</g>
<g transform="translate(10.8391, 25.5550)">
<line stroke-linejoin="round" stroke-linecap="round" stroke-width="0.0969" stroke="currentColor" x1="0.0484" y1="0" x2="92.0843" y2="0"/>
</g>
<g transform="translate(10.8391, 24.4550)">
<line stroke-linejoin="round" stroke-linecap="round" stroke-width="0.0969" stroke="currentColor" x1="0.0484" y1="0" x2="92.0843" y2="0"/>
</g>
<g transform="translate(10.8391, 23.3550)">
<line stroke-linejoin="round" stroke-linecap="round" stroke-width="0.0969" stroke="currentColor" x1="0.0484" y1="0" x2="92.0843" y2="0"/>
</g>
<g transform="translate(10.8391, 22.2550)">
<line stroke-linejoin="round" stroke-linecap="round" stroke-width="0.0969" stroke="currentColor" x1="0.0484" y1="0" x2="92.0843" y2="0"/>
</g>
<g transform="translate(10.8391, 21.1550)">
<line stroke-linejoin="round" stroke-linecap="round" stroke-width="0.0969" stroke="currentColor" x1="0.0484" y1="0" x2="92.0843" y2="0"/>
</g>
<g transform="translate(101.1754, 22.8050)">
<path transform="scale(0.0040, -0.0040)" d="M0 0c0 31 25 56 56 56s56 -25 56 -56s-25 -56 -56 -56s-56 25 -56 56z" fill="currentColor"/>
</g>
<g transform="translate(101.1754, 23.9050)">
<path transform="scale(0.0040, -0.0040)" d="M0 0c0 31 25 56 56 56s56 -25 56 -56s-25 -56 -56 -56s-56 25 -56 56z" fill="currentColor"/>
</g>
<g transform="translate(102.3907, 23.3550)">
<rect x="0.0000" y="-2.2000" width="0.5812" height="4.4000" ry="0.0000" fill="currentColor"/>
</g>
<g transform="translate(101.9160, 23.3550)">
<rect x="0.0000" y="-2.2000" width="0.1841" height="4.4000" ry="0.0000" fill="currentColor"/>
</g>
<g transform="translate(73.5688, 23.3550)">
<rect x="0.0000" y="-2.2000" width="0.1841" height="4.4000" ry="0.0000" fill="currentColor"/>
</g>
<g transform="translate(44.0925, 23.3550)">
<rect x="0.0000" y="-2.2000" width="0.1841" height="4.4000" ry="0.0000" fill="currentColor"/>
</g>
<a style="color:inherit;" xlink:href="textedit:///Users/marc.mouries/projects/Sheet-Music/Practice/MyViolinPracticeBook/Violin-Practice-Book.ly:318:23:24">
<g transform="translate(10.8391, 23.3550)">
<line stroke-linejoin="round" stroke-linecap="round" stroke-width="0.0969" stroke="currentColor" x1="57.9356" y1="-1.6164" x2="65.1054" y2="-1.1336"/>
</g>
</a>
<a style="color:inherit;" xlink:href="textedit:///Users/marc.mouries/projects/Sheet-Music/Practice/MyViolinPracticeBook/Violin-Practice-Book.ly:318:4:5">
<g transform="translate(19.4325, 23.9050)">
<path transform="scale(0.0040, -0.0040)" d="M218 136c66 0 108 -36 108 -89c0 -89 -113 -183 -218 -183c-66 0 -108 36 -108 89c0 89 113 183 218 183z" fill="currentColor"/>
</g>
</a>
<g transform="translate(11.6391, 24.4550)">
<path transform="scale(0.0040, -0.0040)" d="M266 -635h-6c-108 0 -195 88 -195 197c0 58 53 103 112 103c54 0 95 -47 95 -103c0 -52 -43 -95 -95 -95c-11 0 -21 2 -31 6c26 -39 68 -65 117 -65h4zM461 -203c68 24 113 90 113 164c0 90 -66 179 -173 190c19 -89 48 -242 60 -354zM74 28c0 -145 141 -247 264 -247
c1 0 47 0 82 6c-7 64 -29 203 -63 364c-79 -8 -124 -61 -124 -119c0 -44 25 -91 81 -123c5 -5 7 -10 7 -15c0 -11 -10 -22 -22 -22c-15 0 -126 62 -126 187c0 88 58 174 160 197c-14 58 -29 117 -46 175c-107 -121 -213 -243 -213 -403zM250 553c-29 96 -52 170 -52 346
c0 115 55 224 149 292c6 5 14 5 20 0c68 -80 133 -245 133 -358c0 -143 -86 -255 -180 -364c21 -68 39 -138 56 -207c2 0 7 1 13 1c155 0 256 -128 256 -261c0 -113 -74 -212 -180 -246c3 -35 5 -70 5 -105c0 -19 -1 -39 -2 -58c-7 -119 -88 -225 -202 -228l1 43
c93 2 153 92 159 191c1 18 2 37 2 55c0 31 -1 61 -4 92c-5 -1 -44 -8 -89 -8c-193 0 -333 180 -333 374c0 177 131 306 248 441zM428 916c0 34 1 66 -20 129c-99 -48 -162 -149 -162 -259c0 -52 12 -115 36 -194c80 97 146 198 146 324z" fill="currentColor"/>
</g>
<a style="color:inherit;" xlink:href="textedit:///Users/marc.mouries/projects/Sheet-Music/Practice/MyViolinPracticeBook/Violin-Practice-Book.ly:315:4:5">
<g transform="translate(15.9042, 23.3550)">
<path transform="scale(0.0040, -0.0040)" d="M229 0c-88 0 -90 66 -144 66c-30 0 -59 -20 -62 -55c-1 -7 -6 -11 -11 -11c-6 0 -12 4 -12 11c0 154 232 170 232 344c0 59 -16 122 -67 122c-25 0 -49 -14 -49 -37c0 -27 35 -41 35 -68c0 -38 -31 -69 -69 -69s-69 31 -69 69c0 76 72 128 152 128c95 0 183 -57 183 -145
c0 -151 -150 -159 -246 -220c9 2 18 3 27 3c83 0 111 -59 171 -59c48 0 38 38 55 38c6 0 12 -5 12 -12c0 -22 -44 -105 -138 -105z" fill="currentColor"/>
</g>
<g transform="translate(15.8391, 25.3711)">
<path transform="scale(0.0040, -0.0040)" d="M196 117h117c0 -48 27 -94 72 -94c8 0 12 -5 12 -11s-4 -12 -12 -12c-44 0 -87 13 -131 13s-87 -13 -131 -13c-8 0 -12 6 -12 12s4 11 12 11c45 0 73 46 73 94zM-2 148c0 12 140 143 140 336c0 10 7 19 16 16c23 -7 47 -13 71 -13s48 6 71 13c14 4 23 -9 17 -16
l-284 -330h167v131c0 34 34 27 68 72c22 30 23 56 36 56c6 0 13 -5 13 -14v-245h72c10 0 15 -7 15 -14s-5 -15 -15 -15h-72v-8h-117v8h-167c-23 0 -31 14 -31 23z" fill="currentColor"/>
</g>
</a>
<g transform="translate(20.6737, 23.3550)">
<rect x="-0.0630" y="-3.3000" width="0.1259" height="3.6639" ry="0.0381" fill="currentColor"/>
</g>
<a style="color:inherit;" xlink:href="textedit:///Users/marc.mouries/projects/Sheet-Music/Practice/MyViolinPracticeBook/Violin-Practice-Book.ly:318:7:8">
<g transform="translate(31.8930, 22.8050)">
<path transform="scale(0.0040, -0.0040)" d="M218 136c66 0 108 -36 108 -89c0 -89 -113 -183 -218 -183c-66 0 -108 36 -108 89c0 89 113 183 218 183z" fill="currentColor"/>
</g>
</a>
<g transform="translate(31.9559, 23.3550)">
<rect x="-0.0630" y="-0.3639" width="0.1259" height="3.6639" ry="0.0381" fill="currentColor"/>
</g>
<a style="color:inherit;" xlink:href="textedit:///Users/marc.mouries/projects/Sheet-Music/Practice/MyViolinPracticeBook/Violin-Practice-Book.ly:318:9:10">
<g transform="translate(47.7706, 21.7050)">
<path transform="scale(0.0040, -0.0040)" d="M218 136c66 0 108 -36 108 -89c0 -89 -113 -183 -218 -183c-66 0 -108 36 -108 89c0 89 113 183 218 183z" fill="currentColor"/>
</g>
</a>
<g transform="translate(47.8336, 23.3550)">
<rect x="-0.0630" y="-1.4639" width="0.1259" height="3.6639" ry="0.0381" fill="currentColor"/>
</g>
<g transform="translate(46.6206, 21.7050)">
<path transform="scale(0.0040, -0.0040)" d="M27 41l-1 -66v-11c0 -22 1 -44 4 -66c45 38 93 80 93 139c0 33 -14 67 -43 67c-31 0 -52 -30 -53 -63zM-15 -138l-12 595c8 5 18 8 27 8s19 -3 27 -8l-7 -345c25 21 58 34 91 34c52 0 89 -48 89 -102c0 -80 -86 -117 -147 -169c-15 -13 -24 -38 -45 -38
c-13 0 -23 11 -23 25z" fill="currentColor"/>
</g>
<a style="color:inherit;" xlink:href="textedit:///Users/marc.mouries/projects/Sheet-Music/Practice/MyViolinPracticeBook/Violin-Practice-Book.ly:318:12:13">
<g transform="translate(59.8866, 23.9050)">
<path transform="scale(0.0040, -0.0040)" d="M218 136c66 0 108 -36 108 -89c0 -89 -113 -183 -218 -183c-66 0 -108 36 -108 89c0 89 113 183 218 183z" fill="currentColor"/>
</g>
</a>
<g transform="translate(59.9495, 23.3550)">
<rect x="-0.0630" y="0.7361" width="0.1259" height="2.5524" ry="0.0381" fill="currentColor"/>
</g>
<g transform="translate(59.8866, 26.6550)">
<polygon stroke-linejoin="round" stroke-linecap="round" stroke-width="0.0762" fill="currentColor" stroke="currentColor" points="7.1729 -1.5415 7.1729 -1.0897 0.0381 0.2259 0.0381 -0.2259"/>
</g>
<a style="color:inherit;" xlink:href="textedit:///Users/marc.mouries/projects/Sheet-Music/Practice/MyViolinPracticeBook/Violin-Practice-Book.ly:318:16:17">
<g transform="translate(66.9716, 21.7050)">
<path transform="scale(0.0040, -0.0040)" d="M218 136c66 0 108 -36 108 -89c0 -89 -113 -183 -218 -183c-66 0 -108 36 -108 89c0 89 113 183 218 183z" fill="currentColor"/>
</g>
</a>
<a style="color:inherit;" xlink:href="textedit:///Users/marc.mouries/projects/Sheet-Music/Practice/MyViolinPracticeBook/Violin-Practice-Book.ly:318:19:20">
<g transform="translate(67.1522, 20.5566)">
<path transform="scale(0.0022, -0.0022)" d="M148 501c10 0 41 -15 72 -15c32 0 63 15 76 15c15 0 26 -11 26 -21c0 -4 -1 -7 -4 -10l-264 -291h134v4c0 60 50 41 75 85c7 11 8 24 14 36c3 7 10 10 17 10c11 0 24 -8 24 -25v-110h70c18 0 27 -14 27 -27s-9 -27 -27 -27h-70c2 -45 36 -82 80 -82c14 0 22 -10 22 -21
s-8 -22 -22 -22c-49 0 -96 14 -145 14s-97 -14 -146 -14c-14 0 -21 11 -21 22s7 21 21 21c44 0 79 37 81 82h-134c-43 0 -57 25 -57 42c0 5 1 10 3 12c73 81 123 182 123 291c0 17 11 31 25 31z" fill="currentColor"/>
</g>
</a>
<g transform="translate(67.0346, 23.3550)">
<rect x="-0.0630" y="-1.4639" width="0.1259" height="3.4598" ry="0.0381" fill="currentColor"/>
</g>
<a style="color:inherit;" xlink:href="textedit:///Users/marc.mouries/projects/Sheet-Music/Practice/MyViolinPracticeBook/Violin-Practice-Book.ly:318:34:35">
<g transform="translate(76.4435, 22.2550)">
<path transform="scale(0.0040, -0.0040)" d="M218 136c66 0 108 -36 108 -89c0 -89 -113 -183 -218 -183c-66 0 -108 36 -108 89c0 89 113 183 218 183z" fill="currentColor"/>
</g>
</a>
<a style="color:inherit;" xlink:href="textedit:///Users/marc.mouries/projects/Sheet-Music/Practice/MyViolinPracticeBook/Violin-Practice-Book.ly:318:36:37">
<g transform="translate(76.6241, 20.5566)">
<path transform="scale(0.0022, -0.0022)" d="M148 501c10 0 41 -15 72 -15c32 0 63 15 76 15c15 0 26 -11 26 -21c0 -4 -1 -7 -4 -10l-264 -291h134v4c0 60 50 41 75 85c7 11 8 24 14 36c3 7 10 10 17 10c11 0 24 -8 24 -25v-110h70c18 0 27 -14 27 -27s-9 -27 -27 -27h-70c2 -45 36 -82 80 -82c14 0 22 -10 22 -21
s-8 -22 -22 -22c-49 0 -96 14 -145 14s-97 -14 -146 -14c-14 0 -21 11 -21 22s7 21 21 21c44 0 79 37 81 82h-134c-43 0 -57 25 -57 42c0 5 1 10 3 12c73 81 123 182 123 291c0 17 11 31 25 31z" fill="currentColor"/>
</g>
</a>
<g transform="translate(76.5064, 23.3550)">
<rect x="-0.0630" y="-0.9139" width="0.1259" height="3.6639" ry="0.0381" fill="currentColor"/>
</g>
<a style="color:inherit;" xlink:href="textedit:///Users/marc.mouries/projects/Sheet-Music/Practice/MyViolinPracticeBook/Violin-Practice-Book.ly:318:40:41">
<g transform="translate(88.8094, 22.8050)">
<path transform="scale(0.0040, -0.0040)" d="M218 136c66 0 108 -36 108 -89c0 -89 -113 -183 -218 -183c-66 0 -108 36 -108 89c0 89 113 183 218 183z" fill="currentColor"/>
</g>
</a>
<g transform="translate(88.8724, 23.3550)">
<rect x="-0.0630" y="-0.3639" width="0.1259" height="3.6639" ry="0.0381" fill="currentColor"/>
</g>
<g transform="translate(10.8391, 71.8095)">
<rect x="77.3375" y="-0.1034" width="1.9563" height="0.2069" ry="0.1034" fill="currentColor"/>
</g>
<g transform="translate(10.8391, 72.9095)">
<rect x="77.3375" y="-0.1034" width="1.9563" height="0.2069" ry="0.1034" fill="currentColor"/>
</g>
<g transform="translate(10.8391, 71.8095)">
<rect x="64.6647" y="-0.1034" width="1.9563" height="0.2069" ry="0.1034" fill="currentColor"/>
</g>
<g transform="translate(10.8391, 72.9095)">
<rect x="64.6647" y="-0.1034" width="1.9563" height="0.2069" ry="0.1034" fill="currentColor"/>
</g>
<g transform="translate(10.8391, 70.7095)">
<rect x="54.9749" y="-0.1034" width="1.9563" height="0.2069" ry="0.1034" fill="currentColor"/>
</g>
<g transform="translate(10.8391, 71.8095)">
<rect x="54.9749" y="-0.1034" width="1.9563" height="0.2069" ry="0.1034" fill="currentColor"/>
</g>
<g transform="translate(10.8391, 72.9095)">
<rect x="54.9749" y="-0.1034" width="1.9563" height="0.2069" ry="0.1034" fill="currentColor"/>
</g>
<g transform="translate(10.8391, 72.9095)">
<rect x="47.7364" y="-0.1034" width="1.9563" height="0.2069" ry="0.1034" fill="currentColor"/>
</g>
<g transform="translate(10.8391, 70.7095)">
<rect x="35.4648" y="-0.1034" width="1.8053" height="0.2069" ry="0.1034" fill="currentColor"/>
</g>
<g transform="translate(10.8391, 71.8095)">
<rect x="35.3137" y="-0.1034" width="1.9563" height="0.2069" ry="0.1034" fill="currentColor"/>
</g>
<g transform="translate(10.8391, 72.9095)">
<rect x="35.3137" y="-0.1034" width="1.9563" height="0.2069" ry="0.1034" fill="currentColor"/>
</g>
<g transform="translate(10.8391, 71.8095)">
<rect x="19.9039" y="-0.1034" width="1.9563" height="0.2069" ry="0.1034" fill="currentColor"/>
</g>
<g transform="translate(10.8391, 72.9095)">
<rect x="19.9039" y="-0.1034" width="1.9563" height="0.2069" ry="0.1034" fill="currentColor"/>
</g>
<g transform="translate(10.8391, 72.9095)">
<rect x="6.9812" y="-0.1034" width="1.9563" height="0.2069" ry="0.1034" fill="currentColor"/>
</g>
<g transform="translate(10.8391, 78.4095)">
<line stroke-linejoin="round" stroke-linecap="round" stroke-width="0.0969" stroke="currentColor" x1="0.0484" y1="0" x2="92.0843" y2="0"/>
</g>
<g transform="translate(10.8391, 77.3095)">
<line stroke-linejoin="round" stroke-linecap="round" stroke-width="0.0969" stroke="currentColor" x1="0.0484" y1="0" x2="92.0843" y2="0"/>
</g>
<g transform="translate(10.8391, 76.2095)">
<line stroke-linejoin="round" stroke-linecap="round" stroke-width="0.0969" stroke="currentColor" x1="0.0484" y1="0" x2="92.0843" y2="0"/>
</g>
<g transform="translate(10.8391, 75.1095)">
<line stroke-linejoin="round" stroke-linecap="round" stroke-width="0.0969" stroke="currentColor" x1="0.0484" y1="0" x2="92.0843" y2="0"/>
</g>
<g transform="translate(10.8391, 74.0095)">
<line stroke-linejoin="round" stroke-linecap="round" stroke-width="0.0969" stroke="currentColor" x1="0.0484" y1="0" x2="92.0843" y2="0"/>
</g>
<g transform="translate(101.1754, 75.6595)">
<path transform="scale(0.0040, -0.0040)" d="M0 0c0 31 25 56 56 56s56 -25 56 -56s-25 -56 -56 -56s-56 25 -56 56z" fill="currentColor"/>
</g>
<g transform="translate(101.1754, 76.7595)">
<path transform="scale(0.0040, -0.0040)" d="M0 0c0 31 25 56 56 56s56 -25 56 -56s-25 -56 -56 -56s-56 25 -56 56z" fill="currentColor"/>
</g>
<g transform="translate(102.3907, 76.2095)">
<rect x="0.0000" y="-2.2000" width="0.5812" height="4.4000" ry="0.0000" fill="currentColor"/>
</g>
<g transform="translate(101.9160, 76.2095)">
<rect x="0.0000" y="-2.2000" width="0.1841" height="4.4000" ry="0.0000" fill="currentColor"/>
</g>
<g transform="translate(72.9500, 76.2095)">
<rect x="0.0000" y="-2.2000" width="0.1841" height="4.4000" ry="0.0000" fill="currentColor"/>
</g>
<g transform="translate(43.5990, 76.2095)">
<rect x="0.0000" y="-2.2000" width="0.1841" height="4.4000" ry="0.0000" fill="currentColor"/>
</g>
<g transform="translate(16.2507, 75.6595)">
<path transform="scale(0.0040, -0.0040)" d="M0 0c0 31 25 56 56 56s56 -25 56 -56s-25 -56 -56 -56s-56 25 -56 56z" fill="currentColor"/>
</g>
<g transform="translate(16.2507, 76.7595)">
<path transform="scale(0.0040, -0.0040)" d="M0 0c0 31 25 56 56 56s56 -25 56 -56s-25 -56 -56 -56s-56 25 -56 56z" fill="currentColor"/>
</g>
<g transform="translate(15.7760, 76.2095)">
<rect x="0.0000" y="-2.2000" width="0.1841" height="4.4000" ry="0.0000" fill="currentColor"/>
</g>
<g transform="translate(14.9042, 76.2095)">
<rect x="0.0000" y="-2.2000" width="0.5812" height="4.4000" ry="0.0000" fill="currentColor"/>
</g>
<g transform="translate(58.9016, 76.4251)">
<polygon stroke-linejoin="round" stroke-linecap="round" stroke-width="0.0762" fill="currentColor" stroke="currentColor" points="7.3263 -0.4415 7.3263 0.0103 0.0381 0.2259 0.0381 -0.2259"/>
</g>
<g transform="translate(11.6391, 77.3095)">
<path transform="scale(0.0040, -0.0040)" d="M266 -635h-6c-108 0 -195 88 -195 197c0 58 53 103 112 103c54 0 95 -47 95 -103c0 -52 -43 -95 -95 -95c-11 0 -21 2 -31 6c26 -39 68 -65 117 -65h4zM461 -203c68 24 113 90 113 164c0 90 -66 179 -173 190c19 -89 48 -242 60 -354zM74 28c0 -145 141 -247 264 -247
c1 0 47 0 82 6c-7 64 -29 203 -63 364c-79 -8 -124 -61 -124 -119c0 -44 25 -91 81 -123c5 -5 7 -10 7 -15c0 -11 -10 -22 -22 -22c-15 0 -126 62 -126 187c0 88 58 174 160 197c-14 58 -29 117 -46 175c-107 -121 -213 -243 -213 -403zM250 553c-29 96 -52 170 -52 346
c0 115 55 224 149 292c6 5 14 5 20 0c68 -80 133 -245 133 -358c0 -143 -86 -255 -180 -364c21 -68 39 -138 56 -207c2 0 7 1 13 1c155 0 256 -128 256 -261c0 -113 -74 -212 -180 -246c3 -35 5 -70 5 -105c0 -19 -1 -39 -2 -58c-7 -119 -88 -225 -202 -228l1 43
c93 2 153 92 159 191c1 18 2 37 2 55c0 31 -1 61 -4 92c-5 -1 -44 -8 -89 -8c-193 0 -333 180 -333 374c0 177 131 306 248 441zM428 916c0 34 1 66 -20 129c-99 -48 -162 -149 -162 -259c0 -52 12 -115 36 -194c80 97 146 198 146 324z" fill="currentColor"/>
</g>
<g transform="translate(9.9612, 72.9611)">
<text font-family="serif" font-size="1.7460" text-anchor="start" fill="currentColor">
<tspan>4</tspan>
</text>
</g>
<a style="color:inherit;" xlink:href="textedit:///Users/marc.mouries/projects/Sheet-Music/Practice/MyViolinPracticeBook/Violin-Practice-Book.ly:321:24:25">
<g transform="translate(10.8391, 76.2095)">
<line stroke-linejoin="round" stroke-linecap="round" stroke-width="0.0969" stroke="currentColor" x1="57.1041" y1="-5.4673" x2="64.4919" y2="-4.9827"/>
</g>
</a>
<a style="color:inherit;" xlink:href="textedit:///Users/marc.mouries/projects/Sheet-Music/Practice/MyViolinPracticeBook/Violin-Practice-Book.ly:321:4:5">
<g transform="translate(18.1464, 72.9095)">
<path transform="scale(0.0040, -0.0040)" d="M218 136c66 0 108 -36 108 -89c0 -89 -113 -183 -218 -183c-66 0 -108 36 -108 89c0 89 113 183 218 183z" fill="currentColor"/>
</g>
</a>
<g transform="translate(18.2093, 76.2095)">
<rect x="-0.0630" y="-3.1139" width="0.1259" height="3.6639" ry="0.0381" fill="currentColor"/>
</g>
<a style="color:inherit;" xlink:href="textedit:///Users/marc.mouries/projects/Sheet-Music/Practice/MyViolinPracticeBook/Violin-Practice-Book.ly:321:8:9">
<g transform="translate(31.0691, 71.8095)">
<path transform="scale(0.0040, -0.0040)" d="M218 136c66 0 108 -36 108 -89c0 -89 -113 -183 -218 -183c-66 0 -108 36 -108 89c0 89 113 183 218 183z" fill="currentColor"/>
</g>
</a>
<g transform="translate(31.1321, 76.2095)">
<rect x="-0.0630" y="-4.2139" width="0.1259" height="4.2139" ry="0.0381" fill="currentColor"/>
</g>
<a style="color:inherit;" xlink:href="textedit:///Users/marc.mouries/projects/Sheet-Music/Practice/MyViolinPracticeBook/Violin-Practice-Book.ly:321:10:11">
<g transform="translate(46.4789, 70.7095)">
<path transform="scale(0.0040, -0.0040)" d="M218 136c66 0 108 -36 108 -89c0 -89 -113 -183 -218 -183c-66 0 -108 36 -108 89c0 89 113 183 218 183z" fill="currentColor"/>
</g>
</a>
<g transform="translate(46.5419, 76.2095)">
<rect x="-0.0630" y="-5.3139" width="0.1259" height="5.3139" ry="0.0381" fill="currentColor"/>
</g>
<g transform="translate(45.3289, 70.7095)">
<path transform="scale(0.0040, -0.0040)" d="M27 41l-1 -66v-11c0 -22 1 -44 4 -66c45 38 93 80 93 139c0 33 -14 67 -43 67c-31 0 -52 -30 -53 -63zM-15 -138l-12 595c8 5 18 8 27 8s19 -3 27 -8l-7 -345c25 21 58 34 91 34c52 0 89 -48 89 -102c0 -80 -86 -117 -147 -169c-15 -13 -24 -38 -45 -38
c-13 0 -23 11 -23 25z" fill="currentColor"/>
</g>
<a style="color:inherit;" xlink:href="textedit:///Users/marc.mouries/projects/Sheet-Music/Practice/MyViolinPracticeBook/Violin-Practice-Book.ly:321:13:14">
<g transform="translate(58.9016, 72.9095)">
<path transform="scale(0.0040, -0.0040)" d="M218 136c66 0 108 -36 108 -89c0 -89 -113 -183 -218 -183c-66 0 -108 36 -108 89c0 89 113 183 218 183z" fill="currentColor"/>
</g>
</a>
<g transform="translate(58.9646, 76.2095)">
<rect x="-0.0630" y="-3.1139" width="0.1259" height="3.3276" ry="0.0381" fill="currentColor"/>
</g>
<a style="color:inherit;" xlink:href="textedit:///Users/marc.mouries/projects/Sheet-Music/Practice/MyViolinPracticeBook/Violin-Practice-Book.ly:321:17:18">
<g transform="translate(66.1401, 70.7095)">
<path transform="scale(0.0040, -0.0040)" d="M218 136c66 0 108 -36 108 -89c0 -89 -113 -183 -218 -183c-66 0 -108 36 -108 89c0 89 113 183 218 183z" fill="currentColor"/>
</g>
</a>
<a style="color:inherit;" xlink:href="textedit:///Users/marc.mouries/projects/Sheet-Music/Practice/MyViolinPracticeBook/Violin-Practice-Book.ly:321:20:21">
<g transform="translate(66.3207, 69.6145)">
<path transform="scale(0.0022, -0.0022)" d="M148 501c10 0 41 -15 72 -15c32 0 63 15 76 15c15 0 26 -11 26 -21c0 -4 -1 -7 -4 -10l-264 -291h134v4c0 60 50 41 75 85c7 11 8 24 14 36c3 7 10 10 17 10c11 0 24 -8 24 -25v-110h70c18 0 27 -14 27 -27s-9 -27 -27 -27h-70c2 -45 36 -82 80 -82c14 0 22 -10 22 -21
s-8 -22 -22 -22c-49 0 -96 14 -145 14s-97 -14 -146 -14c-14 0 -21 11 -21 22s7 21 21 21c44 0 79 37 81 82h-134c-43 0 -57 25 -57 42c0 5 1 10 3 12c73 81 123 182 123 291c0 17 11 31 25 31z" fill="currentColor"/>
</g>
</a>
<g transform="translate(66.2031, 76.2095)">
<rect x="-0.0630" y="-5.3139" width="0.1259" height="5.3157" ry="0.0381" fill="currentColor"/>
</g>
<a style="color:inherit;" xlink:href="textedit:///Users/marc.mouries/projects/Sheet-Music/Practice/MyViolinPracticeBook/Violin-Practice-Book.ly:321:35:36">
<g transform="translate(75.8299, 71.2595)">
<path transform="scale(0.0040, -0.0040)" d="M218 136c66 0 108 -36 108 -89c0 -89 -113 -183 -218 -183c-66 0 -108 36 -108 89c0 89 113 183 218 183z" fill="currentColor"/>
</g>
</a>
<a style="color:inherit;" xlink:href="textedit:///Users/marc.mouries/projects/Sheet-Music/Practice/MyViolinPracticeBook/Violin-Practice-Book.ly:321:37:38">
<g transform="translate(76.0105, 70.1645)">
<path transform="scale(0.0022, -0.0022)" d="M148 501c10 0 41 -15 72 -15c32 0 63 15 76 15c15 0 26 -11 26 -21c0 -4 -1 -7 -4 -10l-264 -291h134v4c0 60 50 41 75 85c7 11 8 24 14 36c3 7 10 10 17 10c11 0 24 -8 24 -25v-110h70c18 0 27 -14 27 -27s-9 -27 -27 -27h-70c2 -45 36 -82 80 -82c14 0 22 -10 22 -21
s-8 -22 -22 -22c-49 0 -96 14 -145 14s-97 -14 -146 -14c-14 0 -21 11 -21 22s7 21 21 21c44 0 79 37 81 82h-134c-43 0 -57 25 -57 42c0 5 1 10 3 12c73 81 123 182 123 291c0 17 11 31 25 31z" fill="currentColor"/>
</g>
</a>
<g transform="translate(75.8929, 76.2095)">
<rect x="-0.0630" y="-4.7639" width="0.1259" height="4.7639" ry="0.0381" fill="currentColor"/>
</g>
<a style="color:inherit;" xlink:href="textedit:///Users/marc.mouries/projects/Sheet-Music/Practice/MyViolinPracticeBook/Violin-Practice-Book.ly:321:41:42">
<g transform="translate(88.5027, 71.8095)">
<path transform="scale(0.0040, -0.0040)" d="M218 136c66 0 108 -36 108 -89c0 -89 -113 -183 -218 -183c-66 0 -108 36 -108 89c0 89 113 183 218 183z" fill="currentColor"/>
</g>
</a>
<g transform="translate(88.5656, 76.2095)">
<rect x="-0.0630" y="-4.2139" width="0.1259" height="4.2139" ry="0.0381" fill="currentColor"/>
</g>
<g transform="translate(10.8391, 125.0640)">
<text font-family="serif" font-weight="bold" font-size="2.2001" text-anchor="start" fill="currentColor">
<tspan>SHIFT : Rolls - Korcia - Grappelli</tspan>
</text>
</g>
<g transform="translate(10.8391, 130.2846)">
<rect x="81.4357" y="-0.1034" width="1.9563" height="0.2069" ry="0.1034" fill="currentColor"/>
</g>
<g transform="translate(10.8391, 130.2846)">
<rect x="75.1704" y="-0.1034" width="1.8053" height="0.2069" ry="0.1034" fill="currentColor"/>
</g>
<g transform="translate(10.8391, 129.1846)">
<rect x="71.6623" y="-0.1034" width="1.8053" height="0.2069" ry="0.1034" fill="currentColor"/>
</g>
<g transform="translate(10.8391, 130.2846)">
<rect x="71.5112" y="-0.1034" width="1.9563" height="0.2069" ry="0.1034" fill="currentColor"/>
</g>
<g transform="translate(10.8391, 130.2846)">
<rect x="66.7398" y="-0.1034" width="1.9563" height="0.2069" ry="0.1034" fill="currentColor"/>
</g>
<g transform="translate(10.8391, 129.1846)">
<rect x="64.3317" y="-0.1034" width="1.9563" height="0.2069" ry="0.1034" fill="currentColor"/>
</g>
<g transform="translate(10.8391, 130.2846)">
<rect x="64.3317" y="-0.1034" width="1.9563" height="0.2069" ry="0.1034" fill="currentColor"/>
</g>
<g transform="translate(10.8391, 128.0846)">
<rect x="62.0746" y="-0.1034" width="1.8053" height="0.2069" ry="0.1034" fill="currentColor"/>
</g>
<g transform="translate(10.8391, 129.1846)">
<rect x="61.9235" y="-0.1034" width="1.9563" height="0.2069" ry="0.1034" fill="currentColor"/>
</g>
<g transform="translate(10.8391, 130.2846)">
<rect x="61.9235" y="-0.1034" width="1.9563" height="0.2069" ry="0.1034" fill="currentColor"/>
</g>
<g transform="translate(10.8391, 129.1846)">
<rect x="58.4154" y="-0.1034" width="1.9563" height="0.2069" ry="0.1034" fill="currentColor"/>
</g>
<g transform="translate(10.8391, 130.2846)">
<rect x="58.4154" y="-0.1034" width="1.9563" height="0.2069" ry="0.1034" fill="currentColor"/>
</g>
<g transform="translate(10.8391, 130.2846)">
<rect x="55.6583" y="-0.1034" width="1.8053" height="0.2069" ry="0.1034" fill="currentColor"/>
</g>
<g transform="translate(10.8391, 129.1846)">
<rect x="52.1501" y="-0.1034" width="1.8053" height="0.2069" ry="0.1034" fill="currentColor"/>
</g>
<g transform="translate(10.8391, 130.2846)">
<rect x="51.9990" y="-0.1034" width="1.9563" height="0.2069" ry="0.1034" fill="currentColor"/>
</g>
<g transform="translate(10.8391, 130.2846)">
<rect x="47.2991" y="-0.1034" width="1.9563" height="0.2069" ry="0.1034" fill="currentColor"/>
</g>
<g transform="translate(10.8391, 130.2846)">
<rect x="42.1338" y="-0.1034" width="1.8053" height="0.2069" ry="0.1034" fill="currentColor"/>
</g>
<g transform="translate(10.8391, 130.2846)">
<rect x="24.3581" y="-0.1034" width="1.9563" height="0.2069" ry="0.1034" fill="currentColor"/>
</g>
<g transform="translate(10.8391, 129.1846)">
<rect x="21.9499" y="-0.1034" width="1.9563" height="0.2069" ry="0.1034" fill="currentColor"/>
</g>
<g transform="translate(10.8391, 130.2846)">
<rect x="21.9499" y="-0.1034" width="1.9563" height="0.2069" ry="0.1034" fill="currentColor"/>
</g>
<g transform="translate(10.8391, 128.0846)">
<rect x="19.6928" y="-0.1034" width="1.8053" height="0.2069" ry="0.1034" fill="currentColor"/>
</g>
<g transform="translate(10.8391, 129.1846)">
<rect x="19.5418" y="-0.1034" width="1.9563" height="0.2069" ry="0.1034" fill="currentColor"/>
</g>
<g transform="translate(10.8391, 130.2846)">
<rect x="19.5418" y="-0.1034" width="1.9563" height="0.2069" ry="0.1034" fill="currentColor"/>
</g>
<g transform="translate(10.8391, 129.1846)">
<rect x="16.1847" y="-0.1034" width="1.8053" height="0.2069" ry="0.1034" fill="currentColor"/>
</g>
<g transform="translate(10.8391, 130.2846)">
<rect x="16.0336" y="-0.1034" width="1.9563" height="0.2069" ry="0.1034" fill="currentColor"/>
</g>
<g transform="translate(10.8391, 130.2846)">
<rect x="12.6765" y="-0.1034" width="1.8053" height="0.2069" ry="0.1034" fill="currentColor"/>
</g>
<g transform="translate(10.8391, 135.7846)">
<line stroke-linejoin="round" stroke-linecap="round" stroke-width="0.0969" stroke="currentColor" x1="0.0484" y1="0" x2="92.0843" y2="0"/>
</g>
<g transform="translate(10.8391, 134.6846)">
<line stroke-linejoin="round" stroke-linecap="round" stroke-width="0.0969" stroke="currentColor" x1="0.0484" y1="0" x2="92.0843" y2="0"/>
</g>
<g transform="translate(10.8391, 133.5846)">
<line stroke-linejoin="round" stroke-linecap="round" stroke-width="0.0969" stroke="currentColor" x1="0.0484" y1="0" x2="92.0843" y2="0"/>
</g>
<g transform="translate(10.8391, 132.4846)">
<line stroke-linejoin="round" stroke-linecap="round" stroke-width="0.0969" stroke="currentColor" x1="0.0484" y1="0" x2="92.0843" y2="0"/>
</g>
<g transform="translate(10.8391, 131.3846)">
<line stroke-linejoin="round" stroke-linecap="round" stroke-width="0.0969" stroke="currentColor" x1="0.0484" y1="0" x2="92.0843" y2="0"/>
</g>
<g transform="translate(101.1754, 133.0346)">
<path transform="scale(0.0040, -0.0040)" d="M0 0c0 31 25 56 56 56s56 -25 56 -56s-25 -56 -56 -56s-56 25 -56 56z" fill="currentColor"/>
</g>
<g transform="translate(101.1754, 134.1346)">
<path transform="scale(0.0040, -0.0040)" d="M0 0c0 31 25 56 56 56s56 -25 56 -56s-25 -56 -56 -56s-56 25 -56 56z" fill="currentColor"/>
</g>
<g transform="translate(102.3907, 133.5846)">
<rect x="0.0000" y="-2.2000" width="0.5812" height="4.4000" ry="0.0000" fill="currentColor"/>
</g>
<g transform="translate(101.9160, 133.5846)">
<rect x="0.0000" y="-2.2000" width="0.1841" height="4.4000" ry="0.0000" fill="currentColor"/>
</g>
<g transform="translate(80.3846, 133.5846)">
<rect x="0.0000" y="-2.2000" width="0.1841" height="4.4000" ry="0.0000" fill="currentColor"/>
</g>
<g transform="translate(60.8724, 133.5846)">
<rect x="0.0000" y="-2.2000" width="0.1841" height="4.4000" ry="0.0000" fill="currentColor"/>
</g>
<g transform="translate(38.1815, 133.0346)">
<path transform="scale(0.0040, -0.0040)" d="M0 0c0 31 25 56 56 56s56 -25 56 -56s-25 -56 -56 -56s-56 25 -56 56z" fill="currentColor"/>
</g>
<g transform="translate(38.1815, 134.1346)">
<path transform="scale(0.0040, -0.0040)" d="M0 0c0 31 25 56 56 56s56 -25 56 -56s-25 -56 -56 -56s-56 25 -56 56z" fill="currentColor"/>
</g>
<g transform="translate(40.6657, 133.0346)">
<path transform="scale(0.0040, -0.0040)" d="M0 0c0 31 25 56 56 56s56 -25 56 -56s-25 -56 -56 -56s-56 25 -56 56z" fill="currentColor"/>
</g>
<g transform="translate(40.6657, 134.1346)">
<path transform="scale(0.0040, -0.0040)" d="M0 0c0 31 25 56 56 56s56 -25 56 -56s-25 -56 -56 -56s-56 25 -56 56z" fill="currentColor"/>
</g>
<g transform="translate(39.7939, 133.5846)">
<rect x="0.0000" y="-2.2000" width="0.5812" height="4.4000" ry="0.0000" fill="currentColor"/>
</g>
<g transform="translate(38.9221, 133.5846)">
<rect x="0.0000" y="-2.2000" width="0.5812" height="4.4000" ry="0.0000" fill="currentColor"/>
</g>
<a style="color:inherit;" xlink:href="textedit:///Users/marc.mouries/projects/Sheet-Music/Practice/MyViolinPracticeBook/Violin-Practice-Book.ly:337:8:9">
<g transform="translate(20.1825, 131.3846)">
<path transform="scale(0.0040, -0.0040)" d="M218 136c66 0 108 -36 108 -89c0 -89 -113 -183 -218 -183c-66 0 -108 36 -108 89c0 89 113 183 218 183z" fill="currentColor"/>
</g>
</a>
<a style="color:inherit;" xlink:href="textedit:///Users/marc.mouries/projects/Sheet-Music/Practice/MyViolinPracticeBook/Violin-Practice-Book.ly:337:11:12">
<g transform="translate(20.4444, 130.2896)">
<path transform="scale(0.0022, -0.0022)" d="M261 266c0 -54 85 -40 85 -125c0 -94 -83 -141 -186 -141c-84 0 -160 54 -160 133c0 32 26 58 58 58s58 -26 58 -58c0 -22 -36 -26 -36 -48c0 -33 42 -42 80 -42c41 0 56 50 56 98v21c0 44 -2 77 -43 77h-65c-18 0 -27 14 -27 27s9 27 27 27h65c42 0 43 36 43 83v11
c0 43 -20 70 -61 70c-34 0 -71 -8 -71 -38c0 -19 32 -23 32 -42c0 -28 -23 -51 -51 -51s-51 23 -51 51c0 72 66 123 141 123c93 0 174 -31 174 -113c0 -94 -68 -67 -68 -121z" fill="currentColor"/>
</g>
</a>
<g transform="translate(11.6391, 134.6846)">
<path transform="scale(0.0040, -0.0040)" d="M266 -635h-6c-108 0 -195 88 -195 197c0 58 53 103 112 103c54 0 95 -47 95 -103c0 -52 -43 -95 -95 -95c-11 0 -21 2 -31 6c26 -39 68 -65 117 -65h4zM461 -203c68 24 113 90 113 164c0 90 -66 179 -173 190c19 -89 48 -242 60 -354zM74 28c0 -145 141 -247 264 -247
c1 0 47 0 82 6c-7 64 -29 203 -63 364c-79 -8 -124 -61 -124 -119c0 -44 25 -91 81 -123c5 -5 7 -10 7 -15c0 -11 -10 -22 -22 -22c-15 0 -126 62 -126 187c0 88 58 174 160 197c-14 58 -29 117 -46 175c-107 -121 -213 -243 -213 -403zM250 553c-29 96 -52 170 -52 346
c0 115 55 224 149 292c6 5 14 5 20 0c68 -80 133 -245 133 -358c0 -143 -86 -255 -180 -364c21 -68 39 -138 56 -207c2 0 7 1 13 1c155 0 256 -128 256 -261c0 -113 -74 -212 -180 -246c3 -35 5 -70 5 -105c0 -19 -1 -39 -2 -58c-7 -119 -88 -225 -202 -228l1 43
c93 2 153 92 159 191c1 18 2 37 2 55c0 31 -1 61 -4 92c-5 -1 -44 -8 -89 -8c-193 0 -333 180 -333 374c0 177 131 306 248 441zM428 916c0 34 1 66 -20 129c-99 -48 -162 -149 -162 -259c0 -52 12 -115 36 -194c80 97 146 198 146 324z" fill="currentColor"/>
</g>
<g transform="translate(15.9042, 133.5846)">
<path transform="scale(0.0040, -0.0040)" d="M229 0c-88 0 -90 66 -144 66c-30 0 -59 -20 -62 -55c-1 -7 -6 -11 -11 -11c-6 0 -12 4 -12 11c0 154 232 170 232 344c0 59 -16 122 -67 122c-25 0 -49 -14 -49 -37c0 -27 35 -41 35 -68c0 -38 -31 -69 -69 -69s-69 31 -69 69c0 76 72 128 152 128c95 0 183 -57 183 -145
c0 -151 -150 -159 -246 -220c9 2 18 3 27 3c83 0 111 -59 171 -59c48 0 38 38 55 38c6 0 12 -5 12 -12c0 -22 -44 -105 -138 -105z" fill="currentColor"/>
</g>
<g transform="translate(15.8391, 135.6006)">
<path transform="scale(0.0040, -0.0040)" d="M196 117h117c0 -48 27 -94 72 -94c8 0 12 -5 12 -11s-4 -12 -12 -12c-44 0 -87 13 -131 13s-87 -13 -131 -13c-8 0 -12 6 -12 12s4 11 12 11c45 0 73 46 73 94zM-2 148c0 12 140 143 140 336c0 10 7 19 16 16c23 -7 47 -13 71 -13s48 6 71 13c14 4 23 -9 17 -16
l-284 -330h167v131c0 34 34 27 68 72c22 30 23 56 36 56c6 0 13 -5 13 -14v-245h72c10 0 15 -7 15 -14s-5 -15 -15 -15h-72v-8h-117v8h-167c-23 0 -31 14 -31 23z" fill="currentColor"/>
</g>
<g transform="translate(20.2455, 133.5846)">
<rect x="-0.0630" y="-2.0139" width="0.1259" height="2.8924" ry="0.0381" fill="currentColor"/>
</g>
<g transform="translate(18.7325, 131.3846)">
<path transform="scale(0.0040, -0.0040)" d="M0 119c0 8 5 15 13 18l46 17v158c0 10 8 19 18 19s19 -9 19 -19v-145l83 31v158c0 10 9 19 19 19s18 -9 18 -19v-145l32 12c2 1 5 1 7 1c11 0 20 -9 20 -20v-60c0 -8 -5 -16 -13 -19l-46 -16v-160l32 11c2 1 5 1 7 1c11 0 20 -9 20 -20v-60c0 -8 -5 -15 -13 -18l-46 -17
v-158c0 -10 -8 -19 -18 -19s-19 9 -19 19v145l-83 -31v-158c0 -10 -9 -19 -19 -19s-18 9 -18 19v145l-32 -12c-2 -1 -5 -1 -7 -1c-11 0 -20 9 -20 20v60c0 8 5 16 13 19l46 16v160l-32 -11c-2 -1 -5 -1 -7 -1c-11 0 -20 9 -20 20v60zM179 95l-83 -30v-160l83 30v160z" fill="currentColor"/>
</g>
<g transform="translate(82.6764, 133.8001)">
<polygon stroke-linejoin="round" stroke-linecap="round" stroke-width="0.0762" fill="currentColor" stroke="currentColor" points="7.1042 0.4430 7.1042 0.8948 0.0381 0.2259 0.0381 -0.2259"/>
</g>
<a style="color:inherit;" xlink:href="textedit:///Users/marc.mouries/projects/Sheet-Music/Practice/MyViolinPracticeBook/Violin-Practice-Book.ly:337:15:16">
<g transform="translate(23.6907, 130.2846)">
<path transform="scale(0.0040, -0.0040)" d="M218 136c66 0 108 -36 108 -89c0 -89 -113 -183 -218 -183c-66 0 -108 36 -108 89c0 89 113 183 218 183z" fill="currentColor"/>
</g>
</a>
<g transform="translate(23.7536, 133.5846)">
<rect x="-0.0630" y="-3.1139" width="0.1259" height="3.6639" ry="0.0381" fill="currentColor"/>
</g>
<g transform="translate(22.2407, 130.2846)">
<path transform="scale(0.0040, -0.0040)" d="M0 119c0 8 5 15 13 18l46 17v158c0 10 8 19 18 19s19 -9 19 -19v-145l83 31v158c0 10 9 19 19 19s18 -9 18 -19v-145l32 12c2 1 5 1 7 1c11 0 20 -9 20 -20v-60c0 -8 -5 -16 -13 -19l-46 -16v-160l32 11c2 1 5 1 7 1c11 0 20 -9 20 -20v-60c0 -8 -5 -15 -13 -18l-46 -17
v-158c0 -10 -8 -19 -18 -19s-19 9 -19 19v145l-83 -31v-158c0 -10 -9 -19 -19 -19s-18 9 -18 19v145l-32 -12c-2 -1 -5 -1 -7 -1c-11 0 -20 9 -20 20v60c0 8 5 16 13 19l46 16v160l-32 -11c-2 -1 -5 -1 -7 -1c-11 0 -20 9 -20 20v60zM179 95l-83 -30v-160l83 30v160z" fill="currentColor"/>
</g>
<a style="color:inherit;" xlink:href="textedit:///Users/marc.mouries/projects/Sheet-Music/Practice/MyViolinPracticeBook/Violin-Practice-Book.ly:342:2:3">
<g transform="translate(95.1830, 137.1939)">
<text font-family="serif" font-style="italic" font-size="1.7460" text-anchor="start" fill="currentColor">
<tspan>3</tspan>
</text>
</g>
</a>
<a style="color:inherit;" xlink:href="textedit:///Users/marc.mouries/projects/Sheet-Music/Practice/MyViolinPracticeBook/Violin-Practice-Book.ly:337:19:20">
<g transform="translate(27.1988, 129.1846)">
<path transform="scale(0.0040, -0.0040)" d="M218 136c66 0 108 -36 108 -89c0 -89 -113 -183 -218 -183c-66 0 -108 36 -108 89c0 89 113 183 218 183z" fill="currentColor"/>
</g>
</a>
<g transform="translate(27.2618, 133.5846)">
<rect x="-0.0630" y="-4.2139" width="0.1259" height="4.4354" ry="0.0381" fill="currentColor"/>
</g>
<g transform="translate(25.7488, 129.1846)">
<path transform="scale(0.0040, -0.0040)" d="M0 119c0 8 5 15 13 18l46 17v158c0 10 8 19 18 19s19 -9 19 -19v-145l83 31v158c0 10 9 19 19 19s18 -9 18 -19v-145l32 12c2 1 5 1 7 1c11 0 20 -9 20 -20v-60c0 -8 -5 -16 -13 -19l-46 -16v-160l32 11c2 1 5 1 7 1c11 0 20 -9 20 -20v-60c0 -8 -5 -15 -13 -18l-46 -17
v-158c0 -10 -8 -19 -18 -19s-19 9 -19 19v145l-83 -31v-158c0 -10 -9 -19 -19 -19s-18 9 -18 19v145l-32 -12c-2 -1 -5 -1 -7 -1c-11 0 -20 9 -20 20v60c0 8 5 16 13 19l46 16v160l-32 -11c-2 -1 -5 -1 -7 -1c-11 0 -20 9 -20 20v60zM179 95l-83 -30v-160l83 30v160z" fill="currentColor"/>
</g>
<a style="color:inherit;" xlink:href="textedit:///Users/marc.mouries/projects/Sheet-Music/Practice/MyViolinPracticeBook/Violin-Practice-Book.ly:342:2:3">
</a>
<a style="color:inherit;" xlink:href="textedit:///Users/marc.mouries/projects/Sheet-Music/Practice/MyViolinPracticeBook/Violin-Practice-Book.ly:338:8:9">
<g transform="translate(30.7070, 127.5346)">
<path transform="scale(0.0040, -0.0040)" d="M218 136c66 0 108 -36 108 -89c0 -89 -113 -183 -218 -183c-66 0 -108 36 -108 89c0 89 113 183 218 183z" fill="currentColor"/>
</g>
</a>
<g transform="translate(30.7699, 133.5846)">
<rect x="-0.0630" y="-5.8639" width="0.1259" height="5.8666" ry="0.0381" fill="currentColor"/>
</g>
<g transform="translate(29.2570, 127.5346)">
<path transform="scale(0.0040, -0.0040)" d="M0 119c0 8 5 15 13 18l46 17v158c0 10 8 19 18 19s19 -9 19 -19v-145l83 31v158c0 10 9 19 19 19s18 -9 18 -19v-145l32 12c2 1 5 1 7 1c11 0 20 -9 20 -20v-60c0 -8 -5 -16 -13 -19l-46 -16v-160l32 11c2 1 5 1 7 1c11 0 20 -9 20 -20v-60c0 -8 -5 -15 -13 -18l-46 -17
v-158c0 -10 -8 -19 -18 -19s-19 9 -19 19v145l-83 -31v-158c0 -10 -9 -19 -19 -19s-18 9 -18 19v145l-32 -12c-2 -1 -5 -1 -7 -1c-11 0 -20 9 -20 20v60c0 8 5 16 13 19l46 16v160l-32 -11c-2 -1 -5 -1 -7 -1c-11 0 -20 9 -20 20v60zM179 95l-83 -30v-160l83 30v160z" fill="currentColor"/>
</g>
<g transform="translate(73.0887, 133.5846)">
<polygon stroke-linejoin="round" stroke-linecap="round" stroke-width="0.0762" fill="currentColor" stroke="currentColor" points="4.9042 -0.0103 4.9042 0.4415 0.0381 0.2259 0.0381 -0.2259"/>
</g>
<a style="color:inherit;" xlink:href="textedit:///Users/marc.mouries/projects/Sheet-Music/Practice/MyViolinPracticeBook/Violin-Practice-Book.ly:338:15:16">
<g transform="translate(33.1151, 129.1846)">
<path transform="scale(0.0040, -0.0040)" d="M218 136c66 0 108 -36 108 -89c0 -89 -113 -183 -218 -183c-66 0 -108 36 -108 89c0 89 113 183 218 183z" fill="currentColor"/>
</g>
</a>
<g transform="translate(33.1781, 133.5846)">
<rect x="-0.0630" y="-4.2139" width="0.1259" height="4.3217" ry="0.0381" fill="currentColor"/>
</g>
<a style="color:inherit;" xlink:href="textedit:///Users/marc.mouries/projects/Sheet-Music/Practice/MyViolinPracticeBook/Violin-Practice-Book.ly:342:2:3">
<g transform="translate(85.8086, 136.0841)">
<text font-family="serif" font-style="italic" font-size="1.7460" text-anchor="start" fill="currentColor">
<tspan>3</tspan>
</text>
</g>
</a>
<a style="color:inherit;" xlink:href="textedit:///Users/marc.mouries/projects/Sheet-Music/Practice/MyViolinPracticeBook/Violin-Practice-Book.ly:338:19:20">
<g transform="translate(35.5233, 130.2846)">
<path transform="scale(0.0040, -0.0040)" d="M218 136c66 0 108 -36 108 -89c0 -89 -113 -183 -218 -183c-66 0 -108 36 -108 89c0 89 113 183 218 183z" fill="currentColor"/>
</g>
</a>
<g transform="translate(35.5863, 133.5846)">
<rect x="-0.0630" y="-3.1139" width="0.1259" height="3.3267" ry="0.0381" fill="currentColor"/>
</g>
<a style="color:inherit;" xlink:href="textedit:///Users/marc.mouries/projects/Sheet-Music/Practice/MyViolinPracticeBook/Violin-Practice-Book.ly:342:2:3">
</a>
<g transform="translate(63.1642, 133.5846)">
<polygon stroke-linejoin="round" stroke-linecap="round" stroke-width="0.0762" fill="currentColor" stroke="currentColor" points="6.5042 -0.2259 6.5042 0.2259 0.0381 0.2259 0.0381 -0.2259"/>
</g>
<a style="color:inherit;" xlink:href="textedit:///Users/marc.mouries/projects/Sheet-Music/Practice/MyViolinPracticeBook/Violin-Practice-Book.ly:348:2:3">
<g transform="translate(43.2235, 131.3846)">
<path transform="scale(0.0040, -0.0040)" d="M218 136c66 0 108 -36 108 -89c0 -89 -113 -183 -218 -183c-66 0 -108 36 -108 89c0 89 113 183 218 183z" fill="currentColor"/>
</g>
</a>
<g transform="translate(43.2864, 133.5846)">
<rect x="-0.0630" y="-2.0139" width="0.1259" height="3.9983" ry="0.0381" fill="currentColor"/>
</g>
<g transform="translate(41.7735, 131.3846)">
<path transform="scale(0.0040, -0.0040)" d="M0 119c0 8 5 15 13 18l46 17v158c0 10 8 19 18 19s19 -9 19 -19v-145l83 31v158c0 10 9 19 19 19s18 -9 18 -19v-145l32 12c2 1 5 1 7 1c11 0 20 -9 20 -20v-60c0 -8 -5 -16 -13 -19l-46 -16v-160l32 11c2 1 5 1 7 1c11 0 20 -9 20 -20v-60c0 -8 -5 -15 -13 -18l-46 -17
v-158c0 -10 -8 -19 -18 -19s-19 9 -19 19v145l-83 -31v-158c0 -10 -9 -19 -19 -19s-18 9 -18 19v145l-32 -12c-2 -1 -5 -1 -7 -1c-11 0 -20 9 -20 20v60c0 8 5 16 13 19l46 16v160l-32 -11c-2 -1 -5 -1 -7 -1c-11 0 -20 9 -20 20v60zM179 95l-83 -30v-160l83 30v160z" fill="currentColor"/>
</g>
<a style="color:inherit;" xlink:href="textedit:///Users/marc.mouries/projects/Sheet-Music/Practice/MyViolinPracticeBook/Violin-Practice-Book.ly:342:2:3">
<g transform="translate(75.1209, 135.6387)">
<text font-family="serif" font-style="italic" font-size="1.7460" text-anchor="start" fill="currentColor">
<tspan>3</tspan>
</text>
</g>
</a>
<a style="color:inherit;" xlink:href="textedit:///Users/marc.mouries/projects/Sheet-Music/Practice/MyViolinPracticeBook/Violin-Practice-Book.ly:348:7:8">
<g transform="translate(46.7316, 133.0346)">
<path transform="scale(0.0040, -0.0040)" d="M218 136c66 0 108 -36 108 -89c0 -89 -113 -183 -218 -183c-66 0 -108 36 -108 89c0 89 113 183 218 183z" fill="currentColor"/>
</g>
</a>
<g transform="translate(46.7946, 133.5846)">
<rect x="-0.0630" y="-0.3639" width="0.1259" height="2.3483" ry="0.0381" fill="currentColor"/>
</g>
<g transform="translate(45.2816, 133.0346)">
<path transform="scale(0.0040, -0.0040)" d="M0 119c0 8 5 15 13 18l46 17v158c0 10 8 19 18 19s19 -9 19 -19v-145l83 31v158c0 10 9 19 19 19s18 -9 18 -19v-145l32 12c2 1 5 1 7 1c11 0 20 -9 20 -20v-60c0 -8 -5 -16 -13 -19l-46 -16v-160l32 11c2 1 5 1 7 1c11 0 20 -9 20 -20v-60c0 -8 -5 -15 -13 -18l-46 -17
v-158c0 -10 -8 -19 -18 -19s-19 9 -19 19v145l-83 -31v-158c0 -10 -9 -19 -19 -19s-18 9 -18 19v145l-32 -12c-2 -1 -5 -1 -7 -1c-11 0 -20 9 -20 20v60c0 8 5 16 13 19l46 16v160l-32 -11c-2 -1 -5 -1 -7 -1c-11 0 -20 9 -20 20v60zM179 95l-83 -30v-160l83 30v160z" fill="currentColor"/>
</g>
<a style="color:inherit;" xlink:href="textedit:///Users/marc.mouries/projects/Sheet-Music/Practice/MyViolinPracticeBook/Violin-Practice-Book.ly:342:2:3">
</a>
<a style="color:inherit;" xlink:href="textedit:///Users/marc.mouries/projects/Sheet-Music/Practice/MyViolinPracticeBook/Violin-Practice-Book.ly:348:11:12">
<g transform="translate(49.6398, 131.3846)">
<path transform="scale(0.0040, -0.0040)" d="M218 136c66 0 108 -36 108 -89c0 -89 -113 -183 -218 -183c-66 0 -108 36 -108 89c0 89 113 183 218 183z" fill="currentColor"/>
</g>
</a>
<g transform="translate(49.7028, 133.5846)">
<rect x="-0.0630" y="-2.0139" width="0.1259" height="3.9983" ry="0.0381" fill="currentColor"/>
</g>
<g transform="translate(53.1480, 134.4690)">
<polygon stroke-linejoin="round" stroke-linecap="round" stroke-width="0.0762" fill="currentColor" stroke="currentColor" points="5.4042 -0.2259 5.4042 0.2259 0.0381 0.2259 0.0381 -0.2259"/>
</g>
<a style="color:inherit;" xlink:href="textedit:///Users/marc.mouries/projects/Sheet-Music/Practice/MyViolinPracticeBook/Violin-Practice-Book.ly:349:2:3">
<g transform="translate(53.1480, 130.2846)">
<path transform="scale(0.0040, -0.0040)" d="M218 136c66 0 108 -36 108 -89c0 -89 -113 -183 -218 -183c-66 0 -108 36 -108 89c0 89 113 183 218 183z" fill="currentColor"/>
</g>
</a>
<g transform="translate(53.2109, 133.5846)">
<rect x="-0.0630" y="-3.1139" width="0.1259" height="3.9983" ry="0.0381" fill="currentColor"/>
</g>
<g transform="translate(51.6980, 130.2846)">
<path transform="scale(0.0040, -0.0040)" d="M0 119c0 8 5 15 13 18l46 17v158c0 10 8 19 18 19s19 -9 19 -19v-145l83 31v158c0 10 9 19 19 19s18 -9 18 -19v-145l32 12c2 1 5 1 7 1c11 0 20 -9 20 -20v-60c0 -8 -5 -16 -13 -19l-46 -16v-160l32 11c2 1 5 1 7 1c11 0 20 -9 20 -20v-60c0 -8 -5 -15 -13 -18l-46 -17
v-158c0 -10 -8 -19 -18 -19s-19 9 -19 19v145l-83 -31v-158c0 -10 -9 -19 -19 -19s-18 9 -18 19v145l-32 -12c-2 -1 -5 -1 -7 -1c-11 0 -20 9 -20 20v60c0 8 5 16 13 19l46 16v160l-32 -11c-2 -1 -5 -1 -7 -1c-11 0 -20 9 -20 20v60zM179 95l-83 -30v-160l83 30v160z" fill="currentColor"/>
</g>
<a style="color:inherit;" xlink:href="textedit:///Users/marc.mouries/projects/Sheet-Music/Practice/MyViolinPracticeBook/Violin-Practice-Book.ly:342:2:3">
<g transform="translate(65.9964, 135.8143)">
<text font-family="serif" font-style="italic" font-size="1.7460" text-anchor="start" fill="currentColor">
<tspan>3</tspan>
</text>
</g>
</a>
<a style="color:inherit;" xlink:href="textedit:///Users/marc.mouries/projects/Sheet-Music/Practice/MyViolinPracticeBook/Violin-Practice-Book.ly:349:6:7">
<g transform="translate(55.5561, 131.3846)">
<path transform="scale(0.0040, -0.0040)" d="M218 136c66 0 108 -36 108 -89c0 -89 -113 -183 -218 -183c-66 0 -108 36 -108 89c0 89 113 183 218 183z" fill="currentColor"/>
</g>
</a>
<g transform="translate(55.6191, 133.5846)">
<rect x="-0.0630" y="-2.0139" width="0.1259" height="2.8983" ry="0.0381" fill="currentColor"/>
</g>
<a style="color:inherit;" xlink:href="textedit:///Users/marc.mouries/projects/Sheet-Music/Practice/MyViolinPracticeBook/Violin-Practice-Book.ly:342:2:3">
</a>
<a style="color:inherit;" xlink:href="textedit:///Users/marc.mouries/projects/Sheet-Music/Practice/MyViolinPracticeBook/Violin-Practice-Book.ly:349:10:11">
<g transform="translate(58.4643, 130.2846)">
<path transform="scale(0.0040, -0.0040)" d="M218 136c66 0 108 -36 108 -89c0 -89 -113 -183 -218 -183c-66 0 -108 36 -108 89c0 89 113 183 218 183z" fill="currentColor"/>
</g>
</a>
<g transform="translate(58.5272, 133.5846)">
<rect x="-0.0630" y="-3.1139" width="0.1259" height="3.9983" ry="0.0381" fill="currentColor"/>
</g>
<g transform="translate(43.2235, 135.5690)">
<polygon stroke-linejoin="round" stroke-linecap="round" stroke-width="0.0762" fill="currentColor" stroke="currentColor" points="6.5042 -0.2259 6.5042 0.2259 0.0381 0.2259 0.0381 -0.2259"/>
</g>
<a style="color:inherit;" xlink:href="textedit:///Users/marc.mouries/projects/Sheet-Music/Practice/MyViolinPracticeBook/Violin-Practice-Book.ly:342:2:3">
<g transform="translate(55.4301, 136.9143)">
<text font-family="serif" font-style="italic" font-size="1.7460" text-anchor="start" fill="currentColor">
<tspan>3</tspan>
</text>
</g>
</a>
<a style="color:inherit;" xlink:href="textedit:///Users/marc.mouries/projects/Sheet-Music/Practice/MyViolinPracticeBook/Violin-Practice-Book.ly:350:2:3">
<g transform="translate(63.1642, 129.1846)">
<path transform="scale(0.0040, -0.0040)" d="M218 136c66 0 108 -36 108 -89c0 -89 -113 -183 -218 -183c-66 0 -108 36 -108 89c0 89 113 183 218 183z" fill="currentColor"/>
</g>
</a>
<g transform="translate(63.2272, 133.5846)">
<rect x="-0.0630" y="-4.2139" width="0.1259" height="4.2139" ry="0.0381" fill="currentColor"/>
</g>
<g transform="translate(61.7142, 129.1846)">
<path transform="scale(0.0040, -0.0040)" d="M0 119c0 8 5 15 13 18l46 17v158c0 10 8 19 18 19s19 -9 19 -19v-145l83 31v158c0 10 9 19 19 19s18 -9 18 -19v-145l32 12c2 1 5 1 7 1c11 0 20 -9 20 -20v-60c0 -8 -5 -16 -13 -19l-46 -16v-160l32 11c2 1 5 1 7 1c11 0 20 -9 20 -20v-60c0 -8 -5 -15 -13 -18l-46 -17
v-158c0 -10 -8 -19 -18 -19s-19 9 -19 19v145l-83 -31v-158c0 -10 -9 -19 -19 -19s-18 9 -18 19v145l-32 -12c-2 -1 -5 -1 -7 -1c-11 0 -20 9 -20 20v60c0 8 5 16 13 19l46 16v160l-32 -11c-2 -1 -5 -1 -7 -1c-11 0 -20 9 -20 20v60zM179 95l-83 -30v-160l83 30v160z" fill="currentColor"/>
</g>
<a style="color:inherit;" xlink:href="textedit:///Users/marc.mouries/projects/Sheet-Music/Practice/MyViolinPracticeBook/Violin-Practice-Book.ly:342:2:3">
</a>
<g transform="translate(92.6009, 134.4690)">
<polygon stroke-linejoin="round" stroke-linecap="round" stroke-width="0.0762" fill="currentColor" stroke="currentColor" points="6.0042 1.3052 6.0042 1.7570 0.0381 0.2259 0.0381 -0.2259"/>
</g>
<g transform="translate(30.7070, 133.5846)">
<polygon stroke-linejoin="round" stroke-linecap="round" stroke-width="0.0762" fill="currentColor" stroke="currentColor" points="4.9042 -0.0103 4.9042 0.4415 0.0381 0.2259 0.0381 -0.2259"/>
</g>
<a style="color:inherit;" xlink:href="textedit:///Users/marc.mouries/projects/Sheet-Music/Practice/MyViolinPracticeBook/Violin-Practice-Book.ly:350:6:7">
<g transform="translate(66.6724, 130.2846)">
<path transform="scale(0.0040, -0.0040)" d="M218 136c66 0 108 -36 108 -89c0 -89 -113 -183 -218 -183c-66 0 -108 36 -108 89c0 89 113 183 218 183z" fill="currentColor"/>
</g>
</a>
<g transform="translate(66.7354, 133.5846)">
<rect x="-0.0630" y="-3.1139" width="0.1259" height="3.1139" ry="0.0381" fill="currentColor"/>
</g>
<g transform="translate(65.2224, 130.2846)">
<path transform="scale(0.0040, -0.0040)" d="M0 119c0 8 5 15 13 18l46 17v158c0 10 8 19 18 19s19 -9 19 -19v-145l83 31v158c0 10 9 19 19 19s18 -9 18 -19v-145l32 12c2 1 5 1 7 1c11 0 20 -9 20 -20v-60c0 -8 -5 -16 -13 -19l-46 -16v-160l32 11c2 1 5 1 7 1c11 0 20 -9 20 -20v-60c0 -8 -5 -15 -13 -18l-46 -17
v-158c0 -10 -8 -19 -18 -19s-19 9 -19 19v145l-83 -31v-158c0 -10 -9 -19 -19 -19s-18 9 -18 19v145l-32 -12c-2 -1 -5 -1 -7 -1c-11 0 -20 9 -20 20v60c0 8 5 16 13 19l46 16v160l-32 -11c-2 -1 -5 -1 -7 -1c-11 0 -20 9 -20 20v60zM179 95l-83 -30v-160l83 30v160z" fill="currentColor"/>
</g>
<a style="color:inherit;" xlink:href="textedit:///Users/marc.mouries/projects/Sheet-Music/Practice/MyViolinPracticeBook/Violin-Practice-Book.ly:342:2:3">
<g transform="translate(46.0556, 137.5127)">
<text font-family="serif" font-style="italic" font-size="1.7460" text-anchor="start" fill="currentColor">
<tspan>3</tspan>
</text>
</g>
</a>
<a style="color:inherit;" xlink:href="textedit:///Users/marc.mouries/projects/Sheet-Music/Practice/MyViolinPracticeBook/Violin-Practice-Book.ly:350:10:11">
<g transform="translate(69.5806, 129.1846)">
<path transform="scale(0.0040, -0.0040)" d="M218 136c66 0 108 -36 108 -89c0 -89 -113 -183 -218 -183c-66 0 -108 36 -108 89c0 89 113 183 218 183z" fill="currentColor"/>
</g>
</a>
<g transform="translate(69.6435, 133.5846)">
<rect x="-0.0630" y="-4.2139" width="0.1259" height="4.2139" ry="0.0381" fill="currentColor"/>
</g>
<a style="color:inherit;" xlink:href="textedit:///Users/marc.mouries/projects/Sheet-Music/Practice/MyViolinPracticeBook/Violin-Practice-Book.ly:342:2:3">
</a>
<a style="color:inherit;" xlink:href="textedit:///Users/marc.mouries/projects/Sheet-Music/Practice/MyViolinPracticeBook/Violin-Practice-Book.ly:351:2:3">
<g transform="translate(73.0887, 127.5346)">
<path transform="scale(0.0040, -0.0040)" d="M218 136c66 0 108 -36 108 -89c0 -89 -113 -183 -218 -183c-66 0 -108 36 -108 89c0 89 113 183 218 183z" fill="currentColor"/>
</g>
</a>
<g transform="translate(73.1517, 133.5846)">
<rect x="-0.0630" y="-5.8639" width="0.1259" height="5.8666" ry="0.0381" fill="currentColor"/>
</g>
<g transform="translate(71.6387, 127.5346)">
<path transform="scale(0.0040, -0.0040)" d="M0 119c0 8 5 15 13 18l46 17v158c0 10 8 19 18 19s19 -9 19 -19v-145l83 31v158c0 10 9 19 19 19s18 -9 18 -19v-145l32 12c2 1 5 1 7 1c11 0 20 -9 20 -20v-60c0 -8 -5 -16 -13 -19l-46 -16v-160l32 11c2 1 5 1 7 1c11 0 20 -9 20 -20v-60c0 -8 -5 -15 -13 -18l-46 -17
v-158c0 -10 -8 -19 -18 -19s-19 9 -19 19v145l-83 -31v-158c0 -10 -9 -19 -19 -19s-18 9 -18 19v145l-32 -12c-2 -1 -5 -1 -7 -1c-11 0 -20 9 -20 20v60c0 8 5 16 13 19l46 16v160l-32 -11c-2 -1 -5 -1 -7 -1c-11 0 -20 9 -20 20v60zM179 95l-83 -30v-160l83 30v160z" fill="currentColor"/>
</g>
<g transform="translate(20.1825, 134.4690)">
<polygon stroke-linejoin="round" stroke-linecap="round" stroke-width="0.0762" fill="currentColor" stroke="currentColor" points="7.1042 -0.8948 7.1042 -0.4430 0.0381 0.2259 0.0381 -0.2259"/>
</g>
<a style="color:inherit;" xlink:href="textedit:///Users/marc.mouries/projects/Sheet-Music/Practice/MyViolinPracticeBook/Violin-Practice-Book.ly:351:6:7">
<g transform="translate(75.4969, 129.1846)">
<path transform="scale(0.0040, -0.0040)" d="M218 136c66 0 108 -36 108 -89c0 -89 -113 -183 -218 -183c-66 0 -108 36 -108 89c0 89 113 183 218 183z" fill="currentColor"/>
</g>
</a>
<g transform="translate(75.5598, 133.5846)">
<rect x="-0.0630" y="-4.2139" width="0.1259" height="4.3217" ry="0.0381" fill="currentColor"/>
</g>
<a style="color:inherit;" xlink:href="textedit:///Users/marc.mouries/projects/Sheet-Music/Practice/MyViolinPracticeBook/Violin-Practice-Book.ly:336:6:7">
<g transform="translate(32.7391, 135.6387)">
<text font-family="serif" font-style="italic" font-size="1.7460" text-anchor="start" fill="currentColor">
<tspan>3</tspan>
</text>
</g>
</a>
<a style="color:inherit;" xlink:href="textedit:///Users/marc.mouries/projects/Sheet-Music/Practice/MyViolinPracticeBook/Violin-Practice-Book.ly:351:10:11">
<g transform="translate(77.9050, 130.2846)">
<path transform="scale(0.0040, -0.0040)" d="M218 136c66 0 108 -36 108 -89c0 -89 -113 -183 -218 -183c-66 0 -108 36 -108 89c0 89 113 183 218 183z" fill="currentColor"/>
</g>
</a>
<g transform="translate(77.9680, 133.5846)">
<rect x="-0.0630" y="-3.1139" width="0.1259" height="3.3267" ry="0.0381" fill="currentColor"/>
</g>
<a style="color:inherit;" xlink:href="textedit:///Users/marc.mouries/projects/Sheet-Music/Practice/MyViolinPracticeBook/Violin-Practice-Book.ly:336:6:7">
</a>
<a style="color:inherit;" xlink:href="textedit:///Users/marc.mouries/projects/Sheet-Music/Practice/MyViolinPracticeBook/Violin-Practice-Book.ly:336:6:7">
<g transform="translate(23.3146, 136.0841)">
<text font-family="serif" font-style="italic" font-size="1.7460" text-anchor="start" fill="currentColor">
<tspan>3</tspan>
</text>
</g>
</a>
<a style="color:inherit;" xlink:href="textedit:///Users/marc.mouries/projects/Sheet-Music/Practice/MyViolinPracticeBook/Violin-Practice-Book.ly:352:2:3">
<g transform="translate(82.6764, 129.1846)">
<path transform="scale(0.0040, -0.0040)" d="M218 136c66 0 108 -36 108 -89c0 -89 -113 -183 -218 -183c-66 0 -108 36 -108 89c0 89 113 183 218 183z" fill="currentColor"/>
</g>
</a>
<g transform="translate(82.7394, 133.5846)">
<rect x="-0.0630" y="-4.2139" width="0.1259" height="4.4354" ry="0.0381" fill="currentColor"/>
</g>
<g transform="translate(81.2264, 129.1846)">
<path transform="scale(0.0040, -0.0040)" d="M0 119c0 8 5 15 13 18l46 17v158c0 10 8 19 18 19s19 -9 19 -19v-145l83 31v158c0 10 9 19 19 19s18 -9 18 -19v-145l32 12c2 1 5 1 7 1c11 0 20 -9 20 -20v-60c0 -8 -5 -16 -13 -19l-46 -16v-160l32 11c2 1 5 1 7 1c11 0 20 -9 20 -20v-60c0 -8 -5 -15 -13 -18l-46 -17
v-158c0 -10 -8 -19 -18 -19s-19 9 -19 19v145l-83 -31v-158c0 -10 -9 -19 -19 -19s-18 9 -18 19v145l-32 -12c-2 -1 -5 -1 -7 -1c-11 0 -20 9 -20 20v60c0 8 5 16 13 19l46 16v160l-32 -11c-2 -1 -5 -1 -7 -1c-11 0 -20 9 -20 20v60zM179 95l-83 -30v-160l83 30v160z" fill="currentColor"/>
</g>
<a style="color:inherit;" xlink:href="textedit:///Users/marc.mouries/projects/Sheet-Music/Practice/MyViolinPracticeBook/Violin-Practice-Book.ly:336:6:7">
</a>
<a style="color:inherit;" xlink:href="textedit:///Users/marc.mouries/projects/Sheet-Music/Practice/MyViolinPracticeBook/Violin-Practice-Book.ly:352:6:7">
<g transform="translate(86.1846, 130.2846)">
<path transform="scale(0.0040, -0.0040)" d="M218 136c66 0 108 -36 108 -89c0 -89 -113 -183 -218 -183c-66 0 -108 36 -108 89c0 89 113 183 218 183z" fill="currentColor"/>
</g>
</a>
<g transform="translate(86.2475, 133.5846)">
<rect x="-0.0630" y="-3.1139" width="0.1259" height="3.6639" ry="0.0381" fill="currentColor"/>
</g>
<g transform="translate(84.7346, 130.2846)">
<path transform="scale(0.0040, -0.0040)" d="M0 119c0 8 5 15 13 18l46 17v158c0 10 8 19 18 19s19 -9 19 -19v-145l83 31v158c0 10 9 19 19 19s18 -9 18 -19v-145l32 12c2 1 5 1 7 1c11 0 20 -9 20 -20v-60c0 -8 -5 -16 -13 -19l-46 -16v-160l32 11c2 1 5 1 7 1c11 0 20 -9 20 -20v-60c0 -8 -5 -15 -13 -18l-46 -17
v-158c0 -10 -8 -19 -18 -19s-19 9 -19 19v145l-83 -31v-158c0 -10 -9 -19 -19 -19s-18 9 -18 19v145l-32 -12c-2 -1 -5 -1 -7 -1c-11 0 -20 9 -20 20v60c0 8 5 16 13 19l46 16v160l-32 -11c-2 -1 -5 -1 -7 -1c-11 0 -20 9 -20 20v60zM179 95l-83 -30v-160l83 30v160z" fill="currentColor"/>
</g>
<a style="color:inherit;" xlink:href="textedit:///Users/marc.mouries/projects/Sheet-Music/Practice/MyViolinPracticeBook/Violin-Practice-Book.ly:352:10:11">
<g transform="translate(89.6927, 131.3846)">
<path transform="scale(0.0040, -0.0040)" d="M218 136c66 0 108 -36 108 -89c0 -89 -113 -183 -218 -183c-66 0 -108 36 -108 89c0 89 113 183 218 183z" fill="currentColor"/>
</g>
</a>
<g transform="translate(89.7557, 133.5846)">
<rect x="-0.0630" y="-2.0139" width="0.1259" height="2.8924" ry="0.0381" fill="currentColor"/>
</g>
<g transform="translate(88.2427, 131.3846)">
<path transform="scale(0.0040, -0.0040)" d="M0 119c0 8 5 15 13 18l46 17v158c0 10 8 19 18 19s19 -9 19 -19v-145l83 31v158c0 10 9 19 19 19s18 -9 18 -19v-145l32 12c2 1 5 1 7 1c11 0 20 -9 20 -20v-60c0 -8 -5 -16 -13 -19l-46 -16v-160l32 11c2 1 5 1 7 1c11 0 20 -9 20 -20v-60c0 -8 -5 -15 -13 -18l-46 -17
v-158c0 -10 -8 -19 -18 -19s-19 9 -19 19v145l-83 -31v-158c0 -10 -9 -19 -19 -19s-18 9 -18 19v145l-32 -12c-2 -1 -5 -1 -7 -1c-11 0 -20 9 -20 20v60c0 8 5 16 13 19l46 16v160l-32 -11c-2 -1 -5 -1 -7 -1c-11 0 -20 9 -20 20v60zM179 95l-83 -30v-160l83 30v160z" fill="currentColor"/>
</g>
<a style="color:inherit;" xlink:href="textedit:///Users/marc.mouries/projects/Sheet-Music/Practice/MyViolinPracticeBook/Violin-Practice-Book.ly:353:2:3">
<g transform="translate(92.6009, 130.2846)">
<path transform="scale(0.0040, -0.0040)" d="M218 136c66 0 108 -36 108 -89c0 -89 -113 -183 -218 -183c-66 0 -108 36 -108 89c0 89 113 183 218 183z" fill="currentColor"/>
</g>
</a>
<g transform="translate(92.6639, 133.5846)">
<rect x="-0.0630" y="-3.1139" width="0.1259" height="4.0143" ry="0.0381" fill="currentColor"/>
</g>
<a style="color:inherit;" xlink:href="textedit:///Users/marc.mouries/projects/Sheet-Music/Practice/MyViolinPracticeBook/Violin-Practice-Book.ly:353:6:7">
<g transform="translate(95.0091, 131.3846)">
<path transform="scale(0.0040, -0.0040)" d="M218 136c66 0 108 -36 108 -89c0 -89 -113 -183 -218 -183c-66 0 -108 36 -108 89c0 89 113 183 218 183z" fill="currentColor"/>
</g>
</a>
<g transform="translate(95.0720, 133.5846)">
<rect x="-0.0630" y="-2.0139" width="0.1259" height="3.5245" ry="0.0381" fill="currentColor"/>
</g>
<a style="color:inherit;" xlink:href="textedit:///Users/marc.mouries/projects/Sheet-Music/Practice/MyViolinPracticeBook/Violin-Practice-Book.ly:353:10:11">
<g transform="translate(98.5172, 133.0346)">
<path transform="scale(0.0040, -0.0040)" d="M218 136c66 0 108 -36 108 -89c0 -89 -113 -183 -218 -183c-66 0 -108 36 -108 89c0 89 113 183 218 183z" fill="currentColor"/>
</g>
</a>
<g transform="translate(98.5802, 133.5846)">
<rect x="-0.0630" y="-0.3639" width="0.1259" height="2.7635" ry="0.0381" fill="currentColor"/>
</g>
<g transform="translate(97.0672, 133.0346)">
<path transform="scale(0.0040, -0.0040)" d="M0 119c0 8 5 15 13 18l46 17v158c0 10 8 19 18 19s19 -9 19 -19v-145l83 31v158c0 10 9 19 19 19s18 -9 18 -19v-145l32 12c2 1 5 1 7 1c11 0 20 -9 20 -20v-60c0 -8 -5 -16 -13 -19l-46 -16v-160l32 11c2 1 5 1 7 1c11 0 20 -9 20 -20v-60c0 -8 -5 -15 -13 -18l-46 -17
v-158c0 -10 -8 -19 -18 -19s-19 9 -19 19v145l-83 -31v-158c0 -10 -9 -19 -19 -19s-18 9 -18 19v145l-32 -12c-2 -1 -5 -1 -7 -1c-11 0 -20 9 -20 20v60c0 8 5 16 13 19l46 16v160l-32 -11c-2 -1 -5 -1 -7 -1c-11 0 -20 9 -20 20v60zM179 95l-83 -30v-160l83 30v160z" fill="currentColor"/>
</g>
<g transform="translate(10.8391, 145.1207)">
<rect x="84.2108" y="-0.1034" width="1.9500" height="0.2069" ry="0.1034" fill="currentColor"/>
</g>
<g transform="translate(10.8391, 146.2207)">
<rect x="84.2108" y="-0.1034" width="1.9500" height="0.2069" ry="0.1034" fill="currentColor"/>
</g>
<g transform="translate(10.8391, 147.3207)">
<rect x="84.2108" y="-0.1034" width="1.9500" height="0.2069" ry="0.1034" fill="currentColor"/>
</g>
<g transform="translate(10.8391, 142.9207)">
<rect x="72.6590" y="-0.1034" width="1.9500" height="0.2069" ry="0.1034" fill="currentColor"/>
</g>
<g transform="translate(10.8391, 144.0207)">
<rect x="72.6590" y="-0.1034" width="1.9500" height="0.2069" ry="0.1034" fill="currentColor"/>
</g>
<g transform="translate(10.8391, 145.1207)">
<rect x="72.6590" y="-0.1034" width="1.9500" height="0.2069" ry="0.1034" fill="currentColor"/>
</g>
<g transform="translate(10.8391, 146.2207)">
<rect x="72.6590" y="-0.1034" width="1.9500" height="0.2069" ry="0.1034" fill="currentColor"/>
</g>
<g transform="translate(10.8391, 147.3207)">
<rect x="72.6590" y="-0.1034" width="1.9500" height="0.2069" ry="0.1034" fill="currentColor"/>
</g>
<g transform="translate(10.8391, 145.1207)">
<rect x="62.6890" y="-0.1034" width="1.8053" height="0.2069" ry="0.1034" fill="currentColor"/>
</g>
<g transform="translate(10.8391, 146.2207)">
<rect x="62.5379" y="-0.1034" width="1.9563" height="0.2069" ry="0.1034" fill="currentColor"/>
</g>
<g transform="translate(10.8391, 147.3207)">
<rect x="62.5379" y="-0.1034" width="1.9563" height="0.2069" ry="0.1034" fill="currentColor"/>
</g>
<g transform="translate(10.8391, 146.2207)">
<rect x="55.0879" y="-0.1034" width="1.8053" height="0.2069" ry="0.1034" fill="currentColor"/>
</g>
<g transform="translate(10.8391, 147.3207)">
<rect x="54.9368" y="-0.1034" width="1.9563" height="0.2069" ry="0.1034" fill="currentColor"/>
</g>
<g transform="translate(10.8391, 145.1207)">
<rect x="45.8168" y="-0.1034" width="1.9563" height="0.2069" ry="0.1034" fill="currentColor"/>
</g>
<g transform="translate(10.8391, 146.2207)">
<rect x="45.8168" y="-0.1034" width="1.9563" height="0.2069" ry="0.1034" fill="currentColor"/>
</g>
<g transform="translate(10.8391, 147.3207)">
<rect x="45.8168" y="-0.1034" width="1.9563" height="0.2069" ry="0.1034" fill="currentColor"/>
</g>
<g transform="translate(10.8391, 145.1207)">
<rect x="38.3667" y="-0.1034" width="1.8053" height="0.2069" ry="0.1034" fill="currentColor"/>
</g>
<g transform="translate(10.8391, 146.2207)">
<rect x="38.2157" y="-0.1034" width="1.9563" height="0.2069" ry="0.1034" fill="currentColor"/>
</g>
<g transform="translate(10.8391, 147.3207)">
<rect x="38.2157" y="-0.1034" width="1.9563" height="0.2069" ry="0.1034" fill="currentColor"/>
</g>
<g transform="translate(10.8391, 146.2207)">
<rect x="31.5398" y="-0.1034" width="1.8053" height="0.2069" ry="0.1034" fill="currentColor"/>
</g>
<g transform="translate(10.8391, 147.3207)">
<rect x="31.3887" y="-0.1034" width="1.9563" height="0.2069" ry="0.1034" fill="currentColor"/>
</g>
<g transform="translate(10.8391, 147.3207)">
<rect x="22.5137" y="-0.1034" width="1.8053" height="0.2069" ry="0.1034" fill="currentColor"/>
</g>
<g transform="translate(10.8391, 147.3207)">
<rect x="14.5000" y="-0.1034" width="1.9563" height="0.2069" ry="0.1034" fill="currentColor"/>
</g>
<g transform="translate(10.8391, 146.2207)">
<rect x="5.6250" y="-0.1034" width="1.8053" height="0.2069" ry="0.1034" fill="currentColor"/>
</g>
<g transform="translate(10.8391, 147.3207)">
<rect x="5.4739" y="-0.1034" width="1.9563" height="0.2069" ry="0.1034" fill="currentColor"/>
</g>
<g transform="translate(10.8391, 152.8207)">
<line stroke-linejoin="round" stroke-linecap="round" stroke-width="0.0969" stroke="currentColor" x1="0.0484" y1="0" x2="92.0843" y2="0"/>
</g>
<g transform="translate(10.8391, 151.7207)">
<line stroke-linejoin="round" stroke-linecap="round" stroke-width="0.0969" stroke="currentColor" x1="0.0484" y1="0" x2="92.0843" y2="0"/>
</g>
<g transform="translate(10.8391, 150.6207)">
<line stroke-linejoin="round" stroke-linecap="round" stroke-width="0.0969" stroke="currentColor" x1="0.0484" y1="0" x2="92.0843" y2="0"/>
</g>
<g transform="translate(10.8391, 149.5207)">
<line stroke-linejoin="round" stroke-linecap="round" stroke-width="0.0969" stroke="currentColor" x1="0.0484" y1="0" x2="92.0843" y2="0"/>
</g>
<g transform="translate(10.8391, 148.4207)">
<line stroke-linejoin="round" stroke-linecap="round" stroke-width="0.0969" stroke="currentColor" x1="0.0484" y1="0" x2="92.0843" y2="0"/>
</g>
<g transform="translate(93.7132, 150.6207)">
<rect x="0.0000" y="-2.2000" width="0.1841" height="4.4000" ry="0.0000" fill="currentColor"/>
</g>
<g transform="translate(81.1613, 150.6207)">
<rect x="0.0000" y="-2.2000" width="0.1841" height="4.4000" ry="0.0000" fill="currentColor"/>
</g>
<g transform="translate(64.4402, 150.6207)">
<rect x="0.0000" y="-2.2000" width="0.1841" height="4.4000" ry="0.0000" fill="currentColor"/>
</g>
<g transform="translate(47.7190, 150.6207)">
<rect x="0.0000" y="-2.2000" width="0.1841" height="4.4000" ry="0.0000" fill="currentColor"/>
</g>
<g transform="translate(30.8303, 150.6207)">
<rect x="0.0000" y="-2.2000" width="0.1841" height="4.4000" ry="0.0000" fill="currentColor"/>
</g>
<g transform="translate(11.6391, 151.7207)">
<path transform="scale(0.0040, -0.0040)" d="M266 -635h-6c-108 0 -195 88 -195 197c0 58 53 103 112 103c54 0 95 -47 95 -103c0 -52 -43 -95 -95 -95c-11 0 -21 2 -31 6c26 -39 68 -65 117 -65h4zM461 -203c68 24 113 90 113 164c0 90 -66 179 -173 190c19 -89 48 -242 60 -354zM74 28c0 -145 141 -247 264 -247
c1 0 47 0 82 6c-7 64 -29 203 -63 364c-79 -8 -124 -61 -124 -119c0 -44 25 -91 81 -123c5 -5 7 -10 7 -15c0 -11 -10 -22 -22 -22c-15 0 -126 62 -126 187c0 88 58 174 160 197c-14 58 -29 117 -46 175c-107 -121 -213 -243 -213 -403zM250 553c-29 96 -52 170 -52 346
c0 115 55 224 149 292c6 5 14 5 20 0c68 -80 133 -245 133 -358c0 -143 -86 -255 -180 -364c21 -68 39 -138 56 -207c2 0 7 1 13 1c155 0 256 -128 256 -261c0 -113 -74 -212 -180 -246c3 -35 5 -70 5 -105c0 -19 -1 -39 -2 -58c-7 -119 -88 -225 -202 -228l1 43
c93 2 153 92 159 191c1 18 2 37 2 55c0 31 -1 61 -4 92c-5 -1 -44 -8 -89 -8c-193 0 -333 180 -333 374c0 177 131 306 248 441zM428 916c0 34 1 66 -20 129c-99 -48 -162 -149 -162 -259c0 -52 12 -115 36 -194c80 97 146 198 146 324z" fill="currentColor"/>
</g>
<g transform="translate(9.9612, 147.3519)">
<text font-family="serif" font-size="1.7460" text-anchor="start" fill="currentColor">
<tspan>5</tspan>
</text>
</g>
<a style="color:inherit;" xlink:href="textedit:///Users/marc.mouries/projects/Sheet-Music/Practice/MyViolinPracticeBook/Violin-Practice-Book.ly:364:6:7">
<g transform="translate(94.5750, 142.9531)">
<text font-family="serif" font-weight="bold" font-style="italic" font-size="2.2001" text-anchor="start" fill="currentColor">
<tspan>8</tspan>
</text>
</g>
<g transform="translate(95.9806, 142.2248)">
<line stroke-linejoin="round" stroke-linecap="round" stroke-width="0.0969" stroke="currentColor" x1="1.2944" y1="-0.0000" x2="1.2944" y2="0.8000"/>
</g>
<g transform="translate(95.9806, 142.2248)">
<line stroke-linejoin="round" stroke-linecap="round" stroke-width="0.0969" stroke="currentColor" x1="0.0000" y1="-0.0000" x2="0.0000" y2="-0.0000"/>
</g>
<g transform="translate(95.9806, 142.2248)">
<line stroke-linejoin="round" stroke-linecap="round" stroke-width="0.0969" stroke="currentColor" x1="0" y1="0" x2="1.2944" y2="-0.0000" stroke-dasharray="0.29871027671541056,0.6969906456692914"/>
</g>
</a>
<a style="color:inherit;" xlink:href="textedit:///Users/marc.mouries/projects/Sheet-Music/Practice/MyViolinPracticeBook/Violin-Practice-Book.ly:361:6:7">
<g transform="translate(16.6391, 146.2207)">
<path transform="scale(0.0040, -0.0040)" d="M218 136c66 0 108 -36 108 -89c0 -89 -113 -183 -218 -183c-66 0 -108 36 -108 89c0 89 113 183 218 183z" fill="currentColor"/>
</g>
</a>
<a style="color:inherit;" xlink:href="textedit:///Users/marc.mouries/projects/Sheet-Music/Practice/MyViolinPracticeBook/Violin-Practice-Book.ly:361:11:12">
<g transform="translate(16.9010, 144.7095)">
<path transform="scale(0.0022, -0.0022)" d="M261 266c0 -54 85 -40 85 -125c0 -94 -83 -141 -186 -141c-84 0 -160 54 -160 133c0 32 26 58 58 58s58 -26 58 -58c0 -22 -36 -26 -36 -48c0 -33 42 -42 80 -42c41 0 56 50 56 98v21c0 44 -2 77 -43 77h-65c-18 0 -27 14 -27 27s9 27 27 27h65c42 0 43 36 43 83v11
c0 43 -20 70 -61 70c-34 0 -71 -8 -71 -38c0 -19 32 -23 32 -42c0 -28 -23 -51 -51 -51s-51 23 -51 51c0 72 66 123 141 123c93 0 174 -31 174 -113c0 -94 -68 -67 -68 -121z" fill="currentColor"/>
</g>
</a>
<g transform="translate(18.3934, 145.6707)">
<path transform="scale(0.0040, -0.0040)" d="M0 0c0 31 25 56 56 56s56 -25 56 -56s-25 -56 -56 -56s-56 25 -56 56z" fill="currentColor"/>
</g>
<g transform="translate(16.7021, 150.6207)">
<rect x="-0.0630" y="-4.2139" width="0.1259" height="4.2139" ry="0.0381" fill="currentColor"/>
</g>
<g transform="translate(15.1891, 146.2207)">
<path transform="scale(0.0040, -0.0040)" d="M0 119c0 8 5 15 13 18l46 17v158c0 10 8 19 18 19s19 -9 19 -19v-145l83 31v158c0 10 9 19 19 19s18 -9 18 -19v-145l32 12c2 1 5 1 7 1c11 0 20 -9 20 -20v-60c0 -8 -5 -16 -13 -19l-46 -16v-160l32 11c2 1 5 1 7 1c11 0 20 -9 20 -20v-60c0 -8 -5 -15 -13 -18l-46 -17
v-158c0 -10 -8 -19 -18 -19s-19 9 -19 19v145l-83 -31v-158c0 -10 -9 -19 -19 -19s-18 9 -18 19v145l-32 -12c-2 -1 -5 -1 -7 -1c-11 0 -20 9 -20 20v60c0 8 5 16 13 19l46 16v160l-32 -11c-2 -1 -5 -1 -7 -1c-11 0 -20 9 -20 20v60zM179 95l-83 -30v-160l83 30v160z" fill="currentColor"/>
</g>
<a style="color:inherit;" xlink:href="textedit:///Users/marc.mouries/projects/Sheet-Music/Practice/MyViolinPracticeBook/Violin-Practice-Book.ly:361:13:14">
<g transform="translate(16.6391, 150.6207)">
<path stroke-width="0.0775" stroke-linejoin="round" stroke-linecap="round" stroke="currentColor" fill="currentColor" d="M0.6785 -5.4950C2.5195 -6.8669 8.0438 -6.5302 9.7046 -4.9450L9.7046 -4.9450C8.0367 -6.4142 2.5124 -6.7508 0.6785 -5.4950z"/>
</g>
</a>
<a style="color:inherit;" xlink:href="textedit:///Users/marc.mouries/projects/Sheet-Music/Practice/MyViolinPracticeBook/Violin-Practice-Book.ly:361:15:16">
<g transform="translate(25.6652, 146.7707)">
<path transform="scale(0.0040, -0.0040)" d="M218 136c66 0 108 -36 108 -89c0 -89 -113 -183 -218 -183c-66 0 -108 36 -108 89c0 89 113 183 218 183z" fill="currentColor"/>
</g>
</a>
<g transform="translate(25.7282, 150.6207)">
<rect x="-0.0630" y="-3.6639" width="0.1259" height="3.6639" ry="0.0381" fill="currentColor"/>
</g>
<g transform="translate(25.7911, 150.5827)">
<path transform="scale(0.0040, -0.0040)" d="M0 0h-16v250h16v-250zM0 0v250c97 59 224 148 224 259c0 57 -15 112 -40 163c-3 16 10 27 23 27c7 0 15 -3 20 -11c25 -56 40 -117 40 -179c0 -203 -267 -306 -267 -509z" fill="currentColor"/>
</g>
<a style="color:inherit;" xlink:href="textedit:///Users/marc.mouries/projects/Sheet-Music/Practice/MyViolinPracticeBook/Violin-Practice-Book.ly:362:6:7">
<g transform="translate(33.5279, 147.3207)">
<path transform="scale(0.0040, -0.0040)" d="M218 136c66 0 108 -36 108 -89c0 -89 -113 -183 -218 -183c-66 0 -108 36 -108 89c0 89 113 183 218 183z" fill="currentColor"/>
</g>
</a>
<g transform="translate(35.2821, 146.7707)">
<path transform="scale(0.0040, -0.0040)" d="M0 0c0 31 25 56 56 56s56 -25 56 -56s-25 -56 -56 -56s-56 25 -56 56z" fill="currentColor"/>
</g>
<g transform="translate(33.5908, 150.6207)">
<rect x="-0.0630" y="-3.1139" width="0.1259" height="3.6639" ry="0.0381" fill="currentColor"/>
</g>
<g transform="translate(32.0779, 147.3207)">
<path transform="scale(0.0040, -0.0040)" d="M0 119c0 8 5 15 13 18l46 17v158c0 10 8 19 18 19s19 -9 19 -19v-145l83 31v158c0 10 9 19 19 19s18 -9 18 -19v-145l32 12c2 1 5 1 7 1c11 0 20 -9 20 -20v-60c0 -8 -5 -16 -13 -19l-46 -16v-160l32 11c2 1 5 1 7 1c11 0 20 -9 20 -20v-60c0 -8 -5 -15 -13 -18l-46 -17
v-158c0 -10 -8 -19 -18 -19s-19 9 -19 19v145l-83 -31v-158c0 -10 -9 -19 -19 -19s-18 9 -18 19v145l-32 -12c-2 -1 -5 -1 -7 -1c-11 0 -20 9 -20 20v60c0 8 5 16 13 19l46 16v160l-32 -11c-2 -1 -5 -1 -7 -1c-11 0 -20 9 -20 20v60zM179 95l-83 -30v-160l83 30v160z" fill="currentColor"/>
</g>
<a style="color:inherit;" xlink:href="textedit:///Users/marc.mouries/projects/Sheet-Music/Practice/MyViolinPracticeBook/Violin-Practice-Book.ly:362:13:14">
<g transform="translate(42.5539, 146.2207)">
<path transform="scale(0.0040, -0.0040)" d="M218 136c66 0 108 -36 108 -89c0 -89 -113 -183 -218 -183c-66 0 -108 36 -108 89c0 89 113 183 218 183z" fill="currentColor"/>
</g>
</a>
<a style="color:inherit;" xlink:href="textedit:///Users/marc.mouries/projects/Sheet-Music/Practice/MyViolinPracticeBook/Violin-Practice-Book.ly:362:16:17">
<g transform="translate(42.7995, 145.1257)">
<path transform="scale(0.0022, -0.0022)" d="M194 486c16 0 29 15 41 15c13 0 24 -13 24 -31v-341c0 -47 35 -86 81 -86c14 0 21 -10 21 -21s-7 -22 -21 -22c-49 0 -97 14 -146 14s-96 -14 -145 -14c-14 0 -22 11 -22 22s8 21 22 21c46 0 80 39 80 86v137c0 23 -16 35 -30 35c-7 0 -13 -4 -17 -11l-34 -65
c-5 -10 -14 -15 -23 -15c-14 0 -28 12 -28 27c0 4 1 8 3 13l129 250c2 4 7 6 11 6c18 0 37 -20 54 -20z" fill="currentColor"/>
</g>
</a>
<g transform="translate(42.6169, 150.6207)">
<rect x="-0.0630" y="-4.2139" width="0.1259" height="4.2139" ry="0.0381" fill="currentColor"/>
</g>
<g transform="translate(42.6798, 150.5827)">
<path transform="scale(0.0040, -0.0040)" d="M0 0h-16v250h16v-250zM0 0v250c97 59 224 148 224 259c0 57 -15 112 -40 163c-3 16 10 27 23 27c7 0 15 -3 20 -11c25 -56 40 -117 40 -179c0 -203 -267 -306 -267 -509z" fill="currentColor"/>
</g>
<g transform="translate(41.1039, 146.2207)">
<path transform="scale(0.0040, -0.0040)" d="M0 119c0 8 5 15 13 18l46 17v158c0 10 8 19 18 19s19 -9 19 -19v-145l83 31v158c0 10 9 19 19 19s18 -9 18 -19v-145l32 12c2 1 5 1 7 1c11 0 20 -9 20 -20v-60c0 -8 -5 -16 -13 -19l-46 -16v-160l32 11c2 1 5 1 7 1c11 0 20 -9 20 -20v-60c0 -8 -5 -15 -13 -18l-46 -17
v-158c0 -10 -8 -19 -18 -19s-19 9 -19 19v145l-83 -31v-158c0 -10 -9 -19 -19 -19s-18 9 -18 19v145l-32 -12c-2 -1 -5 -1 -7 -1c-11 0 -20 9 -20 20v60c0 8 5 16 13 19l46 16v160l-32 -11c-2 -1 -5 -1 -7 -1c-11 0 -20 9 -20 20v60zM179 95l-83 -30v-160l83 30v160z" fill="currentColor"/>
</g>
<a style="color:inherit;" xlink:href="textedit:///Users/marc.mouries/projects/Sheet-Music/Practice/MyViolinPracticeBook/Violin-Practice-Book.ly:362:19:20">
<g transform="translate(49.3809, 144.5707)">
<path transform="scale(0.0040, -0.0040)" d="M218 136c66 0 108 -36 108 -89c0 -89 -113 -183 -218 -183c-66 0 -108 36 -108 89c0 89 113 183 218 183z" fill="currentColor"/>
</g>
</a>
<a style="color:inherit;" xlink:href="textedit:///Users/marc.mouries/projects/Sheet-Music/Practice/MyViolinPracticeBook/Violin-Practice-Book.ly:362:22:23">
<g transform="translate(49.6428, 143.4757)">
<path transform="scale(0.0022, -0.0022)" d="M261 266c0 -54 85 -40 85 -125c0 -94 -83 -141 -186 -141c-84 0 -160 54 -160 133c0 32 26 58 58 58s58 -26 58 -58c0 -22 -36 -26 -36 -48c0 -33 42 -42 80 -42c41 0 56 50 56 98v21c0 44 -2 77 -43 77h-65c-18 0 -27 14 -27 27s9 27 27 27h65c42 0 43 36 43 83v11
c0 43 -20 70 -61 70c-34 0 -71 -8 -71 -38c0 -19 32 -23 32 -42c0 -28 -23 -51 -51 -51s-51 23 -51 51c0 72 66 123 141 123c93 0 174 -31 174 -113c0 -94 -68 -67 -68 -121z" fill="currentColor"/>
</g>
</a>
<g transform="translate(49.4438, 150.6207)">
<rect x="-0.0630" y="-5.8639" width="0.1259" height="5.8639" ry="0.0381" fill="currentColor"/>
</g>
<g transform="translate(47.9309, 144.5707)">
<path transform="scale(0.0040, -0.0040)" d="M0 119c0 8 5 15 13 18l46 17v158c0 10 8 19 18 19s19 -9 19 -19v-145l83 31v158c0 10 9 19 19 19s18 -9 18 -19v-145l32 12c2 1 5 1 7 1c11 0 20 -9 20 -20v-60c0 -8 -5 -16 -13 -19l-46 -16v-160l32 11c2 1 5 1 7 1c11 0 20 -9 20 -20v-60c0 -8 -5 -15 -13 -18l-46 -17
v-158c0 -10 -8 -19 -18 -19s-19 9 -19 19v145l-83 -31v-158c0 -10 -9 -19 -19 -19s-18 9 -18 19v145l-32 -12c-2 -1 -5 -1 -7 -1c-11 0 -20 9 -20 20v60c0 8 5 16 13 19l46 16v160l-32 -11c-2 -1 -5 -1 -7 -1c-11 0 -20 9 -20 20v60zM179 95l-83 -30v-160l83 30v160z" fill="currentColor"/>
</g>
<a style="color:inherit;" xlink:href="textedit:///Users/marc.mouries/projects/Sheet-Music/Practice/MyViolinPracticeBook/Violin-Practice-Book.ly:363:7:8">
<g transform="translate(56.9819, 145.1207)">
<path transform="scale(0.0040, -0.0040)" d="M218 136c66 0 108 -36 108 -89c0 -89 -113 -183 -218 -183c-66 0 -108 36 -108 89c0 89 113 183 218 183z" fill="currentColor"/>
</g>
</a>
<a style="color:inherit;" xlink:href="textedit:///Users/marc.mouries/projects/Sheet-Music/Practice/MyViolinPracticeBook/Violin-Practice-Book.ly:363:8:9">
<g transform="translate(57.2113, 142.4697)">
<path transform="scale(0.0022, -0.0022)" d="M94 66c-60 0 -39 -66 -72 -66c-11 0 -22 7 -22 21c0 154 232 162 232 334c0 50 -17 102 -61 102c-33 0 -66 -14 -66 -44c0 -24 31 -37 31 -61c0 -34 -27 -61 -61 -61s-61 27 -61 61c0 84 72 148 157 148c98 0 190 -55 190 -145c0 -140 -131 -154 -225 -205
c85 -2 113 -61 165 -61c45 0 28 41 57 41c11 0 22 -8 22 -21c0 -29 -48 -109 -144 -109c-92 0 -96 66 -142 66z" fill="currentColor"/>
</g>
</a>
<a style="color:inherit;" xlink:href="textedit:///Users/marc.mouries/projects/Sheet-Music/Practice/MyViolinPracticeBook/Violin-Practice-Book.ly:363:10:11">
<g transform="translate(57.6341, 143.6877)">
<path transform="scale(0.0040, -0.0040)" d="M20 -147c0 -11 -9 -20 -20 -20s-20 9 -20 20v81l-33 -50c-4 -6 -10 -9 -17 -9c-6 0 -11 2 -15 7l-99 119c-37 -56 -36 -56 -47 -56s-20 9 -20 20c0 6 0 6 96 151c4 6 10 9 17 9c6 0 11 -2 15 -7l98 -119l5 7v141c0 11 9 20 20 20s20 -9 20 -20v-81l33 50c4 6 10 9 17 9
c6 0 11 -2 15 -7l99 -119l8 12l33 -22l-70 -105c-4 -6 -10 -9 -17 -9c-6 0 -11 2 -15 7l-98 119l-5 -7v-141zM215 46c4 6 9 9 16 9c11 0 20 -9 20 -20c0 -4 -1 -8 -3 -11l-23 -35l-33 22z" fill="currentColor"/>
</g>
</a>
<g transform="translate(57.0449, 150.6207)">
<rect x="-0.0630" y="-5.3139" width="0.1259" height="5.3139" ry="0.0381" fill="currentColor"/>
</g>
<a style="color:inherit;" xlink:href="textedit:///Users/marc.mouries/projects/Sheet-Music/Practice/MyViolinPracticeBook/Violin-Practice-Book.ly:363:19:20">
<g transform="translate(66.1020, 145.6707)">
<path transform="scale(0.0040, -0.0040)" d="M218 136c66 0 108 -36 108 -89c0 -89 -113 -183 -218 -183c-66 0 -108 36 -108 89c0 89 113 183 218 183z" fill="currentColor"/>
</g>
</a>
<a style="color:inherit;" xlink:href="textedit:///Users/marc.mouries/projects/Sheet-Music/Practice/MyViolinPracticeBook/Violin-Practice-Book.ly:363:21:22">
<g transform="translate(66.3477, 144.5757)">
<path transform="scale(0.0022, -0.0022)" d="M194 486c16 0 29 15 41 15c13 0 24 -13 24 -31v-341c0 -47 35 -86 81 -86c14 0 21 -10 21 -21s-7 -22 -21 -22c-49 0 -97 14 -146 14s-96 -14 -145 -14c-14 0 -22 11 -22 22s8 21 22 21c46 0 80 39 80 86v137c0 23 -16 35 -30 35c-7 0 -13 -4 -17 -11l-34 -65
c-5 -10 -14 -15 -23 -15c-14 0 -28 12 -28 27c0 4 1 8 3 13l129 250c2 4 7 6 11 6c18 0 37 -20 54 -20z" fill="currentColor"/>
</g>
</a>
<g transform="translate(66.1650, 150.6207)">
<rect x="-0.0630" y="-4.7639" width="0.1259" height="4.7639" ry="0.0381" fill="currentColor"/>
</g>
<g transform="translate(64.6520, 145.6707)">
<path transform="scale(0.0040, -0.0040)" d="M0 119c0 8 5 15 13 18l46 17v158c0 10 8 19 18 19s19 -9 19 -19v-145l83 31v158c0 10 9 19 19 19s18 -9 18 -19v-145l32 12c2 1 5 1 7 1c11 0 20 -9 20 -20v-60c0 -8 -5 -16 -13 -19l-46 -16v-160l32 11c2 1 5 1 7 1c11 0 20 -9 20 -20v-60c0 -8 -5 -15 -13 -18l-46 -17
v-158c0 -10 -8 -19 -18 -19s-19 9 -19 19v145l-83 -31v-158c0 -10 -9 -19 -19 -19s-18 9 -18 19v145l-32 -12c-2 -1 -5 -1 -7 -1c-11 0 -20 9 -20 20v60c0 8 5 16 13 19l46 16v160l-32 -11c-2 -1 -5 -1 -7 -1c-11 0 -20 9 -20 20v60zM179 95l-83 -30v-160l83 30v160z" fill="currentColor"/>
</g>
<a style="color:inherit;" xlink:href="textedit:///Users/marc.mouries/projects/Sheet-Music/Practice/MyViolinPracticeBook/Violin-Practice-Book.ly:363:24:25">
<g transform="translate(73.7031, 144.5707)">
<path transform="scale(0.0040, -0.0040)" d="M218 136c66 0 108 -36 108 -89c0 -89 -113 -183 -218 -183c-66 0 -108 36 -108 89c0 89 113 183 218 183z" fill="currentColor"/>
</g>
</a>
<a style="color:inherit;" xlink:href="textedit:///Users/marc.mouries/projects/Sheet-Music/Practice/MyViolinPracticeBook/Violin-Practice-Book.ly:363:28:29">
<g transform="translate(73.9650, 154.5417)">
<path transform="scale(0.0022, -0.0022)" d="M261 266c0 -54 85 -40 85 -125c0 -94 -83 -141 -186 -141c-84 0 -160 54 -160 133c0 32 26 58 58 58s58 -26 58 -58c0 -22 -36 -26 -36 -48c0 -33 42 -42 80 -42c41 0 56 50 56 98v21c0 44 -2 77 -43 77h-65c-18 0 -27 14 -27 27s9 27 27 27h65c42 0 43 36 43 83v11
c0 43 -20 70 -61 70c-34 0 -71 -8 -71 -38c0 -19 32 -23 32 -42c0 -28 -23 -51 -51 -51s-51 23 -51 51c0 72 66 123 141 123c93 0 174 -31 174 -113c0 -94 -68 -67 -68 -121z" fill="currentColor"/>
</g>
</a>
<a style="color:inherit;" xlink:href="textedit:///Users/marc.mouries/projects/Sheet-Music/Practice/MyViolinPracticeBook/Violin-Practice-Book.ly:363:26:27">
<g transform="translate(73.9487, 143.4757)">
<path transform="scale(0.0022, -0.0022)" d="M194 486c16 0 29 15 41 15c13 0 24 -13 24 -31v-341c0 -47 35 -86 81 -86c14 0 21 -10 21 -21s-7 -22 -21 -22c-49 0 -97 14 -146 14s-96 -14 -145 -14c-14 0 -22 11 -22 22s8 21 22 21c46 0 80 39 80 86v137c0 23 -16 35 -30 35c-7 0 -13 -4 -17 -11l-34 -65
c-5 -10 -14 -15 -23 -15c-14 0 -28 12 -28 27c0 4 1 8 3 13l129 250c2 4 7 6 11 6c18 0 37 -20 54 -20z" fill="currentColor"/>
</g>
</a>
<g transform="translate(73.7661, 150.6207)">
<rect x="-0.0630" y="-5.8639" width="0.1259" height="5.8639" ry="0.0381" fill="currentColor"/>
</g>
<g transform="translate(72.2531, 144.5707)">
<path transform="scale(0.0040, -0.0040)" d="M0 119c0 8 5 15 13 18l46 17v158c0 10 8 19 18 19s19 -9 19 -19v-145l83 31v158c0 10 9 19 19 19s18 -9 18 -19v-145l32 12c2 1 5 1 7 1c11 0 20 -9 20 -20v-60c0 -8 -5 -16 -13 -19l-46 -16v-160l32 11c2 1 5 1 7 1c11 0 20 -9 20 -20v-60c0 -8 -5 -15 -13 -18l-46 -17
v-158c0 -10 -8 -19 -18 -19s-19 9 -19 19v145l-83 -31v-158c0 -10 -9 -19 -19 -19s-18 9 -18 19v145l-32 -12c-2 -1 -5 -1 -7 -1c-11 0 -20 9 -20 20v60c0 8 5 16 13 19l46 16v160l-32 -11c-2 -1 -5 -1 -7 -1c-11 0 -20 9 -20 20v60zM179 95l-83 -30v-160l83 30v160z" fill="currentColor"/>
</g>
<g transform="translate(95.4380, 150.6207)">
<rect x="-0.0630" y="-5.5000" width="0.1259" height="5.5000" ry="0.0381" fill="currentColor"/>
</g>
<a style="color:inherit;" xlink:href="textedit:///Users/marc.mouries/projects/Sheet-Music/Practice/MyViolinPracticeBook/Violin-Practice-Book.ly:363:31:32">
<g transform="translate(83.8232, 142.9207)">
<path transform="scale(0.0040, -0.0040)" d="M87 51c-2 -2 -3 -4 -3 -6s1 -5 3 -7l109 -120c2 -2 4 -4 7 -4s5 2 7 4l28 31c2 2 3 4 3 6s-1 5 -3 7l-109 120c-2 2 -4 4 -7 4s-5 -2 -7 -4zM0 0c0 11 65 55 155 175c2 2 5 4 8 4c12 0 46 -67 159 -172c2 -2 3 -4 3 -7c0 -11 -65 -55 -155 -175c-2 -2 -4 -4 -7 -4
c-12 0 -47 67 -160 172c-2 2 -3 4 -3 7z" fill="currentColor"/>
</g>
</a>
<a style="color:inherit;" xlink:href="textedit:///Users/marc.mouries/projects/Sheet-Music/Practice/MyViolinPracticeBook/Violin-Practice-Book.ly:363:33:34">
<g transform="translate(84.0830, 141.6557)">
<path transform="scale(0.0022, -0.0022)" d="M261 266c0 -54 85 -40 85 -125c0 -94 -83 -141 -186 -141c-84 0 -160 54 -160 133c0 32 26 58 58 58s58 -26 58 -58c0 -22 -36 -26 -36 -48c0 -33 42 -42 80 -42c41 0 56 50 56 98v21c0 44 -2 77 -43 77h-65c-18 0 -27 14 -27 27s9 27 27 27h65c42 0 43 36 43 83v11
c0 43 -20 70 -61 70c-34 0 -71 -8 -71 -38c0 -19 32 -23 32 -42c0 -28 -23 -51 -51 -51s-51 23 -51 51c0 72 66 123 141 123c93 0 174 -31 174 -113c0 -94 -68 -67 -68 -121z" fill="currentColor"/>
</g>
</a>
<g transform="translate(83.8861, 150.6207)">
<rect x="-0.0630" y="-7.7000" width="0.1259" height="7.7000" ry="0.0381" fill="currentColor"/>
</g>
<a style="color:inherit;" xlink:href="textedit:///Users/marc.mouries/projects/Sheet-Music/Practice/MyViolinPracticeBook/Violin-Practice-Book.ly:365:6:7">
<g transform="translate(95.3750, 145.1207)">
<path transform="scale(0.0040, -0.0040)" d="M87 51c-2 -2 -3 -4 -3 -6s1 -5 3 -7l109 -120c2 -2 4 -4 7 -4s5 2 7 4l28 31c2 2 3 4 3 6s-1 5 -3 7l-109 120c-2 2 -4 4 -7 4s-5 -2 -7 -4zM0 0c0 11 65 55 155 175c2 2 5 4 8 4c12 0 46 -67 159 -172c2 -2 3 -4 3 -7c0 -11 -65 -55 -155 -175c-2 -2 -4 -4 -7 -4
c-12 0 -47 67 -160 172c-2 2 -3 4 -3 7z" fill="currentColor"/>
</g>
</a>
<a style="color:inherit;" xlink:href="textedit:///Users/marc.mouries/projects/Sheet-Music/Practice/MyViolinPracticeBook/Violin-Practice-Book.ly:365:8:9">
<g transform="translate(95.6348, 143.8557)">
<path transform="scale(0.0022, -0.0022)" d="M261 266c0 -54 85 -40 85 -125c0 -94 -83 -141 -186 -141c-84 0 -160 54 -160 133c0 32 26 58 58 58s58 -26 58 -58c0 -22 -36 -26 -36 -48c0 -33 42 -42 80 -42c41 0 56 50 56 98v21c0 44 -2 77 -43 77h-65c-18 0 -27 14 -27 27s9 27 27 27h65c42 0 43 36 43 83v11
c0 43 -20 70 -61 70c-34 0 -71 -8 -71 -38c0 -19 32 -23 32 -42c0 -28 -23 -51 -51 -51s-51 23 -51 51c0 72 66 123 141 123c93 0 174 -31 174 -113c0 -94 -68 -67 -68 -121z" fill="currentColor"/>
</g>
</a>
</svg>
